<svg id="svg" version="1.1" xmlns="http://www.w3.org/2000/svg" xmlns:xlink="http://www.w3.org/1999/xlink" width="400" height="400" viewBox="0, 0, 400,400"><g id="svgg"><path id="path1" d="M171.955 150.000 L 161.746 177.500 169.040 177.590 L 176.333 177.679 176.333 187.173 L 176.333 196.667 170.167 196.667 L 164.000 196.667 164.000 198.000 L 164.000 199.333 200.000 199.333 L 236.000 199.333 236.000 198.000 L 236.000 196.667 231.083 196.627 C 228.379 196.605,226.054 196.605,225.917 196.627 C 225.779 196.649,225.667 193.067,225.667 188.667 L 225.667 180.667 231.872 180.667 C 237.987 180.667,238.075 180.657,237.897 179.976 C 237.391 178.042,220.850 134.038,220.689 134.197 C 220.585 134.298,216.657 144.758,211.961 157.441 L 203.421 180.500 209.544 180.591 L 215.667 180.681 215.667 188.507 L 215.667 196.333 201.833 196.333 L 188.000 196.333 188.000 186.840 L 188.000 177.346 195.290 177.256 L 202.580 177.167 192.372 149.833 L 182.164 122.500 171.955 150.000 M200.685 125.626 C 199.398 126.500,200.672 128.436,202.596 128.531 C 205.280 128.663,208.548 130.996,210.693 134.311 L 211.218 135.121 212.267 133.597 C 214.477 130.385,218.143 128.121,220.667 128.410 C 221.329 128.486,221.518 128.279,221.869 127.094 L 222.285 125.688 221.124 125.470 C 218.674 125.010,215.254 126.273,212.633 128.604 L 211.100 129.968 210.008 128.842 C 207.656 126.414,202.263 124.554,200.685 125.626 M194.199 141.948 C 193.600 142.917,194.699 144.583,196.058 144.766 C 197.775 144.996,198.801 145.736,200.458 147.937 L 201.750 149.652 202.665 148.409 C 204.202 146.324,205.561 145.257,207.219 144.836 C 208.812 144.432,209.623 143.290,209.176 142.083 C 208.762 140.969,204.905 141.992,202.791 143.777 L 201.748 144.657 200.291 143.494 C 198.345 141.942,194.764 141.033,194.199 141.948 M183.000 147.000 L 183.000 148.667 181.333 148.667 L 179.667 148.667 179.667 147.000 L 179.667 145.333 181.333 145.333 L 183.000 145.333 183.000 147.000 M223.000 154.000 L 223.000 155.667 221.333 155.667 L 219.667 155.667 219.667 154.000 L 219.667 152.333 221.333 152.333 L 223.000 152.333 223.000 154.000 M179.667 155.333 L 179.667 157.000 178.000 157.000 L 176.333 157.000 176.333 155.333 L 176.333 153.667 178.000 153.667 L 179.667 153.667 179.667 155.333 M190.667 157.333 L 190.667 159.000 189.000 159.000 L 187.333 159.000 187.333 157.333 L 187.333 155.667 189.000 155.667 L 190.667 155.667 190.667 157.333 M219.667 162.333 L 219.667 164.000 218.000 164.000 L 216.333 164.000 216.333 162.333 L 216.333 160.667 218.000 160.667 L 219.667 160.667 219.667 162.333 M226.333 164.167 L 226.333 166.000 224.667 166.000 L 223.000 166.000 223.000 164.167 L 223.000 162.333 224.667 162.333 L 226.333 162.333 226.333 164.167 M181.333 164.500 L 181.333 166.333 179.667 166.333 L 178.000 166.333 178.000 164.500 L 178.000 162.667 179.667 162.667 L 181.333 162.667 181.333 164.500 M194.000 169.500 L 194.000 171.333 192.167 171.333 L 190.333 171.333 190.333 169.500 L 190.333 167.667 192.167 167.667 L 194.000 167.667 194.000 169.500 M172.620 170.833 L 172.642 172.667 170.821 172.667 L 169.000 172.667 169.000 170.833 L 169.000 169.000 170.799 169.000 L 172.598 169.000 172.620 170.833 M217.000 171.667 L 217.000 173.333 215.333 173.333 L 213.667 173.333 213.667 171.667 L 213.667 170.000 215.333 170.000 L 217.000 170.000 217.000 171.667 M226.333 174.500 L 226.333 176.333 224.500 176.333 L 222.667 176.333 222.667 174.500 L 222.667 172.667 224.500 172.667 L 226.333 172.667 226.333 174.500 M185.000 187.167 L 185.000 196.667 182.694 196.667 C 179.015 196.667,179.333 197.585,179.333 186.964 L 179.333 177.667 182.167 177.667 L 185.000 177.667 185.000 187.167 M223.000 188.500 L 223.000 196.333 220.833 196.333 L 218.667 196.333 218.667 188.500 L 218.667 180.667 220.833 180.667 L 223.000 180.667 223.000 188.500 M222.000 224.167 L 222.000 237.000 223.167 237.000 L 224.333 237.000 224.333 234.406 L 224.333 231.812 226.260 229.906 C 228.718 227.474,228.267 227.281,232.333 232.500 L 235.833 236.991 237.270 236.996 C 238.060 236.998,238.634 236.887,238.545 236.750 C 238.457 236.612,236.570 234.175,234.352 231.333 L 230.319 226.167 234.129 222.417 L 237.939 218.667 236.552 218.667 C 235.226 218.667,234.928 218.886,229.832 223.616 L 224.500 228.566 224.411 219.950 L 224.322 211.333 223.161 211.333 L 222.000 211.333 222.000 224.167 M164.667 224.797 L 164.667 237.000 166.000 237.000 L 167.333 237.000 167.333 233.209 L 167.333 229.417 172.083 229.268 C 180.163 229.015,183.319 226.692,183.319 221.000 C 183.319 214.962,180.242 212.937,170.750 212.728 L 164.667 212.594 164.667 224.797 M177.719 215.651 C 181.324 217.354,182.142 222.499,179.244 225.229 C 177.678 226.704,176.403 227.000,171.617 227.000 L 167.333 227.000 167.333 220.782 L 167.333 214.564 171.803 214.766 C 175.317 214.925,176.582 215.114,177.719 215.651 M192.667 218.878 C 188.999 219.576,187.000 220.857,187.894 221.934 L 188.500 222.665 190.284 221.773 C 194.709 219.561,198.953 221.065,199.513 225.044 L 199.731 226.588 195.282 226.729 C 188.826 226.935,186.998 228.077,187.001 231.900 C 187.005 236.925,194.662 239.002,198.750 235.087 L 199.667 234.209 199.667 235.604 C 199.667 236.986,199.679 237.000,200.872 237.000 L 202.078 237.000 201.948 230.417 C 201.752 220.447,199.450 217.585,192.667 218.878 M208.667 227.833 L 208.667 237.000 209.833 237.000 L 211.000 237.000 211.000 231.219 C 211.000 223.571,212.360 221.000,216.404 221.000 C 217.244 221.000,217.333 220.888,217.333 219.833 C 217.333 218.494,217.174 218.453,214.764 219.169 C 213.588 219.518,212.708 220.076,211.870 221.003 L 210.667 222.335 210.667 220.501 C 210.667 218.685,210.657 218.667,209.667 218.667 L 208.667 218.667 208.667 227.833 M199.603 229.929 C 199.991 235.300,190.487 237.531,189.230 232.364 C 189.069 231.702,189.718 229.346,190.066 229.328 C 190.122 229.326,190.767 229.105,191.500 228.837 C 192.403 228.508,193.910 228.375,196.167 228.426 L 199.500 228.500 199.603 229.929 " stroke="none" fill="#f2f3f2" fill-rule="evenodd"></path><path id="path2" d="M221.818 224.167 C 221.818 231.317,221.862 234.194,221.916 230.561 C 221.970 226.928,221.970 221.078,221.916 217.561 C 221.862 214.044,221.818 217.017,221.818 224.167 M231.812 224.750 L 230.833 225.833 231.917 224.854 C 232.512 224.316,233.000 223.828,233.000 223.771 C 233.000 223.513,232.725 223.740,231.812 224.750 M199.251 234.583 C 199.184 234.721,199.230 235.358,199.354 236.000 L 199.579 237.167 199.623 235.750 C 199.664 234.420,199.532 234.006,199.251 234.583 " stroke="none" fill="#acd48b" fill-rule="evenodd"></path><path id="path3" d="M178.750 162.905 C 179.254 162.982,180.079 162.982,180.583 162.905 C 181.088 162.829,180.675 162.767,179.667 162.767 C 178.658 162.767,178.246 162.829,178.750 162.905 M178.750 166.239 C 179.254 166.315,180.079 166.315,180.583 166.239 C 181.088 166.162,180.675 166.100,179.667 166.100 C 178.658 166.100,178.246 166.162,178.750 166.239 M190.333 169.500 L 190.333 171.333 192.250 171.272 L 194.167 171.210 192.417 171.088 L 190.667 170.965 190.667 169.500 L 190.667 168.035 192.417 167.912 L 194.167 167.790 192.250 167.728 L 190.333 167.667 190.333 169.500 M170.562 169.245 C 171.842 169.335,172.330 169.514,172.440 169.933 C 172.547 170.340,172.600 170.288,172.628 169.750 C 172.664 169.048,172.544 169.004,170.750 169.062 L 168.833 169.123 170.562 169.245 M172.411 171.667 C 172.411 172.308,172.479 172.571,172.563 172.250 C 172.647 171.929,172.647 171.404,172.563 171.083 C 172.479 170.762,172.411 171.025,172.411 171.667 M222.728 174.417 L 222.667 176.333 224.583 176.272 L 226.500 176.210 224.767 176.088 L 223.034 175.966 222.912 174.233 L 222.790 172.500 222.728 174.417 M191.583 177.582 C 193.646 177.641,197.021 177.641,199.083 177.582 C 201.146 177.524,199.458 177.476,195.333 177.476 C 191.208 177.476,189.521 177.524,191.583 177.582 M179.480 187.000 C 179.480 192.225,179.526 194.362,179.583 191.750 C 179.639 189.137,179.639 184.862,179.583 182.250 C 179.526 179.637,179.480 181.775,179.480 187.000 M184.667 186.985 L 184.667 196.304 182.250 196.419 L 179.833 196.534 182.417 196.600 L 185.000 196.667 185.000 187.167 C 185.000 181.942,184.925 177.667,184.833 177.667 C 184.742 177.667,184.667 181.860,184.667 186.985 M231.917 180.583 L 225.667 180.681 225.744 188.757 L 225.821 196.833 225.916 188.917 L 226.012 181.000 232.173 181.000 C 236.058 181.000,238.333 180.877,238.333 180.667 C 238.333 180.483,238.296 180.367,238.250 180.409 C 238.204 180.450,235.354 180.529,231.917 180.583 M206.434 180.915 C 208.231 180.975,211.081 180.975,212.767 180.915 C 214.454 180.854,212.983 180.805,209.500 180.806 C 206.017 180.806,204.637 180.855,206.434 180.915 M218.744 188.583 L 218.820 196.500 218.916 188.750 L 219.012 181.000 220.833 181.000 L 222.654 181.000 222.750 188.750 L 222.846 196.500 222.923 188.583 L 223.000 180.667 220.833 180.667 L 218.667 180.667 218.744 188.583 M167.101 196.582 C 168.898 196.642,171.748 196.642,173.434 196.581 C 175.120 196.521,173.650 196.472,170.167 196.472 C 166.683 196.473,165.304 196.522,167.101 196.582 M231.083 196.583 L 236.000 196.684 236.000 198.007 L 236.000 199.330 199.917 199.417 L 163.833 199.503 200.083 199.585 L 236.333 199.667 236.333 198.000 L 236.333 196.333 231.250 196.407 L 226.167 196.481 231.083 196.583 M168.928 214.913 C 169.896 214.980,171.396 214.980,172.261 214.911 C 173.126 214.843,172.333 214.788,170.500 214.788 C 168.667 214.789,167.959 214.845,168.928 214.913 M208.480 227.833 C 208.480 232.967,208.526 235.020,208.583 232.396 C 208.639 229.773,208.639 225.573,208.582 223.063 C 208.526 220.553,208.480 222.700,208.480 227.833 M217.417 219.833 C 217.421 220.567,217.489 220.827,217.569 220.413 C 217.649 219.998,217.646 219.398,217.562 219.079 C 217.479 218.761,217.414 219.100,217.417 219.833 M235.322 221.250 L 233.500 223.167 235.417 221.345 C 237.197 219.652,237.486 219.333,237.239 219.333 C 237.187 219.333,236.324 220.196,235.322 221.250 M193.750 220.896 C 194.071 220.980,194.596 220.980,194.917 220.896 C 195.237 220.813,194.975 220.744,194.333 220.744 C 193.692 220.744,193.429 220.813,193.750 220.896 M195.899 228.575 L 199.298 228.690 199.426 230.095 L 199.554 231.500 199.527 230.000 L 199.500 228.500 196.000 228.481 L 192.500 228.461 195.899 228.575 " stroke="none" fill="#bcdca6" fill-rule="evenodd"></path><path id="path4" d="M177.083 153.905 C 177.588 153.982,178.412 153.982,178.917 153.905 C 179.421 153.829,179.008 153.767,178.000 153.767 C 176.992 153.767,176.579 153.829,177.083 153.905 M188.083 158.905 C 188.588 158.982,189.412 158.982,189.917 158.905 C 190.421 158.829,190.008 158.767,189.000 158.767 C 187.992 158.767,187.579 158.829,188.083 158.905 M223.750 162.572 C 224.254 162.648,225.079 162.648,225.583 162.572 C 226.088 162.496,225.675 162.433,224.667 162.433 C 223.658 162.433,223.246 162.496,223.750 162.572 M223.750 165.905 C 224.254 165.982,225.079 165.982,225.583 165.905 C 226.088 165.829,225.675 165.767,224.667 165.767 C 223.658 165.767,223.246 165.829,223.750 165.905 M193.762 169.500 C 193.765 170.417,193.829 170.752,193.906 170.245 C 193.982 169.739,193.980 168.989,193.901 168.579 C 193.822 168.169,193.760 168.583,193.762 169.500 M169.060 170.917 L 169.000 172.667 170.750 172.607 L 172.500 172.547 170.934 172.422 L 169.368 172.298 169.244 170.732 L 169.120 169.167 169.060 170.917 M224.399 172.911 L 225.965 173.035 226.089 174.601 L 226.213 176.167 226.273 174.417 L 226.333 172.667 224.583 172.727 L 222.833 172.787 224.399 172.911 M210.767 220.333 C 210.767 221.342,210.829 221.754,210.905 221.250 C 210.982 220.746,210.982 219.921,210.905 219.417 C 210.829 218.912,210.767 219.325,210.767 220.333 " stroke="none" fill="#bcdc9c" fill-rule="evenodd"></path><path id="path5" d="M180.417 145.572 C 180.921 145.648,181.746 145.648,182.250 145.572 C 182.754 145.496,182.342 145.433,181.333 145.433 C 180.325 145.433,179.912 145.496,180.417 145.572 M222.667 153.815 L 222.667 155.297 221.083 155.422 L 219.500 155.547 221.250 155.607 L 223.000 155.667 223.000 154.000 C 223.000 153.083,222.925 152.333,222.833 152.333 C 222.742 152.333,222.667 153.000,222.667 153.815 M179.429 155.500 C 179.431 156.417,179.496 156.752,179.573 156.245 C 179.649 155.739,179.647 154.989,179.568 154.579 C 179.489 154.169,179.426 154.583,179.429 155.500 M187.429 157.167 C 187.431 158.083,187.496 158.419,187.573 157.912 C 187.649 157.405,187.647 156.655,187.568 156.245 C 187.489 155.835,187.426 156.250,187.429 157.167 M217.750 160.912 L 219.333 161.037 219.333 162.333 L 219.333 163.630 217.750 163.755 L 216.167 163.880 217.917 163.940 L 219.667 164.000 219.667 162.333 L 219.667 160.667 217.917 160.727 L 216.167 160.787 217.750 160.912 M223.095 164.167 C 223.098 165.083,223.163 165.419,223.239 164.912 C 223.316 164.405,223.314 163.655,223.235 163.245 C 223.156 162.835,223.093 163.250,223.095 164.167 M181.091 164.333 C 181.091 165.158,181.156 165.496,181.235 165.083 C 181.315 164.671,181.315 163.996,181.235 163.583 C 181.156 163.171,181.091 163.508,181.091 164.333 M213.667 171.667 L 213.667 173.333 215.250 173.275 L 216.833 173.217 215.417 173.089 C 214.015 172.963,214.000 172.948,214.000 171.666 L 214.000 170.370 215.583 170.245 L 217.167 170.120 215.417 170.060 L 213.667 170.000 213.667 171.667 M219.923 196.242 C 220.522 196.316,221.422 196.314,221.923 196.238 C 222.424 196.162,221.933 196.101,220.833 196.103 C 219.733 196.105,219.324 196.167,219.923 196.242 M163.757 198.333 C 163.757 199.158,163.822 199.496,163.902 199.083 C 163.981 198.671,163.981 197.996,163.902 197.583 C 163.822 197.171,163.757 197.508,163.757 198.333 " stroke="none" fill="#93cc6a" fill-rule="evenodd"></path><path id="path6" d="" stroke="none" fill="#9ccc6c" fill-rule="evenodd"></path><path id="path7" d="" stroke="none" fill="#8dc45e" fill-rule="evenodd"></path><path id="path8" d="" stroke="none" fill="#8cc454" fill-rule="evenodd"></path><path id="path0" d="M0.000 200.000 L 0.000 400.000 200.000 400.000 L 400.000 400.000 400.000 200.000 L 400.000 0.000 200.000 0.000 L 0.000 0.000 0.000 200.000 M192.522 149.500 C 198.069 164.350,202.712 176.762,202.840 177.083 C 203.056 177.629,202.578 177.667,195.536 177.667 L 188.000 177.667 188.000 187.000 L 188.000 196.333 201.833 196.333 L 215.667 196.333 215.667 188.667 L 215.667 181.000 209.298 181.000 C 203.366 181.000,202.945 180.960,203.160 180.417 C 203.287 180.096,207.219 169.483,211.898 156.833 C 216.577 144.183,220.513 133.717,220.645 133.575 C 220.776 133.432,224.859 144.007,229.717 157.075 L 238.549 180.833 232.275 180.924 L 226.000 181.014 226.000 188.674 L 226.000 196.333 231.167 196.333 L 236.333 196.333 236.333 198.000 L 236.333 199.667 200.000 199.667 L 163.667 199.667 163.667 198.000 L 163.667 196.333 170.000 196.333 L 176.333 196.333 176.333 187.006 L 176.333 177.679 168.910 177.590 L 161.486 177.500 171.826 149.622 C 177.513 134.288,182.227 121.913,182.301 122.122 C 182.375 122.330,186.974 134.650,192.522 149.500 M206.500 126.144 C 207.417 126.564,208.843 127.509,209.671 128.245 L 211.174 129.584 212.621 128.300 C 215.333 125.893,221.250 124.139,222.486 125.375 C 223.380 126.269,221.547 128.586,219.802 128.766 C 216.873 129.068,214.400 130.856,212.012 134.395 L 211.191 135.613 210.142 134.056 C 207.920 130.761,204.804 128.667,202.121 128.667 C 200.718 128.667,200.701 128.653,200.255 127.083 L 199.804 125.500 200.819 125.282 C 202.362 124.950,204.648 125.297,206.500 126.144 M198.756 142.208 C 199.348 142.512,200.260 143.116,200.780 143.551 L 201.727 144.341 202.737 143.492 C 204.674 141.862,206.875 141.155,208.854 141.526 L 209.920 141.726 209.396 143.363 C 208.928 144.828,208.771 145.000,207.903 145.000 C 205.982 145.000,204.630 146.060,202.234 149.444 C 201.835 150.008,201.699 149.920,200.484 148.305 C 198.799 146.066,197.688 145.260,195.959 145.023 C 194.667 144.846,193.834 143.664,193.672 141.774 C 193.619 141.166,197.343 141.484,198.756 142.208 M179.667 147.000 L 179.667 148.333 181.333 148.333 L 183.000 148.333 183.000 147.000 L 183.000 145.667 181.333 145.667 L 179.667 145.667 179.667 147.000 M219.667 153.833 L 219.667 155.333 221.167 155.333 L 222.667 155.333 222.667 153.833 L 222.667 152.333 221.167 152.333 L 219.667 152.333 219.667 153.833 M176.333 155.500 L 176.333 157.000 177.833 157.000 L 179.333 157.000 179.333 155.500 L 179.333 154.000 177.833 154.000 L 176.333 154.000 176.333 155.500 M187.667 157.167 L 187.667 158.667 189.167 158.667 L 190.667 158.667 190.667 157.167 L 190.667 155.667 189.167 155.667 L 187.667 155.667 187.667 157.167 M216.333 162.333 L 216.333 163.667 217.833 163.667 L 219.333 163.667 219.333 162.333 L 219.333 161.000 217.833 161.000 L 216.333 161.000 216.333 162.333 M223.333 164.167 L 223.333 165.667 224.833 165.667 L 226.333 165.667 226.333 164.167 L 226.333 162.667 224.833 162.667 L 223.333 162.667 223.333 164.167 M178.000 164.500 L 178.000 166.000 179.500 166.000 L 181.000 166.000 181.000 164.500 L 181.000 163.000 179.500 163.000 L 178.000 163.000 178.000 164.500 M190.667 169.500 L 190.667 171.000 192.167 171.000 L 193.667 171.000 193.667 169.500 L 193.667 168.000 192.167 168.000 L 190.667 168.000 190.667 169.500 M169.333 170.833 L 169.333 172.333 170.833 172.333 L 172.333 172.333 172.333 170.833 L 172.333 169.333 170.833 169.333 L 169.333 169.333 169.333 170.833 M214.000 171.667 L 214.000 173.000 215.500 173.000 L 217.000 173.000 217.000 171.667 L 217.000 170.333 215.500 170.333 L 214.000 170.333 214.000 171.667 M223.000 174.500 L 223.000 176.000 224.500 176.000 L 226.000 176.000 226.000 174.500 L 226.000 173.000 224.500 173.000 L 223.000 173.000 223.000 174.500 M179.667 187.000 L 179.667 196.333 182.167 196.333 L 184.667 196.333 184.667 187.000 L 184.667 177.667 182.167 177.667 L 179.667 177.667 179.667 187.000 M219.000 188.500 L 219.000 196.000 220.833 196.000 L 222.667 196.000 222.667 188.500 L 222.667 181.000 220.833 181.000 L 219.000 181.000 219.000 188.500 M224.411 219.793 L 224.500 228.253 229.653 223.460 L 234.805 218.667 236.539 218.667 L 238.273 218.667 234.444 222.422 L 230.615 226.177 232.570 228.672 C 233.645 230.044,235.544 232.479,236.790 234.083 L 239.055 237.000 237.278 236.988 L 235.500 236.975 232.005 232.491 L 228.510 228.008 226.422 230.078 L 224.333 232.147 224.333 234.574 L 224.333 237.000 223.000 237.000 L 221.667 237.000 221.667 224.167 L 221.667 211.333 222.994 211.333 L 224.322 211.333 224.411 219.793 M177.971 213.189 C 185.547 215.439,185.547 226.561,177.971 228.811 C 176.759 229.171,174.833 229.333,171.773 229.333 L 167.333 229.333 167.333 233.167 L 167.333 237.000 166.000 237.000 L 164.667 237.000 164.667 224.833 L 164.667 212.667 170.439 212.667 C 174.710 212.667,176.670 212.803,177.971 213.189 M167.333 220.962 L 167.333 227.000 170.817 227.000 C 177.994 227.000,180.667 225.366,180.667 220.979 C 180.667 216.709,178.499 215.242,171.917 215.055 L 167.333 214.924 167.333 220.962 M198.500 219.294 C 201.562 220.700,201.967 221.990,201.985 230.417 L 202.000 237.000 200.667 237.000 C 199.399 237.000,199.333 236.949,199.333 235.970 L 199.333 234.941 198.308 235.804 C 194.393 239.098,187.184 236.937,186.742 232.338 C 186.352 228.275,188.342 226.879,194.750 226.718 L 199.333 226.603 199.333 225.551 C 199.331 221.306,192.889 219.368,189.307 222.535 C 188.542 223.211,188.212 223.116,187.575 222.038 C 186.938 220.959,187.021 220.830,188.998 219.824 C 191.629 218.486,196.187 218.232,198.500 219.294 M211.000 220.062 L 211.000 221.458 211.917 220.580 C 214.284 218.312,217.667 217.946,217.667 219.958 L 217.667 221.249 216.043 221.405 C 212.098 221.784,211.204 223.549,211.056 231.250 L 210.945 237.000 209.639 237.000 L 208.333 237.000 208.333 227.833 L 208.333 218.667 209.667 218.667 L 211.000 218.667 211.000 220.062 M191.081 229.165 C 187.817 230.583,189.330 234.646,193.227 234.928 C 196.785 235.185,199.329 233.167,199.332 230.083 L 199.333 228.667 195.750 228.680 C 193.420 228.688,191.787 228.858,191.081 229.165 " stroke="none" fill="#74bc3c" fill-rule="evenodd"></path></g></svg>