<svg width="120" height="120" viewBox="0 0 120 120" fill="none" xmlns="http://www.w3.org/2000/svg">
<path fill-rule="evenodd" clip-rule="evenodd" d="M91.4062 0C108.75 0 120 11.25 120 28.5938V91.4062C120 108.75 108.75 120 91.4062 120H28.5938C11.25 120 0 108.75 0 91.4062V28.5938C0 11.25 11.25 0 28.5938 0H91.4062Z" fill="white"/>
<mask id="mask0" mask-type="alpha" maskUnits="userSpaceOnUse" x="0" y="0" width="120" height="120">
<path fill-rule="evenodd" clip-rule="evenodd" d="M91.4062 0C108.75 0 120 11.25 120 28.5938V91.4062C120 108.75 108.75 120 91.4062 120H28.5938C11.25 120 0 108.75 0 91.4062V28.5938C0 11.25 11.25 0 28.5938 0H91.4062Z" fill="white"/>
</mask>
<g mask="url(#mask0)">
<mask id="mask1" mask-type="alpha" maskUnits="userSpaceOnUse" x="31" y="8" width="76" height="138">
<path fill-rule="evenodd" clip-rule="evenodd" d="M68.7614 8C88.7967 8 104.533 22.8041 104.775 41.1555L64.0152 41.1545C64.2025 41.2203 72.8106 44.203 82.0644 48.8957C90.0189 52.9294 98.8083 58.5027 103.486 65.8665C106.439 70.514 107.853 76.1537 106.461 82.122C104.608 90.0729 99.4123 97.9205 92.8487 106.515C77.7573 126.278 59.6159 146 59.6159 146L60.2225 128.346L38.0119 128.115C38.0119 128.115 34.4452 119.287 32.9278 107.368C31.6729 97.512 31.0422 85.4703 31.0019 77.725C30.9399 65.772 32.4045 41.1545 32.4045 41.1545C32.656 22.8035 48.7264 8 68.7614 8Z" fill="white"/>
</mask>
<g mask="url(#mask1)">
<path fill-rule="evenodd" clip-rule="evenodd" d="M65 10C47.5025 9 32.2213 22.7757 32 41.0869L96 29.5C74 20.5 73.5025 24 65 10Z" fill="#3AB549"/>
<path fill-rule="evenodd" clip-rule="evenodd" d="M65 10C47.5025 9 32.2213 22.7757 32 41.0869L96 29.5C74 20.5 73.5025 24 65 10Z" fill="url(#paint0_linear)"/>
<path fill-rule="evenodd" clip-rule="evenodd" d="M78.5011 25.1896C78.5011 16.2729 68.9829 9.06395 60 9H25.8693V41.5039L23.298 41.5127C23.298 41.5127 21.9444 65.9955 22.0018 77.9263C22.039 85.6572 22.5768 98.2275 23.7378 108.066C25.1416 119.962 28.4908 128.542 28.4908 128.542H49.7118L55.2434 146.961C55.2434 146.961 64.8376 148.718 78.5011 128.542C85.6694 117.957 90.2851 91.9362 92 84C93.3124 77.9263 93.0922 69.8442 90.3608 65.2054C88.2167 61.564 83.506 56.461 77.0317 51.3052C71.0709 46.5582 63.5376 42.2821 62.1466 41.505C70.987 41.2881 78.5011 34.0085 78.5011 25.1896Z" fill="#383838"/>
<path d="M61.2388 29.4266C63.7241 29.4266 65.7388 27.4119 65.7388 24.9266C65.7388 22.4414 63.7241 20.4266 61.2388 20.4266C58.7535 20.4266 56.7388 22.4414 56.7388 24.9266C56.7388 27.4119 58.7535 29.4266 61.2388 29.4266Z" stroke="#E5E5E5" stroke-width="2.5"/>
<path fill-rule="evenodd" clip-rule="evenodd" d="M30.4099 106.886C31.0691 107.615 33.0025 107.287 33.0025 107.287C33.0025 107.287 60.5453 105.487 75.2009 92.5674C80.9899 87.4644 86.4491 79.5 84.7082 71.3427C84.0418 68.2201 83.0707 65.5278 81.6254 63.2674C78.4044 58.23 73.4428 55.3185 68.6026 54.4354C56.575 52.241 42.2459 62.0643 35.1671 75.3374C32.6458 80.0652 30.4099 84.5929 30.4099 90.0603C30.4099 104.686 29.7732 106.182 30.4099 106.886Z" fill="white"/>
<path fill-rule="evenodd" clip-rule="evenodd" d="M14.1426 105.272C14.1426 105.272 69.711 105.79 79.9911 78.7065C83.8522 68.5341 79.4603 61.8702 75.918 58.142C70.0292 51.944 61.3794 52.8406 61.3794 52.8406C61.3794 52.8406 53.3993 53.1295 45.605 59.9362C41.8691 63.1988 38.3226 68.1797 35.4077 73.1927C32.8691 77.5586 30.8503 81.927 29.0819 85.4862C21.0861 101.578 14.1426 105.272 14.1426 105.272Z" fill="url(#paint1_linear)"/>
</g>
<mask id="mask2" mask-type="alpha" maskUnits="userSpaceOnUse" x="14" y="52" width="68" height="54">
<path fill-rule="evenodd" clip-rule="evenodd" d="M14.1426 105.272C14.1426 105.272 69.711 105.79 79.9911 78.7065C83.8522 68.5341 79.4603 61.8702 75.918 58.142C70.0292 51.944 61.3794 52.8406 61.3794 52.8406C61.3794 52.8406 53.3993 53.1295 45.605 59.9362C41.8691 63.1988 38.3226 68.1797 35.4077 73.1927C32.8691 77.5586 30.8503 81.927 29.0819 85.4862C21.0861 101.578 14.1426 105.272 14.1426 105.272Z" fill="white"/>
</mask>
<g mask="url(#mask2)">
<path fill-rule="evenodd" clip-rule="evenodd" d="M39.9341 66.0409C39.9341 66.0409 60.3614 57.8132 51.9161 74.3977C49.2028 79.452 54.2069 76.368 59.2706 73.717C64.3344 71.0661 67.1608 71.0855 67.1608 71.0855C67.1608 71.0855 72.7484 70.5119 70.4418 74.8785C68.1353 79.2449 55.5929 89.7636 55.5929 89.7636C55.5929 89.7636 50.8791 93.2482 59.02 91.9175C67.1608 90.587 57.1063 99.4494 54.2879 101.298C51.4697 103.146 34.3147 106.802 34.3147 106.802L14.8351 107L11 100.925L39.9341 66.0409Z" fill="#484848"/>
</g>
<path d="M77 24C77 32.2843 69.6127 39 60.5 39C51.3873 39 33 42.7843 33 34.5C36.5 12 50.3873 9 59.5 9C68.6127 9 77 15.7157 77 24Z" fill="#383838"/>
<ellipse cx="58" cy="24.5" rx="6" ry="5.5" fill="#69BD44"/>
</g>
<defs>
<linearGradient id="paint0_linear" x1="65" y1="8" x2="65" y2="41.0869" gradientUnits="userSpaceOnUse">
<stop offset="0.460908" stop-color="#69BD44"/>
<stop offset="0.740474" stop-color="#328C3D"/>
</linearGradient>
<linearGradient id="paint1_linear" x1="52.7399" y1="100.775" x2="77.3491" y2="71.7701" gradientUnits="userSpaceOnUse">
<stop stop-color="#69BD44"/>
<stop offset="1" stop-color="#3AB549"/>
</linearGradient>
</defs>
</svg>
