<?xml version="1.0" standalone="no"?>
<!DOCTYPE svg PUBLIC "-//W3C//DTD SVG 20010904//EN"
 "http://www.w3.org/TR/2001/REC-SVG-20010904/DTD/svg10.dtd">
<svg version="1.0" xmlns="http://www.w3.org/2000/svg"
 width="192.000000pt" height="192.000000pt" viewBox="0 0 192.000000 192.000000"
 preserveAspectRatio="xMidYMid meet">
<metadata>
Created by potrace 1.10, written by Peter Selinger 2001-2011
</metadata>
<g transform="translate(0.000000,192.000000) scale(0.100000,-0.100000)"
fill="#000000" stroke="none">
<path d="M760 1719 c-101 -26 -205 -78 -290 -146 -39 -31 -69 -57 -68 -59 6
-5 821 -224 824 -221 2 2 -24 103 -58 225 l-61 222 -136 -1 c-101 0 -155 -5
-211 -20z m349 -87 c39 -134 81 -295 78 -299 -3 -2 -42 7 -88 20 -46 14 -205
57 -354 97 -148 40 -272 75 -275 77 -9 9 67 66 130 98 114 57 192 77 335 84
72 3 135 3 142 -2 6 -5 21 -38 32 -75z"/>
<path d="M1152 1717 c3 -7 56 -198 119 -424 l114 -413 164 164 164 164 -16 44
c-55 142 -212 321 -344 391 -89 47 -206 90 -201 74z m203 -112 c122 -68 249
-209 305 -340 l21 -49 -137 -137 c-76 -76 -141 -136 -146 -133 -4 3 -12 24
-18 47 -12 49 -29 112 -40 147 -4 14 -13 43 -19 65 -6 22 -25 90 -42 150 -27
98 -41 148 -68 250 -4 17 -11 40 -15 53 l-8 22 51 -19 c27 -10 80 -35 116 -56z"/>
<path d="M326 1427 c-55 -75 -92 -154 -122 -257 -24 -83 -26 -103 -22 -238 2
-81 8 -155 14 -164 8 -15 55 28 314 287 167 167 302 306 300 308 -7 4 -426
117 -437 117 -4 0 -25 -24 -47 -53z m104 8 c8 -3 86 -23 173 -47 l157 -42
-269 -270 c-149 -149 -274 -267 -278 -262 -9 9 -7 302 2 317 4 6 9 25 12 42 6
42 84 191 124 240 22 26 36 36 48 32 9 -4 23 -8 31 -10z"/>
<path d="M1000 1260 c0 -5 -7 -7 -15 -4 -24 10 -87 -16 -81 -33 3 -8 2 -12 -3
-9 -5 3 -11 -1 -15 -9 -3 -9 3 -19 15 -25 11 -6 17 -15 14 -21 -8 -12 22 -12
46 2 17 9 21 7 26 -10 3 -12 9 -21 14 -21 12 0 12 -27 0 -34 -18 -11 -41 7
-42 33 -1 17 -3 20 -6 9 -6 -23 -18 -23 -43 2 -11 11 -20 17 -20 14 0 -4 -7
-1 -15 6 -16 14 -65 6 -65 -11 0 -6 -4 -7 -10 -4 -5 3 -10 -3 -10 -14 0 -12 6
-21 13 -22 6 -1 1 -4 -13 -8 -16 -4 -25 -14 -25 -26 0 -11 -7 -20 -15 -20 -20
0 -38 -51 -23 -66 15 -15 63 -3 63 16 0 23 13 18 38 -15 20 -24 27 -28 43 -20
10 6 18 15 16 21 -3 15 36 21 44 7 6 -9 12 -8 24 2 20 16 65 22 65 9 0 -6 5
-7 10 -4 13 8 8 -18 -5 -27 -18 -13 -28 -8 -15 7 7 8 11 15 9 16 -40 9 -50 5
-46 -18 2 -13 0 -26 -4 -29 -15 -9 20 -37 37 -30 8 3 13 9 10 14 -2 4 4 9 15
9 32 3 42 -33 35 -116 -14 -148 -14 -191 1 -200 14 -8 28 -111 15 -111 -16 1
-174 48 -180 54 -3 4 2 31 12 61 10 29 16 60 13 68 -3 8 1 24 8 35 8 10 12 22
9 24 -3 3 7 8 21 12 21 5 25 12 25 41 0 18 -4 36 -8 39 -4 2 -8 -11 -8 -29 0
-41 -5 -47 -38 -49 -13 0 -24 -3 -24 -6 1 -18 -5 -19 -27 -4 -14 9 -22 20 -19
25 3 5 1 9 -5 9 -5 0 -12 10 -14 23 -4 20 -4 19 -6 -4 0 -15 5 -32 13 -39 8
-6 12 -18 9 -26 -3 -8 1 -14 11 -14 9 0 16 -8 16 -17 0 -15 2 -14 14 3 14 19
14 19 13 -1 -1 -11 -10 -26 -19 -33 -18 -13 -26 -38 -9 -27 5 3 12 1 15 -4 10
-16 -11 -22 -24 -6 -18 21 -50 -2 -50 -37 0 -16 -1 -28 -3 -28 -1 0 -18 5 -37
11 -19 5 -43 12 -53 14 -10 2 -26 7 -36 10 -15 4 -10 -24 34 -192 29 -109 55
-210 58 -224 6 -22 14 -27 53 -33 80 -11 216 -6 283 9 129 31 262 98 360 182
l34 29 -194 55 c-172 48 -194 57 -191 74 3 20 2 20 -13 1 -15 -19 -15 -19 -17
5 -3 48 -4 55 -17 114 -8 37 -11 90 -7 135 8 113 8 131 -6 148 -11 13 -10 14
2 10 8 -2 16 -17 18 -31 6 -46 18 -21 16 32 -1 41 2 50 18 54 14 4 18 2 14
-10 -3 -8 -6 -24 -6 -36 0 -18 -2 -19 -10 -7 -8 12 -10 11 -10 -7 l0 -23 36
21 c24 13 40 17 48 10 7 -6 18 -6 26 -1 11 7 11 11 1 24 -11 13 -9 17 12 25
20 8 25 16 24 44 -1 26 -5 33 -16 29 -9 -4 -12 -1 -7 7 5 8 -6 17 -33 28 -22
9 -38 19 -36 24 3 4 1 10 -5 14 -5 3 -10 1 -10 -4 0 -6 -5 -11 -10 -11 -7 0
-6 8 2 23 7 12 12 26 13 31 0 5 8 10 17 12 11 1 15 -3 11 -12 -3 -8 -9 -14
-14 -14 -4 0 -6 -7 -3 -15 4 -8 11 -12 18 -8 15 10 40 13 31 5 -4 -4 -12 -7
-18 -7 -5 0 -12 -5 -14 -10 -2 -6 8 -11 23 -11 22 0 25 3 19 26 -3 14 -7 35
-8 47 -3 29 -12 36 -47 35 -17 0 -28 4 -25 9 14 22 -44 7 -59 -16 -20 -30 -21
-65 -2 -65 19 0 30 17 15 22 -7 2 -4 10 7 18 16 14 17 13 11 -2 -4 -11 -2 -18
6 -18 7 0 4 -5 -6 -11 -9 -6 -15 -14 -12 -20 3 -5 -1 -6 -9 -3 -11 4 -16 0
-16 -14 0 -11 8 -23 17 -26 14 -6 15 -9 4 -15 -16 -10 -58 8 -58 26 0 6 4 10
8 8 11 -8 17 33 6 44 -7 7 -7 18 2 37 11 25 10 26 -9 21 -16 -4 -20 -2 -16 8
3 8 -2 21 -10 30 -17 17 -34 20 -34 5z m-30 -50 c0 -21 -4 -28 -14 -24 -11 4
-11 10 -2 30 14 31 16 30 16 -6z m59 -7 c14 -11 14 -14 1 -24 -11 -8 -12 -12
-2 -16 6 -2 10 -9 7 -14 -4 -5 -12 -3 -20 4 -11 10 -11 15 2 30 18 19 4 24
-15 5 -18 -18 -23 -5 -9 25 6 14 14 21 16 14 2 -7 11 -18 20 -24z m131 -3 c0
-5 -5 -10 -11 -10 -5 0 -7 5 -4 10 3 6 8 10 11 10 2 0 4 -4 4 -10z m-306 -95
c-4 -15 -2 -25 5 -25 6 0 10 5 9 11 -2 6 5 13 15 14 9 2 17 -1 17 -6 0 -5 -5
-9 -11 -9 -6 0 -9 -7 -6 -15 7 -18 -9 -30 -16 -13 -3 7 -3 -2 0 -19 4 -22 1
-33 -6 -33 -7 0 -9 5 -5 13 5 7 0 6 -11 -3 -10 -8 -16 -10 -12 -3 12 20 -32
26 -61 8 l-27 -16 23 20 c12 10 21 25 19 33 -2 7 -2 9 1 5 4 -8 35 29 38 46 1
4 2 9 3 12 0 3 8 5 16 5 11 0 14 -7 9 -25z m186 -6 c0 -6 -4 -7 -10 -4 -5 3
-10 11 -10 16 0 6 5 7 10 4 6 -3 10 -11 10 -16z m-30 -39 c11 0 20 -6 20 -13
0 -8 -11 -12 -27 -11 -16 1 -34 -3 -40 -9 -9 -6 -13 -6 -13 2 0 10 13 15 33
12 14 -2 7 14 -12 26 -17 11 -21 9 -26 -8 -5 -16 -9 -18 -21 -8 -12 10 -12 14
-2 20 7 5 9 9 5 9 -4 0 -2 6 4 13 10 10 17 8 35 -10 13 -13 32 -23 44 -23z
m175 23 c20 -16 20 -16 0 -8 -11 4 -25 8 -32 8 -7 0 -10 4 -7 9 7 12 16 10 39
-9z m-91 -29 c4 -10 2 -13 -6 -8 -6 4 -17 -1 -25 -11 -12 -17 -13 -17 -13 -2
0 9 5 17 11 17 5 0 7 5 4 10 -3 6 0 10 8 10 8 0 18 -7 21 -16z m36 2 c-7 -7
-13 -7 -20 0 -6 6 -3 10 10 10 13 0 16 -4 10 -10z m54 -1 c12 -9 23 -11 31 -5
6 5 16 5 25 -2 13 -8 12 -9 -2 -5 -10 4 -19 -1 -23 -11 -4 -10 -9 -12 -13 -6
-4 6 -18 18 -32 27 -13 9 -20 17 -15 17 6 0 19 -7 29 -15z m-264 -20 c0 -8 -4
-15 -8 -15 -5 0 -9 7 -9 15 0 8 4 15 9 15 4 0 8 -7 8 -15z m165 -15 c-3 -5 -2
-18 4 -28 6 -11 6 -24 0 -33 -6 -10 -9 -11 -9 -1 0 7 -5 10 -10 7 -7 -4 -8 3
-4 22 8 32 13 43 20 43 3 0 2 -4 -1 -10z m55 -5 c-7 -8 -16 -15 -21 -15 -5 0
-9 7 -9 15 0 9 9 15 21 15 18 0 19 -2 9 -15z m80 -15 c0 -16 -17 -20 -28 -7
-8 10 -6 13 9 14 10 1 19 -2 19 -7z m-30 -26 c0 0 -9 -9 -19 -19 -19 -16 -20
-16 -18 3 1 13 8 20 19 19 10 -1 18 -2 18 -3z m-250 -218 c0 -3 -4 -8 -10 -11
-5 -3 -10 -1 -10 4 0 6 5 11 10 11 6 0 10 -2 10 -4z m-59 -132 c22 7 23 6 6
-8 -12 -9 -14 -16 -8 -21 19 -11 12 -23 -9 -18 -11 3 -20 8 -21 12 0 3 -2 17
-5 31 -3 17 -1 21 5 11 5 -8 17 -11 32 -7z m-117 -41 c4 -5 31 -14 59 -21 59
-14 65 -16 90 -27 10 -4 28 -9 40 -10 12 -1 23 -4 25 -5 1 -1 5 -3 10 -5 38
-10 61 -15 82 -18 14 -2 43 -11 65 -21 22 -9 61 -20 87 -23 29 -4 45 -10 41
-16 -4 -6 0 -8 10 -4 9 3 19 2 22 -2 3 -5 14 -7 25 -4 12 3 20 0 20 -8 0 -7 3
-9 6 -6 4 3 14 2 24 -3 9 -5 29 -11 45 -14 42 -8 43 -15 5 -48 -38 -32 -208
-118 -235 -118 -9 0 -24 -4 -33 -9 -41 -21 -199 -32 -291 -19 -37 5 -40 9 -64
98 -8 30 -24 89 -36 130 -31 113 -37 160 -19 160 8 0 18 -3 22 -7z"/>
<path d="M1415 860 c-170 -170 -307 -310 -303 -310 4 0 105 -27 224 -60 205
-58 217 -60 230 -43 72 91 133 208 160 308 22 84 29 274 12 353 l-13 62 -310
-310z m302 65 c-6 -145 -34 -243 -102 -356 -55 -93 -79 -117 -103 -103 -9 6
-51 19 -92 28 -41 10 -83 22 -92 27 -10 5 -29 9 -42 9 -14 0 -27 4 -30 9 -3 5
-23 12 -43 16 -21 4 -41 8 -44 10 -3 2 116 126 265 274 l271 271 9 -33 c4 -17
6 -86 3 -152z"/>
<path d="M373 868 l-162 -163 26 -60 c80 -190 255 -354 456 -429 63 -24 68
-24 62 -7 -3 11 -51 192 -106 403 -54 210 -103 391 -107 401 -6 14 -37 -13
-169 -145z m166 69 c6 -18 18 -62 26 -97 8 -36 18 -81 24 -100 25 -91 119
-450 126 -482 5 -22 7 -21 -45 -3 -103 36 -279 176 -337 269 -39 61 -83 149
-83 166 0 14 258 280 272 280 3 0 11 -15 17 -33z"/>
<path d="M722 708 c-18 -18 -14 -42 11 -65 24 -22 87 -39 87 -23 0 6 -13 10
-29 10 -24 0 -28 3 -24 20 4 14 0 20 -11 20 -10 0 -13 -6 -10 -17 5 -14 4 -15
-4 -4 -6 8 -8 21 -4 29 4 11 1 13 -8 7 -9 -5 -11 -4 -6 3 5 9 13 8 29 -2 37
-23 84 -27 99 -9 9 11 9 14 1 9 -7 -4 -25 0 -40 9 -16 9 -19 13 -8 9 11 -3 27
-7 35 -8 9 -1 21 -5 28 -10 7 -4 12 -2 12 7 0 25 -135 38 -158 15z"/>
<path d="M1011 678 c1 -29 17 -78 18 -58 1 10 10 5 26 -15 14 -16 25 -25 25
-18 0 7 -9 20 -19 30 -11 10 -21 31 -23 47 -4 36 -28 48 -27 14z"/>
<path d="M1141 647 c-30 -49 -26 -59 5 -14 14 21 24 41 21 43 -3 3 -14 -10
-26 -29z"/>
<path d="M780 650 c0 -5 9 -10 20 -10 11 0 20 5 20 10 0 6 -9 10 -20 10 -11 0
-20 -4 -20 -10z"/>
<path d="M1040 572 c0 -5 7 -15 15 -22 8 -7 15 -9 15 -6 0 4 -7 14 -15 22 -8
9 -15 11 -15 6z"/>
</g>
</svg>
