<?xml version="1.0" encoding="UTF-8" standalone="no"?><!-- Generator: Gravit.io --><svg xmlns="http://www.w3.org/2000/svg" xmlns:xlink="http://www.w3.org/1999/xlink" style="isolation:isolate" viewBox="0 0 192 192" width="192pt" height="192pt"><defs><clipPath id="_clipPath_T0KMJAINwPaB4MucVQVQwhGvMwTxKhZ7"><rect width="192" height="192"/></clipPath></defs><g clip-path="url(#_clipPath_T0KMJAINwPaB4MucVQVQwhGvMwTxKhZ7)"><circle vector-effect="non-scaling-stroke" cx="91.32774216183269" cy="91.51874965886084" r="77.98516892798126" fill="rgb(255,255,255)"/><path d=" M 125.209 30.037 C 125.114 29.942 125.007 29.871 124.887 29.812 C 121.837 26.802 117.708 25.113 113.404 25.115 L 83.682 25.115 C 83.265 25.115 82.871 25.292 82.596 25.612 C 76.936 32.174 73.825 40.523 73.823 49.157 L 73.823 62.184 C 73.823 64.728 75.912 66.787 78.466 66.787 C 79.254 66.787 79.899 66.148 79.899 65.367 C 79.899 64.586 79.254 63.947 78.466 63.947 C 77.487 63.947 76.688 63.154 76.688 62.184 L 76.688 51.429 C 76.688 48.483 79.111 46.081 82.083 46.081 C 82.871 46.081 83.515 45.442 83.515 44.661 C 83.515 43.88 82.871 43.241 82.083 43.241 C 80.149 43.241 78.359 43.904 76.95 45.028 C 77.738 38.781 80.292 32.853 84.363 27.954 L 90.116 27.954 C 91.763 27.954 93.339 28.641 94.449 29.847 L 94.616 30.037 C 95.714 31.22 96.311 32.758 96.311 34.355 L 96.311 40.543 C 96.311 40.768 96.228 40.969 96.061 41.135 L 89.352 47.785 C 89.114 48.023 88.754 48.095 88.441 47.968 C 88.128 47.841 87.922 47.54 87.92 47.205 L 87.92 40.295 C 87.92 39.514 87.275 38.875 86.487 38.875 C 85.7 38.875 85.055 39.514 85.055 40.295 L 85.055 47.205 C 85.055 49.228 86.714 50.873 88.755 50.873 C 89.746 50.873 90.677 50.494 91.369 49.796 L 98.078 43.147 C 98.774 42.461 99.165 41.528 99.164 40.555 L 99.164 34.367 C 99.164 32.048 98.293 29.836 96.717 28.12 L 96.574 27.966 L 113.404 27.966 C 120.805 27.966 126.833 33.941 126.833 41.277 L 126.833 67.39 L 122.034 67.39 C 122.213 67.023 122.476 66.609 122.858 66.231 C 123.132 65.958 123.276 65.604 123.276 65.225 L 123.276 59.001 C 123.276 54.706 119.754 51.216 115.422 51.216 L 102.614 51.216 C 102.936 50.518 103.294 49.843 103.7 49.204 C 105.144 46.909 106.6 45.844 106.612 45.832 C 106.923 45.616 107.133 45.285 107.196 44.914 C 107.259 44.542 107.169 44.162 106.947 43.856 C 106.728 43.549 106.394 43.34 106.02 43.278 C 105.645 43.216 105.261 43.305 104.953 43.525 C 104.667 43.726 97.923 48.613 97.923 60.208 L 97.923 67.473 L 94.354 67.473 L 94.354 52.233 C 94.354 51.453 93.709 50.814 92.921 50.814 C 92.133 50.814 91.489 51.453 91.489 52.233 L 91.489 68.881 C 91.489 69.662 92.133 70.301 92.921 70.301 L 99.343 70.301 C 100.131 70.301 100.775 69.662 100.775 68.881 L 100.775 60.196 C 100.775 57.996 101.038 55.949 101.563 54.056 L 115.41 54.056 C 118.167 54.056 120.399 56.28 120.399 59.001 L 120.399 64.681 C 119.729 65.467 119.248 66.393 118.991 67.39 L 115.326 67.39 C 115.505 67.023 115.768 66.609 116.15 66.231 C 116.424 65.958 116.567 65.604 116.567 65.225 L 116.567 59.001 C 116.567 58.22 115.923 57.581 115.135 57.581 C 114.347 57.581 113.703 58.22 113.703 59.001 L 113.703 64.681 C 112.091 66.574 112.091 68.609 112.091 68.845 C 112.115 69.615 112.748 70.23 113.524 70.23 L 128.253 70.23 C 129.041 70.23 129.686 69.591 129.686 68.81 L 129.686 41.265 C 129.686 41.064 129.686 40.863 129.674 40.662 C 131.333 44.342 131.285 47.252 131.249 49.039 C 131.249 49.275 131.237 49.488 131.237 49.678 L 131.237 55.523 C 131.237 56.304 131.882 56.943 132.67 56.943 C 133.458 56.943 134.102 56.304 134.102 55.523 L 134.102 49.678 C 134.102 49.5 134.102 49.311 134.114 49.086 C 134.186 45.951 134.329 38.579 125.209 30.037 L 125.209 30.037 Z  M 105.144 56.386 C 104.691 55.736 103.807 55.582 103.151 56.02 C 102.494 56.469 102.339 57.345 102.781 57.996 C 104.846 60.965 105.705 65.213 106.039 67.449 L 103.234 67.449 C 102.447 67.449 101.802 68.088 101.802 68.869 C 101.802 69.65 102.447 70.289 103.234 70.289 L 107.651 70.289 C 108.048 70.292 108.429 70.13 108.701 69.842 C 108.973 69.555 109.112 69.168 109.083 68.774 C 109.059 68.467 108.51 61.238 105.144 56.386 Z " fill="rgb(0,0,0)"/><path d=" M 64.772 34.061 C 64.557 33.474 64.352 32.915 64.166 32.381 C 63.306 29.995 60.671 28.75 58.253 29.586 C 57.153 29.971 56.233 30.748 55.674 31.766 C 54.389 34.127 54.507 36.99 55.982 39.223 C 56.94 40.665 58.572 43.585 59.91 46.606 C 60.607 48.181 61.037 49.355 61.3 50.23 C 60.702 49.703 59.985 49.165 59.161 48.654 C 56.556 47.05 52.287 45.532 46.823 47.435 C 43.761 48.502 41.528 49.941 40.187 51.721 C 39.607 52.491 38.64 52.88 37.658 52.739 C 36.911 52.631 36.19 52.63 35.517 52.738 C 34.422 50.84 32.512 50.287 31.056 50.794 C 30.139 51.113 29.407 51.841 29.057 52.782 C 28.799 53.471 28.744 54.257 28.889 55.1 C 22.294 58.804 21.279 65.566 21.234 65.866 C 21.158 66.376 21.429 66.88 21.896 67.095 L 26.473 69.283 C 26.766 69.423 27.089 69.437 27.391 69.331 L 33.346 67.257 L 38.085 73.896 L 37.148 77.29 L 34.34 78.268 C 33.716 78.485 33.382 79.169 33.598 79.787 C 33.813 80.406 34.5 80.734 35.123 80.517 L 38.526 79.331 C 38.895 79.203 39.183 78.903 39.292 78.518 L 40.55 74.067 C 41.372 72.257 42.668 71.291 44.155 70.174 C 45.231 69.369 46.414 68.474 47.459 67.185 C 50.25 68.472 54.353 68.293 55.636 68.203 L 57.314 69.006 L 56.572 70.525 L 53.641 71.545 C 53.018 71.763 52.683 72.446 52.899 73.065 C 53.114 73.683 53.801 74.011 54.425 73.794 L 57.827 72.609 C 58.13 72.504 58.371 72.283 58.517 72.001 L 60.002 68.962 C 60.142 68.677 60.162 68.349 60.058 68.05 C 59.954 67.751 59.734 67.506 59.447 67.37 L 58.659 66.993 C 62.895 64.488 64.595 60.271 65.103 58.687 C 66.475 58.062 67.511 57.049 68.183 55.66 C 70.704 50.422 67.272 40.964 64.772 34.061 L 64.772 34.061 Z  M 66.018 54.649 C 65.539 55.646 64.784 56.308 63.725 56.677 C 63.337 56.812 63.047 57.134 62.95 57.525 C 62.938 57.581 61.372 63.705 55.607 65.808 C 53.926 65.941 49.657 65.978 47.827 64.651 C 47.559 64.457 47.223 64.381 46.895 64.44 C 46.567 64.502 46.285 64.695 46.104 64.968 C 45.168 66.418 43.976 67.316 42.705 68.263 C 41.519 69.149 40.302 70.067 39.317 71.439 L 34.809 65.13 C 34.501 64.7 33.944 64.522 33.438 64.693 L 27.096 66.902 L 23.816 65.334 C 24.305 63.514 25.947 59.129 30.826 56.768 C 31.374 56.502 31.638 55.873 31.44 55.304 C 31.205 54.629 31.161 54.014 31.32 53.591 C 31.425 53.313 31.603 53.125 31.849 53.039 C 32.444 52.832 33.278 53.277 33.712 54.523 C 33.927 55.141 34.614 55.469 35.238 55.252 C 35.843 55.041 36.544 54.986 37.314 55.096 C 39.167 55.365 41.012 54.607 42.112 53.141 C 42.829 52.188 44.364 50.813 47.606 49.684 C 51.245 48.416 54.683 48.732 57.816 50.635 C 60.219 52.088 61.542 53.97 61.558 53.985 C 61.745 54.252 62.033 54.431 62.356 54.483 C 62.68 54.535 63.011 54.454 63.275 54.259 C 64.376 53.435 64.166 51.827 63.917 50.685 C 63.661 49.524 63.145 48.043 62.396 46.287 C 61.027 43.087 59.149 39.644 57.992 37.903 C 56.999 36.4 56.917 34.473 57.78 32.882 C 58.208 32.102 59.055 31.642 59.945 31.707 C 60.834 31.771 61.599 32.348 61.901 33.18 C 62.087 33.714 62.295 34.282 62.51 34.869 C 64.736 41.017 68.109 50.306 66.018 54.649 Z  M 64.64 62.987 C 64.016 63.204 63.682 63.888 63.898 64.506 L 64.974 67.598 L 63.84 67.993 C 63.216 68.211 62.882 68.894 63.098 69.513 C 63.313 70.131 64 70.459 64.623 70.242 L 66.892 69.452 C 67.516 69.235 67.85 68.551 67.635 67.933 L 66.166 63.716 C 65.951 63.098 65.274 62.767 64.64 62.987 Z  M 47.333 69.835 C 46.689 69.691 46.049 70.103 45.9 70.743 L 45.049 74.538 L 42.28 75.503 C 41.656 75.72 41.322 76.404 41.537 77.022 C 41.753 77.64 42.439 77.968 43.063 77.751 L 46.466 76.566 C 46.863 76.428 47.15 76.097 47.244 75.696 L 48.24 71.252 C 48.394 70.6 47.986 69.975 47.333 69.835 Z  M 30.34 59.479 C 30.967 59.261 31.65 59.588 31.866 60.209 C 32.082 60.83 31.75 61.51 31.123 61.728 C 30.497 61.946 29.814 61.62 29.597 60.999 C 29.381 60.378 29.714 59.698 30.34 59.479 Z " fill="rgb(0,0,0)"/><path d=" M 115.054 75.842 C 115.53 75.325 116.171 75.028 116.877 74.996 L 120.083 74.849 C 120.779 74.817 121.455 75.054 121.975 75.525 L 123.158 76.595 C 123.288 76.712 123.428 76.819 123.568 76.926 L 123.692 79.631 C 123.741 80.701 123.684 81.745 123.522 82.742 C 123.418 83.416 123.873 84.045 124.554 84.158 C 124.638 84.175 124.721 84.181 124.804 84.178 C 125.385 84.151 125.886 83.726 125.973 83.135 C 126.159 81.972 126.229 80.763 126.172 79.518 L 126.091 77.749 C 126.174 77.745 126.268 77.751 126.351 77.747 L 126.62 77.735 C 129.069 77.623 130.982 75.557 130.87 73.119 C 130.839 72.44 130.253 71.911 129.569 71.942 C 128.884 71.973 128.349 72.554 128.38 73.233 C 128.429 74.303 127.587 75.217 126.508 75.267 L 126.238 75.279 C 125.968 75.291 125.706 75.252 125.463 75.16 C 125.366 75.092 125.26 75.045 125.144 75.009 C 125.037 74.942 124.93 74.865 124.832 74.776 L 123.649 73.697 C 122.649 72.789 121.325 72.315 119.97 72.381 L 116.764 72.527 C 115.395 72.59 114.142 73.173 113.221 74.173 L 112.141 75.346 C 111.793 75.727 111.305 75.954 110.787 75.975 L 110.517 75.987 C 109.438 76.037 108.516 75.203 108.467 74.133 C 108.436 73.454 107.85 72.924 107.166 72.956 C 106.481 72.987 105.946 73.568 105.977 74.247 C 106.088 76.674 108.171 78.568 110.63 78.456 L 110.9 78.443 C 112.093 78.389 113.182 77.875 113.985 77.004 L 115.054 75.842 Z  M 110.273 79.75 C 110.273 79.75 110.263 79.751 110.252 79.741 C 110.242 79.741 110.21 79.732 110.189 79.723 C 110.137 79.715 110.053 79.698 109.959 79.692 C 109.865 79.686 109.75 79.681 109.625 79.677 C 109.5 79.672 109.376 79.688 109.241 79.694 C 108.653 79.754 108.098 79.992 107.65 80.375 C 107.431 80.571 107.233 80.796 107.078 81.051 C 106.865 81.41 106.727 81.809 106.674 82.223 C 106.659 82.348 106.653 82.451 106.648 82.554 C 106.642 82.647 106.656 82.729 106.648 82.791 L 106.652 82.874 C 106.652 82.874 106.662 82.873 106.673 82.883 C 106.684 82.883 106.715 82.891 106.736 82.901 C 106.789 82.909 106.873 82.926 106.967 82.932 C 107.06 82.938 107.176 82.953 107.3 82.947 C 107.425 82.952 107.549 82.936 107.694 82.929 C 107.963 82.896 108.251 82.832 108.527 82.716 C 108.802 82.6 109.055 82.444 109.275 82.249 C 109.495 82.053 109.692 81.817 109.847 81.563 C 110.055 81.205 110.192 80.81 110.251 80.401 C 110.266 80.276 110.272 80.173 110.278 80.069 C 110.284 79.976 110.28 79.894 110.277 79.832 L 110.273 79.75 L 110.273 79.75 Z  M 130.375 79.347 C 129.894 79.006 129.32 78.82 128.729 78.814 C 128.593 78.81 128.458 78.816 128.345 78.831 C 128.221 78.847 128.117 78.862 128.014 78.877 C 127.921 78.892 127.839 78.916 127.788 78.929 C 127.756 78.93 127.736 78.942 127.726 78.952 C 127.716 78.953 127.706 78.964 127.706 78.964 L 127.71 79.046 C 127.712 79.097 127.716 79.18 127.731 79.282 C 127.746 79.374 127.761 79.487 127.787 79.609 C 127.814 79.732 127.851 79.854 127.898 79.975 C 127.982 80.229 128.119 80.491 128.296 80.73 C 128.463 80.97 128.681 81.176 128.928 81.361 C 129.175 81.535 129.442 81.677 129.716 81.758 C 130.001 81.848 130.284 81.897 130.564 81.894 C 130.7 81.898 130.834 81.892 130.959 81.876 C 131.083 81.86 131.186 81.845 131.289 81.83 C 131.382 81.815 131.464 81.791 131.516 81.778 C 131.547 81.777 131.567 81.766 131.577 81.755 C 131.587 81.755 131.597 81.744 131.597 81.744 L 131.593 81.661 C 131.591 81.61 131.587 81.517 131.572 81.425 C 131.558 81.333 131.542 81.221 131.516 81.098 C 131.489 80.976 131.452 80.854 131.405 80.722 C 131.32 80.468 131.184 80.206 131.006 79.967 C 130.84 79.738 130.622 79.521 130.375 79.347 L 130.375 79.347 Z  M 134.334 96.584 C 134.026 95.97 133.276 95.726 132.666 96.032 C 132.046 96.338 131.799 97.082 132.108 97.686 L 136.109 105.614 L 136.196 107.517 C 136.227 108.196 136.813 108.726 137.498 108.695 C 138.183 108.663 138.718 108.082 138.687 107.403 L 138.588 105.243 C 138.58 105.069 138.531 104.906 138.461 104.744 L 134.334 96.584 L 134.334 96.584 Z  M 147.985 98.372 C 147.323 98.207 146.645 98.609 146.477 99.266 L 144.971 105.22 L 143.99 106.285 C 143.525 106.79 143.561 107.573 144.07 108.033 C 144.58 108.494 145.369 108.458 145.834 107.953 L 147.023 106.662 C 147.162 106.511 147.258 106.331 147.311 106.133 L 148.896 99.876 C 149.064 99.209 148.658 98.537 147.985 98.372 Z  M 159.158 90.523 C 157.438 88.62 156.434 86.187 156.316 83.634 L 156.25 82.183 C 156.023 77.226 151.772 73.39 146.781 73.618 L 133.416 74.229 C 132.732 74.261 132.197 74.842 132.228 75.52 C 132.259 76.199 132.844 76.729 133.529 76.698 L 146.884 76.087 C 150.505 75.922 153.585 78.708 153.749 82.298 L 153.82 83.841 C 153.976 87.266 153.313 90.728 151.917 93.853 C 151.757 94.211 151.776 94.622 151.968 94.954 L 153.258 97.245 C 152.654 97.015 151.997 96.725 151.324 96.333 C 149.433 95.245 148.088 93.791 147.32 92.002 C 147.303 91.869 147.256 91.747 147.188 91.616 C 147.165 91.576 147.143 91.536 147.12 91.506 C 146.787 90.573 146.595 89.561 146.545 88.461 C 146.514 87.782 145.928 87.252 145.243 87.284 C 144.558 87.315 144.023 87.896 144.054 88.575 C 144.102 89.624 144.262 90.627 144.534 91.573 C 141.655 92.835 138.464 93.225 135.363 92.693 L 130.478 91.844 L 130.358 89.201 C 130.326 88.522 129.741 87.992 129.056 88.023 C 128.371 88.055 127.836 88.636 127.867 89.315 L 128.213 96.874 L 125.35 92.244 C 125.113 91.86 124.684 91.635 124.231 91.656 C 122.82 91.72 120.241 90.818 118.057 88.969 C 116.185 87.385 113.925 84.561 113.72 80.077 C 113.689 79.398 113.103 78.868 112.418 78.9 C 111.733 78.931 111.198 79.512 111.229 80.191 C 111.475 85.56 114.198 88.95 116.438 90.857 C 118.904 92.94 121.654 93.959 123.574 94.118 L 128.447 101.997 L 128.635 106.111 L 127.793 107.025 C 127.328 107.53 127.364 108.313 127.873 108.774 C 128.382 109.234 129.172 109.198 129.637 108.693 L 130.826 107.402 C 131.053 107.155 131.164 106.84 131.149 106.511 L 130.595 94.395 L 134.934 95.145 C 136.255 95.373 137.589 95.456 138.918 95.396 C 141.169 95.293 143.402 94.778 145.472 93.88 C 146.483 95.751 148.03 97.308 150.081 98.493 C 151.587 99.362 153.076 99.861 154.138 100.121 L 152.482 104.835 L 151.461 105.943 C 150.996 106.448 151.032 107.231 151.541 107.692 C 152.05 108.152 152.84 108.116 153.305 107.611 L 154.494 106.32 C 154.603 106.202 154.7 106.053 154.755 105.896 L 156.964 99.611 L 156.963 99.6 C 156.972 99.569 156.981 99.538 156.99 99.517 C 156.99 99.506 157 99.496 156.999 99.485 C 157.008 99.454 157.017 99.423 157.015 99.382 L 157.015 99.361 C 157.023 99.319 157.021 99.278 157.02 99.247 C 157.026 99.165 157.012 99.073 156.998 98.991 L 156.997 98.98 C 156.985 98.94 156.983 98.909 156.971 98.868 C 156.971 98.858 156.96 98.848 156.959 98.838 L 156.924 98.747 C 156.924 98.736 156.912 98.716 156.901 98.707 C 156.89 98.686 156.878 98.656 156.867 98.636 C 156.867 98.626 156.867 98.626 156.856 98.616 L 154.434 94.326 C 154.996 92.97 155.442 91.569 155.751 90.143 C 156.19 90.875 156.71 91.562 157.28 92.206 C 157.543 92.493 157.903 92.631 158.266 92.615 C 158.546 92.602 158.822 92.496 159.042 92.301 C 159.581 91.812 159.618 91.038 159.158 90.523 L 159.158 90.523 Z  M 117.568 82.385 C 116.884 82.416 116.349 82.997 116.38 83.676 C 116.411 84.355 116.996 84.885 117.681 84.854 L 120.172 84.74 C 120.856 84.708 121.391 84.127 121.36 83.449 C 121.329 82.77 120.744 82.24 120.059 82.271 L 117.568 82.385 Z " fill="rgb(0,0,0)"/><path d=" M 112.903 95.245 L 107.181 91.847 C 107.078 91.785 106.956 91.743 106.839 91.727 L 102.374 91.037 L 102.366 91.036 C 98.341 90.457 94.237 91.317 90.796 93.461 L 89.578 92.588 C 85.821 89.881 83.016 86.071 81.561 81.699 L 82.351 76.758 C 82.412 76.386 82.242 76.013 81.919 75.816 L 80.195 74.744 L 80.526 74.72 C 80.736 74.703 80.922 74.635 81.085 74.5 C 81.167 74.432 82.2 73.638 83.852 73.876 C 86.397 74.242 87.849 78.38 88.199 79.943 C 88.255 80.221 88.438 80.453 88.691 80.585 L 102.213 87.544 L 90.686 85.887 C 88.697 85.601 87.061 84.248 86.423 82.35 C 86.253 81.858 85.716 81.591 85.222 81.75 C 84.727 81.916 84.458 82.448 84.619 82.939 C 85.473 85.501 87.717 87.365 90.41 87.748 L 107.474 90.202 C 107.936 90.268 108.374 89.998 108.509 89.558 C 108.652 89.119 108.449 88.646 108.039 88.437 L 89.935 79.1 C 89.517 77.558 87.88 72.545 84.113 72.004 C 82.124 71.718 80.705 72.472 80.122 72.856 L 77.138 73.045 C 76.726 73.073 76.382 73.356 76.277 73.753 C 76.18 74.151 76.344 74.563 76.697 74.78 L 80.371 77.075 L 79.644 81.629 C 79.623 81.777 79.634 81.921 79.678 82.062 C 80.451 84.47 81.596 86.735 83.091 88.788 C 84.586 90.841 86.391 92.629 88.464 94.116 L 90.202 95.364 C 90.202 95.364 90.21 95.365 90.209 95.373 C 90.217 95.374 90.216 95.382 90.216 95.382 L 91.679 96.376 L 90.3 98.579 L 87.152 98.126 C 86.635 98.052 86.152 98.41 86.078 98.922 C 86.004 99.435 86.367 99.915 86.884 99.989 L 97.236 101.477 C 97.753 101.552 98.236 101.193 98.31 100.681 C 98.384 100.169 98.021 99.689 97.504 99.614 L 96.525 99.474 L 98.3 96.805 C 98.566 96.4 98.483 95.865 98.103 95.557 L 97.029 94.69 C 96.621 94.382 96.041 94.45 95.718 94.843 C 95.394 95.236 95.443 95.813 95.828 96.149 L 96.237 96.477 L 94.442 99.174 L 92.367 98.876 L 93.788 96.608 C 94.058 96.18 93.938 95.624 93.516 95.333 L 92.511 94.65 C 95.419 93.048 98.785 92.43 102.098 92.899 L 106.376 93.554 L 111.937 96.849 C 112.386 97.119 112.966 96.973 113.238 96.529 C 113.501 96.091 113.352 95.515 112.903 95.245 L 112.903 95.245 Z " fill="rgb(0,0,0)"/><g><path d=" M 161.733 137.738 C 172.63 119.911 177.22 99.164 174.019 78.055 C 170.578 55.355 158.096 35.275 139.593 21.133 C 120.957 7.524 97.71 1.804 74.887 5.211 C 52.129 8.661 31.382 21.22 17.808 39.595 C 4.004 58.088 -1.767 81.363 1.798 104.163 C 5.333 127.478 17.199 147.643 36.317 161.692 C 54.952 175.304 78.199 181.027 101.024 177.621 C 121.734 174.43 140.622 163.941 154.277 148.046 L 261.369 226.747 C 262.672 227.75 264.328 228.178 265.953 227.932 C 267.579 227.685 269.034 226.786 269.98 225.441 C 272.068 222.608 271.509 218.926 268.677 216.847 L 161.733 137.738 L 161.733 137.738 Z  M 161.718 79.92 C 158.834 60.893 147.955 43.087 132.283 31.025 C 116.091 19.679 96.43 14.496 76.747 17.48 C 57.065 20.464 39.207 31.334 27.722 46.884 C 16.018 62.821 11.119 82.751 14.1 102.298 C 17.076 121.931 27.34 139.83 43.533 151.185 C 59.203 163.239 79.48 168.328 99.163 165.344 C 118.845 162.361 136.089 151.592 148.096 135.333 C 159.754 119.372 164.648 99.458 161.717 79.912 L 161.718 79.92 Z " fill-rule="evenodd" fill="rgb(0,0,0)"/><rect x="-9.301" y="-32.308" width="298.609" height="298.609" transform="matrix(0.989,-0.15,0.15,0.989,-15.954,22.306)" fill="none"/></g><g><path d=" M 69.84 82.587 L 56.094 82.954 C 55.249 82.977 54.587 83.675 54.609 84.52 C 54.632 85.365 55.33 86.027 56.175 86.004 L 68.397 85.678 C 69.242 85.655 69.94 86.317 69.963 87.162 C 69.985 88.007 69.323 88.706 68.478 88.728 L 44.674 89.364 L 40.422 85.353 C 40.13 85.074 39.741 84.922 39.338 84.928 L 31.712 85.131 C 31.3 85.143 30.933 85.317 30.653 85.614 L 28.105 88.28 L 16.522 88.59 C 15.677 88.612 15.015 89.31 15.038 90.155 L 15.119 93.206 C 15.186 95.72 17.302 97.726 19.817 97.659 L 29.833 97.391 L 30.236 97.814 C 32.662 100.309 35.996 101.716 39.477 101.712 L 37.083 105.53 C 36.628 106.243 36.859 107.186 37.573 107.641 C 37.845 107.799 38.136 107.873 38.424 107.866 C 38.919 107.853 39.386 107.593 39.684 107.152 L 42.612 102.495 C 42.77 102.24 42.848 101.943 42.837 101.643 L 42.714 97.047 C 42.691 96.202 41.993 95.54 41.148 95.563 C 40.303 95.585 39.641 96.284 39.664 97.129 L 39.704 98.654 C 37.582 98.71 35.502 98.065 33.778 96.853 C 34.66 96.497 35.455 95.955 36.108 95.264 C 36.689 94.651 36.663 93.682 36.05 93.1 C 35.436 92.519 34.468 92.545 33.886 93.158 C 33.216 93.866 32.292 94.277 31.318 94.299 L 19.735 94.609 C 18.89 94.631 18.192 93.969 18.169 93.124 L 18.129 91.599 L 28.825 91.313 C 29.237 91.302 29.604 91.128 29.885 90.831 L 32.433 88.165 L 38.801 87.995 L 43.054 92.026 C 43.35 92.307 43.746 92.462 44.138 92.451 L 68.56 91.799 C 69.901 91.757 71.156 91.131 71.997 90.086 C 72.837 89.04 73.179 87.68 72.932 86.361 C 74.815 87.363 76.125 89.328 76.186 91.595 C 76.275 94.955 73.608 97.769 70.248 97.859 C 69.403 97.881 68.741 98.579 68.764 99.424 C 68.786 100.269 69.485 100.931 70.33 100.909 C 75.389 100.774 79.381 96.563 79.246 91.503 C 79.111 86.444 74.9 82.452 69.84 82.587 L 69.84 82.587 Z  M 62.52 94.992 C 61.675 95.015 61.013 95.713 61.036 96.558 L 61.076 98.083 L 45.805 98.491 C 44.96 98.513 44.298 99.212 44.32 100.057 C 44.343 100.902 45.041 101.564 45.886 101.541 L 61.982 101.111 C 63.082 102.897 65.093 104.08 67.34 104.02 L 67.381 105.546 C 67.403 106.391 68.101 107.052 68.946 107.03 C 69.791 107.007 70.453 106.309 70.431 105.464 L 70.349 102.414 C 70.327 101.569 69.628 100.907 68.783 100.929 L 67.258 100.97 C 65.568 101.015 64.172 99.691 64.127 98.001 L 64.086 96.476 C 64.064 95.652 63.365 94.969 62.52 94.992 L 62.52 94.992 Z " fill="rgb(0,0,0)"/></g><text transform="matrix(1,0,0,1,41.245,145.918)" style="font-family:'Lilita One';font-weight:400;font-size:40px;font-style:normal;fill:#000000;stroke:none;">PARK</text></g></svg>