<?xml version="1.0" encoding="utf-8"?>
<svg version="1.1" id="Layer_1"
xmlns="http://www.w3.org/2000/svg"
xmlns:xlink="http://www.w3.org/1999/xlink"
width="550px" height="400px"
xml:space="preserve">
<g id="PathID_1" transform="matrix(1.83749, 0, 0, 1.83749, 276.6, 170.55)" opacity="1">
<linearGradient
id="LinearGradID_1" gradientUnits="userSpaceOnUse" gradientTransform="matrix(0.0181122, -0.018631, 0.0186768, 0.018158, -3.55, -0.7)" spreadMethod ="pad" x1="-819.2" y1="0" x2="819.2" y2="0" >
<stop  offset="0" style="stop-color:#0E3419;stop-opacity:1" />
<stop  offset="0.298039" style="stop-color:#1D9531;stop-opacity:1" />
<stop  offset="0.870588" style="stop-color:#D4EB0A;stop-opacity:1" />
<stop  offset="1" style="stop-color:#FFFF00;stop-opacity:1" />
</linearGradient>
<path style="fill:url(#LinearGradID_1) " d="M2.9 -2.95L2.6 -7.15L0.7 -6.95Q-5.5 -5.75 -10.35 1.7Q-14.75 8.4 -14.85 14.4L-15.1 13.95Q-16 7.25 -10.85 -0.5Q-5.35 -8.8 2.25 -10.6L1.9 -14.35L15.25 -11.8L9.05 -7.4Q4.7 -4.45 2.9 -2.95" />
</g>
<g id="PathID_2" transform="matrix(1.83749, 0, 0, 1.83749, 291.95, 150.2)" opacity="1">
<linearGradient
id="LinearGradID_2" gradientUnits="userSpaceOnUse" gradientTransform="matrix(0.00804138, -0.000564575, 0.00062561, 0.00862122, 0.2, 3.6)" spreadMethod ="pad" x1="-819.2" y1="0" x2="819.2" y2="0" >
<stop  offset="0" style="stop-color:#AEE62B;stop-opacity:1" />
<stop  offset="1" style="stop-color:#F5FFDC;stop-opacity:1" />
</linearGradient>
<path style="fill:url(#LinearGradID_2) " d="M5.7 -0.4L1.65 2.55Q0 -1 -5.7 -2.5L5.7 -0.4" />
</g>
<g id="PathID_3" transform="matrix(1.83749, 0, 0, 1.83749, 299.4, 146.2)" opacity="1">
<linearGradient
id="LinearGradID_3" gradientUnits="userSpaceOnUse" gradientTransform="matrix(-0.0354309, 0.0357361, 0.0358124, 0.0355072, -6.6, -1.25)" spreadMethod ="pad" x1="-819.2" y1="0" x2="819.2" y2="0" >
<stop  offset="0" style="stop-color:#0E3419;stop-opacity:1" />
<stop  offset="0.298039" style="stop-color:#1D9531;stop-opacity:1" />
<stop  offset="0.870588" style="stop-color:#D4EB0A;stop-opacity:1" />
<stop  offset="1" style="stop-color:#FFFF00;stop-opacity:1" />
</linearGradient>
<path style="fill:url(#LinearGradID_3) " d="M4.1 -27.35L16.95 -24.7L29.6 -22.05L17.65 -13.9Q9 -8.15 5.7 -5.45L5.15 -13.4L1.65 -13.1Q-10.4 -11.05 -19.9 3.05Q-28.6 15.85 -28.8 27.35L-29.35 26.5Q-30.9 13.55 -20.8 -1.15Q-10.1 -16.85 4.6 -20.05L4.1 -27.35" />
</g>
<g id="PathID_4" transform="matrix(1.83749, 0, 0, 1.83749, 329.4, 107.85)" opacity="1">
<linearGradient
id="LinearGradID_4" gradientUnits="userSpaceOnUse" gradientTransform="matrix(0.0128174, 0.000488281, 0.000579834, -0.0165405, 0.25, -0.7)" spreadMethod ="pad" x1="-819.2" y1="0" x2="819.2" y2="0" >
<stop  offset="0" style="stop-color:#1B8730;stop-opacity:1" />
<stop  offset="1" style="stop-color:#CCFAC0;stop-opacity:1" />
</linearGradient>
<path style="fill:url(#LinearGradID_4) " d="M0.95 -2.6L10.8 -0.55L3.05 4.9Q1.6 1.65 -2.1 -0.95Q-5.65 -3.5 -10.75 -4.9L0.95 -2.6" />
</g>
<g id="PathID_5" transform="matrix(1.83749, 0, 0, 1.83749, 268.3, 140.1)" opacity="1">
<linearGradient
id="LinearGradID_5" gradientUnits="userSpaceOnUse" gradientTransform="matrix(0.0153503, 0.00915527, 0.0091095, -0.0153351, -5.95, -2.95)" spreadMethod ="pad" x1="-819.2" y1="0" x2="819.2" y2="0" >
<stop  offset="0" style="stop-color:#003278;stop-opacity:1" />
<stop  offset="0.34902" style="stop-color:#5078FF;stop-opacity:1" />
<stop  offset="1" style="stop-color:#96FFF0;stop-opacity:1" />
</linearGradient>
<path style="fill:url(#LinearGradID_5) " d="M15.3 -24.9L9.1 -13.1Q4.8 -5.2 2.95 -1.05L0.45 -10.75L-2.15 -8.85Q-10.45 -2.25 -12.6 8.7Q-14 15.5 -13.05 27.45L-13.9 26.5Q-16.5 12.6 -14.35 2.45Q-11.65 -10.15 -1.7 -18.7L-4.1 -27.4L5.65 -26.15L15.3 -24.9" />
</g>
<g id="PathID_6" transform="matrix(1.83749, 0, 0, 1.83749, 279.55, 103.6)" opacity="1">
<linearGradient
id="LinearGradID_6" gradientUnits="userSpaceOnUse" gradientTransform="matrix(0.00991821, 0.00125122, 0.00166321, -0.0130463, -1, 0.8)" spreadMethod ="pad" x1="-819.2" y1="0" x2="819.2" y2="0" >
<stop  offset="0" style="stop-color:#50AAFF;stop-opacity:1" />
<stop  offset="1" style="stop-color:#D5FFFF;stop-opacity:1" />
</linearGradient>
<path style="fill:url(#LinearGradID_6) " d="M2.8 6Q-0.75 -4.15 -8.25 -5.95L8.25 -4.35L2.8 6" />
</g>
<g id="PathID_7" transform="matrix(1.83749, 0, 0, 1.83749, 277.9, 109.8)" opacity="1">
<linearGradient
id="LinearGradID_7" gradientUnits="userSpaceOnUse" gradientTransform="matrix(0.00991821, 0.00125122, 0.00166321, -0.0130463, -0.1, -2.55)" spreadMethod ="pad" x1="-819.2" y1="0" x2="819.2" y2="0" >
<stop  offset="0" style="stop-color:#50AAFF;stop-opacity:1" />
<stop  offset="1" style="stop-color:#D5FFFF;stop-opacity:1" />
</linearGradient>
<path style="fill:url(#LinearGradID_7) " d="M2.2 5.45Q1.25 -0.9 -2.65 -5.4Q1.35 -1.4 2.65 4.5L2.2 5.45" />
</g>
<filter id="filter2" x="-0.589048" y="-0.589048" width="2.3581" height="2.3581" >
<feComponentTransfer in="SourceGraphic">
	<feFuncR type="linear" slope="0"/>
	<feFuncG type="linear" slope="0"/>
	<feFuncB type="linear" slope="0"/>
</feComponentTransfer>
<feGaussianBlur stdDeviation="4 4" />
<feComponentTransfer result="shadow">
	<feFuncR type="linear" intercept="0"/>
	<feFuncG type="linear" intercept="0.113741"/>
	<feFuncB type="linear" intercept="0.403599"/>
	<feFuncA type="linear" slope="1"/>
</feComponentTransfer>
<feComposite in="SourceGraphic" in2="shadow" operator="over" result="1"/>
</filter>
<g style="filter:url(#filter2);">
<g id="PathID_8" transform="matrix(0.458773, -0.0961956, 0.0961956, 0.458773, 195.1, 234.65)" opacity="1">
<path style="fill:#04447C;fill-opacity:1" d="M27.25 -21.45Q27.65 -21.3 27.55 -21.7L27.4 -22Q28.45 -24.85 29.1 -27.25Q29.9 -29.9 29.9 -31.7Q29.9 -32.4 29.75 -33.2L29.45 -35.15Q30.6 -35.65 31.3 -35.8Q32.05 -35.95 32.65 -35.95Q34.1 -35.95 34.75 -35.15Q35.45 -34.35 35.45 -32.85Q35.45 -30.7 33.9 -26.65Q32.4 -22.65 29.45 -17.1Q32 -12.15 33.5 -9.65Q35.05 -7.15 35.3 -7.15Q35.45 -7.15 36.3 -8.15Q37.15 -9.2 38.1 -10.65Q42 -17.25 43.75 -22.15Q45.55 -27.1 45.55 -31.45Q45.55 -32.35 45.35 -33.3L44.95 -35.55Q46.05 -36 46.8 -36.15Q47.6 -36.35 48.25 -36.35Q49.85 -36.35 50.6 -35.4Q51.35 -34.45 51.35 -32.55Q51.35 -28.4 49.25 -22.75Q47.2 -17.15 43.4 -11.1L43.1 -10.6Q36.1 0.7 34.55 0.7Q32.9 0.7 26.3 -12.95L26.5 -13.2Q26.15 -13.35 26.25 -13.05L26.3 -12.95Q22.8 -6.65 19.95 -3Q17.05 0.7 15.7 0.7Q14.75 0.7 13.55 -1.2Q12.35 -3.15 11.1 -6.2Q9.1 -11 6.1 -19.05Q1.35 -31.75 -1.05 -33.8Q0 -35.25 0.9 -35.8Q1.85 -36.35 2.85 -36.35Q4.5 -36.35 5.55 -35.05Q6.65 -33.75 8.25 -29.3L11 -21.6Q16.2 -6.95 16.95 -6.95Q17.55 -6.95 19.55 -9.65Q21.55 -12.4 24.35 -17.35Q21.35 -24.6 19.4 -28.15Q17.45 -31.7 15.6 -33.2Q16.45 -34.8 17.35 -35.35Q18.25 -35.95 19.45 -35.95Q22.5 -35.95 27.4 -22L27.25 -21.45" />
</g>
<g id="PathID_9" transform="matrix(0.458773, -0.0961956, 0.0961956, 0.458773, 218.75, 229.65)" opacity="1">
<path style="fill:#04447C;fill-opacity:1" d="M12.25 -1.5Q10.75 -0.65 9.65 -0.3Q8.55 0 7.45 0Q5.9 0 5.3 -0.85Q4.75 -1.75 4.75 -4L4.95 -10.65Q5.2 -16.25 5.2 -20.85Q5.2 -26.7 4.8 -29.85Q4.45 -33 3.7 -34.8Q5.25 -35.7 6.3 -36.05Q7.35 -36.4 8.35 -36.4Q9.9 -36.4 10.55 -35.45Q11.2 -34.55 11.2 -32.5L10.95 -26.6Q10.7 -20.8 10.7 -15.1Q10.7 -9.5 11.05 -6.45Q11.4 -3.4 12.25 -1.5" />
</g>
<g id="PathID_10" transform="matrix(0.458773, -0.0961956, 0.0961956, 0.458773, 225.65, 228.2)" opacity="1">
<path style="fill:#04447C;fill-opacity:1" d="M10.45 -20.3Q15.85 -26.35 19.05 -30.15Q22.25 -34 23.35 -36.55Q25.8 -36 26.85 -35.25Q27.9 -34.5 27.9 -33.4Q27.9 -31.75 20.15 -24.5Q16.95 -21.45 15.2 -19.95Q15.85 -19.4 17.9 -17.3Q30.25 -4.4 33.05 -4.25Q32.55 -1.75 31.65 -0.65Q30.75 0.45 29.5 0.45Q28.4 0.45 27.25 -0.3Q26.1 -1.05 24.25 -3L19.15 -8.7L10.45 -18.45L10.45 -15.4Q10.45 -9.6 10.7 -6.6Q11 -3.6 11.7 -1.75Q10.25 -0.75 9.25 -0.35Q8.25 0 7.35 0Q5.85 0 5.2 -1.1Q4.55 -2.2 4.55 -4.45L4.75 -11.2Q5 -16.75 5 -21.05Q5 -27 4.65 -29.95Q4.3 -32.9 3.5 -34.8Q4.95 -35.65 6 -36Q7.05 -36.35 8 -36.35Q9.55 -36.35 10.2 -35.45Q10.85 -34.55 10.85 -32.55L10.75 -30.65Q10.45 -25.1 10.45 -20.3" />
</g>
<g id="PathID_11" transform="matrix(0.458773, -0.0961956, 0.0961956, 0.458773, 240.3, 225.15)" opacity="1">
<path style="fill:#04447C;fill-opacity:1" d="M12.25 -1.5Q10.75 -0.65 9.65 -0.3Q8.55 0 7.45 0Q5.9 0 5.3 -0.85Q4.75 -1.75 4.75 -4L4.95 -10.65Q5.2 -16.25 5.2 -20.85Q5.2 -26.7 4.8 -29.85Q4.45 -33 3.7 -34.8Q5.25 -35.7 6.3 -36.05Q7.35 -36.4 8.35 -36.4Q9.9 -36.4 10.55 -35.45Q11.2 -34.55 11.2 -32.5L10.95 -26.6Q10.7 -20.8 10.7 -15.1Q10.7 -9.5 11.05 -6.45Q11.4 -3.4 12.25 -1.5" />
</g>
<g id="PathID_12" transform="matrix(0.458773, -0.0961956, 0.0961956, 0.458773, 247.2, 223.7)" opacity="1">
<path style="fill:#04447C;fill-opacity:1" d="M43.85 -34.7Q43.4 -32.85 43.2 -31.2Q43 -29.6 43 -27.6Q43 -19.7 43.95 -13.15Q44.95 -6.65 46.95 -1.5Q45.45 -0.65 44.35 -0.3Q43.25 0 42.15 0Q40.95 0 40.25 -0.5Q39.55 -1.05 39.2 -2.4Q39.05 -2.8 38.65 -11.2Q38.25 -19.6 37.7 -27.15Q33.4 -17.75 27.55 -6Q26.75 -4.15 26.4 -3.65Q25.85 -2.35 25.25 -1.85Q24.7 -1.4 23.9 -1.4Q22.4 -1.4 21 -4.35L20.55 -5.3L13.8 -18.75Q11.05 -24.2 10.2 -27.05L9.5 -12.25Q9.15 -3.2 8.55 -1.55Q8.35 -0.85 7.7 -0.4Q7.1 0 6.05 0Q5.35 0 4.35 -0.3Q3.4 -0.6 1.9 -1.5Q3.8 -6.65 4.8 -13.2Q5.8 -19.75 5.8 -27.75Q5.8 -29.6 5.55 -31.2Q5.35 -32.85 4.95 -34.7Q6 -35.65 6.75 -36Q7.55 -36.4 8.4 -36.4Q11.1 -36.4 16.5 -25.25L19.7 -18.7Q22.5 -13.15 23.4 -11.55L24.35 -9.95Q24.7 -9.95 30.6 -21.95L34.6 -30Q36.25 -33.35 37.55 -34.85Q38.9 -36.4 40.35 -36.4Q41.2 -36.4 41.95 -36Q42.75 -35.65 43.85 -34.7" />
</g>
<g id="PathID_13" transform="matrix(0.458773, -0.0961956, 0.0961956, 0.458773, 269.55, 219)" opacity="1">
<path style="fill:#04447C;fill-opacity:1" d="M23.7 -30.25Q22 -30.8 20.15 -31.1Q18.35 -31.4 15.6 -31.4L11.25 -31.3L10.55 -31.3L10.35 -21.45L11.2 -21.45L13.65 -21.45Q17 -21.45 19 -21.55Q21.05 -21.7 22.45 -22.05Q22.95 -20.95 23.1 -20.35Q23.3 -19.8 23.3 -19.35Q23.3 -17.9 22.35 -17.25Q21.4 -16.65 19.45 -16.65L16.65 -16.7L12.85 -16.75L10.95 -16.7L10.3 -16.7L10.2 -11.5L10.05 -4.9L10.25 -4.9L14.8 -4.85Q17.4 -4.85 19.2 -5.1Q21 -5.4 22.8 -6.15Q23.6 -4.9 23.85 -4.1Q24.15 -3.35 24.15 -2.7Q24.15 -1.15 23.1 -0.5Q22.05 0.1 19.45 0.1L15.9 0L12.45 -0.05Q9.85 -0.05 7.25 0.1L6.6 0.1Q5.5 0.1 5 -0.4Q4.55 -0.95 4.55 -2.15L4.65 -4.8Q5.05 -12.4 5.05 -19Q5.05 -25.55 4.8 -29.5Q4.55 -33.45 4.1 -36.05L7.65 -36.05Q13.5 -36.05 19.4 -36.4L21 -36.5Q23.15 -36.5 24.1 -35.9Q25.05 -35.35 25.05 -33.95Q25.05 -33.25 24.75 -32.35Q24.45 -31.5 23.7 -30.25" />
</g>
<g id="PathID_14" transform="matrix(0.458773, -0.0961956, 0.0961956, 0.458773, 281.65, 216.5)" opacity="1">
<path style="fill:#04447C;fill-opacity:1" d="M10.6 -31.35L10.4 -22.65L10.35 -15.25L10.4 -9.8L10.55 -5.35Q11.35 -5.15 12.45 -5Q13.55 -4.9 14.7 -4.9Q21.35 -4.9 25.4 -8.55Q29.5 -12.25 29.5 -18.25Q29.5 -24.2 25.45 -27.9Q21.4 -31.65 14.95 -31.65Q13.65 -31.65 12.45 -31.55L10.6 -31.35M3.5 -36.2L10.65 -36.35L14.15 -36.55Q23.95 -36.55 29.8 -31.8Q35.65 -27.1 35.65 -19.3Q35.65 -15.15 33.9 -11.4Q32.2 -7.7 28.9 -4.9Q25.95 -2.35 21.95 -1.05Q17.95 0.2 13 0.2Q7.95 0.2 6.2 -0.65Q4.5 -1.55 4.5 -4.1L4.7 -9.9Q4.95 -15.55 4.95 -21Q4.95 -26.9 4.55 -30.35Q4.2 -33.8 3.5 -36.2" />
</g>
<g id="PathID_15" transform="matrix(0.458773, -0.0961956, 0.0961956, 0.458773, 298.8, 212.9)" opacity="1">
<path style="fill:#04447C;fill-opacity:1" d="M12.25 -1.5Q10.75 -0.65 9.65 -0.3Q8.55 0 7.45 0Q5.9 0 5.3 -0.85Q4.75 -1.75 4.75 -4L4.95 -10.65Q5.2 -16.25 5.2 -20.85Q5.2 -26.7 4.8 -29.85Q4.45 -33 3.7 -34.8Q5.25 -35.7 6.3 -36.05Q7.35 -36.4 8.35 -36.4Q9.9 -36.4 10.55 -35.45Q11.2 -34.55 11.2 -32.5L10.95 -26.6Q10.7 -20.8 10.7 -15.1Q10.7 -9.5 11.05 -6.45Q11.4 -3.4 12.25 -1.5" />
</g>
<g id="PathID_16" transform="matrix(0.458773, -0.0961956, 0.0961956, 0.458773, 305.7, 211.45)" opacity="1">
<path style="fill:#04447C;fill-opacity:1" d="M16.8 -27.1L16.1 -24.65Q13.3 -18 12.05 -15.65L21.3 -15.65Q20.1 -18.2 18.8 -21.35Q17.55 -24.55 16.8 -27.1M22.75 -11.3L10.25 -11.3Q8.4 -7.3 7.65 -4.95Q6.9 -2.6 6.9 -1L6.85 -0.1L5.55 0.05L5.05 0.05Q3.25 0.05 2.25 -0.7Q1.3 -1.45 1.3 -2.95Q1.3 -4.35 6.05 -13.95Q10.85 -23.6 14.35 -31.5L13.6 -32.3L12.55 -33.7Q13.6 -35.2 14.4 -35.8Q15.25 -36.4 16.2 -36.4Q17.5 -36.4 18.6 -34.85Q19.7 -33.35 21.05 -30.1L24.2 -22.2Q31 -5.15 33.75 -2.35Q32.6 -0.9 31.7 -0.4Q30.85 0.05 29.8 0.05Q27 0.05 23.75 -8.7L22.75 -11.3" />
</g>
</g>
<g id="PathID_17" transform="matrix(0.281178, 0, 0, 0.281178, 302.85, 145.55)" opacity="0.4">
<path style="fill:#007A4B;fill-opacity:1" d="M167.95 39.25Q167.95 44.55 162.9 44.55Q157.85 44.55 157.85 39.25Q157.85 34.1 162.9 34.1Q167.95 34.1 167.95 39.25M180.6 63Q180.6 67.7 175.45 67.7Q170.6 67.7 170.6 63Q170.6 57.75 175.45 57.75Q180.6 57.75 180.6 63M166.05 68.6Q166.05 71.55 163.9 73.85Q161.65 76.1 158 76.1Q155.3 76.1 152.7 73.85Q150.9 71.55 150.9 68.6Q150.9 65.5 152.7 63.25Q155.3 61.2 158 61.2Q161.65 61.2 163.9 63.25Q166.05 65.5 166.05 68.6M165.05 94.6Q162.9 96.8 159.65 96.8Q156.85 96.8 154.4 94.6Q152.05 92.6 152.05 89.3Q152.05 86.4 154.4 84.2Q156.85 82.05 159.65 82.05Q167.4 82.05 167.4 89.3Q167.4 92.6 165.05 94.6M180.45 84.2Q185.3 84.2 185.3 89.3Q185.3 94.35 180.45 94.35Q175.1 94.35 175.1 89.3Q175.1 84.2 180.45 84.2M163.9 114.65Q161.65 116.75 158 116.75Q155.3 116.75 152.7 114.65Q150.9 112.25 150.9 109.35Q150.9 106.35 152.7 104.2Q155.3 101.95 158 101.95Q166.05 101.95 166.05 109.35Q166.05 112.25 163.9 114.65M162.9 144.85Q157.85 144.85 157.85 139.4Q157.85 134.65 162.9 134.65Q167.95 134.65 167.95 139.4Q167.95 144.85 162.9 144.85M180.6 116.3Q180.6 121.45 175.45 121.45Q170.6 121.45 170.6 116.3Q170.6 111.3 175.45 111.3Q180.6 111.3 180.6 116.3M149.35 21.45Q149.35 26.65 144.55 26.65Q139.6 26.65 139.6 21.45Q139.6 16.1 144.55 16.1Q149.35 16.1 149.35 21.45M125.2 35.9Q125.2 32.9 127.5 30.65Q129.75 28.5 132.8 28.5Q135.6 28.5 138.25 30.65Q140.5 32.9 140.5 35.9Q140.5 43.2 132.8 43.2Q125.2 43.2 125.2 35.9M153.5 45Q155.6 47.2 155.6 50.25Q155.6 53.4 153.5 55.6Q150.9 57.75 148 57.75Q144.85 57.75 142.75 55.6Q140.5 53.4 140.5 50.25Q140.5 47.2 142.75 45Q144.85 43 148 43Q150.9 43 153.5 45M113.75 20.05Q116.8 20.05 119.25 22.35Q121.25 24.85 121.25 27.55Q121.25 30.65 119.25 32.9Q116.8 35 113.75 35Q110.6 35 108.25 32.9Q106.25 30.65 106.25 27.55Q106.25 24.85 108.25 22.35Q110.6 20.05 113.75 20.05M116 8.85Q116 3.55 120.9 3.55Q125.6 3.55 125.6 8.85Q125.6 13.95 120.9 13.95Q116 13.95 116 8.85M87.2 4.8Q87.2 0 92.35 0Q96.95 0 96.95 4.8Q96.95 10.5 92.35 10.5Q87.2 10.5 87.2 4.8M86.75 19.1Q88.9 16.9 92.35 16.9Q95.25 16.9 97.6 19.1Q99.75 21.45 99.75 24.15Q99.75 27.5 97.6 29.4Q95.25 31.55 92.35 31.55Q88.9 31.55 86.75 29.4Q84.55 27.5 84.55 24.15Q84.55 21.45 86.75 19.1M92.35 38.05Q96.15 38.05 99 40.65Q101.9 43.65 101.9 47.65Q101.9 51.15 99 54.15Q96.15 56.75 92.35 56.75Q88.25 56.75 85.4 54.15Q82.4 51.15 82.4 47.65Q82.4 43.65 85.4 40.65Q88.25 38.05 92.35 38.05M118 46.35Q122.05 46.35 124.6 49.1Q127.5 51.95 127.5 55.95Q127.5 59.55 124.6 62.55Q122.05 65.15 118 65.15Q113.75 65.15 111.05 62.55Q108.15 59.55 108.15 55.95Q108.15 51.95 111.05 49.1Q113.75 46.35 118 46.35M133.25 66.6Q137.35 66.6 140.05 69.15Q142.95 71.75 142.95 76.1Q142.95 79.9 140.05 82.25Q137.35 85.2 133.25 85.2Q129.4 85.2 126.6 82.25Q123.6 79.9 123.6 76.1Q123.6 71.75 126.6 69.15Q129.4 66.6 133.25 66.6M133.25 92.7Q137.35 92.7 140.05 95.6Q142.95 98.3 142.95 102.3Q142.95 106.35 140.05 108.8Q137.35 111.5 133.25 111.5Q129.4 111.5 126.6 108.8Q123.6 106.35 123.6 102.3Q123.6 98.3 126.6 95.6Q129.4 92.7 133.25 92.7M71.2 20.05Q74.7 20.05 76.45 22.35Q78.8 24.85 78.8 27.55Q78.8 35 71.2 35Q68.3 35 65.8 32.9Q63.45 30.65 63.45 27.55Q63.45 24.85 65.8 22.35Q68.3 20.05 71.2 20.05M65.8 3.55Q70.85 3.55 70.85 8.85Q70.85 13.95 65.8 13.95Q60.8 13.95 60.8 8.85Q60.8 3.55 65.8 3.55M46.9 21.45Q46.9 26.65 41.65 26.65Q37.15 26.65 37.15 21.45Q37.15 16.1 41.65 16.1Q46.9 16.1 46.9 21.45M52.75 28.5Q55.95 28.5 58.2 30.65Q60.25 32.9 60.25 35.9Q60.25 38.95 58.2 41.15Q55.95 43.2 52.75 43.2Q45.2 43.2 45.2 35.9Q45.2 32.9 47.35 30.65Q49.6 28.5 52.75 28.5M74.7 49.1Q77.45 51.95 77.45 55.95Q77.45 59.55 74.7 62.55Q71.65 65.15 68.05 65.15Q63.95 65.15 61 62.55Q58.2 59.55 58.2 55.95Q58.2 51.95 61 49.1Q63.95 46.35 68.05 46.35Q71.65 46.35 74.7 49.1M22.05 44.55Q17 44.55 17 39.25Q17 34.1 22.05 34.1Q26.85 34.1 26.85 39.25Q26.85 44.55 22.05 44.55M38.05 43Q41.2 43 43.75 45Q45.7 47.2 45.7 50.25Q45.7 57.75 38.05 57.75Q34.95 57.75 32.6 55.6Q30.35 53.4 30.35 50.25Q30.35 47.2 32.6 45Q34.95 43 38.05 43M33.95 73.85Q31.65 76.1 28.45 76.1Q25.4 76.1 23.05 73.85Q20.95 71.55 20.95 68.6Q20.95 65.5 23.05 63.25Q25.4 61.2 28.45 61.2Q31.65 61.2 33.95 63.25Q35.95 65.5 35.95 68.6Q35.95 71.55 33.95 73.85M9.75 67.7Q4.9 67.7 4.9 63Q4.9 57.75 9.75 57.75Q14.75 57.75 14.75 63Q14.75 67.7 9.75 67.7M4.9 94.35Q0 94.35 0 89.3Q0 84.2 4.9 84.2Q9.75 84.2 9.75 89.3Q9.75 94.35 4.9 94.35M31.35 84.2Q33.5 86.4 33.5 89.3Q33.5 92.6 31.35 94.6Q28.65 96.8 25.95 96.8Q22.75 96.8 20.5 94.6Q18.45 92.6 18.45 89.3Q18.45 82.05 25.95 82.05Q28.65 82.05 31.35 84.2M58.2 69.15Q61 71.75 61 76.1Q61 79.9 58.2 82.25Q55.4 85.2 51.4 85.2Q47.35 85.2 44.65 82.25Q41.65 79.9 41.65 76.1Q41.65 71.75 44.65 69.15Q47.35 66.6 51.4 66.6Q55.4 66.6 58.2 69.15M58.2 95.6Q61 98.3 61 102.3Q61 106.35 58.2 108.8Q55.4 111.5 51.4 111.5Q47.35 111.5 44.65 108.8Q41.65 106.35 41.65 102.3Q41.65 98.3 44.65 95.6Q47.35 92.7 51.4 92.7Q55.4 92.7 58.2 95.6M68.05 112.85Q71.65 112.85 74.7 115.4Q77.45 118.35 77.45 122.35Q77.45 125.85 74.7 128.85Q71.65 131.45 68.05 131.45Q63.95 131.45 61 128.85Q58.2 125.85 58.2 122.35Q58.2 118.35 61 115.4Q63.95 112.85 68.05 112.85M52.75 134.65Q55.95 134.65 58.2 136.8Q60.25 138.5 60.25 142.05Q60.25 144.85 58.2 147.35Q55.95 149.45 52.75 149.45Q49.6 149.45 47.35 147.35Q45.2 144.85 45.2 142.05Q45.2 134.65 52.75 134.65M43.75 132.45Q41.2 134.65 38.05 134.65Q34.95 134.65 32.6 132.45Q30.35 129.95 30.35 127.25Q30.35 124.25 32.6 122Q34.95 119.9 38.05 119.9Q45.7 119.9 45.7 127.25Q45.7 129.95 43.75 132.45M76.45 145.1Q78.8 147.35 78.8 150.35Q78.8 157.75 71.2 157.75Q68.3 157.75 65.8 155.6Q63.45 153.45 63.45 150.35Q63.45 147.35 65.8 145.1Q68.3 142.95 71.2 142.95Q74.7 142.95 76.45 145.1M28.45 101.95Q35.95 101.95 35.95 109.35Q35.95 112.25 33.95 114.65Q31.65 116.75 28.45 116.75Q25.4 116.75 23.05 114.65Q20.95 112.25 20.95 109.35Q20.95 106.35 23.05 104.2Q25.4 101.95 28.45 101.95M9.75 121.45Q4.9 121.45 4.9 116.3Q4.9 111.3 9.75 111.3Q14.75 111.3 14.75 116.3Q14.75 121.45 9.75 121.45M26.85 139.4Q26.85 144.85 22.05 144.85Q17 144.85 17 139.4Q17 134.65 22.05 134.65Q26.85 134.65 26.85 139.4M65.8 163.9Q70.85 163.9 70.85 168.8Q70.85 173.55 65.8 173.55Q60.8 173.55 60.8 168.8Q60.8 163.9 65.8 163.9M41.65 162.55Q37.15 162.55 37.15 157.4Q37.15 152.45 41.65 152.45Q46.9 152.45 46.9 157.4Q46.9 162.55 41.65 162.55M153.5 122Q155.6 124.25 155.6 127.25Q155.6 129.95 153.5 132.45Q150.9 134.65 148 134.65Q144.85 134.65 142.75 132.45Q140.5 129.95 140.5 127.25Q140.5 124.25 142.75 122Q144.85 119.9 148 119.9Q150.9 119.9 153.5 122M127.5 122.35Q127.5 125.85 124.6 128.85Q122.05 131.45 118 131.45Q113.75 131.45 111.05 128.85Q108.15 125.85 108.15 122.35Q108.15 118.35 111.05 115.4Q113.75 112.85 118 112.85Q122.05 112.85 124.6 115.4Q127.5 118.35 127.5 122.35M140.5 142.05Q140.5 144.85 138.25 147.35Q135.6 149.45 132.8 149.45Q129.75 149.45 127.5 147.35Q125.2 144.85 125.2 142.05Q125.2 134.65 132.8 134.65Q135.6 134.65 138.25 136.8Q140.5 138.5 140.5 142.05M99 123.7Q101.9 126.3 101.9 129.95Q101.9 133.9 99 136.8Q96.15 139.4 92.35 139.4Q88.25 139.4 85.4 136.8Q82.4 133.9 82.4 129.95Q82.4 126.3 85.4 123.7Q88.25 120.8 92.35 120.8Q96.15 120.8 99 123.7M113.75 142.95Q116.8 142.95 119.25 145.1Q121.25 147.35 121.25 150.35Q121.25 153.45 119.25 155.6Q116.8 157.75 113.75 157.75Q110.6 157.75 108.25 155.6Q106.25 153.45 106.25 150.35Q106.25 147.35 108.25 145.1Q110.6 142.95 113.75 142.95M120.9 163.9Q125.6 163.9 125.6 168.8Q125.6 173.55 120.9 173.55Q116 173.55 116 168.8Q116 163.9 120.9 163.9M97.6 159.95Q95.25 161.9 92.35 161.9Q84.55 161.9 84.55 154.8Q84.55 151.45 86.75 149.45Q88.9 147.35 92.35 147.35Q95.25 147.35 97.6 149.45Q99.75 151.45 99.75 154.8Q99.75 157.75 97.6 159.95M96.95 172.15Q96.95 177.1 92.35 177.1Q87.2 177.1 87.2 172.15Q87.2 167.05 92.35 167.05Q96.95 167.05 96.95 172.15M139.6 157.4Q139.6 152.45 144.55 152.45Q149.35 152.45 149.35 157.4Q149.35 162.55 144.55 162.55Q139.6 162.55 139.6 157.4" />
</g>
<g id="PathID_18" transform="matrix(0.383578, -0.00208513, 0.00151616, 0.278912, 320.15, 174.85)" opacity="1">
<path style="fill:#FCB812;fill-opacity:1" d="M37.5 -14.85L37.5 -7.85Q37.5 -6.45 37.2 -5.6Q36.95 -4.75 36.2 -4.05Q35.45 -3.4 34.3 -2.8Q30.95 -1 27.85 -0.15Q24.8 0.65 21.2 0.65Q16.95 0.65 13.45 -0.65Q10 -1.95 7.55 -4.4Q5.1 -6.9 3.8 -10.4Q2.5 -13.95 2.5 -18.3Q2.5 -22.6 3.75 -26.15Q5.05 -29.7 7.5 -32.15Q10 -34.65 13.55 -35.95Q17.1 -37.3 21.6 -37.3Q25.3 -37.3 28.15 -36.3Q31 -35.3 32.75 -33.8Q34.55 -32.3 35.45 -30.6Q36.35 -28.95 36.35 -27.65Q36.35 -26.25 35.3 -25.25Q34.25 -24.25 32.8 -24.25Q32 -24.25 31.25 -24.6Q30.55 -25 30.05 -25.7Q28.65 -27.85 27.7 -28.95Q26.75 -30.05 25.15 -30.8Q23.55 -31.6 21.05 -31.6Q18.45 -31.6 16.4 -30.7Q14.4 -29.8 12.95 -28.1Q11.5 -26.4 10.75 -23.95Q10 -21.5 10 -18.5Q10 -12.05 12.95 -8.55Q15.9 -5.1 21.25 -5.1Q23.8 -5.1 26.05 -5.75Q28.35 -6.45 30.7 -7.7L30.7 -13.65L24.9 -13.65Q22.85 -13.65 21.75 -14.25Q20.7 -14.9 20.7 -16.4Q20.7 -17.6 21.6 -18.4Q22.5 -19.25 24 -19.25L32.45 -19.25Q34 -19.25 35.05 -18.95Q36.15 -18.65 36.8 -17.7Q37.5 -16.75 37.5 -14.85" />
</g>
<g id="PathID_19" transform="matrix(0.185809, -0.0302667, 0.0266368, 0.163525, 339.3, 183.85)" opacity="1">
<path style="fill:#D21108;fill-opacity:1" d="M94.05 5.05Q91.65 -2.7 99.1 1.4Q103.65 4.3 107.6 8.4Q131.05 32.3 131.05 65.95Q131.05 100.6 107.75 124.05Q93.75 138.05 72.3 144.3L78.85 172.9Q78.25 177.9 73.85 177.15L6.15 147Q-3.75 142.45 2.35 133.8L51.3 74.3Q54.65 72.15 57.4 75.35L63.65 102.6Q84.65 95.45 92.1 85.1Q104.55 67.3 103.05 41.45Q101.35 20.15 94.05 5.05" />
</g>
</svg>
