<?xml version="1.0" standalone="no"?>
<!DOCTYPE svg PUBLIC "-//W3C//DTD SVG 20010904//EN"
 "http://www.w3.org/TR/2001/REC-SVG-20010904/DTD/svg10.dtd">
<svg version="1.0" xmlns="http://www.w3.org/2000/svg"
 width="526.000000pt" height="527.000000pt" viewBox="0 0 526.000000 527.000000"
 preserveAspectRatio="xMidYMid meet">
<metadata>
Created by potrace 1.15, written by Peter Selinger 2001-2017
</metadata>
<g transform="translate(0.000000,527.000000) scale(0.100000,-0.100000)"
fill="#000000" stroke="none">
<path d="M1760 4366 c-52 -6 -86 -14 -75 -17 17 -5 14 -8 -15 -17 -33 -11 -32
-12 23 -8 34 3 55 1 52 -5 -4 -5 33 -9 89 -9 75 0 109 -5 163 -24 37 -14 82
-28 98 -31 29 -7 30 -7 8 -18 -23 -10 -43 -59 -43 -104 0 -48 80 -69 131 -35
15 9 45 29 68 45 22 15 41 31 41 36 0 15 -25 30 -74 43 l-48 13 33 7 c47 10
216 -27 292 -63 53 -25 70 -29 112 -23 47 5 107 -7 183 -37 39 -15 26 -32 -20
-25 -24 3 -74 9 -111 12 -68 7 -69 7 -65 -17 2 -17 16 -31 48 -46 74 -38 187
-27 236 22 23 23 33 26 78 24 28 -2 66 1 83 5 29 7 32 10 22 28 -6 11 -17 17
-24 14 -8 -3 -17 -1 -19 3 -3 4 -34 14 -68 21 -35 7 -73 19 -85 26 -13 8 -51
22 -85 30 -35 9 -81 26 -103 37 -22 11 -67 26 -100 32 -33 7 -89 20 -125 28
-237 55 -518 77 -700 53z"/>
<path d="M1440 4349 c-116 -21 -150 -33 -165 -55 -14 -22 -14 -24 10 -30 26
-6 78 3 215 42 47 13 103 26 125 30 33 5 37 8 20 14 -26 11 -147 10 -205 -1z"/>
<path d="M1633 4300 c-54 -11 -83 -27 -83 -45 0 -12 20 -15 110 -15 98 0 110
-2 110 -17 0 -32 40 -84 75 -98 36 -16 81 -12 128 12 73 37 -9 123 -118 123
-16 0 -44 8 -60 19 -38 23 -107 32 -162 21z"/>
<path d="M375 4220 c-49 -20 -98 -101 -87 -145 9 -38 5 -77 -9 -90 -18 -19
-178 -74 -235 -82 l-44 -6 0 -68 c0 -54 3 -69 15 -69 8 0 35 -10 59 -22 53
-25 72 -17 82 39 7 37 21 48 51 40 16 -4 16 -6 -4 -12 -11 -4 -23 -15 -26 -26
-5 -20 7 -26 18 -9 3 6 18 10 33 10 32 1 62 21 62 42 0 9 -7 32 -15 51 -18 44
-19 79 -2 75 21 -4 58 13 54 25 -3 7 -10 11 -16 10 -17 -4 -13 27 4 34 9 3 22
18 31 34 10 20 22 29 39 29 26 0 35 24 13 34 -7 3 30 4 82 2 161 -6 285 -62
397 -179 l59 -62 -70 3 c-39 2 -91 -1 -116 -6 l-45 -10 40 -1 c74 -2 165 -21
218 -46 28 -14 41 -22 27 -18 -14 3 -29 6 -35 6 -5 0 -84 -1 -175 -3 -141 -2
-155 -4 -101 -11 35 -4 69 -13 74 -18 6 -6 60 -8 141 -4 l132 6 34 -31 c38
-33 77 -92 61 -92 -6 0 -18 12 -28 26 -10 14 -27 35 -37 47 -19 20 -19 20 -35
0 -9 -11 -30 -25 -46 -31 l-30 -10 33 -1 c71 -2 17 -40 -61 -42 -24 -1 -32 -4
-19 -6 13 -3 21 -10 19 -16 -2 -8 -42 -13 -123 -14 -86 -1 -136 -7 -182 -22
-54 -16 -82 -19 -195 -14 -132 5 -204 -4 -199 -26 1 -6 -6 -11 -15 -12 -12 0
-14 -2 -5 -6 8 -3 -7 -15 -35 -28 -55 -25 -120 -68 -146 -96 -16 -17 -18 -43
-17 -304 2 -265 3 -284 19 -276 10 6 23 6 34 0 9 -6 22 -7 27 -4 6 3 10 -2 10
-13 0 -10 18 -35 39 -54 32 -28 41 -32 46 -20 6 15 -10 32 -31 32 -19 0 -35
26 -28 45 5 13 15 16 40 12 26 -4 36 -2 44 12 5 10 7 21 4 24 -3 3 -1 15 6 26
13 26 -2 28 -40 6 -14 -8 -35 -14 -47 -15 -12 0 -28 -9 -36 -21 -9 -12 -17
-16 -21 -10 -9 14 22 44 61 60 26 11 153 23 153 14 0 -1 -9 -10 -19 -20 -11
-10 -22 -31 -26 -48 l-6 -30 20 24 c12 13 21 29 21 37 0 8 6 14 14 14 7 0 25
9 39 20 14 11 31 20 39 20 7 0 23 16 35 35 28 43 49 37 63 -17 l11 -40 41 7
c35 6 40 5 35 -9 -5 -11 -1 -16 13 -16 16 0 20 -7 20 -31 0 -43 21 -32 41 21
21 56 28 41 18 -35 -13 -103 -11 -133 11 -155 55 -55 96 -3 106 136 7 90 16
97 32 24 9 -45 13 -43 28 15 9 32 8 34 32 -208 5 -53 15 -104 22 -112 15 -18
54 -20 68 -2 11 13 1 92 -16 125 -10 19 -4 90 8 97 5 3 2 18 -5 33 -7 15 -16
38 -20 52 -7 23 -6 24 9 11 15 -12 19 -12 33 2 15 15 14 18 -16 44 -68 57 -92
86 -82 96 7 7 15 6 26 -3 14 -12 29 -11 68 5 13 5 16 3 11 -8 -3 -8 -15 -18
-27 -22 -19 -6 -20 -8 -4 -12 10 -3 29 2 42 11 17 11 25 12 28 3 10 -30 97 64
104 112 2 17 34 44 41 36 3 -2 -2 -15 -10 -27 -8 -13 -17 -34 -21 -48 -6 -24
-5 -24 23 7 25 28 33 31 64 26 28 -4 36 -2 36 10 0 8 9 34 20 58 15 33 20 38
20 21 0 -13 -5 -32 -10 -42 -7 -14 -6 -29 7 -54 25 -54 43 -46 43 19 0 69 17
72 26 5 6 -48 24 -80 24 -44 0 22 69 84 95 84 11 0 30 7 42 15 16 12 23 12 27
2 3 -6 4 -3 3 8 -2 18 -9 20 -62 17 l-60 -2 40 16 c67 27 77 24 106 -29 22
-41 28 -46 40 -35 8 7 29 14 47 15 61 4 69 20 13 27 -68 9 -65 26 4 26 43 0
53 3 49 14 -3 9 3 17 15 21 12 3 21 10 21 15 0 6 -11 5 -26 0 -14 -6 -61 -10
-104 -10 -69 0 -78 2 -76 18 2 14 16 18 68 22 36 3 71 10 79 16 8 6 35 18 61
28 32 12 60 33 88 66 45 53 39 75 -9 35 -25 -22 -36 -25 -66 -19 -30 5 -35 4
-35 -13 0 -23 -36 -60 -47 -49 -4 4 2 15 15 24 18 14 20 20 10 30 -10 10 -10
14 1 21 20 13 4 31 -27 31 l-27 1 35 30 35 31 -65 -7 c-36 -4 -63 -5 -60 -2 3
3 25 22 50 43 25 20 36 34 25 30 -98 -39 -119 -45 -136 -35 -13 7 -35 4 -76
-11 -58 -20 -92 -26 -79 -13 15 16 174 66 226 72 30 3 72 17 93 29 20 13 37
19 37 13 0 -20 20 -11 77 36 88 71 150 95 242 92 93 -3 110 6 153 84 18 32 47
84 65 115 18 31 33 67 33 79 0 25 -26 43 -64 43 -35 0 -103 -63 -112 -103 -3
-18 -25 -53 -48 -78 -22 -26 -48 -57 -57 -70 l-16 -22 -22 22 c-35 35 -89 24
-146 -28 -49 -45 -55 -46 -160 -27 -76 13 -75 21 10 45 44 12 82 37 72 47 -3
3 -58 -7 -122 -22 l-117 -27 -79 26 c-84 29 -109 33 -109 17 0 -5 -4 -10 -10
-10 -5 0 -7 6 -4 14 3 7 -2 30 -10 50 -21 50 -62 66 -173 66 -88 0 -121 9
-109 28 3 5 18 13 33 17 90 22 266 195 199 195 -31 0 -163 -29 -198 -44 -20
-9 -53 -36 -73 -61 -41 -50 -74 -63 -111 -46 -38 17 -31 46 15 59 43 13 66 35
56 53 -8 11 -22 10 -137 -12 -66 -13 -69 -12 -185 24 -118 37 -202 47 -248 27z
m880 -355 c33 -7 32 -23 -1 -31 -22 -6 -24 -8 -11 -16 11 -5 30 -3 54 7 35 15
41 15 94 -6 32 -11 60 -27 63 -35 6 -15 -69 -65 -95 -63 -10 0 -11 2 -1 6 6 2
12 11 12 19 0 19 -56 18 -92 0 -27 -14 -28 -14 -28 10 0 14 -4 23 -10 19 -6
-3 -13 1 -16 9 -3 9 -10 13 -15 10 -5 -3 -9 2 -9 10 0 8 -12 24 -26 35 l-27
21 29 0 c23 0 26 2 14 10 -15 11 -9 10 65 -5z m-235 -275 c0 -5 -11 -12 -24
-16 -13 -3 -36 -19 -50 -35 -14 -16 -31 -29 -36 -29 -6 0 -10 -4 -10 -8 0 -5
48 -7 108 -5 99 3 105 2 77 -12 -16 -8 -59 -15 -95 -16 l-65 -2 65 -7 c68 -9
127 -27 117 -36 -3 -3 -15 0 -27 6 -27 15 -122 8 -173 -12 -20 -8 -51 -27 -67
-43 -54 -51 -91 -155 -56 -155 8 0 16 -10 18 -22 3 -25 32 -34 73 -24 34 9 85
55 85 76 0 22 25 31 95 34 28 2 56 6 62 9 5 3 23 2 39 -3 l29 -10 -27 4 c-24
3 -28 0 -28 -22 0 -15 -14 -38 -38 -61 -21 -20 -59 -68 -86 -107 -37 -56 -55
-73 -78 -78 -31 -6 -65 7 -84 32 -6 8 -16 12 -23 8 -12 -8 -51 28 -51 46 0 4
-8 8 -18 8 -24 0 -182 162 -182 186 1 11 9 52 19 93 18 77 52 122 89 120 15
-1 15 -2 0 -6 -10 -2 -18 -13 -18 -23 0 -10 -3 -26 -7 -36 -13 -33 74 -8 152
45 124 85 215 128 215 101z"/>
<path d="M1535 4093 c-92 -19 -132 -53 -160 -133 -16 -45 -5 -88 18 -73 6 4
50 6 98 4 122 -4 199 32 214 100 7 32 -16 83 -44 99 -19 10 -87 12 -126 3z"/>
<path d="M1909 4050 c-74 -30 -100 -48 -147 -101 -35 -40 -30 -49 29 -49 36 0
193 44 237 66 36 19 43 54 17 88 -21 28 -61 27 -136 -4z"/>
<path d="M2358 4050 c-9 -6 -22 -34 -28 -66 -10 -47 -9 -59 4 -79 27 -41 60
-56 113 -53 l48 3 3 40 c7 85 -37 165 -91 165 -18 0 -40 -5 -49 -10z"/>
<path d="M2543 4034 c-17 -7 -16 -67 1 -108 15 -36 66 -80 105 -89 13 -3 39 0
58 8 27 11 33 20 33 43 0 16 -10 44 -22 62 -33 48 -139 99 -175 84z"/>
<path d="M3319 3998 c-12 -36 -2 -48 58 -78 36 -18 74 -45 85 -61 27 -37 95
-81 123 -81 12 0 33 -9 46 -20 l24 -19 -29 7 -29 7 28 -37 c16 -21 45 -46 66
-56 36 -19 86 -57 176 -135 34 -30 48 -36 80 -34 30 2 48 -4 77 -26 39 -30 50
-28 52 10 0 16 -12 36 -35 59 -39 38 -91 55 -91 30 0 -8 -5 -14 -11 -14 -5 0
-7 -4 -4 -10 3 -5 1 -10 -5 -10 -15 0 -67 59 -90 101 -26 49 -101 109 -239
190 -30 18 -76 52 -103 75 -46 42 -118 86 -135 83 -23 -4 -43 2 -38 11 3 6 4
10 1 10 -3 0 -6 -1 -7 -2z"/>
<path d="M2856 3895 c-19 -19 -30 -76 -21 -104 7 -23 68 -45 126 -44 43 0 93
27 110 60 10 19 9 26 -7 44 -48 54 -172 80 -208 44z"/>
<path d="M3121 3743 c-22 -27 -21 -43 5 -94 22 -43 39 -52 89 -45 25 4 45 11
45 17 0 18 15 9 27 -17 6 -14 9 -32 6 -40 -11 -30 26 -101 68 -129 23 -14 38
-29 36 -32 -3 -3 -24 -2 -46 2 -42 7 -60 23 -93 84 -14 26 -23 31 -55 31 -44
0 -55 -6 -72 -37 -30 -57 4 -93 89 -93 33 0 60 -4 60 -9 0 -13 -26 -21 -68
-21 -74 -1 -110 -67 -52 -97 23 -13 134 -11 224 3 16 3 44 0 63 -7 19 -6 36
-9 39 -6 6 6 -15 54 -38 89 -12 18 -15 29 -8 33 27 17 84 -71 96 -146 7 -39 6
-42 -12 -35 -97 37 -234 27 -317 -24 -71 -44 -107 -50 -235 -41 -62 5 -116 12
-119 15 -4 3 1 6 10 6 9 0 20 6 24 14 4 7 15 15 23 18 11 3 9 9 -9 24 -12 10
-37 39 -54 64 -38 56 -52 67 -99 80 -74 21 -133 -41 -108 -114 11 -35 40 -61
91 -83 22 -10 27 -19 32 -65 3 -29 12 -75 20 -103 8 -27 13 -51 12 -53 -1 -2
-32 3 -69 9 -77 14 -111 5 -127 -37 -14 -38 4 -84 49 -126 20 -20 54 -56 75
-82 43 -52 72 -59 105 -23 23 25 58 158 47 184 -7 20 5 39 15 22 7 -10 14 -9
33 4 l26 17 -6 -35 c-6 -40 6 -60 44 -70 15 -3 38 -15 51 -26 14 -10 37 -19
53 -19 15 0 34 -6 41 -13 36 -36 106 -52 94 -21 -3 8 -2 13 3 9 5 -3 11 1 14
7 4 10 7 11 18 1 10 -10 10 -13 1 -13 -8 0 -10 -8 -6 -24 5 -19 -2 -29 -35
-52 -68 -48 -107 -155 -61 -167 48 -12 149 46 150 87 0 6 9 22 19 35 l18 24
37 -34 c21 -19 51 -42 68 -51 18 -10 37 -31 44 -48 13 -30 37 -40 49 -20 9 14
25 12 25 -3 0 -7 10 -24 22 -36 l21 -23 13 23 c7 13 13 45 14 71 0 60 7 77 30
71 10 -3 21 1 25 7 6 9 11 7 19 -7 8 -16 16 -19 33 -12 19 7 21 14 17 46 -4
34 -3 32 10 -12 8 -27 15 -51 16 -52 0 -2 -6 -3 -14 -3 -7 0 -19 -7 -27 -16
-12 -14 -14 -14 -27 3 -13 17 -14 17 -27 -1 -27 -35 -33 -124 -10 -129 6 -1
18 15 29 36 14 29 21 36 28 25 6 -10 14 -7 32 16 l24 29 4 -69 c6 -120 -71
-284 -133 -284 -11 0 -17 4 -14 10 3 6 -3 10 -14 10 -27 0 -91 -57 -91 -80 0
-29 -28 -50 -66 -50 -38 0 -42 7 -17 26 16 11 15 13 -10 19 -38 10 -97 -9
-131 -40 -32 -30 -30 -46 8 -60 20 -7 39 -5 71 7 25 8 42 11 39 7 -8 -14 24
-10 78 8 50 18 50 18 65 -4 25 -37 110 -25 163 22 25 22 89 49 98 41 11 -12
-51 -74 -81 -80 -17 -4 -45 -19 -62 -35 -41 -39 -103 -71 -140 -71 -16 0 -45
9 -64 21 -26 16 -43 19 -70 14 -102 -18 -153 -17 -182 4 -48 35 -86 25 -123
-31 -12 -19 -16 -37 -12 -54 7 -25 9 -26 63 -22 36 3 60 11 68 21 7 10 17 17
24 17 13 0 14 -2 2 -33 -9 -22 -16 -25 -98 -31 -48 -4 -103 -11 -122 -14 -39
-8 -55 -32 -21 -32 12 0 19 4 15 9 -7 12 6 14 145 15 63 0 124 -3 135 -8 45
-18 -34 -29 -237 -30 -212 -2 -305 -15 -117 -17 144 -1 185 -17 48 -18 -123
-1 -169 -8 -169 -26 0 -18 45 -23 245 -30 94 -3 212 -13 264 -21 77 -13 106
-13 160 -3 72 12 108 7 211 -30 47 -17 88 -20 273 -24 120 -3 250 0 290 5 39
5 99 11 132 14 85 7 105 12 105 28 0 17 -39 33 -110 47 -30 5 -201 14 -380 19
-299 8 -333 11 -425 34 -77 20 -104 31 -118 50 -12 17 -35 29 -73 37 -46 10
-53 15 -40 24 10 8 12 15 5 22 -7 7 -2 13 16 17 19 5 45 -2 92 -24 36 -17 89
-34 117 -37 28 -2 79 -14 113 -26 56 -19 66 -20 95 -8 18 8 47 13 63 11 94 -8
392 0 433 12 34 10 43 37 20 56 -13 9 -138 24 -208 24 -19 0 -84 -5 -145 -11
-76 -7 -120 -7 -142 0 -40 13 -42 26 -6 35 23 6 24 8 10 19 -9 7 -13 15 -9 20
4 4 -12 4 -34 0 -32 -5 -43 -3 -47 8 -9 24 1 26 89 20 83 -6 83 -6 111 24 15
17 35 50 44 75 l17 45 -102 6 c-95 6 -108 4 -213 -27 -62 -18 -113 -30 -113
-26 0 17 40 38 93 48 32 7 71 21 86 32 16 10 31 17 35 13 12 -12 90 -3 105 12
12 12 12 15 2 15 -8 0 3 14 24 30 21 17 40 28 43 25 3 -3 -3 -12 -14 -19 -21
-16 -19 -20 13 -30 17 -5 28 0 45 19 25 30 74 58 86 51 4 -2 8 8 7 22 0 20 5
28 22 30 12 2 25 12 28 23 4 10 11 19 16 19 6 0 7 -6 3 -12 -6 -10 -4 -10 7 0
7 6 29 12 49 11 28 0 31 -2 15 -9 -11 -5 -32 -11 -47 -14 -36 -8 -62 -58 -59
-116 1 -35 -1 -42 -11 -32 -19 19 -30 14 -18 -7 5 -11 10 -36 10 -55 0 -20 5
-36 10 -36 6 0 10 7 10 15 0 8 7 15 15 15 9 0 12 -6 9 -15 -4 -8 -2 -15 4 -15
16 0 41 46 44 79 1 20 8 31 17 31 11 0 10 4 -5 15 -25 19 -3 19 51 0 65 -24
165 -30 199 -12 l29 16 -39 6 c-21 4 -57 13 -79 20 l-40 14 50 -6 c48 -6 49
-5 35 12 -16 20 -24 20 95 -1 19 -4 35 -2 35 3 0 13 -61 33 -106 34 -79 1 -82
18 -3 18 58 1 78 -3 82 -13 3 -8 32 -20 64 -26 32 -7 65 -18 73 -25 17 -14 57
-25 115 -30 22 -2 50 -7 63 -10 20 -5 21 -4 10 15 -7 11 -21 23 -30 26 -10 3
-18 13 -18 22 0 12 3 13 8 5 4 -6 24 -23 43 -36 36 -24 69 -22 69 5 0 18 -71
108 -85 108 -21 0 -107 103 -93 112 9 5 6 9 -7 14 -11 4 -28 14 -37 22 -26 22
-22 -1 3 -24 27 -24 109 -138 109 -151 0 -5 -20 9 -44 32 -57 56 -130 105
-153 105 -10 -1 6 -12 35 -27 58 -27 102 -81 79 -95 -19 -12 -24 -10 -31 16
-12 47 -104 90 -131 62 -6 -6 -18 -22 -28 -35 -10 -16 -35 -30 -64 -38 -53
-13 -122 -17 -90 -4 10 4 18 10 17 14 0 4 14 21 32 37 29 26 30 31 16 42 -16
13 -34 98 -21 98 15 0 32 -38 26 -59 -6 -24 14 -29 23 -6 4 8 11 15 16 15 6 0
8 -7 4 -15 -3 -8 -1 -15 3 -15 14 0 19 23 10 40 -4 8 -11 28 -14 44 -6 27 -7
27 -20 10 -13 -18 -14 -18 -15 -1 0 20 -11 22 -29 5 -11 -11 -11 -9 0 9 7 12
10 26 6 30 -5 4 -11 2 -15 -4 -4 -6 -20 -13 -36 -15 -32 -4 -93 -78 -81 -98 6
-9 10 -8 17 4 15 26 28 18 22 -14 -4 -19 -2 -30 5 -30 6 0 11 13 11 29 0 16 6
31 13 34 9 3 9 9 0 25 -7 12 -9 23 -5 26 13 8 34 -51 30 -85 -2 -18 -11 -37
-22 -43 -10 -6 -30 -21 -44 -33 -27 -25 -53 -29 -84 -12 -14 7 -23 8 -30 1 -7
-7 -19 -7 -35 -1 -18 7 -23 6 -18 -4 4 -6 -3 -1 -14 12 -12 13 -21 33 -21 44
0 21 0 21 16 -2 25 -35 36 -5 13 33 -10 17 -19 47 -19 66 0 22 -3 30 -9 22 -6
-11 -15 -10 -44 4 -43 20 -49 40 -34 101 11 41 16 48 46 56 22 5 36 5 40 -2 5
-7 17 -7 36 -2 l30 9 -32 1 c-22 1 -33 6 -33 16 0 18 -41 20 -57 4 -7 -7 -13
-7 -17 0 -4 5 4 17 18 26 14 9 26 28 28 43 2 16 10 28 21 30 24 5 34 -26 13
-41 -11 -8 -15 -19 -10 -30 11 -29 28 -19 51 31 l22 47 -42 6 c-23 3 -33 7
-22 8 51 4 37 16 -19 16 l-62 0 0 -32 c0 -26 3 -30 14 -21 11 10 13 8 10 -12
-2 -18 -12 -28 -36 -35 -22 -6 -35 -17 -39 -33 -3 -14 -9 -20 -15 -14 -10 10
2 44 27 78 14 19 13 24 -21 69 -31 40 -38 45 -46 31 -5 -9 -6 -20 -3 -26 6
-10 -28 4 -80 32 -16 8 -48 19 -70 22 -22 4 -83 28 -135 54 l-95 47 0 155 c0
170 -5 191 -76 300 -33 51 -132 134 -159 133 -23 -1 -58 36 -70 73 -27 82
-127 122 -169 67z m207 -673 c1 -9 -13 -25 -35 -38 -38 -23 -38 -23 -8 -19 17
2 39 8 50 12 16 7 18 6 8 -6 -22 -22 -14 -32 12 -15 33 22 44 20 51 -9 8 -34
20 -31 28 6 7 37 26 29 26 -12 0 -37 -24 -85 -49 -99 -37 -19 -67 -10 -119 34
-135 116 -166 116 -52 0 105 -106 145 -129 213 -121 48 6 50 5 100 -43 59 -57
84 -66 133 -45 49 20 52 19 48 -12 l-4 -28 13 28 c7 15 16 24 20 21 13 -13 7
-37 -15 -71 -23 -32 -51 -43 -63 -23 -3 6 -14 10 -23 10 -15 0 -15 -2 -2 -10
12 -7 12 -12 2 -22 -9 -9 -12 -9 -12 0 0 7 -7 12 -15 12 -17 0 -65 -78 -65
-106 -1 -16 -4 -15 -21 9 -14 18 -30 27 -49 27 -19 0 -29 6 -33 20 -3 13 0 20
10 20 8 0 12 4 9 9 -3 5 1 12 10 15 28 11 36 6 19 -10 -25 -25 -8 -30 23 -7
15 11 38 24 52 28 13 4 37 15 53 25 l29 18 -31 7 c-18 4 -37 2 -44 -4 -9 -7
-38 0 -102 25 -122 47 -150 62 -204 109 -96 85 -156 126 -195 136 -47 12 -88
39 -69 46 7 2 9 11 6 20 -5 11 -3 14 6 9 7 -5 37 -5 67 -1 43 5 54 10 52 23
-2 12 12 21 57 33 71 20 109 20 113 -1z"/>
<path d="M3360 3761 c0 -5 7 -25 15 -46 9 -20 15 -44 14 -53 -5 -34 12 -63 41
-69 16 -3 39 -16 51 -29 19 -20 49 -33 49 -21 0 10 -51 106 -59 111 -5 4 -17
28 -27 54 -10 26 -23 50 -28 54 -15 11 -56 10 -56 -1z"/>
<path d="M2353 3718 c-18 -13 -37 -34 -43 -48 -15 -32 -35 -193 -27 -214 8
-21 107 -22 147 -1 56 29 76 103 40 145 -13 15 -20 37 -20 66 0 33 -5 46 -22
58 -29 21 -37 20 -75 -6z"/>
<path d="M2627 3702 c-22 -24 -21 -82 1 -147 27 -78 85 -93 114 -29 13 29 -4
157 -24 181 -16 19 -72 16 -91 -5z"/>
<path d="M2178 3670 c-28 -21 -87 -118 -136 -220 -18 -36 -54 -90 -82 -120
-62 -69 -83 -112 -75 -150 5 -22 -3 -50 -28 -107 -19 -43 -38 -96 -42 -118 -4
-21 -14 -51 -24 -65 -30 -45 -41 -80 -41 -135 0 -41 4 -55 14 -55 27 0 76 64
92 120 9 30 28 96 44 145 15 50 31 106 35 125 3 19 20 78 37 130 28 84 37 100
81 140 31 29 61 70 83 115 19 38 45 81 58 95 46 49 60 102 30 114 -21 8 -18 9
-46 -14z"/>
<path d="M3551 3571 c-11 -7 -4 -19 32 -56 26 -26 47 -50 47 -55 0 -5 12 -10
27 -12 21 -2 29 -10 36 -38 8 -32 22 -49 39 -50 3 0 11 13 16 29 10 28 -1 118
-16 132 -11 11 -137 59 -153 59 -8 0 -20 -4 -28 -9z"/>
<path d="M2890 3418 c-46 -76 -16 -158 58 -158 52 0 92 45 92 104 0 56 -32 86
-91 86 -34 0 -42 -5 -59 -32z"/>
<path d="M3780 3358 c-10 -24 -21 -71 -25 -105 -7 -61 -25 -79 -25 -25 0 31
-16 19 -25 -20 -6 -23 -1 -34 35 -70 l43 -41 -7 55 c-6 45 -4 57 8 61 12 5 14
0 10 -21 -4 -21 2 -36 28 -67 19 -22 44 -57 57 -77 12 -21 27 -38 32 -38 5 0
16 -18 25 -39 26 -66 42 -60 39 15 -2 35 0 62 5 59 4 -3 15 -2 23 1 12 4 13
11 5 35 -14 40 -25 36 -38 -13 -9 -31 -14 -38 -21 -27 -5 8 -9 23 -9 34 0 11
-11 38 -25 60 -13 22 -25 52 -25 67 0 21 -7 29 -34 38 -35 11 -35 12 -29 60 6
54 -2 100 -18 100 -5 0 -18 -19 -29 -42z"/>
<path d="M2088 3353 c-31 -33 -58 -85 -58 -111 0 -10 -4 -22 -9 -27 -9 -9 9
-78 23 -93 9 -8 92 15 121 34 50 32 50 113 2 185 -29 44 -47 46 -79 12z"/>
<path d="M2252 3194 c-25 -18 -52 -64 -52 -92 0 -27 37 -62 65 -62 14 0 45 10
69 22 l45 21 36 -31 c44 -39 108 -44 143 -12 33 31 30 92 -5 120 -24 19 -36
21 -84 16 -44 -5 -65 -2 -100 13 -53 25 -87 26 -117 5z"/>
<path d="M1688 2963 c-16 -8 -33 -24 -40 -36 -20 -39 -68 -209 -68 -245 0 -33
1 -34 22 -20 38 25 57 60 69 123 6 32 22 81 35 107 23 46 32 89 17 87 -5 -1
-20 -8 -35 -16z"/>
<path d="M360 2890 c0 -5 -30 -40 -67 -77 -37 -38 -63 -62 -58 -54 5 9 3 12
-6 9 -8 -3 -14 -13 -15 -24 0 -10 -6 -44 -13 -74 -8 -31 -12 -93 -10 -140 4
-78 7 -89 38 -132 19 -27 39 -48 44 -48 17 0 84 76 90 102 3 12 13 68 23 123
12 70 19 94 25 80 7 -19 8 -19 8 1 1 12 4 43 7 70 4 36 3 45 -5 34 -8 -12 -11
-8 -11 20 0 19 -7 48 -15 64 -8 15 -15 35 -15 42 0 8 -4 14 -10 14 -5 0 -10
-4 -10 -10z"/>
<path d="M2079 2871 c-56 -35 -87 -73 -95 -117 -10 -54 1 -78 44 -97 54 -24
72 -22 125 14 52 34 85 82 94 133 5 30 1 40 -25 66 -40 39 -83 40 -143 1z"/>
<path d="M530 2844 c-14 -35 -13 -174 1 -226 10 -37 8 -53 -10 -112 -25 -81
-26 -122 -5 -175 23 -58 40 -59 94 -6 30 29 54 45 66 43 14 -2 20 4 22 24 4
37 -32 167 -60 214 l-23 39 -9 -47 c-5 -27 -12 -48 -15 -48 -4 0 -14 35 -23
78 -13 57 -15 87 -8 117 15 64 13 125 -5 125 -9 0 -20 -12 -25 -26z"/>
<path d="M0 2548 l1 -253 18 37 c11 21 27 45 36 54 26 26 59 124 37 110 -7 -4
-11 33 -14 116 -3 135 -17 181 -56 186 l-22 3 0 -253z"/>
<path d="M955 2746 c-5 -28 -3 -51 5 -63 10 -15 11 -15 6 -1 -3 10 -1 20 4 23
15 9 21 -33 15 -107 -5 -64 -4 -71 8 -55 20 24 27 21 27 -8 0 -38 -24 -89 -52
-111 -40 -32 -48 -57 -48 -158 0 -57 -4 -96 -10 -96 -5 0 -10 -20 -10 -45 0
-43 -12 -60 -23 -32 -9 21 -27 -15 -27 -55 0 -45 28 -120 43 -115 6 2 10 33 8
78 -1 46 2 69 7 61 13 -19 24 26 16 65 -7 37 39 139 99 222 25 34 49 72 53 84
l7 22 8 -23 c5 -12 13 -22 19 -22 6 0 8 5 5 10 -3 6 -2 10 3 10 16 0 33 77 26
120 -4 22 -18 56 -33 75 -14 18 -45 58 -69 89 -23 30 -51 60 -61 66 -18 9 -20
6 -26 -34z"/>
<path d="M2460 2693 c-8 -3 -60 -28 -115 -55 -132 -64 -205 -136 -205 -199 0
-20 3 -21 46 -15 56 7 119 41 122 64 5 51 15 93 22 97 4 3 23 -12 41 -33 31
-35 32 -37 12 -40 -15 -2 -20 -8 -16 -19 3 -8 0 -19 -8 -23 -19 -13 31 -30 86
-30 85 0 135 36 135 98 0 108 -55 179 -120 155z"/>
<path d="M1208 2638 c-33 -12 -33 -12 -7 -100 19 -66 19 -71 3 -113 -23 -61
-13 -100 46 -181 28 -38 50 -75 50 -82 0 -10 8 -9 31 5 35 21 65 58 80 102 10
28 7 34 -33 81 -23 27 -49 50 -55 50 -17 0 -16 10 2 34 20 26 19 99 -1 141
-28 59 -68 81 -116 63z"/>
<path d="M1750 2634 c-41 -28 -111 -97 -126 -126 -20 -38 -19 -108 1 -108 49
0 122 70 160 153 38 83 23 119 -35 81z"/>
<path d="M1446 2535 c-24 -26 -46 -86 -46 -129 0 -21 5 -26 25 -26 80 0 128
79 93 155 -14 32 -42 32 -72 0z"/>
<path d="M1910 2524 c-28 -11 -111 -99 -131 -137 -11 -21 -19 -48 -17 -60 3
-18 11 -21 67 -24 122 -7 194 36 226 136 16 48 16 54 1 69 -16 16 -117 27
-146 16z"/>
<path d="M2738 2496 c-10 -7 -22 -26 -28 -42 -10 -25 -8 -31 10 -46 25 -21 87
-24 125 -6 18 8 25 19 25 40 0 50 -89 87 -132 54z"/>
<path d="M3273 2406 c-35 -35 -63 -69 -63 -74 0 -25 81 -29 120 -7 33 19 37
19 43 -5 13 -49 106 1 119 64 6 29 5 42 -4 48 -18 11 -58 10 -58 -2 0 -14 -32
-12 -51 3 -9 7 -14 18 -12 25 11 32 -37 6 -94 -52z"/>
<path d="M3535 2382 c-3 -3 -5 -12 -5 -20 0 -8 -16 -36 -35 -62 -32 -44 -40
-49 -87 -55 -39 -6 -58 -14 -80 -38 -32 -36 -33 -40 -15 -56 18 -14 117 14
117 33 0 7 25 26 56 42 70 36 104 75 104 119 0 27 -4 34 -25 37 -13 3 -27 3
-30 0z"/>
<path d="M2163 2359 c-41 -13 -70 -29 -87 -49 -26 -32 -42 -89 -33 -114 8 -19
99 -46 151 -45 61 1 136 30 159 61 18 24 19 32 9 67 -15 49 -72 101 -110 100
-15 0 -55 -10 -89 -20z"/>
<path d="M2738 2274 c-24 -13 -28 -21 -28 -59 0 -24 -4 -47 -10 -50 -5 -3 -26
3 -47 13 -69 35 -163 35 -185 0 -11 -18 -10 -60 3 -96 12 -36 41 -46 107 -36
51 8 102 50 102 85 0 23 17 24 60 3 18 -9 52 -19 76 -22 36 -4 46 -1 69 22 21
21 25 33 20 54 -8 32 -40 69 -77 88 -34 18 -56 17 -90 -2z"/>
<path d="M3014 2280 c-17 -5 -39 -19 -49 -30 -16 -18 -17 -21 -1 -45 21 -32
79 -61 140 -70 32 -5 44 -10 35 -16 -8 -5 -10 -9 -5 -9 5 0 2 -7 -5 -16 -11
-14 -10 -18 6 -27 56 -33 106 -23 118 22 7 27 -57 156 -87 176 -29 20 -111 27
-152 15z"/>
<path d="M193 2244 c-37 -57 -55 -256 -29 -318 11 -27 19 -34 40 -32 20 1 28
8 32 26 3 14 14 58 25 98 25 94 24 126 -5 188 -30 65 -41 71 -63 38z"/>
<path d="M513 2218 c-4 -7 -9 -80 -11 -162 -2 -146 -3 -151 -32 -194 -29 -43
-59 -146 -47 -158 4 -4 14 -1 23 6 24 21 35 -4 32 -72 -2 -32 1 -57 7 -58 6
-1 20 18 32 42 12 23 27 43 35 43 7 0 18 -18 24 -40 l12 -40 13 30 c8 18 12
61 10 108 -3 110 -3 201 -1 287 3 122 -62 262 -97 208z"/>
<path d="M1428 2203 c-28 -30 -88 -122 -88 -135 0 -15 61 -8 99 12 28 14 46
34 65 72 25 49 25 54 9 65 -27 20 -57 15 -85 -14z"/>
<path d="M1730 2202 c-19 -16 -51 -38 -72 -50 -35 -22 -36 -23 -22 -51 25 -49
144 -88 193 -62 19 10 21 20 21 89 0 47 -5 83 -12 90 -21 21 -71 14 -108 -16z"/>
<path d="M4237 2095 c-20 -27 -16 -31 14 -14 16 8 20 7 18 -3 -4 -34 1 -39 24
-23 31 20 35 14 27 -39 -11 -74 8 -94 167 -175 126 -65 151 -84 174 -135 24
-53 26 -193 3 -241 -8 -18 -44 -61 -79 -95 -82 -78 -205 -137 -365 -174 -63
-15 -131 -31 -150 -36 -25 -7 -36 -6 -42 3 -6 9 -15 4 -33 -16 -14 -16 -25
-22 -25 -14 0 18 128 167 143 167 7 0 -2 -13 -20 -28 -17 -15 -38 -41 -47 -59
l-16 -31 48 26 c26 14 74 48 107 74 52 42 66 48 106 48 52 0 85 24 58 41 -18
11 -22 11 -56 -2 -38 -16 -235 -18 -222 -3 5 6 6 14 2 17 -7 8 2 10 77 13 151
7 209 13 228 23 11 6 36 11 54 11 40 0 74 21 66 42 -5 12 -49 15 -280 16 -264
2 -406 15 -476 43 -13 5 -32 9 -43 9 -11 0 -45 9 -77 19 -47 16 -98 20 -292
24 -129 2 -194 2 -143 -2 50 -3 95 -10 100 -15 4 -4 -40 -5 -98 -1 -116 8
-218 0 -244 -19 -9 -6 -19 -30 -22 -53 -4 -35 -2 -43 15 -54 20 -13 20 -14 4
-33 -17 -18 -16 -19 48 -12 131 14 317 25 405 24 84 -1 79 -2 -65 -14 -394
-32 -455 -54 -389 -138 37 -47 57 -48 159 -10 165 62 512 134 650 134 25 0 69
7 98 14 28 8 50 10 47 6 -10 -16 -112 -40 -168 -40 -57 0 -304 -34 -372 -51
-84 -22 -313 -100 -331 -114 -17 -13 -17 -14 -2 -15 10 0 27 -8 38 -17 24 -21
11 -33 -37 -33 -17 0 -34 -4 -37 -9 -9 -14 43 -31 97 -31 29 0 57 -4 62 -9 15
-15 183 -33 240 -26 40 5 54 3 64 -9 7 -9 17 -13 23 -10 5 3 15 1 23 -6 7 -6
30 -12 50 -13 20 -2 40 -8 44 -15 4 -8 43 -22 85 -33 67 -17 83 -18 114 -8 21
7 61 12 90 10 48 -2 55 1 90 33 66 63 119 106 131 106 23 0 10 -28 -19 -40
-31 -13 -31 -13 -11 -31 32 -30 59 -24 68 14 7 26 19 37 65 60 64 33 84 30
125 -13 29 -31 53 -26 53 12 0 14 5 18 16 14 9 -3 18 -6 20 -6 11 0 2 -35 -15
-56 -22 -29 -37 -102 -24 -115 6 -6 19 4 35 28 26 40 78 144 78 157 0 4 9 15
20 24 12 10 23 34 25 56 7 52 30 76 71 76 40 0 54 21 54 79 0 23 10 59 25 87
14 26 25 53 25 60 0 31 43 105 103 180 37 45 74 101 83 125 9 24 25 53 36 65
10 11 18 26 18 32 0 7 16 29 35 51 28 31 35 46 35 81 l0 43 -32 -9 c-33 -8
-114 -9 -244 -3 -66 4 -73 2 -108 -26 -97 -77 -114 -79 -184 -19 -44 38 -129
74 -172 74 -15 -1 -32 -11 -43 -25z"/>
<path d="M2315 2045 c-16 -7 -50 -37 -74 -66 l-45 -52 108 7 c73 5 106 3 101
-4 -3 -5 -30 -10 -58 -11 -29 0 -74 -4 -102 -9 -27 -6 -86 -14 -130 -20 -44
-5 -100 -14 -125 -20 -146 -35 -147 -37 -63 -96 12 -9 57 -19 100 -23 79 -8
106 -5 82 10 -9 5 1 21 39 57 28 27 49 52 45 56 -11 11 20 6 67 -10 47 -16
109 -13 163 8 27 10 45 47 33 67 -3 5 0 11 6 13 22 8 -4 60 -37 79 -45 25 -77
29 -110 14z"/>
<path d="M965 1947 c-4 -15 -5 -50 -1 -78 3 -27 9 -71 12 -98 4 -28 3 -63 -1
-78 -7 -26 -8 -26 -16 -8 -6 13 -8 -2 -6 -48 3 -65 17 -94 39 -81 4 3 10 -7
14 -21 7 -30 14 -30 72 -8 32 12 42 21 38 32 -19 57 -44 122 -49 128 -4 3 -13
0 -21 -6 -13 -11 -15 -4 -14 46 1 69 -9 119 -30 151 -8 13 -18 40 -22 60 l-7
37 -8 -28z"/>
<path d="M1260 1959 c-39 -16 -70 -50 -70 -78 -1 -14 -7 -53 -15 -86 -22 -90
-20 -137 8 -163 13 -12 32 -22 44 -22 32 0 87 43 96 75 5 17 15 43 23 58 20
40 18 57 -11 99 -18 26 -25 50 -25 82 0 49 -5 53 -50 35z"/>
<path d="M2882 1894 c-30 -21 -28 -48 9 -78 24 -20 41 -26 77 -25 63 1 85 11
88 40 1 13 4 33 6 44 2 15 -4 21 -27 26 -57 13 -130 9 -153 -7z"/>
<path d="M2595 1878 c-44 -24 -75 -62 -75 -91 l0 -30 83 6 c45 3 89 8 98 12
18 7 35 86 24 105 -8 13 -105 12 -130 -2z"/>
<path d="M130 1813 c-32 -12 -73 -47 -101 -86 -26 -36 -29 -47 -29 -123 0 -77
2 -84 26 -103 34 -27 93 -28 121 -1 38 35 66 127 60 202 -6 93 -30 128 -77
111z"/>
<path d="M1665 1781 c-94 -32 -125 -48 -125 -63 0 -5 18 -50 40 -99 22 -49 40
-94 40 -99 0 -16 71 -12 161 10 100 25 139 39 139 52 0 5 -12 7 -27 4 -16 -2
-55 -7 -88 -10 -72 -7 -46 8 33 19 28 4 52 10 52 14 0 8 -61 147 -78 179 -17
29 -46 28 -147 -7z"/>
<path d="M2174 1761 c-28 -15 -62 -31 -75 -34 -23 -6 -23 -7 18 -47 48 -46 54
-47 238 -27 86 10 110 15 110 27 0 26 -61 38 -119 25 -28 -7 -73 -15 -101 -18
l-50 -7 55 19 c30 11 71 20 90 20 44 2 67 14 48 27 -74 52 -138 57 -214 15z"/>
<path d="M2439 1484 c-52 -16 -103 -60 -94 -82 3 -7 5 -18 5 -22 0 -19 73 -23
126 -6 60 19 111 70 92 93 -8 10 -6 13 8 14 18 0 18 1 -1 9 -29 12 -83 10
-136 -6z"/>
<path d="M1100 1436 c-91 -47 -107 -60 -122 -93 -10 -21 -18 -47 -18 -57 0
-17 -2 -17 -21 5 -20 24 -21 24 -35 4 -25 -34 -14 -68 29 -88 38 -18 40 -18
80 3 23 12 57 36 75 53 27 26 32 38 32 78 0 29 6 51 15 59 12 10 17 5 31 -30
15 -37 20 -41 43 -35 46 10 131 50 131 60 0 31 -82 94 -125 95 -6 0 -58 -24
-115 -54z"/>
<path d="M707 1416 c-10 -15 -27 -26 -40 -26 -43 -1 -76 -26 -142 -102 -49
-58 -72 -78 -90 -78 -13 0 -40 -14 -60 -31 -19 -17 -35 -25 -35 -18 0 22 -29
-24 -35 -57 -5 -21 0 -41 14 -66 18 -29 29 -36 65 -41 65 -9 106 7 141 55 39
55 145 170 145 158 0 -5 -25 -38 -56 -72 -60 -67 -99 -118 -90 -118 3 0 35 27
72 59 37 33 72 59 78 58 13 -3 45 61 50 101 3 16 11 43 20 60 18 35 21 89 6
112 -5 8 -10 11 -11 5 0 -5 -4 -2 -8 9 -7 17 -9 16 -24 -8z"/>
<path d="M1770 1400 c-19 -10 -50 -34 -69 -54 -29 -30 -32 -36 -17 -42 9 -3
44 3 77 15 85 31 95 21 12 -13 -78 -31 -113 -52 -113 -66 0 -6 9 -10 20 -10
11 0 23 -7 26 -15 10 -25 74 -18 124 13 100 60 180 115 180 122 0 15 -26 27
-82 39 -32 7 -60 17 -63 22 -10 15 -57 10 -95 -11z"/>
<path d="M1305 1354 c-16 -9 -41 -23 -55 -32 -23 -14 -23 -16 -5 -22 17 -6 14
-10 -22 -29 -69 -35 -52 -39 49 -13 27 7 42 6 55 -3 19 -14 61 -4 75 18 10 16
-1 58 -20 80 -18 21 -38 21 -77 1z"/>
<path d="M1990 1291 c-19 -12 -66 -37 -104 -57 -38 -20 -92 -51 -121 -70 l-52
-35 -17 -84 c-9 -46 -16 -95 -16 -110 0 -14 -7 -28 -15 -31 -20 -8 -19 -24 0
-24 9 0 21 12 28 28 15 35 31 45 38 25 4 -13 16 -3 52 43 44 56 102 102 113
91 3 -3 -11 -16 -31 -30 -48 -33 -114 -124 -115 -158 0 -28 21 -54 35 -41 5 4
5 1 1 -6 -19 -32 54 -58 82 -30 10 10 21 3 52 -32 34 -39 39 -42 40 -23 0 44
61 56 105 21 23 -18 26 -27 22 -59 l-5 -37 34 19 c19 10 43 19 52 19 10 0 36
18 57 40 32 33 46 40 78 40 29 0 48 8 74 30 18 16 43 30 54 30 26 0 81 38 74
51 -4 5 -14 9 -23 8 -14 0 -14 -2 2 -8 18 -7 18 -8 3 -14 -16 -6 -21 2 -18 30
1 7 -3 22 -9 33 -8 14 -8 26 0 41 15 27 4 72 -26 102 -21 22 -35 25 -136 31
-62 4 -142 11 -177 16 -52 7 -74 5 -125 -10 -90 -29 -196 -25 -196 6 0 24 50
36 125 29 39 -3 85 -1 104 4 25 8 37 8 42 -1 8 -13 56 -5 105 18 34 16 45 34
21 34 -8 0 -22 9 -32 20 -10 11 -23 20 -28 20 -6 0 -20 9 -32 20 -32 30 -74
34 -115 11z"/>
<path d="M1379 1219 c-23 -32 -74 -60 -95 -52 -8 3 -1 15 19 33 31 28 31 29 9
30 -34 0 -67 -20 -177 -109 -67 -54 -101 -77 -106 -69 -5 8 -25 -4 -61 -38
-29 -28 -65 -57 -78 -64 -14 -7 -33 -19 -42 -27 -26 -23 2 -60 50 -66 20 -2
71 -12 112 -22 41 -9 94 -15 117 -12 47 5 190 81 254 135 21 19 36 27 33 18
-7 -20 -59 -59 -141 -106 l-65 -38 -3 -79 c-2 -69 -8 -89 -49 -175 -25 -54
-46 -102 -46 -108 0 -5 -4 -10 -8 -10 -5 0 -5 21 -1 48 4 26 8 61 8 77 0 26
-4 21 -32 -35 -20 -40 -44 -72 -62 -84 -16 -10 -61 -38 -100 -63 -58 -37 -76
-44 -106 -40 -22 3 -52 -2 -75 -12 -56 -25 -92 -33 -99 -21 -3 5 -20 10 -37
10 l-30 0 31 35 c41 47 39 62 -3 36 -43 -27 -52 -26 -105 9 -49 33 -87 38
-131 15 -39 -20 -47 -37 -55 -126 l-7 -75 41 -19 c23 -10 41 -21 41 -26 0 -4
20 -31 45 -60 25 -29 45 -59 45 -66 0 -19 28 -16 141 12 60 16 122 25 157 23
37 -1 68 4 88 15 28 15 32 15 47 0 14 -15 20 -15 42 -3 25 13 40 9 40 -13 0
-18 47 -37 73 -30 27 6 42 -9 42 -44 0 -20 5 -23 40 -23 32 0 40 4 40 18 0 28
38 64 60 57 28 -9 96 14 121 41 13 13 32 24 43 24 12 0 29 12 39 26 18 24 18
29 2 112 -35 182 -39 202 -46 202 -15 0 -28 -28 -31 -69 -2 -25 -8 -46 -15
-48 -20 -7 -24 31 -9 82 17 55 12 74 -13 51 -10 -9 -21 -13 -25 -9 -4 4 -4 -1
0 -11 5 -13 4 -17 -3 -13 -6 4 -14 -5 -18 -21 -7 -29 -32 -62 -48 -62 -5 0 -7
7 -3 15 3 8 1 15 -4 15 -18 0 -51 -41 -77 -93 -16 -34 -22 -41 -18 -22 4 17
13 59 20 95 7 36 27 117 45 180 18 63 35 140 39 170 5 43 10 56 25 58 11 3 25
-4 32 -13 12 -16 16 -13 43 31 17 26 33 55 36 65 3 9 15 19 27 22 14 4 19 11
14 22 -3 9 5 38 19 65 27 53 33 87 11 57 -13 -16 -14 -16 -20 5 -3 13 -6 39
-6 59 0 20 -3 39 -7 43 -4 4 -6 27 -4 51 1 25 0 45 -3 45 -2 0 -15 -14 -27
-31z"/>
<path d="M2680 1235 c-30 -7 -57 -14 -60 -14 -3 -1 8 -9 23 -17 31 -17 194
-37 233 -29 13 3 35 7 49 10 43 9 28 22 -53 44 -87 23 -112 24 -192 6z"/>
<path d="M89 871 c-37 -36 -39 -42 -39 -98 0 -65 6 -79 27 -62 10 9 13 6 13
-15 0 -14 4 -26 8 -26 6 0 122 212 122 224 0 1 -13 1 -30 -2 -18 -3 -30 0 -30
7 0 23 -34 10 -71 -28z"/>
<path d="M214 748 c-73 -81 -85 -123 -53 -186 44 -88 79 -122 129 -121 35 0
176 71 172 87 -1 7 20 27 48 44 27 17 50 33 50 35 0 3 -27 2 -60 -2 -40 -5
-60 -3 -60 4 0 5 -15 17 -34 26 -42 20 -48 35 -34 75 15 43 1 53 -75 58 -55 3
-64 1 -83 -20z"/>
<path d="M0 358 c1 -187 2 -211 15 -194 16 21 32 96 38 178 3 53 2 56 -15 47
-23 -13 -24 6 -1 77 18 58 8 104 -22 104 -13 0 -15 -29 -15 -212z"/>
</g>
</svg>
