<?xml version="1.0" encoding="UTF-8"?>
<!DOCTYPE svg PUBLIC "-//W3C//DTD SVG 1.1//EN" "http://www.w3.org/Graphics/SVG/1.1/DTD/svg11.dtd">
<!-- Creator: CorelDRAW 2018 (64-Bit) -->
<svg xmlns="http://www.w3.org/2000/svg" xml:space="preserve" width="0.639992in" height="0.639992in" version="1.1" style="shape-rendering:geometricPrecision; text-rendering:geometricPrecision; image-rendering:optimizeQuality; fill-rule:evenodd; clip-rule:evenodd"
viewBox="0 0 639.99 639.99"
 xmlns:xlink="http://www.w3.org/1999/xlink">
 <defs>
  <style type="text/css">
   <![CDATA[
    .fil1 {fill:url(#id0)}
    .fil0 {fill:url(#id1)}
   ]]>
  </style>
  <linearGradient id="id0" gradientUnits="userSpaceOnUse" x1="3.38" y1="314.47" x2="636.62" y2="325.52">
   <stop offset="0" style="stop-opacity:1; stop-color:#4264ED"/>
   <stop offset="1" style="stop-opacity:1; stop-color:#09AD76"/>
  </linearGradient>
  <radialGradient id="id1" gradientUnits="userSpaceOnUse" gradientTransform="matrix(0.999994 -0 -0 0.999994 0 0)" cx="320" cy="320" r="2643.34" fx="320" fy="320">
   <stop offset="0" style="stop-opacity:1; stop-color:white"/>
   <stop offset="0.94902" style="stop-opacity:1; stop-color:#F2F0F0"/>
   <stop offset="1" style="stop-opacity:1; stop-color:#E6E1E1"/>
  </radialGradient>
 </defs>
 <g id="Layer_x0020_1">
  <metadata id="CorelCorpID_0Corel-Layer"/>
  <g id="_1692850232480">
   <circle class="fil0" cx="320" cy="320" r="294.39"/>
   <path class="fil1" d="M320 3.33c174.89,0 316.67,141.78 316.67,316.67 0,174.89 -141.78,316.67 -316.67,316.67 -174.89,0 -316.67,-141.78 -316.67,-316.67 0,-174.89 141.78,-316.67 316.67,-316.67zm68.09 292.73c1.12,4.81 2.18,9.63 3.39,14.42 0.84,3.32 1.06,7.25 3.04,9.73 6.04,7.59 8.35,16.06 9.29,25.52 0.47,4.82 3.11,9.61 5.61,13.94 0.78,1.36 4.78,2.28 6.43,1.51 12.38,-5.78 24.8,-11.57 36.69,-18.26 11.4,-6.42 20.06,-15.11 16.82,-30.08 7.07,1.02 7.08,1.02 9.91,-5.69 0.77,-1.82 1.67,-3.61 2.27,-5.48 3.14,-9.87 10.17,-16.03 19.36,-19.88 12.01,-5.02 12.07,-4.88 11.11,-17.2 -0.01,-0.13 0.18,-0.26 0.65,-0.9 5.28,2.12 8.74,-0.31 10.86,-5.46 2.89,-6.99 5.94,-13.93 8.82,-20.93 3.19,-7.74 5.22,-15.67 3.4,-24.1 -4.82,-22.43 -17.27,-40.05 -34.67,-54.44 -2.45,-2.03 -5.77,-2.98 -8.58,-4.61 -1.45,-0.84 -3.59,-1.87 -3.87,-3.15 -1.41,-6.56 -6.27,-9.56 -11.71,-11.74 -7.65,-3.05 -15.3,-6.46 -23.28,-8.21 -11.62,-2.56 -23.8,-4.15 -34.57,2.77 -10.16,6.53 -20.37,6.76 -31.67,4.03 -5.54,-1.34 -11.88,-1.09 -17.52,0.08 -10.3,2.15 -15.17,12.22 -11.77,22.23 0.65,1.93 1.05,3.95 1.89,7.15 -2.64,-1.15 -4.19,-1.59 -5.48,-2.44 -8.43,-5.52 -17.33,-5.79 -25.8,-0.98 -6.54,3.71 -11.87,3.41 -18.35,-0.16 -9.83,-5.41 -18.08,-3.25 -25.63,5.22 -1.53,1.71 -3.34,3.17 -5.03,4.75 -0.51,-0.34 -1.02,-0.68 -1.53,-1.02 0.95,-2.85 1.64,-5.81 2.91,-8.52 3.81,-8.16 3.39,-12.57 -1.88,-18.6 -6.2,-7.1 -13.96,-6.87 -22.3,-5.33 -9.49,1.75 -18.94,4.79 -28.78,1.63 -8.47,-2.72 -17.11,-4.93 -25.52,-7.78 -8.67,-2.94 -17.02,-3.91 -25.19,1.29 -10.15,6.47 -20.76,12.33 -30.34,19.55 -6.73,5.07 -12.93,11.36 -17.83,18.21 -5.71,7.98 -9.19,17.53 -14.65,25.72 -9.24,13.85 -13.25,28.16 -7.32,44.35 1.47,4.02 2.26,8.37 4.2,12.13 3.2,6.18 5.96,13.16 14.64,13.78 0.95,0.07 2.31,1.49 2.6,2.53 3.51,12.56 14.38,17.11 24.3,22.75 1.14,0.65 2.85,2.12 2.7,2.92 -1.2,6.43 0.78,11.44 5.87,15.43 0.58,0.46 0.72,1.46 1.08,2.2 7.64,15.67 19.34,27.83 33.32,37.88 7.04,5.06 8.04,4.53 10.09,-3.69 0.11,-0.42 0.54,-0.75 1.37,-1.86 0.38,2.22 0.77,3.76 0.89,5.31 0.48,6.13 1.72,7.57 7.69,7.89 5.43,0.28 10.87,0.41 16.31,0.33 7.83,-0.1 11.35,-3.81 9.49,-11.24 -2.31,-9.23 -0.08,-17.22 4.42,-25.07 3.32,-5.79 5.81,-11.8 4.14,-18.79 -0.47,-1.94 -0.07,-4.09 -0.07,-6.15 1.5,0.91 2.3,2.05 2.91,3.28 2.98,6.05 5.66,12.28 8.96,18.16 1.87,3.32 1.94,5.93 -0.06,9.13 -5.53,8.85 -7.38,18.76 -6.3,28.95 0.54,5.06 -0.49,9.21 -2.47,13.67 -7.83,17.67 -9.1,36.04 -4.32,54.66 2.2,8.56 6.6,16.2 13.9,21.65 1.26,0.94 3.44,1.37 4.92,0.98 0.74,-0.2 1.28,-2.78 1.19,-4.25 -0.25,-4.61 -0.68,-9.21 -1.32,-13.77 -1.71,-12.13 -1.26,-24.06 3.2,-35.58 1.1,-2.85 2.84,-5.46 4.29,-8.18 2.92,15.46 5.17,30.39 6.44,45.4 0.99,11.62 1.93,23.39 -2.18,34.81 -4.85,13.49 -9.96,26.92 -14.11,40.63 -3.81,12.58 -7.15,25.39 -9.48,38.31 -2.48,13.7 2.67,26.21 9.81,37.53 1.59,2.51 3.24,4.93 4.98,7.24 -129.23,-23.25 -227.28,-136.27 -227.28,-272.19 0,-152.75 123.82,-276.57 276.57,-276.57 152.75,0 276.57,123.82 276.57,276.57 0,132.16 -92.7,242.65 -216.62,270.04 9.15,-13.9 12.52,-31.96 9.65,-51.87 -2.94,-20.37 -11.67,-38.43 -24.92,-54.16 -6.3,-7.48 -10.96,-6 -14.02,0.65 -2.28,4.97 -5.43,8.7 -10.86,10.77 -4.63,1.77 -4.93,4.12 -1.58,7.98 9.33,10.71 14.46,23.52 18.41,36.85 2.85,9.64 2.85,18.84 -6.3,25.89 -17.4,13.42 -36.06,11.09 -43.74,-10.69 -5.4,-15.32 -0.13,-28.84 8.23,-41.56 16.1,-24.5 33.67,-48.15 44.44,-75.74 5.92,-15.15 10.09,-30.7 9.59,-47.19 -0.04,-1.15 0.23,-2.3 0.35,-3.45 3.11,3.89 6.22,7.8 6.95,12.12 2.05,12.13 3.22,24.41 4.5,36.65 0.41,3.93 0.06,7.94 0.06,13.08 9.91,-5.67 15.12,-12.97 17.69,-22.17 5.67,-20.29 1.31,-39.37 -7.01,-58.07 -1.88,-4.22 -3.15,-9.07 -3.23,-13.66 -0.15,-9.44 -1.78,-18.27 -6.24,-26.65 -0.87,-1.63 -1.13,-4.41 -0.33,-5.96 3.9,-7.59 5.58,-15.45 4.53,-23.93 -0.11,-0.85 0.25,-1.77 0.39,-2.66 0.53,-0.07 1.05,-0.15 1.58,-0.23z"/>
  </g>
 </g>
</svg>
