<?xml version="1.0" encoding="UTF-8" standalone="no"?>
<!DOCTYPE svg PUBLIC "-//W3C//DTD SVG 1.1//EN" "http://www.w3.org/Graphics/SVG/1.1/DTD/svg11.dtd">
<svg version="1.1" xmlns="http://www.w3.org/2000/svg" xmlns:xlink="http://www.w3.org/1999/xlink" preserveAspectRatio="xMidYMid meet" viewBox="0 0 640 640" width="640" height="640"><defs><path d="M610.72 610.04C589.43 -29.07 424.41 -29.07 115.66 610.04" id="cJCoqw2bE"></path><path d="M389.7 240.82L391.07 240.99L392.41 241.22L393.73 241.51L395.02 241.86L396.28 242.27L397.51 242.73L398.71 243.25L399.86 243.82L400.99 244.44L402.07 245.11L403.11 245.83L404.11 246.59L405.06 247.4L405.97 248.25L406.83 249.14L407.63 250.07L408.38 251.04L409.08 252.04L409.72 253.08L410.3 254.14L410.82 255.24L411.28 256.36L411.67 257.51L412 258.69L412.25 259.89L412.44 261.11L412.55 262.35L412.59 263.6L412.55 264.86L412.44 266.1L412.25 267.32L412 268.52L411.67 269.69L411.28 270.84L410.82 271.97L410.3 273.06L409.72 274.13L409.08 275.16L408.38 276.16L407.63 277.13L406.83 278.06L405.97 278.95L405.06 279.8L404.11 280.61L403.11 281.37L402.07 282.09L400.99 282.76L399.86 283.39L398.71 283.96L397.51 284.48L396.28 284.94L395.02 285.35L393.73 285.7L392.41 285.99L391.07 286.22L389.7 286.38L388.7 286.45L388.75 286.57L389.48 288.56L390.14 290.58L390.74 292.65L391.28 294.75L391.75 296.88L392.15 299.05L392.48 301.25L392.74 303.48L392.93 305.73L393.05 308.01L393.08 310.32L393.05 312.62L392.93 314.9L392.74 317.16L392.48 319.39L392.15 321.58L391.75 323.75L391.28 325.89L390.74 327.99L390.14 330.05L389.48 332.08L388.75 334.07L387.96 336.01L387.11 337.92L386.21 339.77L385.24 341.58L384.23 343.34L383.16 345.05L382.03 346.71L380.86 348.31L379.64 349.86L378.37 351.35L377.05 352.78L375.69 354.15L374.29 355.45L372.84 356.69L371.36 357.87L369.84 358.97L368.28 360L366.68 360.96L365.05 361.85L363.39 362.66L361.69 363.4L359.97 364.05L358.9 364.4L358.35 365.7L356 370.98L353.66 376.03L351.32 380.86L348.99 385.47L346.66 389.86L344.34 394.02L342.02 397.96L339.71 401.68L337.4 405.17L337.36 405.23L337.36 558.19L337.34 559.01L337.29 559.82L337.21 560.62L337.1 561.41L336.96 562.19L336.78 562.96L336.58 563.72L336.35 564.47L336.09 565.2L335.8 565.92L335.48 566.63L335.14 567.32L334.77 568L334.38 568.66L333.97 569.3L333.53 569.93L333.06 570.53L332.58 571.12L332.07 571.69L331.54 572.24L330.99 572.77L330.42 573.28L329.83 573.76L329.22 574.23L328.6 574.67L327.95 575.08L327.3 575.48L326.62 575.84L325.93 576.18L325.22 576.5L324.5 576.79L323.77 577.05L323.02 577.28L322.26 577.48L321.49 577.66L320.71 577.8L319.92 577.91L319.12 578L318.31 578.04L317.49 578.06L309.3 578.06L308.48 578.04L307.67 578L306.86 577.91L306.07 577.8L305.87 577.77L305.87 586.26L305.86 587.07L305.81 587.89L305.72 588.69L305.61 589.48L305.47 590.26L305.29 591.03L305.09 591.79L304.86 592.54L304.6 593.27L304.31 593.99L304 594.7L303.65 595.39L303.29 596.06L302.89 596.72L302.48 597.37L302.04 597.99L301.57 598.6L301.09 599.19L300.58 599.76L300.05 600.31L299.5 600.84L298.93 601.34L298.34 601.83L297.74 602.29L297.11 602.73L296.47 603.15L295.81 603.54L295.13 603.91L294.44 604.25L293.73 604.57L293.01 604.85L292.28 605.12L291.53 605.35L290.77 605.55L290 605.72L289.22 605.87L288.43 605.98L287.63 606.06L286.82 606.11L286 606.13L277.81 606.13L276.99 606.11L276.18 606.06L275.38 605.98L274.58 605.87L273.8 605.72L273.03 605.55L272.27 605.35L271.53 605.12L270.79 604.85L270.07 604.57L269.37 604.25L268.68 603.91L268 603.54L267.34 603.15L266.7 602.73L266.07 602.29L265.46 601.83L264.87 601.34L264.31 600.84L263.76 600.31L263.23 599.76L262.72 599.19L262.23 598.6L261.77 597.99L261.33 597.37L260.91 596.72L260.52 596.06L260.15 595.39L259.81 594.7L259.5 593.99L259.21 593.27L258.95 592.54L258.72 591.79L258.51 591.03L258.34 590.26L258.2 589.48L258.08 588.69L258 587.89L257.95 587.07L257.94 586.26L257.94 488.56L162.06 488.56L162.06 558.19L162.05 559.01L162 559.82L161.91 560.62L161.8 561.41L161.66 562.19L161.48 562.96L161.28 563.72L161.05 564.47L160.79 565.2L160.5 565.92L160.18 566.63L159.84 567.32L159.48 568L159.08 568.66L158.67 569.3L158.23 569.93L157.76 570.53L157.28 571.12L156.77 571.69L156.24 572.24L155.69 572.77L155.12 573.28L154.53 573.76L153.93 574.23L153.3 574.67L152.66 575.08L152 575.48L151.32 575.84L150.63 576.18L149.92 576.5L149.2 576.79L148.47 577.05L147.72 577.28L146.96 577.48L146.19 577.66L145.41 577.8L144.62 577.91L143.82 578L143.01 578.04L142.19 578.06L134 578.06L133.18 578.04L132.37 578L131.57 577.91L130.77 577.8L129.99 577.66L129.63 577.58L129.63 586.26L129.62 587.07L129.57 587.89L129.49 588.69L129.37 589.48L129.23 590.26L129.06 591.03L128.85 591.79L128.62 592.54L128.36 593.27L128.07 593.99L127.76 594.7L127.42 595.39L127.05 596.06L126.66 596.72L126.24 597.37L125.8 597.99L125.34 598.6L124.85 599.19L124.34 599.76L123.81 600.31L123.26 600.84L122.69 601.34L122.11 601.83L121.5 602.29L120.87 602.73L120.23 603.15L119.57 603.54L118.89 603.91L118.2 604.25L117.5 604.57L116.78 604.85L116.04 605.12L115.3 605.35L114.54 605.55L113.77 605.72L112.98 605.87L112.19 605.98L111.39 606.06L110.58 606.11L109.76 606.13L101.57 606.13L100.75 606.11L99.94 606.06L99.14 605.98L98.35 605.87L97.57 605.72L96.79 605.55L96.04 605.35L95.29 605.12L94.55 604.85L93.83 604.57L93.13 604.25L92.44 603.91L91.76 603.54L91.1 603.15L90.46 602.73L89.83 602.29L89.23 601.83L88.64 601.34L88.07 600.84L87.52 600.31L86.99 599.76L86.48 599.19L86 598.6L85.53 597.99L85.09 597.37L84.67 596.72L84.28 596.06L83.92 595.39L83.57 594.7L83.26 593.99L82.97 593.27L82.71 592.54L82.48 591.79L82.27 591.03L82.1 590.26L81.96 589.48L81.84 588.69L81.76 587.89L81.71 587.07L81.7 586.26L81.7 478.75L81.71 477.93L81.76 477.12L81.84 476.32L81.96 475.53L82.01 475.26L81.91 474.74L81.82 474.09L81.75 473.42L81.71 472.75L81.7 472.07L81.7 400.87L81.54 400.9L80.42 401.04L79.33 401.08L78.27 401.02L77.25 400.87L76.27 400.62L75.35 400.26L74.48 399.8L73.66 399.24L72.93 398.58L72.28 397.83L71.71 397.02L71.24 396.13L70.86 395.17L70.56 394.15L70.34 393.08L70.21 391.96L70.17 390.79L70.21 389.58L70.33 388.33L70.54 387.05L70.83 385.74L71.2 384.41L71.65 383.07L72.18 381.71L72.79 380.35L73.47 378.99L74.24 377.63L75.08 376.27L76 374.93L77 373.61L78.05 372.34L79.14 371.13L80.26 370L81.41 368.94L82.57 367.95L83.76 367.04L84.95 366.21L86.16 365.46L87.27 364.85L87.46 364.68L87.94 364.28L88.45 363.89L88.97 363.53L89.5 363.18L90.05 362.86L90.61 362.55L91.18 362.27L91.77 362.01L92.37 361.77L92.97 361.55L93.59 361.36L94.22 361.19L94.86 361.05L95.51 360.93L96.17 360.83L96.83 360.77L97.51 360.73L98.19 360.71L243.29 360.71L246.9 356.79L250.59 352.69L254.13 348.68L257.52 344.74L260.76 340.89L263.85 337.13L266.79 333.44L269.57 329.84L272.21 326.32L274.69 322.88L277.03 319.52L279.21 316.24L281.25 313.05L283.13 309.94L284.86 306.91L286.44 303.96L287.88 301.1L289.16 298.32L290.29 295.62L291.27 293L292.09 290.46L292.77 288.01L293.3 285.64L293.61 283.73L292.91 283.39L291.79 282.76L290.71 282.09L289.67 281.37L288.67 280.61L287.72 279.8L286.81 278.95L285.95 278.06L285.15 277.13L284.4 276.16L283.7 275.16L283.06 274.13L282.48 273.06L281.96 271.97L281.5 270.84L281.11 269.69L280.78 268.52L280.53 267.32L280.34 266.1L280.23 264.86L280.19 263.6L280.23 262.35L280.34 261.11L280.53 259.89L280.78 258.69L281.11 257.51L281.5 256.36L281.96 255.24L282.48 254.14L283.06 253.08L283.7 252.04L284.4 251.04L285.15 250.07L285.95 249.14L286.81 248.25L287.72 247.4L288.67 246.59L289.67 245.83L290.71 245.11L291.79 244.44L292.91 243.82L294.07 243.25L295.27 242.73L296.5 242.27L297.76 241.86L299.05 241.51L300.37 241.22L301.71 240.99L303.08 240.82L304.46 240.72L305.87 240.69L307.28 240.72L308.67 240.82L310.04 240.99L311.38 241.22L312.7 241.51L313.99 241.86L315.25 242.27L316.47 242.73L317.67 243.25L318.83 243.82L319.95 244.44L321.03 245.11L322.08 245.83L323.07 246.59L324.03 247.4L324.93 248.25L325.79 249.14L326.59 250.07L327.35 251.04L328.04 252.04L328.68 253.08L329.27 254.14L329.79 255.24L330.24 256.36L330.63 257.51L330.79 258.08L331 257.97L332.7 257.24L334.42 256.59L336.17 256.01L337.95 255.52L339.76 255.12L341.58 254.8L343.43 254.57L345.31 254.43L347.2 254.39L349.09 254.43L350.96 254.57L352.81 254.8L354.63 255.12L356.44 255.52L358.22 256.01L359.97 256.59L361.69 257.24L362.17 257.45L362.54 256.36L362.99 255.24L363.51 254.14L364.1 253.08L364.74 252.04L365.43 251.04L366.18 250.07L366.99 249.14L367.85 248.25L368.75 247.4L369.71 246.59L370.7 245.83L371.75 245.11L372.83 244.44L373.95 243.82L375.11 243.25L376.31 242.73L377.53 242.27L378.79 241.86L380.08 241.51L381.4 241.22L382.74 240.99L384.11 240.82L385.5 240.72L386.91 240.69L388.32 240.72L389.7 240.82Z" id="e37NCt85zO"></path><path d="M168.49 610.04C163.13 634.08 157.77 472.68 152.41 125.84C131.74 103.74 121.02 105.36 120.25 130.7C119.48 156.05 106.08 315.83 80.05 610.04" id="b46ceEvTc"></path><path d="" id="ahorWiWC"></path><path d="M271.23 73.01C319.09 73.01 357.9 92.03 357.9 115.51C357.9 116.39 357.85 117.28 357.73 118.14C392.3 121.71 417.72 133.67 417.72 147.87C417.72 147.87 417.72 147.87 417.72 147.87C417.72 164.89 381.22 178.68 336.2 178.68C315.75 178.68 152.15 178.68 131.71 178.68C86.69 178.68 50.18 164.89 50.18 147.87C50.18 147.87 50.18 147.87 50.18 147.87C50.18 133.03 77.93 120.65 114.87 117.72C118.18 101.63 145.87 89.08 179.54 89.08C186.94 89.08 194.04 89.68 200.67 90.8C216.41 80.03 242.14 73.01 271.23 73.01Z" id="a8RKy5AHTh"></path><path d="M352.07 303.07L353.54 303.3L354.98 303.58L356.39 303.93L357.75 304.33L359.07 304.79L360.34 305.3L361.57 305.86L362.74 306.47L363.86 307.12L364.92 307.82L365.92 308.56L366.86 309.34L367.73 310.16L368.54 311.01L369.27 311.9L369.92 312.82L370.5 313.78L370.99 314.75L371.41 315.76L371.73 316.79L371.97 317.84L372.11 318.91L372.16 320L372.11 321.09L371.97 322.16L371.73 323.21L371.41 324.24L370.99 325.25L370.5 326.22L369.92 327.18L369.27 328.1L368.54 328.99L367.73 329.84L366.86 330.66L365.92 331.44L364.92 332.18L363.86 332.88L362.74 333.53L361.57 334.14L360.34 334.7L359.07 335.21L357.75 335.67L356.39 336.07L354.98 336.42L353.54 336.7L352.07 336.93L350.56 337.1L349.03 337.2L347.46 337.23L345.9 337.2L344.37 337.1L342.86 336.93L341.39 336.7L339.95 336.42L338.54 336.07L337.18 335.67L335.86 335.21L334.58 334.7L333.36 334.14L332.19 333.53L331.07 332.88L330.01 332.18L329 331.44L328.07 330.66L327.2 329.84L326.39 328.99L325.66 328.1L325.01 327.18L324.43 326.22L323.94 325.25L323.52 324.24L323.2 323.21L322.96 322.16L322.82 321.09L322.77 320L322.82 318.91L322.96 317.84L323.2 316.79L323.52 315.76L323.94 314.75L324.43 313.78L325.01 312.82L325.66 311.9L326.39 311.01L327.2 310.16L328.07 309.34L329 308.56L330.01 307.82L331.07 307.12L332.19 306.47L333.36 305.86L334.58 305.3L335.86 304.79L337.18 304.33L338.54 303.93L339.95 303.58L341.39 303.3L342.86 303.07L344.37 302.9L345.9 302.8L347.46 302.77L349.03 302.8L350.56 302.9L350.56 302.9L352.07 303.07ZM315.2 121.4L315.58 121.49L315.95 121.6L316.32 121.74L316.69 121.9L317.04 122.09L317.38 122.29L317.7 122.52L318 122.75L318.29 123.01L318.56 123.28L318.81 123.57L319.04 123.86L319.25 124.17L319.44 124.49L319.62 124.82L319.77 125.17L319.9 125.51L320.02 125.87L320.11 126.23L320.18 126.6L320.23 126.97L320.25 127.35L320.26 127.72L320.24 128.1L320.19 128.48L320.13 128.86L320.04 129.23L319.93 129.61L319.79 129.98L319.63 130.34L299.96 171.02L306.97 191.8L320.65 179.92L321.16 179.52L321.69 179.19L322.25 178.91L322.83 178.69L323.42 178.52L324.02 178.42L324.63 178.38L325.23 178.39L325.83 178.46L326.43 178.59L327.01 178.78L327.57 179.02L328.11 179.32L328.63 179.67L329.11 180.08L329.56 180.55L329.96 181.06L330.3 181.6L330.58 182.15L330.8 182.73L330.96 183.32L331.06 183.92L331.1 184.53L331.09 185.14L331.02 185.74L330.89 186.33L330.71 186.91L330.46 187.47L330.16 188.02L329.81 188.53L329.4 189.01L328.93 189.46L312.45 203.77L311.95 204.17L311.41 204.51L311.28 204.58L328.81 256.51L328.85 256.65L328.89 256.8L328.92 256.94L328.95 257.08L328.97 257.22L328.98 257.36L328.99 257.5L329 257.65L328.99 257.79L328.99 257.93L328.97 258.07L328.95 258.2L328.93 258.34L328.9 258.48L328.87 258.61L328.83 258.74L328.78 258.87L328.73 259L328.68 259.13L328.62 259.25L328.56 259.38L328.49 259.5L328.42 259.61L328.34 259.73L328.26 259.84L328.17 259.95L328.08 260.05L327.99 260.15L327.89 260.25L327.79 260.35L327.68 260.44L327.57 260.53L327.45 260.61L327.34 260.69L327.21 260.76L327.09 260.83L326.96 260.9L326.83 260.96L326.69 261.01L326.55 261.06L321.29 262.84L321.15 262.88L321.01 262.92L320.87 262.95L320.73 262.98L320.58 263L320.44 263.01L320.3 263.02L320.16 263.03L320.02 263.02L319.88 263.02L319.74 263L319.6 262.98L319.46 262.96L319.33 262.93L319.19 262.9L319.06 262.86L318.93 262.81L318.8 262.76L318.68 262.71L318.55 262.65L318.43 262.59L318.31 262.52L318.19 262.45L318.08 262.37L317.97 262.29L317.86 262.2L317.75 262.11L317.65 262.02L317.55 261.92L317.46 261.82L317.37 261.71L317.28 261.6L317.2 261.48L317.12 261.37L317.04 261.24L316.97 261.12L316.91 260.99L316.85 260.86L316.79 260.72L316.74 260.58L287.44 173.72L287.39 173.58L287.35 173.43L287.32 173.29L287.29 173.15L287.27 173.01L287.26 172.87L287.25 172.73L287.25 172.58L287.25 172.44L287.26 172.3L287.27 172.16L287.29 172.03L287.31 171.89L287.34 171.75L287.38 171.62L287.42 171.49L287.46 171.36L287.46 171.36L287.4 171.1L287.33 170.74L287.28 170.36L287.25 169.99L287.25 169.61L287.27 169.23L287.31 168.86L287.37 168.48L287.46 168.1L287.58 167.73L287.72 167.36L287.88 166.99L308.25 124.84L308.43 124.49L308.64 124.15L308.86 123.83L309.1 123.53L309.36 123.24L309.63 122.97L309.91 122.72L310.21 122.49L310.52 122.28L310.84 122.09L311.17 121.91L311.51 121.76L311.86 121.63L312.22 121.51L312.58 121.42L312.94 121.35L313.32 121.3L313.69 121.28L314.07 121.27L314.45 121.29L314.82 121.34L314.82 121.34L315.2 121.4ZM376.7 117.91L377.04 117.98L377.38 118.07L377.71 118.18L378.04 118.3L378.35 118.45L378.66 118.61L378.97 118.79L379.26 118.98L379.54 119.19L379.81 119.42L380.07 119.66L380.31 119.92L380.54 120.2L380.76 120.49L380.97 120.79L381.15 121.11L381.32 121.45L402.89 167L403.04 167.34L403.17 167.68L403.28 168.03L403.37 168.39L403.43 168.74L403.48 169.09L403.5 169.45L403.51 169.8L403.49 170.15L403.46 170.5L403.41 170.85L403.35 171.11L403.38 171.21L403.41 171.34L403.45 171.47L403.47 171.61L403.49 171.75L403.51 171.89L403.52 172.02L403.52 172.16L403.52 172.31L403.52 172.45L403.5 172.59L403.49 172.73L403.46 172.87L403.43 173.01L403.4 173.15L403.36 173.29L403.31 173.43L372.09 259.63L372.04 259.77L371.98 259.9L371.91 260.03L371.85 260.16L371.77 260.29L371.7 260.41L371.62 260.52L371.53 260.63L371.44 260.74L371.35 260.85L371.25 260.95L371.15 261.04L371.05 261.14L370.94 261.23L370.83 261.31L370.72 261.39L370.6 261.46L370.48 261.53L370.36 261.6L370.24 261.66L370.11 261.71L369.98 261.77L369.85 261.81L369.72 261.85L369.59 261.89L369.45 261.92L369.32 261.95L369.18 261.97L369.04 261.98L368.9 261.99L368.76 262L368.62 262L368.48 261.99L368.34 261.98L368.2 261.96L368.05 261.94L367.91 261.91L367.77 261.87L367.63 261.83L367.49 261.78L362.27 259.89L362.13 259.84L362 259.78L361.87 259.72L361.74 259.65L361.62 259.58L361.5 259.5L361.38 259.42L361.27 259.33L361.16 259.24L361.05 259.15L360.95 259.05L360.86 258.95L360.77 258.85L360.68 258.74L360.59 258.63L360.51 258.52L360.44 258.4L360.37 258.28L360.3 258.16L360.24 258.04L360.19 257.91L360.14 257.79L360.09 257.66L360.05 257.52L360.01 257.39L359.98 257.26L359.95 257.12L359.93 256.98L359.92 256.84L359.91 256.7L359.9 256.56L359.9 256.42L359.91 256.28L359.92 256.14L359.94 256L359.97 255.86L359.99 255.72L360.03 255.58L360.07 255.44L360.12 255.3L378.34 204.98L377.86 204.79L377.3 204.51L376.77 204.17L376.26 203.77L359.78 189.46L359.31 189.01L358.9 188.53L358.55 188.02L358.25 187.47L358.01 186.91L357.82 186.33L357.69 185.74L357.62 185.14L357.61 184.53L357.65 183.92L357.75 183.32L357.91 182.73L358.14 182.15L358.41 181.6L358.75 181.06L359.15 180.55L359.6 180.08L360.08 179.67L360.6 179.32L361.14 179.02L361.7 178.78L362.28 178.59L362.88 178.46L363.48 178.39L364.09 178.38L364.69 178.42L365.29 178.52L365.88 178.69L366.46 178.91L367.02 179.19L367.56 179.52L368.06 179.92L382.79 192.71L390.67 170.94L369.82 126.89L369.67 126.55L369.54 126.21L369.43 125.86L369.34 125.5L369.28 125.15L369.23 124.8L369.21 124.44L369.2 124.09L369.22 123.74L369.25 123.39L369.3 123.04L369.38 122.7L369.47 122.36L369.57 122.03L369.7 121.7L369.84 121.39L370.01 121.07L370.18 120.77L370.38 120.48L370.59 120.2L370.82 119.93L371.06 119.67L371.32 119.43L371.6 119.19L371.89 118.98L372.19 118.77L372.51 118.59L372.84 118.42L373.19 118.27L373.53 118.14L373.88 118.03L374.24 117.94L374.59 117.88L374.94 117.83L375.3 117.81L375.65 117.8L376 117.82L376.35 117.85L376.35 117.85L376.7 117.91Z" id="evDz3OgZX"></path><path d="M610.72 610.04C574.04 510.1 397.15 510.1 80.05 610.04" id="a1z4jVYhvy"></path><path d="M295.84 346.04L296.65 346.29L297.44 346.6L298.18 346.96L298.89 347.39L299.56 347.89L300.21 348.44L300.81 349.05L301.38 349.73L301.91 350.47L302.41 351.26L302.87 352.13L303.3 353.04L303.69 354.03L304.05 355.07L304.37 356.17L304.66 357.34L304.91 358.57L305.13 359.86L305.37 361.17L305.7 362.47L306.12 363.77L306.64 365.06L307.24 366.33L307.93 367.59L308.71 368.85L309.59 370.11L310.56 371.34L311.61 372.57L312.75 373.79L313.99 375L315.32 376.2L316.73 377.4L318.24 378.57L319.83 379.75L321.52 380.91L323.29 382.06L325.16 383.21L327.12 384.35L329.17 385.47L331.3 386.59L333.53 387.69L335.85 388.79L338.25 389.88L340.76 390.95L343.34 392.03L346.02 393.08L348.78 394.13L351.64 395.17L354.6 396.21L357.64 397.23L360.77 398.24L363.98 399.24L367.29 400.24L370.7 401.22L372.85 401.82L372.83 401.59L372.78 399.5L372.83 397.4L372.98 395.33L373.22 393.28L373.56 391.25L373.99 389.25L374.51 387.27L375.12 385.33L375.81 383.42L376.59 381.54L377.46 379.7L378.39 377.89L379.41 376.12L380.51 374.39L381.69 372.71L382.93 371.06L384.25 369.45L385.63 367.9L387.08 366.39L388.6 364.94L390.18 363.52L391.83 362.17L393.53 360.87L395.29 359.63L397.11 358.43L398.98 357.31L400.9 356.24L402.87 355.24L404.89 354.3L406.95 353.43L409.06 352.61L411.21 351.87L413.41 351.21L415.63 350.61L417.9 350.09L420.2 349.65L422.54 349.28L424.9 348.99L427.3 348.78L429.72 348.65L432.17 348.61L434.62 348.65L437.03 348.78L439.43 348.99L441.79 349.28L444.13 349.65L446.43 350.09L448.69 350.61L450.93 351.21L453.11 351.87L455.27 352.61L457.38 353.43L459.44 354.3L460.33 354.33L462.25 354.43L464.18 354.57L466.13 354.74L468.1 354.95L470.09 355.19L472.1 355.46L474.11 355.77L476.16 356.11L478.22 356.48L480.29 356.9L482.38 357.34L484.49 357.82L486.62 358.33L488.76 358.87L490.93 359.45L493.1 360.06L495.3 360.71L497.51 361.38L499.75 362.1L502 362.85L504.26 363.63L506.55 364.44L508.85 365.29L511.16 366.17L513.5 367.09L515.77 368.06L517.89 369.1L519.84 370.19L521.65 371.37L523.3 372.61L524.79 373.91L526.13 375.28L527.31 376.73L528.35 378.23L529.23 379.81L529.95 381.46L530.51 383.17L530.92 384.95L531.18 386.79L531.28 388.71L531.22 390.69L531.02 392.74L530.66 394.86L530.14 397.05L529.47 399.3L528.64 401.63L527.66 404.02L526.53 406.47L525.24 408.99L523.8 411.58L522.2 414.24L520.44 416.97L518.53 419.77L516.47 422.63L514.26 425.56L511.87 428.56L509.36 431.63L506.67 434.76L504.41 437.31L597.26 437.31L597.82 437.32L598.37 437.35L598.91 437.4L599.45 437.47L599.98 437.56L600.5 437.68L601.01 437.81L601.51 437.95L602.02 438.11L602.5 438.3L602.98 438.5L603.45 438.72L603.9 438.95L604.35 439.2L604.79 439.46L605.21 439.74L605.62 440.03L606.02 440.34L606.4 440.67L606.78 441L607.13 441.35L607.48 441.71L607.81 442.08L608.13 442.46L608.42 442.86L608.71 443.27L608.97 443.69L609.22 444.11L609.45 444.55L609.66 445L609.86 445.45L610.04 445.93L610.19 446.4L610.33 446.88L610.45 447.36L610.55 447.86L610.63 448.36L610.68 448.87L610.71 449.38L610.72 449.9L610.72 541.89L610.72 542.07L610.72 542.26L610.72 593.78L610.71 594.45L610.66 595.11L610.59 595.77L610.5 596.41L610.37 597.05L610.22 597.68L610.04 598.31L609.84 598.92L609.61 599.52L609.36 600.1L609.08 600.68L608.79 601.25L608.46 601.8L608.12 602.34L607.76 602.87L607.37 603.38L606.97 603.87L606.54 604.35L606.1 604.82L605.63 605.27L605.15 605.7L604.66 606.12L604.14 606.52L603.61 606.9L603.06 607.26L602.5 607.6L601.92 607.92L601.33 608.22L600.73 608.5L600.11 608.76L599.48 608.99L598.84 609.21L598.19 609.39L597.53 609.56L596.85 609.7L596.17 609.82L595.47 609.91L594.77 609.98L594.06 610.02L593.35 610.04L582.19 610.04L581.48 610.02L580.77 609.98L580.06 609.91L579.38 609.82L578.69 609.7L578.02 609.56L577.35 609.39L576.7 609.21L576.06 608.99L575.43 608.76L574.81 608.5L574.21 608.22L573.61 607.92L573.04 607.6L572.48 607.26L571.93 606.9L571.4 606.52L570.89 606.12L570.38 605.7L569.9 605.27L569.44 604.82L569 604.35L568.58 603.87L568.17 603.38L567.78 602.87L567.42 602.34L567.07 601.8L566.75 601.25L566.46 600.68L566.18 600.1L565.93 599.52L565.7 598.92L565.5 598.31L565.32 597.68L565.17 597.05L565.04 596.41L564.94 595.77L564.87 595.11L564.83 594.45L564.81 593.78L564.81 569.89L553.13 569.89L552.41 569.87L551.71 569.83L551.02 569.77L550.33 569.68L549.65 569.56L548.98 569.42L548.32 569.26L547.67 569.07L547.04 568.86L546.41 568.62L545.79 568.36L545.19 568.09L544.61 567.79L544.04 567.47L543.48 567.13L542.94 566.78L542.41 566.4L541.89 566L541.41 565.59L540.93 565.16L540.47 564.71L540.03 564.26L539.6 563.78L539.2 563.28L538.82 562.77L538.46 562.25L538.11 561.71L537.8 561.17L537.51 560.61L537.23 560.03L536.98 559.44L536.75 558.85L536.55 558.24L536.38 557.62L536.22 557L536.1 556.36L536 555.72L535.93 555.07L535.89 554.48L469.59 554.48L469.59 593.78L469.57 594.45L469.53 595.11L469.46 595.77L469.36 596.41L469.23 597.05L469.08 597.68L468.9 598.31L468.7 598.92L468.48 599.52L468.22 600.1L467.95 600.68L467.65 601.25L467.33 601.8L466.98 602.34L466.63 602.87L466.23 603.38L465.83 603.87L465.41 604.35L464.97 604.82L464.5 605.27L464.02 605.7L463.52 606.12L463 606.52L462.47 606.9L461.93 607.26L461.37 607.6L460.79 607.92L460.2 608.22L459.6 608.5L458.98 608.76L458.35 608.99L457.7 609.21L457.05 609.39L456.39 609.56L455.71 609.7L455.04 609.82L454.34 609.91L453.64 609.98L452.92 610.02L452.21 610.04L441.06 610.04L440.35 610.02L439.64 609.98L438.94 609.91L438.24 609.82L437.56 609.7L436.88 609.56L436.22 609.39L435.57 609.21L434.93 608.99L434.3 608.76L433.68 608.5L433.08 608.22L432.49 607.92L431.91 607.6L431.35 607.26L430.8 606.9L430.27 606.52L429.75 606.12L429.26 605.7L428.78 605.27L428.31 604.82L427.87 604.35L427.44 603.87L427.04 603.38L426.65 602.87L426.29 602.34L425.95 601.8L425.62 601.25L425.33 600.68L425.05 600.1L424.8 599.52L424.57 598.92L424.37 598.31L424.19 597.68L424.04 597.05L423.91 596.41L423.82 595.77L423.75 595.11L423.7 594.45L423.69 593.78L423.69 568L423.05 567.96L422.36 567.9L421.67 567.81L420.99 567.7L420.32 567.55L419.66 567.39L419.01 567.2L418.38 566.99L417.75 566.75L417.14 566.49L416.54 566.22L415.95 565.92L415.38 565.6L414.83 565.26L414.28 564.91L413.75 564.53L413.24 564.13L412.75 563.72L412.27 563.29L411.81 562.84L411.37 562.39L410.94 561.91L410.54 561.41L410.16 560.9L409.8 560.38L409.46 559.84L409.14 559.3L408.85 558.74L408.57 558.16L408.32 557.58L408.09 556.98L407.89 556.37L407.72 555.75L407.56 555.13L407.44 554.49L407.34 553.85L407.27 553.2L407.23 552.54L407.21 551.88L407.21 460.11L405.17 459.47L401.46 458.08L397.33 456.35L392.76 454.27L387.75 451.85L404.23 450.88L400.57 450.55L393.4 449.81L386.43 448.97L379.67 448.06L373.1 447.05L366.73 445.95L360.57 444.76L354.61 443.49L348.84 442.12L343.27 440.67L337.9 439.13L332.73 437.5L327.76 435.79L322.99 433.99L318.42 432.09L314.05 430.12L309.87 428.04L305.9 425.89L302.13 423.65L298.55 421.31L295.18 418.88L292.01 416.38L289.03 413.78L286.25 411.09L283.67 408.32L281.29 405.45L279.12 402.5L277.14 399.46L275.36 396.33L273.78 393.12L272.4 389.81L271.22 386.42L270.24 382.93L269.46 379.36L268.88 375.71L268.49 371.96L268.31 368.12L268.32 364.2L268.54 360.19L268.96 356.09L270.55 354.99L272.11 353.95L273.63 352.98L275.12 352.06L276.57 351.21L277.98 350.41L279.36 349.68L280.71 349.01L282.01 348.4L283.29 347.85L284.53 347.36L285.73 346.94L286.91 346.57L288.04 346.27L289.14 346.02L290.2 345.84L291.23 345.72L292.22 345.66L293.18 345.66L294.1 345.73L294.1 345.73L294.99 345.85L295.84 346.04Z" id="h2PMuuJePv"></path></defs><g><g><g><use xlink:href="#cJCoqw2bE" opacity="1" fill="#54c972" fill-opacity="1"></use><g><use xlink:href="#cJCoqw2bE" opacity="1" fill-opacity="0" stroke="#000000" stroke-width="0" stroke-opacity="1"></use></g></g><g><use xlink:href="#e37NCt85zO" opacity="1" fill="#8c6e44" fill-opacity="1"></use></g><g><use xlink:href="#b46ceEvTc" opacity="1" fill="#998454" fill-opacity="1"></use><g><use xlink:href="#b46ceEvTc" opacity="1" fill-opacity="0" stroke="#000000" stroke-width="0" stroke-opacity="1"></use></g></g><g><g><use xlink:href="#ahorWiWC" opacity="1" fill-opacity="0" stroke="#000000" stroke-width="0" stroke-opacity="1"></use></g></g><g><use xlink:href="#a8RKy5AHTh" opacity="1" fill="#509864" fill-opacity="1"></use></g><g><use xlink:href="#evDz3OgZX" opacity="1" fill="#654312" fill-opacity="1"></use></g><g><use xlink:href="#a1z4jVYhvy" opacity="1" fill="#717171" fill-opacity="1"></use><g><use xlink:href="#a1z4jVYhvy" opacity="1" fill-opacity="0" stroke="#000000" stroke-width="0" stroke-opacity="1"></use></g></g><g><use xlink:href="#h2PMuuJePv" opacity="1" fill="#84999e" fill-opacity="1"></use><g><use xlink:href="#h2PMuuJePv" opacity="1" fill-opacity="0" stroke="#000000" stroke-width="1" stroke-opacity="0"></use></g></g></g></g></svg>