<?xml version="1.0" encoding="utf-8"?>
<svg version="1.1" id="Layer_1" xmlns="http://www.w3.org/2000/svg" xmlns:xlink="http://www.w3.org/1999/xlink" x="0px" y="0px"
	 viewBox="0 0 512 512" style="enable-background:new 0 0 512 512;" xml:space="preserve">
<style type="text/css">
	.st0{fill:url(#SVGID_1_);}
	.st1{opacity:0.7;fill:#45CE1E;}
	.st2{fill:url(#SVGID_2_);}
	.st3{opacity:0.7;fill:#FFFF9B;}
	.st4{fill:#1D8214;}
	.st5{fill:#D4A0FA;}
</style>
<linearGradient id="SVGID_1_" gradientUnits="userSpaceOnUse" x1="256" y1="471.255" x2="256" y2="15.7763">
	<stop  offset="0" style="stop-color:#13AF2A"/>
	<stop  offset="1" style="stop-color:#87F369"/>
</linearGradient>
<rect class="st0" width="512" height="512"/>
<path class="st1" d="M98.7,55.4c0.5,1.2,0.6,1.7,0.7,1.7C99.3,57,98.9,56.1,98.7,55.4z"/>
<path class="st1" d="M99.3,57.1C99.3,57.1,99.3,57.1,99.3,57.1L99.3,57.1z"/>
<linearGradient id="SVGID_2_" gradientUnits="userSpaceOnUse" x1="256" y1="512" x2="256" y2="-9.094947e-13">
	<stop  offset="0" style="stop-color:#0EA511"/>
	<stop  offset="1" style="stop-color:#52CF22"/>
</linearGradient>
<path class="st2" d="M512,104.6c-5.1,13.6-8.6,28.2-11.6,28.3c-0.1,0-0.2,0-0.3-0.1c0,0-0.1-0.1-0.1-0.1c-0.1-0.1-0.1-0.1-0.2-0.3
	c0,0-0.1-0.1-0.1-0.2c-0.1-0.1-0.1-0.2-0.2-0.4c0-0.1,0-0.2-0.1-0.2c0-0.2-0.1-0.4-0.1-0.6c0-0.1,0-0.2-0.1-0.3
	c0-0.2-0.1-0.5-0.1-0.8c0-0.1,0-0.2,0-0.3c0-0.3-0.1-0.6-0.1-1c0-0.1,0-0.1,0-0.2c0-0.4-0.1-0.8-0.1-1.3c0,0,0-0.1,0-0.1
	c0-0.5-0.1-1-0.1-1.6c-0.8-14.1,0.5-46.2,3.1-76.9c1.5-18,2.5-35.1,3.1-48.6h-12.4c-2,39.3-6,113.2-8.7,143.2
	c-3.8,41.8-5.4,42.2-8.1,19.7c-2.7-22.4-8.8-67.8-11.9-93.2c-0.2-1.4-0.3-2.7-0.4-4c0-0.3-0.1-0.7-0.1-1c-0.1-1.1-0.2-2.3-0.3-3.3
	c0-0.3,0-0.6,0-0.9c0-0.8-0.1-1.5-0.1-2.2c0-0.4,0-0.7,0-1.1c0-0.8,0-1.6,0-2.4c0-0.4,0-0.7,0-1c0-0.6,0-1.1,0.1-1.7
	c0-0.2,0-0.5,0-0.7c0.5-9.8,2.9-14.6,2.5-27.6c-0.2-8-0.7-16.7-1.1-24h-6.9l-1.7,54.9l-10-26.3C449.8,17,453.7,6.4,456,0h-9.1
	c-1.4,4.4-3.5,10.6-5.6,16.9L434.9,0H427c0.5,7.8,0.9,22.3-1.1,38.9c-2.9,24.9-4.7,31.9-14.1,54.4c-9.4,22.6-11.2,19.4-20,32.6
	c-8.8,13.2-15.9,30.3-19.4,29.5c-0.1,0-0.2-0.1-0.3-0.2c0,0-0.1-0.1-0.1-0.1c0-0.1-0.1-0.2-0.1-0.3c0-0.1-0.1-0.2-0.1-0.3
	c0-0.1-0.1-0.2-0.1-0.4c0-0.1,0-0.2,0-0.4c0-0.2,0-0.3-0.1-0.5c0-0.1,0-0.3,0-0.5c0-0.2,0-0.4,0-0.6c0-0.2,0-0.4,0-0.5
	c0-0.2,0-0.5,0-0.7c0-0.2,0-0.4,0-0.6c0-0.3,0-0.5,0.1-0.8c0-0.2,0-0.4,0-0.7c0-0.3,0-0.7,0.1-1c0-0.2,0-0.4,0.1-0.7
	c0-0.4,0.1-0.8,0.1-1.2c0-0.2,0-0.4,0.1-0.7c0.1-0.5,0.1-0.9,0.2-1.4c0-0.2,0-0.4,0.1-0.6c0.1-0.6,0.1-1.1,0.2-1.7
	c0-0.1,0-0.3,0.1-0.4c0.1-0.7,0.2-1.5,0.3-2.2c0,0,0,0,0-0.1c2.4-16.5,8-43,14.2-68.2C394.7,40.3,400.2,12,402.5,0h-13.7
	c-5.4,25.8-26.6,125.9-35.7,161.7c-10.6,41.2-12.3,41.2-11.8,17.9c0.6-23.3,1.2-70.7,1.8-97.2c0-1.5,0.1-2.9,0.2-4.2
	c0-0.3,0-0.6,0-0.8c0.1-1.3,0.2-2.5,0.2-3.6c0-0.2,0-0.4,0-0.5c0.1-1,0.2-1.9,0.3-2.8c0-0.2,0.1-0.5,0.1-0.7
	c0.1-0.9,0.2-1.8,0.4-2.6c0-0.3,0.1-0.6,0.1-0.9c0.1-0.6,0.2-1.2,0.3-1.8c0-0.2,0.1-0.5,0.1-0.7c0,0,0,0,0,0c1.3-6,3-9.9,4.5-15.2
	c13.9-18.2,26.3-37.2,29.2-45.6c-4.2,0-4.2,0-4.2,0s-10.3,18-23.1,37.2c0.2-1.2,0.4-2.4,0.5-3.7c1.1-9.3,2.1-19.5,2.8-27.6
	c2.1-3.7,3.3-5.9,3.3-5.9h-2.8c0.1-1.1,0.2-2.2,0.3-3.1H349l-3.2,16.6c-3.9,7.2-9.1,16.6-14.3,26.1L321.8,0h-1.1l-2.9,11.7
	c0,0,4,21.9,7.5,42.3c-8.7,15.7-16.6,29.8-18.9,33.3c-3.9,6.1-7.7,13.7-11.9,21.5c-0.7,1.3-1.4,2.6-2.1,3.8c-0.3,0.6-0.7,1.2-1,1.8
	c-1.1,1.9-2.1,3.7-3.3,5.6c-7.1,11.5-9,10.2-9,10.2s1.4-7,3.2-15.6c0.3-0.9,0.6-1.8,0.8-2.9c0,0,0-0.2,0-0.5c1.6-7.6,3.5-16,5-21.8
	c2.6-10.1,15.2-63,21.4-89.4H288c-5.1,24.2-14.9,70.2-17,80.5c-2.9,14.1-3.9,4.7-5.1-4.7c-0.8-5.9-8.6-46.5-14.3-75.8H248
	c5.5,31.4,13.5,77,15.3,86c1.9,9.3,2.3,23.7,0.7,40.3c0,0.1,0,0.1-0.1,0.1c0,0-0.5,5.2-1.4,12.3c-0.2,1.6-0.4,3.2-0.7,4.8
	c-0.1,0.4-0.1,0.7-0.2,1.1c0,0.1,0,0.3-0.1,0.4c-0.5,2.7-0.9,5.5-1.5,8.3c-0.4,2-0.9,3.9-1.3,5.9c-0.4,1.6-0.8,3.1-1.2,4.5
	c-0.3-4,0.8-7.5-5.6-7.5c4.1-7.8,7.9-18.7,1-26.5c6.8-12-5.2-23.7-13.3-24.5c2.9-4.2,7.1-13.9-1.1-11.7c2.7-10.6-8.5-2.1-10.3,0.4
	c-4.1,5.7-4.7,15.1-12,10.8c0.3-0.4,0.8-1,1.2-1.7c2.7,0.3,3.6-3,3.6-6.9c1.6-4,2.3-8.2-0.1-10.4c4-6,9-21.8-2-15.5
	c-1.1-10.8-2.5-12.6-9.4-6.8c-0.7-2.2-6.7-19.1-9.9-10.4c-1.8,4.9-1.4,12.1-2.6,16.5c-0.6-0.9-1.5-1.4-2.6-1.8
	c-0.5-2.7-3-3.1-6.6-0.8c1.3-16.3-1.5-29.2-10.8-12.8c-7.5-16.3-25.4-0.2-16.1,9.6c-11.4,4.4,0.6,9.2-1.6,16.8
	c-7.8-6-13.8-12.2-12.8,3.4c-2.2-1.6-4.5-2.2-7-1.6c-1.7-3.4-4.1-5.9-7.3-5.8c-0.6,0-1.1,0.1-1.6,0.1c-0.6-11.9-5.6-22.4-12.2-6.6
	c-2.9,7.1-3.8,12.6-9.3,7.4c-2.1-2.1-4.5-3.3-7.1-3.6c0.2-2.4-0.4-4.3-1.9-5.8c1.3-2.5,1.1-5.8-0.5-7.5c-0.3-1.8-0.7-3.6-1.3-5.1
	c0,0,0,0,0,0c0.7-6.5,0.7-17.3-5.2-13c-2.1-16.2-8-8-11.4,2.8C71.5,36,69.8,45,73.7,57.7c-1.7-0.9-3.3-1-4.9-0.2
	c1.6-3.9-1.5-8.3-4.6-7.2c2.6-15.4-2.9-22.1-9.3-32C44.4,1.9,44.3,20,45.7,31.7c-1.5-2-14.3-14.9-12.3-2.7
	c-7.2,1.1-13.2,4.2-7.9,14.1c1.6,2.9,3.5,5.4,5.8,7.4c-2.6,3-3.3,7.5-2.1,11.7c-5.8,2.4-4.2,2.6-9-4.7c-2.4-3.7-6,0.5-5.5,4.3
	c-3.4-4.3-8.2-9.9-13.3-9.3c-0.5,0.1-0.9,0.2-1.3,0.3v142.5c1.1-0.5,2.1-1.1,2.8-1.6c0.1,5.9,3.6,9,7,4.3c0.9,12,8.5,4.8,11.7-3.1
	c2-0.4,4-2.2,5-6c0.2-0.8,0.4-1.6,0.5-2.6c9.6,6.6,19.1,13.2,27.4,23.3c1.6,1.9,2.9,3.9,3.9,6.1c-0.9,2.3,1.8,8.2,3.5,11.5
	c0.1,0.5,0.2,1.1,0.2,1.6c-1.9,0.5-3.7,1.2-5.4,2.4c-1.8-3.6-4.5-7.2-7.9-7.4c-2.9-0.2-10.6,5.9-11.7,8.4c-2.1-3-4.6-3.7-7.5-2.2
	c-0.4-4-2.9-6.7-6-5.5c-5.5,2-10.7,9.4-10.4,17.9c-5.7-5.5-4.4,10-3.3,14.7c-1.6-1.7-7.3-4.8-6.8-4.6C2,252,0.9,251.8,0,251.8v71.8
	c2.9,0.3,6.1-2.2,8.1-5.5c2.8,2.2,5-1.8,6.6-6.5c2.5,2.1,5.2,3.8,8,5.4c-0.1,5.3,2.8,4.8,5.8,3.1c2.3,1.2,4.7,2.4,7,3.7
	c1.1,1.7,2.4,2.4,3.8,2.4c0.6,0.4,1.2,0.8,1.7,1.2c7.7,5.7,14.2,13.4,18.9,23.3c4,8.3,5.2,17.5,7.1,26.7c0.3,22.7,0.1,45.4-0.9,68.3
	c-0.2,4.6,5.2,6.7,6.7,2.4c3.6-10,3.3-21.6,3.1-32.5c-0.3-15.7-0.5-31.2-0.3-46.9c0.1-12.3-0.3-24.5-1-36.8
	c3.8-13.4,7.8-26,12.9-38.6c0.6,1.4,1.8,2,3.7,1.4c-0.1,1.6,0.2,3,1.4,3.5c0.1,0.6,0.3,1.2,0.6,1.6c-1.1,2.9-2.8,9.2-2.1,11
	c1.7,4.9,7.6,1,9.7-0.9c-0.1,7.9,5.7,11.2,7.9,3.6c0.6-2,0.8-3,0.9-3.4c-0.1,0.6-0.1,1.9,1.9-0.7c0.1-0.1,0.1-0.1,0.2-0.2
	c1.6,3.5,4.7,5.8,8.3,6c1.4,0.1,2.7,0.7,4.1,1.4c1.7,7.7,3.3,15.6,5.2,23.2c0,5.2,0.1,10.4,0.2,15.7c-0.2,2.4-0.2,4.7,0.1,7
	c0.2,15.6,0.2,31.1-0.2,46.7c-0.4,15.9-3.2,31.4-2,47.4c0.3,4.8,5.1,5,4.8,0c-0.9-15.9,1-31.5,1.7-47.4c0.8-17.6,0.1-35.6-0.3-53.3
	c1.8-9.6,4-18.2,7.5-27.4c2-5.3,4.1-10.6,6.1-16c0.3,8.4,6.3,12.8,10.3,5.6c2,0.2,3.9-0.8,5.3-2.9c0.1-0.2,0.2-0.3,0.3-0.4
	c0.7,1.4,1.5,2.8,2.2,4.3c5.2,10.9,8.4,24.1,14.2,34.3c0.2,0.3,0.4,0.6,0.7,0.8c-0.2,7.9-0.2,15.8,0.3,23.8
	c1.3,19.2,5.7,43.4-0.5,61.8c-1.5,4.5,2.3,8.9,5.3,5.4c0.1-0.1,0.2-0.2,0.3-0.4c-2.7,10-10,42.5-15.8,67.4h31.7
	c6.5-39.5,21.3-122.9,27-158.5c1.6,2.1,4-0.7,5.6,0c-2.8,5-3.9,15,3.5,9.7c0.3,3.1,4,1.6,5.4,0.7c0.1,2.6,1.8,3.9,3.4,1.9
	c0.4,5.2,4.1,2.1,5.7-1.3c1-0.2,2-1,2.5-2.6c0.1-0.3,0.2-0.7,0.3-1.1c4.7,2.9,9.4,5.8,13.4,10.2c0.8,0.8,1.4,1.7,1.9,2.7
	c-0.4,1,0.9,3.5,1.7,5c0,0.2,0.1,0.5,0.1,0.7c-0.9,0.2-1.8,0.5-2.6,1c-0.9-1.6-2.2-3.1-3.9-3.2c-1.4-0.1-5.2,2.6-5.7,3.7
	c-1-1.3-2.3-1.6-3.7-0.9c-0.2-1.8-1.4-2.9-2.9-2.4c-2.7,0.9-5.2,4.1-5.1,7.8c-2.8-2.4-2.1,4.4-1.6,6.4c-0.7-0.8-3.6-2.1-3.3-2
	c-2.6-1-3.3,0.4-5,1.3c-4.5,2.4,4.5,9.7-2,10.4c-2.2,0.2-2,2.6-3.7,3.7c-3.2,2-1.3,2.9-3.5,4.8c-3,2.7,4.2,5,5.5,4.9
	c-4.2,7.6,0.5,7.9,4.7,3.5c0.1,0.1,0.1,0.1,0.2,0.2c1.3,3.5,4.6,2.1,6.2-0.3c1.4,1,2.5-0.8,3.2-2.9c1.2,0.9,2.6,1.7,3.9,2.4
	c-0.1,2.3,1.4,2.1,2.8,1.3c1.2,0.5,2.3,1.1,3.5,1.7c0.5,0.7,1.1,1,1.7,1c0.3,0.2,0.6,0.3,0.9,0.6c3.8,2.5,6.9,5.8,9.3,10.1
	c1.2,2.3,1.9,4.7,2.5,7.3c-9.8,26.1-20.6,51.8-29.6,72.4h44.7c7.5-29,17.4-67.1,25.6-98.4c0.9-0.9,1.6-1.9,2-3.2
	c0.4,0.2,0.9,0.3,1.3,0.4c1.8,2.5,3.5,5,5,7.8c2.5,4.8,4.1,10.5,7,14.9c0.1,0.1,0.2,0.3,0.3,0.3c-0.1,3.4-0.1,6.9,0.2,10.4
	c0.6,8.4,2.8,18.9-0.3,26.9c-0.8,2,1.1,3.9,2.6,2.3c4.4-4.7,2.5-16.1,2-22.1c-0.4-4.4-0.8-8.8-1-13.2c-0.2-5,0.3-10.2,0.7-15.3
	c0.1-0.1,0.3-0.3,0.3-0.5c1.7-5.1,2.8-10.2,4.8-15.1c0.8-1.9,1.7-3.7,2.5-5.6c0.3,0.1,0.7,0.1,1.2,0c-1.5,4.4,1.8,14.5,6.5,7.4
	c2.5,5.4,8.5,2.8,8.6-2.8c0.1-0.3,0.1-0.6,0.1-0.9c5.1-0.3,6.7-7.1,4.4-12.7c2.8,0.6,1.9-2.1,4.6-2c1.8,0,2.3-2.8,0.9-3.9
	c0.3,0.2,1.1,0.8,0,0c-0.5-0.4-0.9-0.8-1.4-1.1c4.6-5.1,0.7-7.7-2.1-10.5c-1.4-1.4-4.9,0.3-6,1.6c-1.7-0.3-2.2-1.3-1.3-3.1
	c0-1.4-0.1-2.8-0.5-4.2c0,0,0-0.1,0-0.1c1.7,0.6,4.3,1.3,3.6-2c3.8,0.7,7.5-2.8,4.4-7c2-0.9,6.4-4.3,3.8-7.3
	c-2.1-2.4,0.9-5.5-3.6-5.5c2-3.4,3.8-8.2,0.5-11.6c3.3-5.2-2.6-10.3-6.5-10.7c1.4-1.8,3.5-6-0.6-5.1c1.3-4.6-4.2-0.9-5.1,0.1
	c-2,2.5-2.3,6.6-5.9,4.7c0.2-0.2,0.4-0.5,0.6-0.8c1.3,0.1,1.8-1.3,1.8-3c0.8-1.7,1.2-3.6,0-4.5c1.9-2.6,4.4-9.5-1-6.8
	c-0.6-4.7-1.2-5.5-4.6-3c-0.3-0.8-2.4-6-4-5.6c4.2-22.6,8.5-46.5,13.1-67.8c0.3-1.4,0.6-2.7,0.9-4c0-0.1,0.1-0.3,0.1-0.4
	c0.2-1.1,0.5-2.3,0.7-3.3c0.1-0.2,0.1-0.5,0.2-0.7c0.2-1,0.4-1.9,0.6-2.9c0.1-0.3,0.1-0.6,0.2-1c0.2-0.8,0.4-1.6,0.5-2.4
	c0.1-0.4,0.2-0.7,0.3-1.1c0.2-0.7,0.3-1.4,0.5-2.1c0.1-0.4,0.2-0.8,0.3-1.2c0.1-0.6,0.3-1.2,0.5-1.8c0.1-0.4,0.2-0.8,0.3-1.2
	c0.1-0.6,0.3-1.1,0.4-1.6c0.1-0.4,0.2-0.8,0.3-1.2c0.1-0.5,0.3-1,0.4-1.5c0.1-0.4,0.2-0.8,0.3-1.2c0.1-0.5,0.3-0.9,0.4-1.3
	c0.1-0.4,0.2-0.8,0.4-1.2c0.1-0.4,0.2-0.8,0.4-1.2c0.1-0.4,0.3-0.8,0.4-1.2c0.1-0.4,0.2-0.8,0.4-1.1c0.1-0.4,0.3-0.8,0.4-1.2
	c0.1-0.3,0.2-0.7,0.4-1c0.1-0.4,0.3-0.8,0.4-1.2c0.1-0.3,0.2-0.6,0.3-0.9c0.2-0.4,0.3-0.8,0.5-1.2c0.1-0.3,0.2-0.6,0.3-0.8
	c0.2-0.4,0.3-0.9,0.5-1.3c0.1-0.2,0.2-0.5,0.3-0.7c0.2-0.4,0.4-0.9,0.6-1.3c0.1-0.2,0.2-0.4,0.3-0.6c4.6-10.3,11-19.3,22.3-34.7
	c22.9-31.2,39.3-70.9,47.8-96.9c1.9-5.7,4-11.9,6.2-18.2c3.1,9.4,6.2,19.2,8.4,26.5c6.2,20,11.7,57.8,14,77.3
	c2.3,19.4,1.7,19.6,8,44.1c6.3,24.6,4.4,26.6,2,66.5c-2.4,39.9-6.3,32.4-13.2,105c-4,41.8-14.5,111.6-22.8,152.8h39.1
	c3.3-45.4,9.1-150.2,11.3-172.7c3.2-32.5,2.9-84.7,5.3-127.3c0.2-3.8,0.4-7.2,0.6-10.4c0-0.2,0-0.5,0-0.7c0.1-0.8,0.1-1.5,0.2-2.2
	c0-0.4,0.1-0.8,0.1-1.2c0-0.6,0.1-1.2,0.1-1.8c0-0.5,0.1-1,0.1-1.5c0-0.5,0.1-1,0.1-1.4c0-0.6,0.1-1.1,0.1-1.7
	c0-0.4,0.1-0.8,0.1-1.2c0.1-0.6,0.1-1.2,0.2-1.8c0-0.3,0.1-0.6,0.1-0.9c0.1-0.7,0.1-1.3,0.2-1.9c0-0.2,0.1-0.5,0.1-0.7
	c0.1-0.7,0.2-1.4,0.2-2c0-0.2,0-0.3,0.1-0.5c0.1-0.7,0.2-1.4,0.3-2.1c0-0.1,0-0.2,0-0.3c0.1-0.8,0.2-1.5,0.3-2.2c0,0,0-0.1,0-0.1
	c0.6-4,1.4-7.7,2.3-11.3c0,0,0,0,0,0c2.5-9.4,6.3-18.5,12.8-32.4V104.6z M19.6,309.8c-1.3-0.8-2.5-1.6-3.7-2.5
	c0.6-2.4,1-4.5,1.3-5.6C20.4,302.3,19.7,306.3,19.6,309.8z M45.1,322.8c2.8-3,5.3-7.5,6.5-11.5c0.1,6.2,0.5,12.3,1.7,18
	C50.7,326.7,48,324.6,45.1,322.8z M90.1,57.5c-0.9,2.7-2.2,5.1-3.7,7.3c0,0,0,0,0-0.1c0.2-0.4,0.2-0.5,0-0.4
	c0.1-1.5-0.3-3.1-0.8-4.7C87,58.9,87.8,57.4,90.1,57.5z M56,48.6C56,48.6,56.1,48.5,56,48.6c0.1,0.1,0.1,0.2,0.1,0.3
	C56.1,48.7,56,48.6,56,48.6c0,0.1,0,0.2,0.1,0.3l0,0C56,48.8,56,48.7,56,48.6C56,48.6,56,48.6,56,48.6z M53,30.9
	c-0.2,0.2-0.3,0.3-0.4,0.5c-0.1-1-0.3-1.9-0.4-2.9C52.5,29.3,52.8,30.1,53,30.9z M27.8,178.7c0.2-0.5,0.3-1.1,0.4-1.9
	c0.1-0.7,0.2-1.5,0.4-2.3c1.6-2.3,2.4-5.3,2.4-8.3c1.2-3.4,2.6-6.5,3.8-8.5c4.3-6.9-1.2-11.8,6.6-7.2c-1.8,3.5-8.2,16.1-0.9,17.1
	c1.5,0.2,3,0.2,4.5,0c1.6,9.9,3.7,20,6.6,29.3C44.8,189.6,36.3,183.6,27.8,178.7z M58.1,334.9c-0.8-10.1-2-19.9-2.2-30.2
	c-0.1-4-0.2-7.9-0.4-11.8c0.3-0.4,0.6-0.9,0.9-1.5c6.1-12.2,1,5,4,9.7c1.3,2.1,2.8,2.1,4.3,1.3c0.7,15.5,1.3,31,1.7,46.4
	C64.1,343.8,61.3,339.1,58.1,334.9z M66.8,183c-2.7,6.6-6.1,15-6.4,23c-2.8-8.1-5.8-16.2-8-24.7c-1.3-4.9-2.4-9.8-3.4-14.8
	c2.3-0.9,4.5-2.3,6.5-4.3c3.9-4,7.8-6.5,11-11c0.7-0.1,1.4-0.4,2.1-1c1.4,4.7,4,7.4,7.5,2.7c0.4,2.2,1.3,3.3,2.3,3.7
	C74.8,165.6,70.4,174.2,66.8,183z M84.7,283.9c-4.5,9.4-8.7,19-11.4,29c-0.3-4.8-0.7-9.6-1-14.4c4.3-1.1,5.2-12,4.9-16.3
	c-0.2-2.7-0.9-5.1-2.1-7.3c-2.9-5.4-0.1-2.8,0.9-8.7c2-12,8-4.1,14.2-5.3C89,264.7,78,282.4,84.7,283.9z M109.2,186.9
	c-2.1-0.9-4.2-0.3-6.1,1.6c-1.8,1.9,0.8,5.3,0.9,7.2c0.5,5.6-0.6,10.8,1,15.9c-1.7-0.2-3.3,0.4-4.7,1.9c-0.2-0.4-0.5-0.7-0.7-1
	c-0.4-1.5-1.3-2.1-2.4-2.1c-0.3-0.2-0.5-0.3-0.8-0.5c-2.7-1.2-3.6,0-3.6,2c-0.3,0.2-0.6,0.3-0.9,0.5c1.1-8.6,2-20.7-6.5-12.8
	c-2.5-9.7-5.7-4.6-8.6,1.5c-2-4-6.2-5.2-9.5-4.1c1.6-7.3,3.8-14.2,6.9-21.8c2.6-6.4,5.3-12.7,7.4-19.3c0.7-0.4,1.3-0.8,1.9-1.3
	c-0.4,3.6-0.2,11.2,4.4,9c7.2-3.3,7.1-2.8,10,5.9c0.1,0.3,0.2,0.6,0.4,0.9c0.3,2.8,1.5,4.7,4.6,4.2c-2.8,6.7,4.3,5.4,7.6,4.3
	c0.1,0.9,0.2,1.8,0.5,2.6C108.6,181.7,108.4,183.4,109.2,186.9z M129.3,324c-0.4-1.4-0.8-2.7-1.2-4c0.4,0,0.9-0.1,1.3-0.3
	C129.3,321.1,129.3,322.6,129.3,324z M134.7,84.3c-0.1-0.1,0-0.1,0.4,0c-1.6,1.1-1.1,1.8-2.8-0.3C133.2,84.1,133.9,84.2,134.7,84.3z
	 M136,330.6c-1,2.5-2,5.2-3,8c-0.1-6.6-0.1-13.1-0.1-19.7c0.6-0.2,1.2-0.5,1.8-0.9c1.8-1.3,3.2-3.2,4.3-5.6c1-2.2,1.7-3,2.3-3.2
	c0.7,0.9,1.9,1.4,3,1.5C141.7,317.5,138.7,323.9,136,330.6z M215,306.2c-0.2,0.3-0.2,0.2-0.1,0.1c-0.5,0.3-1,0.6-1.5,1
	C214.6,304.6,215.1,304.3,215,306.2z M204.2,280.5c0.6,0.2,1.3,0.2,2.1,0c-0.7,1.3-1.5,2.5-2.2,3.9c-0.9,0.2-1.5,0.8-2.1,1.4
	C202.7,283.9,203.4,282.2,204.2,280.5z M172.8,150.3c0.1,0,0.2,0,0.2,0c0.3,4.7,3,4.6,0.9,8.8c-0.6,1.3-0.9,2.7-1,4.1
	c-1.7-3-3.7-5.8-5.7-8.5C169.3,153.2,171.3,152.1,172.8,150.3z M163.9,177.2c-1.6-5.2-4.8,3.4-4.2,6.6c-1.1-1.2-2.3-1.5-3.6-0.9
	c-2.4,0.9-3.4-1.5-5.4-0.7c-0.2-1.7-0.4-3.3,0.1-5.3c1.2-5.2,0.2-9.2-2.7-7.6c-0.5-10.5,8.3-0.5,13.6-6.4c1.6,0.2,3-1.7,4.2-4.6
	c0.4,0.6,0.8,1.2,1.2,1.9c3,4.7,4.8,9.4,6.3,14.5c-4.7-0.6-0.9,7.3-1.3,9.1C168.6,180.9,165.6,182.8,163.9,177.2z M165.8,187.4
	c1.9-1.5-1.6-3.1,2.4-0.7C168.1,186.7,165.8,189.4,165.8,187.4z M180.7,337.2c-2.4-7.9-6.1-15.8-10.3-23.1c0.3-0.1,0.6-0.4,0.9-0.7
	c1.6-0.7,3.1-2.8,3.8-4.9c0.7,2.2,4.9,8.2,6,3.8c0.2,0.3,0.4,0.5,0.6,0.8c0.2,0.2,0.3,0.5,0.5,0.8
	C181.8,321.7,181.2,329.5,180.7,337.2z M183,298.2c-0.1,3.4-0.2,6.7-0.4,10.1c-0.4-0.5-0.8-1-1.2-1.4c-0.6-5.4-3.9-6.8-5.1-12
	c1.3-0.9,2.5-2.3,3.5-4c0.1-0.1,0.2-0.1,0.3-0.2c1,1,2.1,1.4,3,1.3C183,294.1,183,296.1,183,298.2z M180.6,239.8
	c0.2-0.2,0.3-0.3,0.5-0.5c0,0.4,0.1,0.8,0.1,1.2C181,240.2,180.8,240,180.6,239.8z M184.2,156.3c0,0.2,0,0.3-0.1,0.4
	c-0.7-1.2-1.4-2.1-2.1-2.6c-0.3-1-0.4-2.2,0.1-3.6c0.3-0.8,1,1.5,1.5,3.5c-0.3-1.2-0.4-1.8,0.2,0.7
	C184.1,155.9,184.3,156.8,184.2,156.3z M189.1,394.4c-0.7-10.1-1.7-20.1-2-30.2c-0.3-8.5,0.2-17.1,0.8-25.7
	c0.3,20.2,1.3,40.4,1.7,60.7C189.3,397.4,189.2,395.8,189.1,394.4z M189.9,252.3c-0.6-1.1-1.3-2-2-3c-0.3-3.5-0.5-6.9-0.8-10.4
	c0.6-3.9,1.3-7.6,2-11.4c0.2,6.1,0.5,12.2,0.7,18.2C188.7,248.5,189.2,250.5,189.9,252.3z M190.1,267.7c0,0.1,0,0.2,0,0.4
	c-0.4-0.9-0.8-1.6-1-2c0-0.1,0-0.2,0-0.3c0.3,0.4,0.6,0.6,1,0.8C190.1,267,190.1,267.3,190.1,267.7z M188.3,148c0,0,0,0.1,0,0.1
	c-0.9-0.7-1.8-0.6-2.7,0.3c-1.5-2.5-3.8-3.8-6-3.1c-0.4-0.8-0.8-1.5-1.2-1.9c-0.1-2.2-0.1-4.5-0.2-6.7c3.5-1.5,6-5.4,7.2-10.3
	c2.4,2.3,5.1,3.9,8,4.8c-1,2-2,4.4-2.9,6.9C187.8,140.1,186.1,143.7,188.3,148z M192.8,213c0.1,0.1,0.3,0.2,0.5,0.4
	c1.1,1.1,2.3,1.6,3.5,1.5c-0.1,0.9,0,1.8,0.2,2.6c-0.8,1-0.7,2.5,1.2,4.8c1.2,1.5,2.4,1.7,3.4,1.3c0.1,0.2,0.3,0.4,0.4,0.7
	c-0.8,0.8-1.4,2-1.9,3.3c-2.6-0.5-4.5,0.3-4.7,3.7c-0.3,5.7-0.8,7-2,8.5c-0.5-8.1-1.1-16.3-1.4-24.4
	C192.3,214.5,192.5,213.8,192.8,213z M201,275.6c-2.7,4.6-5.2,9.5-7.4,14.6c0-0.3,0-0.5,0-0.7c0.9-2.2,1.3-5.4,1.3-9
	c0-0.1,0-0.3,0-0.4c1.7-5.1,3.5-10,5.4-14.8c0.3-0.1,0.6-0.2,0.9-0.3C200.8,267.6,200.4,272.1,201,275.6z M194.3,266.8
	c0.7-0.1,1.4-0.3,2.1-0.5c-0.8,2.2-1.5,4.5-2.3,6.8c0-1.8,0.1-3.6,0.1-5.4C194.3,267.4,194.3,267.1,194.3,266.8z M195,407.1
	c0-1.4-0.1-2.9-0.1-4.3c-0.3-22.7-1.8-45.4-2.2-68.1c-0.1-4.3-0.1-8.6,0-12.9c2.2-5.5,3.9-11.4,5.9-17.2c0.2,1.6,0.7,2.8,1.7,3.8
	c3.2,3.4,1.4,2.2,2.8,7.4c1.6,6.2,6.9,6.4,8.4,0.1c1.6-6.2,3.4-3.9,5.4-1.7C210.1,344.2,202.3,377.6,195,407.1z M229.6,347.9
	c-0.2,0.3-0.4,0.6-0.6,1c0.1-0.5,0.1-1,0.2-1.4c0.1,0,0.2,0.1,0.4,0.1C229.6,347.7,229.5,347.8,229.6,347.9z M251,414.5
	c-0.6-0.3-1.2-0.7-1.8-1.1c0.3-1,0.5-2,0.6-2.5C251.3,411.2,251,413,251,414.5z M263.4,420.2c1.4-1.3,2.6-3.3,3.2-5.1
	c0.1,2.7,0.2,5.4,0.8,7.9C266.2,421.9,264.8,421,263.4,420.2z M326.4,60c0.7,4,1.3,7.8,1.9,11.3c-5.7,6.5-11.1,11.5-15.4,13.4
	C316.1,78.7,321,69.8,326.4,60z M262.2,242.9c0.8-0.6,1.8-1,2.5-3.9c2.2-2.5,1.4-9.6,2.3-13c-0.1,4.6,2.7,3.8,4.7,3
	c0.1,2.7-2.7,8.3-0.9,10.8c0.4,0.6,0.9,1,1.4,1.1c0.2,6.4,0.5,12.8,0.8,19.2c-3.2-5.8-7.1-10.7-10.9-15.8
	C262.2,243.9,262.2,243.4,262.2,242.9z M253.3,264c0-0.4-0.1-0.6-0.1-0.9c1.5-2.9,0.2-4.4-1.6-5.3c0.4-0.6,0.9-1.2,1.5-1.7
	c1.2-0.2,2.3-0.6,3.4-0.2c2,0.7,3.7-3.3,4.3-6.6c0.3-0.2,0.6-0.6,0.9-1.6c4.4,6.8,9,13.8,11.8,21.9c0,0.3,0,0.7,0,1
	c-2.7,2.1-5.5,8.9-6.1,13c-1,7,3.5-1.5,0.8,4.1c0,0-0.1-0.1-0.1-0.1c-1.1-1.5-1.9-2.3-2.6-2.7c0.2-0.9,0.3-1.7,0.3-2.7
	c0-2.3-0.5-4.1-1.8-5.4c0.8-2,1.1-4.1,0.7-6.4c-0.3-1.4-3.4-6.2-4.2-6.8C258.5,261.9,255.5,263,253.3,264z M268.8,300.7
	c0,0,0-0.1,0-0.1c0,0,0,0,0,0c0,0,0,0,0,0C268.8,300.7,268.8,300.7,268.8,300.7c0,0,0-0.1,0-0.1
	C268.8,300.6,268.8,300.7,268.8,300.7z M267.3,292.9c-0.1,0.1-0.1,0.1-0.2,0.2c-0.1-0.4-0.1-0.8-0.2-1.2
	C267.1,292.2,267.2,292.6,267.3,292.9z M255,357.4c0.1-0.2,0.1-0.5,0.2-0.8c0.1-0.3,0.1-0.6,0.2-1c0.8-1,1.2-2.3,1.2-3.6
	c0.6-1.5,1.3-2.9,1.9-3.7c2.1-3-0.6-5.1,3.2-3.1c-0.9,1.5-4,7-0.4,7.4c0.7,0.1,1.5,0.1,2.2,0c0.8,4.3,1.8,8.7,3.2,12.8
	C263.3,362.1,259.1,359.5,255,357.4z M270.9,369.3c-1.4-3.5-2.8-7-3.9-10.7c-0.6-2.1-1.2-4.3-1.7-6.5c1.1-0.4,2.2-1,3.2-1.9
	c1.8-1.6,3.6-2.7,5.1-4.5c-0.2,5.3-0.4,10.6-0.6,15.9C272,364,271.1,366.7,270.9,369.3z M269.8,425.5c-0.4-4.4-1-8.7-1.1-13.2
	c0-1.8-0.1-3.4-0.2-5.1c0.1-0.2,0.3-0.4,0.4-0.7c3-5.3,0.5,2.2,2,4.2c0.7,0.9,1.4,0.9,2.1,0.5c0.3,6.8,0.6,13.5,0.8,20.2
	C272.7,429.4,271.4,427.3,269.8,425.5z M272.8,301.4c0-0.1,0-0.2,0-0.4c0,0,0.1,0,0.1,0c0.5-0.2,1-0.5,1.5-0.8c0,0.6,0,1.1,0,1.7
	C274,301.4,273.4,301.2,272.8,301.4z M276.1,258.1c-0.4-5.9-0.9-11.8-1.2-17.7c1.7-1.2,3.3-3.7,4.1-5.7c1.6,5.8,7.3,5.8,9-0.4
	c0.2,7.1-2.3,5.4-4.8,11.5c-1.5,3.7-1.7,8.6-2.1,12.9C280.5,258.4,277.3,257,276.1,258.1z M274.6,234.3
	C274.6,234.3,274.6,234.3,274.6,234.3c0.4-1.4,1.1-2.4,1.8-3.2C275.9,232.5,275.3,233.6,274.6,234.3z M278.3,297.5
	c0-0.1,0-0.3,0-0.4c2-1.8,0.6,0.4,3.4,1c-0.1,0.3-0.2,0.7-0.3,1C280.1,298.1,279.1,297.6,278.3,297.5z M279.7,347.7
	c-0.6,1.3-1.2,2.6-1.9,3.9c0-1.6,0.1-3.3,0.1-4.9c0.2-0.2,0.4-0.4,0.6-0.6C278.8,347.1,279.2,347.6,279.7,347.7z M277.7,355.9
	C277.7,355.9,277.7,355.9,277.7,355.9c1.3-2.8,2.6-5.5,3.6-8.4c0.3-0.2,0.7-0.4,1-0.6c-0.2,1.3-0.1,3.7,1.2,4
	c-2.1,4.7-4.3,9.5-6,14.6C277.6,362.3,277.7,359.1,277.7,355.9z M279.1,423.4c-0.1-0.8-0.1-1.7-0.2-2.5c1.6-4.7,3.3-9.2,5.3-13.6
	c0.1,0.2,0.2,0.3,0.4,0.4C282.9,412.9,281,418.1,279.1,423.4z M282.9,403.2c-1.7,3.2-3.3,6.5-4.6,9.8c-0.1-1.5-0.2-3-0.2-4.4
	c1-1.6,1.2-4.7,1.1-6.1c-0.1-1.2-0.4-2.2-1-3.2c-0.3-0.6-0.5-0.9-0.6-1.2c0-0.1,0-0.3,0-0.4c0.1-0.4,0.7-0.6,1-2.2
	c1-5.2,3.9-1.8,7-2.3C284.9,394.9,279.6,402.6,282.9,403.2z M294.9,373.9c-0.2,0.6-0.4,1.3-0.5,1.9c-0.5-0.8-1.1-1.3-1.9-1.6
	c-0.2-0.6-0.8-0.9-2.1-0.5c0.1-3.3-1.7-2.7-3.9-1.6c0.5-3.7,1-9-3.2-5.6c-0.2-0.6-0.4-1.1-0.6-1.4c1.8-4.7,3.8-9.3,5.8-13.9
	c0.3,0.5,0.5,1.3,0.9,2.3c0.1,0.1,0.1,0.2,0.2,0.3c0.1,1.3,0.7,2.1,2.3,1.9c-1.6,3.4,3.3,2.1,4.3,1.7c-0.1,0.9,0.2,1.6,0.9,1.9
	c0.8,0.4,1.3,0.4,1.8,0.2C297.5,363.9,296.2,368.7,294.9,373.9z M288.5,246.2c0.7-1.4,1.2-2.2,2.1-2.5
	C290,244.6,289.3,245.5,288.5,246.2z M299.5,310c-0.5,1-0.8,2-1.2,2.7c0.2-1.3,0.5-2.7,0.7-4.1c0.2-0.2,0.3-0.5,0.5-0.7
	c0.3,0.4,0.5,0.6,0.7,0.9C299.9,309.2,299.7,309.6,299.5,310z M316.4,240.1c2-6.3,9,1.1,11.1-9.4c1.9-9.6-0.5-19.8-6.7-22.6
	c1.5-4.2,1.7-7.6-1.9-7.9c1.9-7.1,0.5-12.2-4-10.2c-0.1-0.1-0.2-0.2-0.4-0.3c1.5-13.3-3.1-5.7-7.1-8.1c-2-1.2-4.2,0.7-5.6,3
	c-2.5-1.1-5.6-3-8.3-2.2c0.3-0.8,4.9-13.3,0.7-10.9c-3,1.8-5.2-6.4-7-8.9c-1.1-1.5-5.9,1.2-7.6,2.4c-2.4,1.7,3.3,13.7,4,15.7
	c-3.1,0.6-1.5-6.9-6.7-3.1c0-2.8-0.5-4.2-1.5-4.4c-0.2-1.1-0.5-1.9-1-2.3c-0.2-0.2-0.5-0.2-0.7-0.3c0.1-4.2-0.7-7.3-3.7-4.7
	c0.4-1.4,0.7-2.8,1.1-4.1c0,0,0-0.1,0-0.1c0.7-2.3,1.3-4.6,2.1-6.9c2.2-6.8,4.8-12.9,8.4-17.3c8.4-10.2,17.4-21.3,27-46.8
	c4.2-1,11.6-7.6,20-16.9c0.1,0.5,0.2,1.1,0.3,1.6c3.5,21.8,3.5,61.4,2.9,81.6c-0.6,20.2-1.2,20.2,1.8,46.6c2.2,20.1,1.4,25.8-3,44.7
	c-0.8,0.4-1.6,1.2-2.2,2.3c-0.8,1.9-1.4,4-1.9,6.3c-1.7-1.4-3.4-1.9-5.3-1.5c0.4-1.5,0.4-2.9-0.2-4.2c1.3-0.2,8.5-6.9,4.1-8.1
	C322.4,242.4,319.5,240.4,316.4,240.1z M322.7,379.5c0.2-0.6,0.3-1.2,0.5-1.8c1,1.6,2,3.2,3,4.8c0.3,0.5,0.6,1.1,0.9,1.6
	c-1.8-0.2-4.3,1.2-5.4,2.2c-0.3,0.3-0.6,0.5-0.9,0.7c0.4-1.7,0.9-3.3,1.3-4.9c0,0,0,0,0,0C323.6,381.7,323.5,380.7,322.7,379.5z
	 M324.2,375.8c2.5-1.5,3.9-5.2,1.6-7.8c0,0-0.1,0-0.1-0.1c0,0,0,0,0,0c0,0,0,0,0.1,0.1c0.4,0.4,0.1,0.1-0.1-0.1
	c0.7-2.7,1.3-5.1,1.8-7c0-0.1,0.1-0.3,0.1-0.4c0.1,0,0.1,0.1,0.2,0.1c0.7,8.1,1.6,16.3,2.2,24.4
	C328.5,381.8,326.4,378.8,324.2,375.8z M330.9,409.5c-0.2,5.7-0.7,11.3-1.1,17c-2.1-6.1-6-12-10.1-16.9c0.6-0.9,1.1-1.9,1.2-3
	c0.5-3.1,1-2.1,3.5-3c1,0.2,1.8,0.7,2.5,1.4c0.7,0.3,1.3,0.3,1.9,0.2c0.1,0.3,0.3,0.6,0.6,0.9c0.5,0.5,1,0.6,1.5,0.6
	C331,407.7,331,408.6,330.9,409.5z M332.1,376.1c-0.1-1-0.2-2-0.4-2.9c-0.9-6.5-1.7-12.9-2.3-19.4c1.4-5.6,2.7-11.8,4.1-18.2
	c0.8,0.5,1.6,0.9,2.5,1.1c-2.6,4.5-4.7,13.1,1.3,15.3c-0.8,2.6-5.5,9.8-1.6,10.2c-1.6,2.1-1.2,3.8,0.1,5
	C334.3,370,333,373,332.1,376.1z M336.5,64.9c0.1-0.1,0.1-0.2,0.2-0.3l-0.1,0.7L336.5,64.9z M339.8,399.6c-2.2,3.4-4.2,7-5.5,10.9
	c0-1.2,0-2.4,0-3.6c1.8,0.2,2.6-2.1,2.6-5.2c0-1.4-2.4-5.3-2.9-6.3c0,0,0-0.1,0-0.1c1.1,1.3,4.8-0.1,5.9-0.3
	C339.7,396.1,339.5,398.1,339.8,399.6z M348,403.9c-0.2,0.5-0.4,1.1-0.5,1.6c-0.2,0.3-0.5,0.5-0.8,0.7c0.3-1,0.7-1.9,1.3-2.7
	C348,403.7,348,403.8,348,403.9z M341.5,368.8c-1.6,4.4,3.3,2.3,4.9,1.5c-1.5,6.2,1,5.3,5.2,3.2c0,2.5-7.2,2.1-5.5,8.8
	c-1.1-1-8.9-6.5-9.1-2.1c-0.2,4.3-0.9,2.9-2.6,6c-1.7,3.2,2,4.2-0.2,6.1c0-1-0.3-2-0.7-2.8c-0.2-2-0.3-4-0.5-6
	c0.7-3.9,1.4-7.7,2.8-11.5c0.5-1.3,1-2.6,1.6-3.9C338.8,368.9,340.4,369.1,341.5,368.8z M337.7,59.7c-0.6,0.8-1.2,1.6-1.8,2.4
	l-3.1-13.6c3.6-6.6,7.3-13.1,10.6-19.2L337.7,59.7z M431.2,38.9c0.3-6.2,0.9-17.3,1.4-27c1.1,3.4,2.9,8.9,5,15.3
	C434,37.1,431,44.1,431.2,38.9z"/>
<path class="st3" d="M0,0v512h512V0H0z M256,488C127.9,488,24,384.1,24,256S127.9,24,256,24s232,103.9,232,232S384.1,488,256,488z"
	/>
<polygon class="st4" points="54,54 104,54 104,20 20,20 20,104 54,104 "/>
<polygon class="st4" points="54,458 54,408 20,408 20,492 104,492 104,458 "/>
<polygon class="st4" points="458,458 408,458 408,492 492,492 492,408 458,408 "/>
<polygon class="st4" points="458,54 458,104 492,104 492,20 408,20 408,54 "/>
<path class="st5" d="M254,133c0,0-71.8-22.1-128.8,20.9C96,176,77.1,202.2,67,252c0,0-3.5,24.5,19.5-10.5c0,0,2-5,5,5s9,38,29,57
	c0,0,10,5-3,85c0,0-5,21,43,21c44,0,34-13,34-13s-19-38-12-60c0,0,4-14,19-7s35,9,47,2s18,8,20,15c0,0,5,19-2,54c0,0-1,10,34,9
	s30-8,30-13s-22-46,0-79c0,0,18-11,32-19s23,4,18,13c-3.1,5.6-21.5,22.5-26.8,40.7c-1.9,6.4,7.3,37.8,20.8,44.3c0,0,26.7-4.3,23-19
	c-2-8-11-10-11-10s-10-8,5-25c12.9-14.7,91-50,43.7-170.4c-6.6-16.8-20.2-33.1-30.7-38.6c0,0-49-25-100-13c0,0-50,13-33,87
	c0,0,15,52,59,48c0,0,10,2,26-39c0,0-3,41-25,47s-64.3-10.1-73-56c-7-37,0-55,0-55S265.5,137.5,254,133z"/>
</svg>
