<?xml version="1.0" encoding="UTF-8" standalone="no" ?>
<!DOCTYPE svg PUBLIC "-//W3C//DTD SVG 1.1//EN" "http://www.w3.org/Graphics/SVG/1.1/DTD/svg11.dtd">
<svg xmlns="http://www.w3.org/2000/svg" xmlns:xlink="http://www.w3.org/1999/xlink" version="1.1" width="137.99" height="215.73944" xml:space="preserve">
<desc>Created with Fabric.js 1.6.0-rc.1</desc>
<defs></defs>
  <g transform="translate(69.99 187.88) rotate(359.31) scale(0.67 0.67)">
   <text font-family="Chunky" font-size="40" font-weight="normal" style="stroke: none; stroke-width: 1; stroke-dasharray: none; stroke-linecap: butt; stroke-linejoin: miter; stroke-miterlimit: 10; fill: #d4b237; fill-rule: nonzero; opacity: 1;" ><tspan x="-76.85" y="8.98" style="stroke: none; stroke-width: 0; stroke-dasharray: none; stroke-linecap: butt; stroke-linejoin: miter; stroke-miterlimit: 4; fill: #d4b237; fill-rule: ; opacity: 1;">P</tspan><tspan x="-44.89" y="8.98" style="stroke: none; stroke-width: 0; stroke-dasharray: none; stroke-linecap: butt; stroke-linejoin: miter; stroke-miterlimit: 4; fill: #d4b237; fill-rule: ; opacity: 1;">A</tspan><tspan x="-11.96" y="8.98" style="stroke: none; stroke-width: 0; stroke-dasharray: none; stroke-linecap: butt; stroke-linejoin: miter; stroke-miterlimit: 4; fill: #d4b237; fill-rule: ; opacity: 1;">R</tspan><tspan x="19.72" y="8.98" style="stroke: none; stroke-width: 0; stroke-dasharray: none; stroke-linecap: butt; stroke-linejoin: miter; stroke-miterlimit: 4; fill: #d4b237; fill-rule: ; opacity: 1;">K</tspan><tspan x="51.36" y="8.98" style="stroke: none; stroke-width: 0; stroke-dasharray: none; stroke-linecap: butt; stroke-linejoin: miter; stroke-miterlimit: 4; fill: #d4b237; fill-rule: ; opacity: 1;">S</tspan></text>
 </g>
<g style="stroke: none; stroke-width: 1; stroke-dasharray: none; stroke-linecap: butt; stroke-linejoin: miter; stroke-miterlimit: 10; fill: none; fill-rule: nonzero; opacity: 1;" transform="translate(65 10) scale(0.1 0.1)" >
  <path d="M 354.773 464.878 c -0.791 0 -1.595 -0.085 -2.386 -0.243 c -0.779 -0.158 -1.534 -0.39 -2.276 -0.694 c -0.73 -0.304 -1.436 -0.682 -2.106 -1.12 c -0.657 -0.437 -1.278 -0.949 -1.85 -1.509 c -2.264 -2.263 -3.555 -5.404 -3.555 -8.605 c 0 -3.215 1.29 -6.342 3.555 -8.606 c 0.572 -0.56 1.193 -1.071 1.85 -1.522 c 0.67 -0.438 1.376 -0.816 2.106 -1.12 c 0.743 -0.304 1.497 -0.536 2.276 -0.694 c 1.57 -0.317 3.189 -0.317 4.76 0 c 0.779 0.158 1.546 0.39 2.276 0.694 c 0.73 0.304 1.436 0.682 2.106 1.12 c 0.657 0.45 1.29 0.962 1.85 1.522 c 2.264 2.264 3.567 5.393 3.567 8.606 c 0 3.202 -1.303 6.342 -3.567 8.605 c -0.56 0.56 -1.193 1.072 -1.85 1.509 c -0.669 0.438 -1.376 0.816 -2.106 1.12 c -0.73 0.304 -1.497 0.536 -2.276 0.694 C 356.367 464.793 355.564 464.878 354.773 464.878 z" style="stroke: none; stroke-width: 1; stroke-dasharray: none; stroke-linecap: butt; stroke-linejoin: miter; stroke-miterlimit: 10; fill: rgb(0,0,0); fill-rule: nonzero; opacity: 1;" transform=" matrix(1 0 0 1 0 0) " stroke-linecap="round" />
  <path d="M 499.827 399.001 l -220.55 -23.812 c 0 0 -0.013 0 -0.026 0.013 c -1.397 0.833 -57.62 34.385 -95.747 34.385 c -72.41 0 -120.47 -49.392 -120.47 -125.494 c 0 -18.544 3.768 -36.987 10.97 -53.968 c -0.564 -0.243 -2.236 -1.024 -1.679 -0.769 c 1.677 0.768 -60.153 -58.079 -60.153 -58.079 l 17.785 -27.746 c 9.522 -40.557 35.272 -79.851 81.627 -83.938 c 32.849 -2.897 72.252 14.224 87 64.934 C 218.141 191.768 488.241 387.326 499.827 399.001 z" style="stroke: none; stroke-width: 1; stroke-dasharray: none; stroke-linecap: butt; stroke-linejoin: miter; stroke-miterlimit: 10; fill: #E1BF52; fill-rule: nonzero; opacity: 1;" transform=" matrix(1 0 0 1 0 0) " stroke-linecap="round" />
  <path d="M 281.917 348.07 c 0 9.292 -0.911 18.366 -2.666 27.131 c -1.397 0.833 -57.62 34.385 -95.747 34.385 c -72.41 0 -120.47 -49.392 -120.47 -125.494 c 0 -18.544 3.768 -36.987 10.97 -53.968 c -0.564 -0.243 -1.127 -0.499 -1.679 -0.769 c 20.8 -12.509 45.15 -19.699 71.18 -19.699 C 219.952 209.658 281.917 271.623 281.917 348.07 z" style="stroke: none; stroke-width: 1; stroke-dasharray: none; stroke-linecap: butt; stroke-linejoin: miter; stroke-miterlimit: 10; fill: #FEF487; fill-rule: nonzero; opacity: 1;" transform=" matrix(1 0 0 1 0 0) " stroke-linecap="round" />
  <path d="M 472.791 326.977 l -202.614 -20.422 c 0 0 -0.009 0.001 -0.017 0.011 c -0.891 0.667 -36.738 27.511 -62.674 30.238 c -49.258 5.178 -85.479 -24.069 -94.512 -76.447 c -11.759 -68.195 66.802 -144.324 144.57 -87.477 C 270.081 182.044 472.791 326.977 472.791 326.977 z" style="stroke: none; stroke-width: 1; stroke-dasharray: none; stroke-linecap: butt; stroke-linejoin: miter; stroke-miterlimit: 10; fill: #D0482D; fill-rule: nonzero; opacity: 1;" transform=" matrix(1 0 0 1 0 0) " stroke-linecap="round" />
  <path d="M 99.503 141.946 h -5.126 c -6.723 0 -12.173 -5.451 -12.173 -12.173 s 5.45 -12.173 12.173 -12.173 h 5.126 c 6.723 0 12.173 5.451 12.173 12.173 S 106.226 141.946 99.503 141.946 z" style="stroke: none; stroke-width: 1; stroke-dasharray: none; stroke-linecap: butt; stroke-linejoin: miter; stroke-miterlimit: 10; fill: rgb(0,0,0); fill-rule: nonzero; opacity: 1;" transform=" matrix(1 0 0 1 0 0) " stroke-linecap="round" />
  <path d="M 508.468 390.426 c -2.532 -2.551 -9.791 -8.182 -31.584 -24.93 c -10.953 -8.419 -24.072 -18.501 -38.545 -29.757 l 33.232 3.349 c 5.485 0.554 10.665 -2.655 12.611 -7.816 c 1.947 -5.163 0.178 -10.989 -4.31 -14.197 c -2.027 -1.449 -202.801 -144.999 -215.143 -154.021 c -13.524 -9.886 -27.682 -16.498 -41.94 -19.825 c -7.447 -10.035 -11.068 -17.126 -12.514 -22.103 c -17.257 -59.339 -64.514 -76.768 -99.758 -73.659 c -44.511 3.927 -78.749 37.97 -91.91 91.221 L 1.925 164.708 c -3.148 4.911 -2.369 11.365 1.856 15.387 c 18.032 17.163 45.862 43.778 55.794 53.562 c -0.062 0.177 -0.121 0.354 -0.181 0.531 c -0.168 0.481 -0.331 0.963 -0.495 1.445 c -0.187 0.554 -0.375 1.109 -0.556 1.665 c -0.159 0.488 -0.314 0.976 -0.467 1.467 c -0.175 0.556 -0.348 1.113 -0.517 1.671 c -0.149 0.492 -0.293 0.984 -0.437 1.477 c -0.163 0.561 -0.324 1.124 -0.481 1.687 c -0.138 0.495 -0.273 0.991 -0.405 1.488 c -0.151 0.564 -0.298 1.127 -0.442 1.692 c -0.128 0.499 -0.253 0.999 -0.375 1.501 c -0.139 0.566 -0.273 1.133 -0.405 1.701 c -0.117 0.504 -0.233 1.007 -0.344 1.512 c -0.127 0.568 -0.247 1.137 -0.366 1.707 c -0.106 0.506 -0.212 1.012 -0.313 1.519 c -0.114 0.573 -0.223 1.147 -0.33 1.72 c -0.095 0.505 -0.189 1.01 -0.279 1.516 c -0.102 0.581 -0.2 1.161 -0.295 1.742 c -0.083 0.502 -0.167 1.003 -0.245 1.506 c -0.091 0.587 -0.174 1.175 -0.259 1.763 c -0.072 0.499 -0.145 0.998 -0.211 1.499 c -0.079 0.593 -0.15 1.184 -0.22 1.777 c -0.06 0.497 -0.123 0.992 -0.178 1.489 c -0.067 0.604 -0.125 1.208 -0.184 1.811 c -0.047 0.486 -0.099 0.971 -0.142 1.458 c -0.056 0.624 -0.101 1.249 -0.149 1.875 c -0.035 0.466 -0.075 0.932 -0.106 1.399 c -0.044 0.655 -0.077 1.31 -0.112 1.966 c -0.023 0.437 -0.052 0.874 -0.072 1.311 c -0.032 0.721 -0.052 1.44 -0.074 2.161 c -0.011 0.371 -0.028 0.743 -0.037 1.114 c -0.024 1.091 -0.038 2.18 -0.038 3.27 c 0 59.058 27.422 104.214 72.201 125.031 v 31.404 H 13.447 c -6.723 0 -12.173 5.451 -12.173 12.173 s 5.45 12.173 12.173 12.173 h 304.132 c 6.723 0 12.173 -5.451 12.173 -12.173 s -5.45 -12.173 -12.173 -12.173 H 191.562 v -19.168 c 0.71 -0.067 1.424 -0.142 2.14 -0.226 c 0.177 -0.021 0.354 -0.043 0.532 -0.063 c 1.048 -0.127 2.101 -0.267 3.161 -0.426 c 0.116 -0.017 0.232 -0.037 0.348 -0.055 c 1.079 -0.166 2.162 -0.344 3.25 -0.542 c 0.054 -0.01 0.106 -0.018 0.159 -0.028 c 1.098 -0.2 2.201 -0.419 3.305 -0.648 c 0.159 -0.033 0.318 -0.065 0.477 -0.099 c 1.061 -0.224 2.127 -0.463 3.192 -0.712 c 0.192 -0.045 0.383 -0.09 0.576 -0.136 c 1.063 -0.253 2.128 -0.517 3.193 -0.794 c 0.169 -0.044 0.338 -0.089 0.508 -0.134 c 1.099 -0.289 2.198 -0.587 3.298 -0.897 c 0.084 -0.024 0.168 -0.049 0.251 -0.073 c 1.094 -0.312 2.188 -0.634 3.278 -0.965 c 0.099 -0.03 0.198 -0.06 0.297 -0.089 c 1.093 -0.334 2.185 -0.679 3.273 -1.031 c 0.169 -0.055 0.34 -0.108 0.509 -0.164 c 1.059 -0.346 2.116 -0.699 3.167 -1.059 c 0.185 -0.063 0.37 -0.128 0.555 -0.191 c 1.054 -0.364 2.106 -0.734 3.152 -1.111 c 0.153 -0.055 0.306 -0.111 0.458 -0.167 c 1.087 -0.394 2.169 -0.794 3.245 -1.2 c 0.039 -0.015 0.078 -0.03 0.117 -0.045 c 1.069 -0.404 2.13 -0.816 3.186 -1.229 c 0.123 -0.049 0.246 -0.096 0.369 -0.144 c 1.026 -0.405 2.044 -0.814 3.055 -1.227 c 0.175 -0.072 0.351 -0.142 0.526 -0.214 c 0.99 -0.405 1.972 -0.814 2.945 -1.226 c 0.17 -0.072 0.34 -0.144 0.51 -0.215 c 0.986 -0.419 1.964 -0.839 2.93 -1.26 c 0.121 -0.052 0.239 -0.105 0.359 -0.157 c 0.992 -0.433 1.974 -0.868 2.942 -1.303 c 0.028 -0.012 0.056 -0.026 0.083 -0.038 c 0.976 -0.438 1.937 -0.876 2.887 -1.315 c 0.131 -0.061 0.264 -0.121 0.394 -0.181 c 0.902 -0.416 1.789 -0.831 2.666 -1.245 c 0.163 -0.077 0.326 -0.155 0.489 -0.231 c 0.862 -0.408 1.71 -0.814 2.544 -1.217 c 0.148 -0.072 0.296 -0.144 0.444 -0.215 c 0.848 -0.411 1.685 -0.82 2.503 -1.225 c 0.088 -0.044 0.174 -0.086 0.262 -0.13 c 0.818 -0.405 1.62 -0.806 2.405 -1.202 c 0.058 -0.029 0.117 -0.058 0.175 -0.088 c 0.795 -0.401 1.567 -0.795 2.325 -1.184 c 0.117 -0.06 0.236 -0.121 0.352 -0.18 c 0.726 -0.374 1.433 -0.74 2.123 -1.102 c 0.129 -0.067 0.256 -0.134 0.383 -0.201 c 0.677 -0.355 1.338 -0.704 1.978 -1.043 c 0.116 -0.062 0.228 -0.122 0.342 -0.183 c 0.645 -0.343 1.275 -0.682 1.878 -1.007 c 0.065 -0.035 0.125 -0.068 0.19 -0.103 c 0.583 -0.315 1.144 -0.621 1.686 -0.918 c 0.072 -0.039 0.146 -0.08 0.218 -0.119 c 0.538 -0.296 1.049 -0.578 1.544 -0.853 c 0.114 -0.063 0.229 -0.127 0.341 -0.19 c 0.463 -0.258 0.903 -0.505 1.323 -0.741 c 0.112 -0.063 0.219 -0.124 0.327 -0.185 c 0.405 -0.229 0.794 -0.449 1.156 -0.657 c 0.03 -0.017 0.066 -0.038 0.095 -0.054 l 216.577 23.383 c 5.108 0.558 10.042 -2.18 12.275 -6.825 C 513.031 399.634 512.098 394.086 508.468 390.426 z M 428.512 310.279 l -157.114 -15.835 c -3.053 -0.315 -6.123 0.572 -8.533 2.377 c -11.785 8.819 -38.79 25.997 -56.651 27.875 c -42.916 4.499 -73.294 -20.313 -81.243 -66.41 c -2.237 -12.972 -0.509 -26.709 4.364 -39.542 l 129.833 43.258 c 1.277 0.426 2.575 0.628 3.85 0.628 c 5.097 0 9.847 -3.227 11.547 -8.329 c 2.125 -6.379 -1.322 -13.271 -7.701 -15.397 l -125.581 -41.841 c 6.208 -8.275 13.888 -15.5 22.724 -20.98 c 8.342 -5.174 21.354 -11.013 37.573 -11.013 c 14.144 0 30.729 4.441 48.78 17.636 C 259.6 189.461 369.244 267.895 428.512 310.279 z M 50.812 191.348 c -8.569 -8.212 -17.149 -16.404 -22.972 -21.955 L 40.207 150.1 c 0.745 -1.163 1.287 -2.443 1.602 -3.787 c 4.926 -20.984 21.691 -70.259 70.845 -74.595 c 27.287 -2.391 61.121 11.095 74.241 56.208 c 1.181 4.06 3.119 8.477 5.701 13.198 c -14.266 1.363 -28.255 6.104 -41.423 14.271 c -17.914 11.11 -31.995 27.369 -40.882 45.811 c -12.414 2.796 -24.437 7.163 -35.774 13.012 c -0.914 -0.895 -1.881 -1.837 -2.941 -2.867 C 66.578 206.492 59.592 199.763 50.812 191.348 z M 75.207 284.093 c 0 -1.031 0.013 -2.062 0.04 -3.094 c 0.009 -0.345 0.027 -0.69 0.039 -1.035 c 0.023 -0.689 0.045 -1.378 0.079 -2.067 c 0.021 -0.409 0.051 -0.818 0.075 -1.227 c 0.038 -0.622 0.072 -1.245 0.119 -1.867 c 0.033 -0.446 0.077 -0.89 0.114 -1.334 c 0.051 -0.588 0.099 -1.176 0.157 -1.764 c 0.046 -0.456 0.101 -0.913 0.151 -1.368 c 0.063 -0.576 0.125 -1.15 0.197 -1.725 c 0.058 -0.464 0.124 -0.928 0.187 -1.391 c 0.077 -0.565 0.152 -1.13 0.236 -1.694 c 0.071 -0.47 0.149 -0.94 0.225 -1.41 c 0.09 -0.556 0.178 -1.111 0.275 -1.667 c 0.083 -0.475 0.173 -0.947 0.262 -1.419 c 0.102 -0.549 0.203 -1.097 0.313 -1.645 c 0.095 -0.474 0.196 -0.947 0.297 -1.419 c 0.116 -0.544 0.23 -1.088 0.353 -1.631 c 0.107 -0.472 0.219 -0.945 0.331 -1.416 c 0.128 -0.539 0.257 -1.079 0.392 -1.617 c 0.118 -0.471 0.242 -0.94 0.365 -1.408 c 0.141 -0.536 0.282 -1.07 0.431 -1.604 c 0.13 -0.467 0.264 -0.935 0.399 -1.401 c 0.153 -0.531 0.309 -1.063 0.47 -1.591 c 0.14 -0.463 0.285 -0.924 0.431 -1.384 c 0.168 -0.53 0.337 -1.059 0.512 -1.586 c 0.151 -0.455 0.304 -0.909 0.46 -1.362 c 0.181 -0.528 0.365 -1.054 0.554 -1.579 c 0.161 -0.449 0.325 -0.896 0.491 -1.343 c 0.195 -0.525 0.394 -1.049 0.596 -1.572 c 0.17 -0.439 0.343 -0.879 0.519 -1.316 c 0.1 -0.25 0.205 -0.498 0.306 -0.747 c 5.366 -2.836 10.927 -5.255 16.626 -7.276 c -1.962 11.031 -2.129 22.295 -0.233 33.291 c 4.94 28.647 17.566 51.887 36.513 67.205 c 16.258 13.146 36.452 19.937 58.959 19.937 c 4.032 0 8.138 -0.218 12.308 -0.656 c 20.441 -2.15 44.908 -16.495 58.548 -25.512 c 1.589 7.983 2.437 16.229 2.437 24.672 c 0 6.543 -0.499 13.058 -1.488 19.433 c -0.217 0.123 -0.432 0.245 -0.654 0.369 c -0.293 0.164 -0.589 0.33 -0.89 0.498 c -0.413 0.229 -0.834 0.463 -1.259 0.695 c -0.299 0.164 -0.598 0.329 -0.902 0.495 c -0.45 0.246 -0.912 0.494 -1.374 0.745 c -0.296 0.159 -0.588 0.318 -0.889 0.478 c -0.508 0.271 -1.029 0.547 -1.55 0.822 c -0.271 0.144 -0.538 0.286 -0.813 0.43 c -0.607 0.319 -1.228 0.64 -1.853 0.963 c -0.202 0.105 -0.399 0.208 -0.604 0.313 c -1.676 0.862 -3.41 1.736 -5.192 2.615 c -0.24 0.118 -0.484 0.236 -0.727 0.355 c -0.649 0.318 -1.3 0.637 -1.96 0.956 c -0.315 0.152 -0.637 0.304 -0.954 0.456 c -0.596 0.286 -1.195 0.571 -1.8 0.857 c -0.352 0.166 -0.708 0.331 -1.063 0.497 c -0.582 0.271 -1.165 0.544 -1.753 0.814 c -0.375 0.173 -0.752 0.344 -1.13 0.516 c -0.577 0.263 -1.155 0.525 -1.737 0.786 c -0.39 0.175 -0.78 0.348 -1.172 0.522 c -0.579 0.257 -1.163 0.514 -1.747 0.769 c -0.4 0.175 -0.802 0.349 -1.205 0.523 c -0.579 0.251 -1.163 0.499 -1.746 0.747 c -0.41 0.174 -0.819 0.347 -1.231 0.52 c -0.59 0.247 -1.184 0.493 -1.778 0.736 c -0.405 0.167 -0.81 0.334 -1.216 0.498 c -0.61 0.247 -1.223 0.492 -1.836 0.735 c -0.394 0.157 -0.789 0.314 -1.183 0.47 c -0.643 0.252 -1.287 0.498 -1.931 0.745 c -0.368 0.14 -0.734 0.284 -1.102 0.421 c -0.733 0.276 -1.466 0.545 -2.2 0.814 c -0.279 0.102 -0.556 0.207 -0.835 0.308 c -2.032 0.735 -4.066 1.439 -6.093 2.105 c -0.312 0.102 -0.621 0.198 -0.932 0.298 c -0.696 0.225 -1.394 0.449 -2.088 0.663 c -0.381 0.118 -0.761 0.23 -1.142 0.346 c -0.621 0.187 -1.243 0.375 -1.861 0.555 c -0.41 0.119 -0.818 0.233 -1.228 0.347 c -0.587 0.164 -1.172 0.33 -1.755 0.486 c -0.421 0.113 -0.84 0.222 -1.26 0.33 c -0.567 0.147 -1.132 0.292 -1.696 0.431 c -0.425 0.105 -0.848 0.206 -1.272 0.306 c -0.551 0.13 -1.102 0.257 -1.649 0.379 c -0.424 0.094 -0.845 0.185 -1.265 0.274 c -0.543 0.114 -1.082 0.223 -1.62 0.329 c -0.415 0.082 -0.83 0.161 -1.243 0.237 c -0.537 0.099 -1.069 0.189 -1.6 0.278 c -0.404 0.067 -0.808 0.135 -1.21 0.197 c -0.534 0.082 -1.061 0.153 -1.589 0.224 c -0.387 0.051 -0.775 0.107 -1.158 0.152 c -0.545 0.066 -1.083 0.118 -1.62 0.172 c -0.352 0.034 -0.707 0.076 -1.055 0.103 c -0.592 0.05 -1.172 0.084 -1.753 0.117 c -0.284 0.016 -0.572 0.04 -0.853 0.054 c -0.856 0.038 -1.701 0.06 -2.528 0.06 C 117.715 397.414 75.207 352.933 75.207 284.093 z M 147.407 440.528 v -22.94 c 6.36 1.542 12.97 2.667 19.809 3.356 v 19.584 H 147.407 z M 293.197 364.448 c 0.587 -5.417 0.893 -10.89 0.893 -16.378 c 0 -9.259 -0.864 -18.318 -2.475 -27.119 l 101.595 10.239 c 21.577 17.081 43.654 34.237 65.628 51.142 L 293.197 364.448 z" style="stroke: none; stroke-width: 1; stroke-dasharray: none; stroke-linecap: butt; stroke-linejoin: miter; stroke-miterlimit: 10; fill: rgb(0,0,0); fill-rule: nonzero; opacity: 1;" transform=" matrix(1 0 0 1 0 0) " stroke-linecap="round" />
  <path d="M 298.277 274.455 c -0.803 0 -1.595 -0.073 -2.386 -0.23 c -0.779 -0.158 -1.546 -0.402 -2.276 -0.706 c -0.73 -0.304 -1.436 -0.67 -2.094 -1.108 c -0.67 -0.45 -1.29 -0.962 -1.862 -1.522 c -0.56 -0.56 -1.059 -1.181 -1.509 -1.85 c -0.438 -0.657 -0.816 -1.363 -1.12 -2.095 c -0.304 -0.741 -0.536 -1.508 -0.694 -2.289 c -0.158 -0.779 -0.231 -1.582 -0.231 -2.374 c 0 -0.79 0.073 -1.595 0.231 -2.373 c 0.158 -0.78 0.39 -1.547 0.694 -2.276 c 0.304 -0.743 0.682 -1.449 1.12 -2.106 c 0.45 -0.67 0.949 -1.29 1.509 -1.85 c 0.572 -0.56 1.193 -1.071 1.862 -1.509 c 0.657 -0.438 1.363 -0.816 2.094 -1.12 c 0.73 -0.304 1.497 -0.536 2.276 -0.694 c 1.57 -0.316 3.189 -0.316 4.76 0 c 0.779 0.158 1.546 0.39 2.276 0.694 c 0.73 0.304 1.449 0.682 2.106 1.12 c 0.67 0.438 1.29 0.949 1.85 1.509 s 1.071 1.181 1.509 1.85 c 0.438 0.657 0.816 1.363 1.12 2.106 c 0.304 0.73 0.536 1.496 0.694 2.276 c 0.158 0.779 0.243 1.582 0.243 2.373 c 0 0.791 -0.085 1.596 -0.243 2.374 c -0.158 0.78 -0.39 1.547 -0.694 2.289 c -0.304 0.732 -0.682 1.438 -1.12 2.095 c -0.438 0.67 -0.949 1.29 -1.509 1.85 C 304.62 273.152 301.479 274.455 298.277 274.455 z" style="stroke: none; stroke-width: 1; stroke-dasharray: none; stroke-linecap: butt; stroke-linejoin: miter; stroke-miterlimit: 10; fill: rgb(0,0,0); fill-rule: nonzero; opacity: 1;" transform=" matrix(1 0 0 1 0 0) " stroke-linecap="round" />
</g>
<g style="stroke: none; stroke-width: 1; stroke-dasharray: none; stroke-linecap: butt; stroke-linejoin: miter; stroke-miterlimit: 10; fill: none; fill-rule: nonzero; opacity: 1;" transform="translate(10 51.56999999999999) scale(0.23 0.23)" >
  <rect x="285.21" y="439.53" rx="0" ry="0" width="88.14" height="51.35" style="stroke: none; stroke-width: 1; stroke-dasharray: none; stroke-linecap: butt; stroke-linejoin: miter; stroke-miterlimit: 10; fill: #564A3D; fill-rule: nonzero; opacity: 1;" transform=" matrix(1 0 0 1 0 0) "/>
  <path d="M 497.863 413.075 L 411.639 263.73 h 38.409 c 12.867 0 20.909 -13.929 14.475 -25.071 L 343.749 29.472 c -6.433 -11.143 -22.517 -11.143 -28.95 0 L 194.026 238.658 c -6.433 11.143 1.608 25.071 14.475 25.071 h 38.409 l -86.224 149.345 c -6.434 11.143 1.608 25.071 14.475 25.071 h 308.228 C 496.255 438.148 504.296 424.219 497.863 413.075 z" style="stroke: none; stroke-width: 1; stroke-dasharray: none; stroke-linecap: butt; stroke-linejoin: miter; stroke-miterlimit: 10; fill: #349168; fill-rule: nonzero; opacity: 1;" transform=" matrix(1 0 0 1 0 0) " stroke-linecap="round" />
  <path d="M 378.471 276.965 c -0.77 0 -1.553 -0.083 -2.311 -0.237 c -0.758 -0.154 -1.505 -0.379 -2.216 -0.676 c -0.722 -0.296 -1.409 -0.664 -2.049 -1.09 c -0.652 -0.438 -1.257 -0.924 -1.803 -1.47 c -0.545 -0.557 -1.043 -1.161 -1.468 -1.801 c -0.427 -0.652 -0.795 -1.339 -1.091 -2.05 c -0.296 -0.711 -0.52 -1.458 -0.674 -2.216 c -0.154 -0.77 -0.237 -1.541 -0.237 -2.323 c 0 -0.77 0.083 -1.541 0.237 -2.311 c 0.154 -0.758 0.378 -1.505 0.674 -2.216 c 0.296 -0.711 0.665 -1.398 1.091 -2.05 c 0.425 -0.64 0.923 -1.256 1.468 -1.801 c 0.545 -0.545 1.151 -1.043 1.803 -1.47 c 0.64 -0.427 1.327 -0.794 2.049 -1.09 c 0.712 -0.296 1.458 -0.521 2.216 -0.676 c 1.529 -0.308 3.105 -0.308 4.634 0 c 0.747 0.154 1.493 0.379 2.216 0.676 c 0.711 0.296 1.398 0.664 2.038 1.09 c 0.652 0.427 1.257 0.924 1.803 1.47 c 0.545 0.545 1.043 1.161 1.481 1.801 c 0.425 0.652 0.794 1.339 1.09 2.05 c 0.296 0.711 0.52 1.458 0.674 2.216 c 0.155 0.77 0.225 1.541 0.225 2.311 c 0 0.782 -0.071 1.553 -0.225 2.323 c -0.154 0.758 -0.378 1.505 -0.674 2.216 s -0.665 1.398 -1.09 2.05 c -0.439 0.64 -0.936 1.244 -1.481 1.801 c -0.545 0.545 -1.151 1.031 -1.803 1.47 c -0.64 0.427 -1.327 0.794 -2.038 1.09 c -0.723 0.296 -1.47 0.521 -2.216 0.676 C 380.022 276.882 379.241 276.965 378.471 276.965 z" style="stroke: none; stroke-width: 1; stroke-dasharray: none; stroke-linecap: butt; stroke-linejoin: miter; stroke-miterlimit: 10; fill: rgb(0,0,0); fill-rule: nonzero; opacity: 1;" transform=" matrix(1 0 0 1 0 0) " stroke-linecap="round" />
  <path d="M 290.726 418.806 l -70.834 -122.688 h 31.553 c 10.57 0 17.177 -11.442 11.892 -20.596 L 164.12 103.673 c -5.286 -9.154 -18.498 -9.154 -23.783 0 L 41.121 275.52 c -5.286 9.154 1.321 20.596 11.892 20.596 h 31.553 L 13.732 418.806 c -5.286 9.154 1.321 20.596 11.892 20.596 h 253.211 C 289.405 439.403 296.011 427.96 290.726 418.806 z" style="stroke: none; stroke-width: 1; stroke-dasharray: none; stroke-linecap: butt; stroke-linejoin: miter; stroke-miterlimit: 10; fill: #7DBD92; fill-rule: nonzero; opacity: 1;" transform=" matrix(1 0 0 1 0 0) " stroke-linecap="round" />
  <rect x="123.72" y="439.53" rx="0" ry="0" width="57.02" height="51.35" style="stroke: none; stroke-width: 1; stroke-dasharray: none; stroke-linecap: butt; stroke-linejoin: miter; stroke-miterlimit: 10; fill: #9F8C79; fill-rule: nonzero; opacity: 1;" transform=" matrix(1 0 0 1 0 0) "/>
  <path d="M 508.127 407.149 l -75.961 -131.568 h 17.881 c 10.327 0 19.576 -5.339 24.738 -14.282 c 5.164 -8.943 5.164 -19.622 0.001 -28.566 L 354.013 23.546 c -5.164 -8.943 -14.411 -14.283 -24.738 -14.283 c -10.327 0 -19.576 5.339 -24.74 14.283 L 218.04 173.361 l -43.655 -75.614 c -4.624 -8.009 -12.907 -12.79 -22.155 -12.79 c -9.248 0 -17.53 4.782 -22.155 12.791 L 30.856 269.596 c -4.623 8.01 -4.622 17.574 0.002 25.582 c 4.623 8.009 12.906 12.79 22.154 12.79 h 11.026 L 3.468 412.881 c -4.624 8.009 -4.624 17.573 -0.001 25.582 c 4.624 8.009 12.907 12.791 22.156 12.791 h 86.243 v 39.631 c 0 6.545 5.307 11.851 11.851 11.851 h 57.02 c 6.544 0 11.851 -5.306 11.851 -11.851 v -39.631 h 80.765 v 39.631 c 0 6.545 5.307 11.851 11.851 11.851 h 88.133 c 6.544 0 11.851 -5.306 11.851 -11.851 v -40.887 h 98.195 c 10.327 0 19.576 -5.339 24.738 -14.283 C 513.29 426.771 513.29 416.092 508.127 407.149 z M 168.888 479.033 H 135.57 v -27.65 h 33.318 V 479.033 z M 23.995 426.613 c -0.543 -0.94 -0.134 -1.647 0 -1.88 L 91.48 307.844 h 57.265 c 6.544 0 11.851 -5.306 11.851 -11.851 s -5.307 -11.851 -11.851 -11.851 H 83.501 c -0.557 0 -1.101 0.052 -1.637 0.126 H 53.013 c -0.269 0 -1.086 0 -1.628 -0.94 c -0.543 -0.94 -0.134 -1.649 0 -1.88 l 99.217 -171.846 c 0.134 -0.232 0.543 -0.94 1.628 -0.94 s 1.494 0.708 1.628 0.94 l 99.217 171.846 c 0.134 0.232 0.543 0.94 0 1.881 c -0.543 0.94 -1.359 0.94 -1.628 0.94 h -31.553 c -4.233 0 -8.147 2.259 -10.263 5.926 s -2.117 8.185 0 11.851 l 70.834 122.688 l 0 0 c 0.134 0.232 0.543 0.94 0 1.88 c -0.543 0.94 -1.359 0.94 -1.628 0.94 H 25.623 C 25.355 427.551 24.538 427.551 23.995 426.613 z M 361.49 479.033 H 297.06 v -27.65 h 64.431 V 479.033 z M 487.6 423.864 c -0.524 0.908 -1.768 2.432 -4.212 2.432 H 304.437 c 0.115 -4.601 -1.026 -9.222 -3.449 -13.416 l 0 0 l -60.57 -104.911 h 11.026 c 9.249 0 17.53 -4.782 22.154 -12.79 c 3.27 -5.663 4.217 -12.101 2.863 -18.22 h 66.327 c 6.544 0 11.851 -5.306 11.851 -11.851 s -5.307 -11.851 -11.851 -11.851 h -78.623 l -32.443 -56.192 l 93.337 -161.666 c 1.222 -2.115 3.163 -2.432 4.213 -2.432 c 1.049 0 2.989 0.316 4.212 2.432 L 454.26 244.583 c 1.221 2.117 0.523 3.956 -0.001 4.864 c -0.524 0.908 -1.768 2.432 -4.212 2.432 h -38.408 c -4.233 0 -8.147 2.259 -10.263 5.926 c -2.117 3.667 -2.117 8.185 0 11.851 L 487.6 419.001 C 488.821 421.116 488.124 422.955 487.6 423.864 z" style="stroke: none; stroke-width: 1; stroke-dasharray: none; stroke-linecap: butt; stroke-linejoin: miter; stroke-miterlimit: 10; fill: rgb(0,0,0); fill-rule: nonzero; opacity: 1;" transform=" matrix(1 0 0 1 0 0) " stroke-linecap="round" />
  <path d="M 184.428 307.838 c -0.769 0 -1.553 -0.071 -2.31 -0.225 c -0.76 -0.154 -1.506 -0.379 -2.216 -0.676 c -0.723 -0.296 -1.41 -0.664 -2.05 -1.09 c -0.652 -0.439 -1.256 -0.924 -1.801 -1.47 c -0.545 -0.557 -1.043 -1.161 -1.47 -1.813 c -0.427 -0.64 -0.794 -1.327 -1.09 -2.038 c -0.296 -0.723 -0.521 -1.458 -0.676 -2.216 c -0.154 -0.77 -0.237 -1.541 -0.237 -2.323 c 0 -0.77 0.083 -1.553 0.237 -2.311 s 0.379 -1.505 0.676 -2.216 c 0.296 -0.711 0.664 -1.41 1.09 -2.05 c 0.427 -0.64 0.924 -1.256 1.47 -1.801 s 1.15 -1.043 1.801 -1.47 c 0.64 -0.427 1.327 -0.794 2.05 -1.09 c 0.711 -0.296 1.457 -0.521 2.216 -0.676 c 1.529 -0.308 3.092 -0.308 4.621 0 c 0.76 0.154 1.506 0.379 2.228 0.676 c 0.712 0.296 1.4 0.664 2.04 1.09 c 0.652 0.427 1.256 0.924 1.801 1.47 s 1.043 1.161 1.47 1.801 s 0.794 1.339 1.09 2.05 c 0.296 0.711 0.521 1.458 0.676 2.216 c 0.154 0.758 0.236 1.541 0.236 2.311 s -0.082 1.553 -0.236 2.323 c -0.154 0.758 -0.379 1.493 -0.676 2.216 c -0.296 0.711 -0.664 1.398 -1.09 2.038 c -0.427 0.652 -0.924 1.256 -1.47 1.813 c -0.545 0.545 -1.15 1.031 -1.801 1.47 c -0.64 0.427 -1.327 0.794 -2.04 1.09 c -0.722 0.296 -1.468 0.521 -2.228 0.676 C 185.982 307.767 185.2 307.838 184.428 307.838 z" style="stroke: none; stroke-width: 1; stroke-dasharray: none; stroke-linecap: butt; stroke-linejoin: miter; stroke-miterlimit: 10; fill: rgb(0,0,0); fill-rule: nonzero; opacity: 1;" transform=" matrix(1 0 0 1 0 0) " stroke-linecap="round" />
</g>
</svg>