<?xml version="1.0" encoding="utf-8"?>
<svg version="1.1" id="Layer_1"
xmlns="http://www.w3.org/2000/svg"
xmlns:xlink="http://www.w3.org/1999/xlink"
width="192px" height="192px"
xml:space="preserve">
<g id="PathID_1" transform="matrix(1.11811, -0.00472587, 0, 1.10532, 98.05, 97.95)" opacity="1">
<path style="fill:#78A000;fill-opacity:1" d="M36.5 -37.25Q38.9 -38.7 42 -37.7Q45.3 -36.75 45.3 -34.05Q45.6 -33.7 47.1 -32.65Q48.55 -31.4 48.8 -30.05Q46.85 -32.35 43.35 -30.5Q41.8 -29.65 41 -28.05Q39.95 -26.05 39.5 -21.75Q37.65 -3.7 24.35 -1.5Q19.7 -0.65 11.7 -1.6L-1.75 -3.15Q-6.25 -3.65 -12.3 -2.4Q-24.4 0.1 -31.95 8.75Q-25.55 -2.5 -13.8 -7.5Q-7.95 -10 -3.35 -10.2Q-0.05 -10.9 2.85 -13.4L8 -18.7Q15 -26.4 23.75 -28.25Q28.8 -29.3 31.7 -32.5Q34.9 -36.1 33.75 -40.8Q33 -43.2 31.15 -44.6Q29.15 -46.15 26.8 -45.7Q25.7 -45.45 24.85 -44.75Q24 -43.95 23.85 -42.95Q23.75 -42.25 23.95 -41.7Q24.25 -41.05 24.85 -40.8Q25.4 -40.65 26.15 -41.25L25.6 -40.6L24.8 -40.4Q23.9 -40.45 23.3 -41.25Q22.75 -42.05 22.65 -43Q22.6 -44.55 23.65 -45.85Q24.7 -47.1 26.2 -47.65L30.15 -47.9Q33.6 -46.95 35.4 -43.8Q37.15 -40.8 36.5 -37.25M20.15 -6.55Q21.9 -5.25 24.5 -5.7Q28.85 -6.4 31.9 -11Q34.65 -15.05 35.1 -19.8Q34.2 -17.15 32.8 -15.4Q31 -13.1 28.85 -12.8Q26.8 -12.5 25.7 -11.7L23.6 -10.1Q23.9 -9 25.2 -8.6L26.4 -8.4Q25.15 -7.7 24.3 -7.5L22.05 -7.6L21.4 -9.3Q20.65 -10.35 18.45 -10.6Q18.25 -7.9 20.15 -6.55M43.9 -34.8Q43.25 -34.9 43.1 -34.2Q43.05 -33.9 43.25 -33.65Q43.4 -33.45 43.7 -33.4Q44.4 -33.3 44.5 -34Q44.6 -34.65 43.9 -34.8M-35.4 9.4L-35.8 9.2Q-35.95 9.55 -35.85 9.6Q-35.75 9.7 -35.4 9.4L-35.05 9.6Q-34.6 9.65 -34.25 9.3Q-34.1 9.15 -34.1 8.9Q-33.6 8.95 -33.4 8.6Q-33.25 10.8 -35.5 11.55Q-37.65 12.3 -39.05 11.1Q-38.65 7.6 -35.55 7.15Q-35.75 7.3 -35.6 7.65L-35.7 7.7L-36.05 8.45L-35.8 9.2Q-37.05 8.55 -35.6 7.65L-34.95 7.4Q-34.5 7.45 -34.2 7.8Q-33.9 8.1 -33.95 8.55Q-33.95 8.8 -34.1 8.9Q-34.65 10.35 -35.4 9.4M-39.2 13.6Q-38.5 13.6 -38 14.1Q-37.45 14.6 -37.45 15.4Q-37.45 16.1 -37.95 16.6Q-38.45 17.15 -39.2 17.15Q-39.95 17.15 -40.45 16.65L-41 15.4Q-41 14.65 -40.45 14.1Q-40 13.65 -39.2 13.6M-39.7 20.45Q-43.15 21.9 -45.55 20.1Q-45.4 14.3 -40.3 13.25Q-41.45 14.25 -41.45 15.45Q-41.4 16.55 -40.5 17.2Q-38.2 18.85 -36.6 15.35Q-36.1 18.95 -39.7 20.45M-33.2 24.6Q-33.55 32 -29.25 37.7Q-26.65 41.15 -22.9 42.85Q-18.95 44.65 -14.8 44Q-11.75 43.45 -9.45 41.55Q-7.05 39.5 -6.5 36.55Q-6.15 34.75 -6.8 33.15Q-7.6 31.35 -9.25 30.75Q-10.25 30.45 -11.05 30.75L-12.55 31.8L-11.05 30.5Q-10.2 30 -9.1 30.2Q-7.05 30.65 -5.85 32.7Q-4.85 34.55 -4.95 36.75Q-5.25 40.4 -8 43.15Q-10.6 45.75 -14.3 46.65Q-18.6 47.65 -23.4 46.2Q-31.35 43.15 -34.8 35.2Q-38.15 27.6 -35.7 19.35Q-34.25 14.4 -30.7 9.95Q-26.55 5.25 -20.9 2.7Q-15.4 0.25 -9.1 0.05Q-21.4 2.2 -28.65 11.55Q-32.8 17.7 -33.2 24.6M-37.8 33.8Q-35 36.45 -36.85 40.05Q-38.65 43.55 -41.85 43.65Q-45.65 38.9 -42.2 34.6Q-42.45 36.2 -41.65 37.2Q-40.9 38.05 -39.75 37.95Q-38.6 37.85 -38 36.85Q-37.3 35.7 -37.8 33.8M-38.05 35.75Q-38.1 36.5 -38.7 37Q-39.3 37.55 -40.05 37.45Q-40.85 37.4 -41.35 36.8L-41.8 35.45Q-41.7 34.65 -41.1 34.2Q-40.5 33.75 -39.75 33.75Q-39 33.85 -38.5 34.45Q-37.95 35 -38.05 35.75M-34 48.1Q-37.45 46.15 -36.5 42.7Q-36.45 42.95 -36 43L-36 43.15L-35.45 43.85L-34.5 43.9Q-34.3 44.2 -34.15 44.1Q-34.05 44.05 -34.15 43.6L-33.75 43.3Q-33.55 42.85 -33.7 42.35Q-33.85 42.05 -34.1 41.9Q-32.8 43.15 -34.15 43.6L-34.5 43.9Q-35.85 44.85 -36 43L-35.95 42.25L-35.25 41.6L-34.35 41.65L-34.1 41.9Q-33.9 41.45 -34.1 41.15Q-31.7 42 -31.9 44.65Q-32.15 47.15 -34 48.1M-40 25.45Q-40.35 26.4 -41.3 26.85L-43.15 26.9Q-44.1 26.6 -44.55 25.65Q-44.95 24.7 -44.6 23.75Q-44.25 22.8 -43.35 22.35L-41.45 22.25Q-40.5 22.6 -40.05 23.55Q-39.65 24.45 -40 25.45M-39 23.05Q-36.35 27.35 -40 31.35Q-43.55 35.1 -47.65 34.2Q-50.8 26.8 -44.9 22.5Q-45.8 24.45 -45.05 26Q-44.4 27.35 -42.9 27.65Q-41.35 27.95 -40.3 26.85Q-39 25.6 -39 23.05" />
</g>
<g id="PathID_2" transform="matrix(1.11811, -0.00472587, 0, 1.10532, 134.75, 83.9)" opacity="1">
<path style="fill:#F9F9FB;fill-opacity:1" d="M8.35 -7.1Q7.9 -2.35 5.15 1.7Q2.1 6.3 -2.25 7Q-4.85 7.45 -6.6 6.15Q-8.5 4.8 -8.3 2.1Q-6.1 2.35 -5.35 3.4L-4.7 5.1L-2.45 5.2L-0.35 4.3L-1.55 4.1Q-2.85 3.7 -3.15 2.6L-1.05 1Q0.05 0.2 2.1 -0.1Q4.25 -0.4 6.05 -2.7Q7.45 -4.45 8.35 -7.1" />
</g>
<g id="PathID_3" transform="matrix(1.11811, -0.00472587, 0, 1.10532, 153.85, 60.1)" opacity="1">
<path style="fill:#F9F9FB;fill-opacity:1" d="M-0.55 0.45L-0.7 -0.1Q-0.55 -0.8 0.1 -0.7Q0.8 -0.55 0.7 0.1Q0.6 0.8 -0.1 0.7L-0.55 0.45" />
</g>
<g id="PathID_4" transform="matrix(1.11811, -0.00472587, 0, 1.10532, 78.15, 131.5)" opacity="1">
<path style="fill:#0096FF;fill-opacity:1" d="M-0.05 -1.6Q5.4 2 7.05 6.35Q0.85 9.35 -3.8 3.85Q-8.2 -1.4 -6.6 -7.35Q-5.65 -5.25 -0.05 -1.6" />
</g>
<g id="PathID_5" transform="matrix(1.11811, -0.00472587, 0, 1.10532, 77.8, 119.95)" opacity="1">
<path style="fill:#FF9600;fill-opacity:1" d="M5.85 6.2Q-0.2 7.5 -4.05 2.95Q-7.95 -1.7 -3.2 -6.5Q-0.5 -5.95 2.1 -0.7Q5.1 5.55 5.85 6.2" />
</g>
<g id="PathID_6" transform="matrix(1.11811, -0.00472587, 0, 1.10532, 81.35, 111.85)" opacity="1">
<path style="fill:#FF0000;fill-opacity:1" d="M-3 -3L-1.3 -3.3Q1 -3.35 2.8 -1.4Q4.6 0.65 4.45 3.35Q3.6 2.65 -0.7 1.5Q-4.1 0.55 -4.45 -1.3Q-4.6 -2.5 -3 -3" />
</g>
<filter id="filter2" x="-0.521857" y="-0.521857" width="2.39618" height="2.61655" >
<feComponentTransfer in="SourceGraphic">
	<feFuncR type="linear" slope="0"/>
	<feFuncG type="linear" slope="0"/>
	<feFuncB type="linear" slope="0"/>
</feComponentTransfer>
<feGaussianBlur stdDeviation="0.6 0.6" />
<feOffset dx="7.07116" dy="7.07098"/>
<feComponentTransfer result="shadow">
	<feFuncR type="linear" intercept="0.00678201"/>
	<feFuncG type="linear" intercept="0.069035"/>
	<feFuncB type="linear" intercept="0.0819531"/>
	<feFuncA type="linear" slope="0.300781"/>
</feComponentTransfer>
<feComposite in="SourceGraphic" in2="shadow" operator="over" result="1"/>
</filter>
<g style="filter:url(#filter2);">
<g id="PathID_7" transform="matrix(0.291003, -0.00122997, 0, 0.287674, 93.8, 119.15)" opacity="1">
<path style="fill:#008695;fill-opacity:1" d="M11.2 -15.8Q11.2 -14.65 11 -12.4L10.95 -10.2L11 -6.5Q11.1 -3.7 11.35 -3Q11.65 -2.3 12.55 -1.65Q13.45 -1.05 14.45 -1Q15.65 -0.9 15.65 -0.45Q15.65 -0.1 15.25 -0.05L12.6 0L5.7 -0.05L2.55 -0.1Q2.4 -0.2 2.4 -0.45Q2.4 -0.85 3.35 -1.05Q5 -1.4 5.65 -2.2Q6.35 -3 6.5 -5.6Q6.65 -8.25 6.65 -11.7L6.55 -18.35L6.65 -25.55Q6.65 -29.4 6.1 -30.45Q5.55 -31.5 4.05 -31.8Q2.4 -32.1 2.4 -32.55Q2.4 -33 3.15 -33L8.1 -32.95L16.05 -33Q23.9 -33 26.6 -30.55Q29.35 -28.1 29.35 -24.4Q29.35 -20.05 25.8 -17.85Q22.25 -15.65 15.15 -15.65Q13.45 -15.65 11.2 -15.8M11.2 -16.8L15.3 -16.7Q17.85 -16.7 20.05 -17.55Q22.3 -18.4 23.35 -20.65Q24.4 -22.95 24.4 -25.2Q24.4 -28 22.5 -29.95Q20.6 -31.95 15.65 -31.95Q13.1 -31.95 11.2 -31.4L11.1 -30.25L11.2 -24.5L11.1 -18.4L11.2 -16.8" />
</g>
<g id="PathID_8" transform="matrix(0.291003, -0.00122997, 0, 0.287674, 101.4, 119.1)" opacity="1">
<path style="fill:#008695;fill-opacity:1" d="M16.45 -33.4L17.6 -33.4Q20.4 -27.65 25.3 -13.8Q28.5 -4.9 29.65 -2.9Q30.85 -0.9 33.45 -0.7Q34.3 -0.6 34.3 -0.1Q34.3 0.3 33.85 0.3L33.5 0.25Q31.2 0 27.65 0Q22.2 0 20.65 0.2Q19.9 0.2 19.9 -0.25Q19.9 -0.55 20.45 -0.65Q22.6 -0.85 23.4 -1.35Q24.2 -1.9 24.2 -3Q24.2 -4.1 22.7 -8.4L21.2 -12.75L9.55 -12.55Q6.95 -5.65 6.95 -3.8Q6.95 -2.3 8.25 -1.55Q9.55 -0.8 10.8 -0.75Q11.75 -0.65 11.75 -0.15Q11.75 0.05 11.4 0.2L6.6 0Q2.4 0 0.95 0.1Q0.15 0.1 0.15 -0.35Q0.15 -0.75 0.85 -0.85Q3.7 -1.2 5.2 -4.7Q6.75 -8.25 10 -17.4Q12.95 -25.75 16.45 -33.4M15.45 -27.9Q13.1 -23.15 10 -14.15L13.7 -14.25L20.75 -14.15Q19.85 -16.7 18.15 -21L15.45 -27.9" />
</g>
<g id="PathID_9" transform="matrix(0.291003, -0.00122997, 0, 0.287674, 111.65, 119.05)" opacity="1">
<path style="fill:#008695;fill-opacity:1" d="M20.75 -16.75Q24.25 -15.25 25.6 -13.6Q26.95 -11.95 27.6 -8.55Q28.4 -4 29.9 -2.45Q31.4 -0.95 33.85 -0.85Q34.55 -0.8 34.55 -0.35Q34.55 0.1 33.75 0.1Q26.75 0.1 25.25 -0.35Q23.75 -0.8 23.05 -5.45Q22.35 -10 21.6 -12.1Q20.9 -14.2 19.25 -15.3Q17.65 -16.45 14.25 -16.45Q12.95 -16.45 11.3 -16.15Q11.2 -14.6 11.2 -12.9Q11.2 -6.45 11.35 -4.55Q11.55 -2.7 12.4 -1.85Q13.3 -1 15.4 -0.95Q16.3 -0.9 16.3 -0.5Q16.3 0 15.2 0L2.75 0Q1.7 0 1.7 -0.5Q1.7 -0.95 2.55 -0.95Q4.45 -0.95 5.15 -1.5Q5.9 -2.05 6.35 -3.25Q6.8 -4.5 6.8 -7.65L6.75 -12.75L6.75 -20.5Q6.75 -26.45 6.45 -28.35Q6.2 -30.3 5.5 -30.95Q4.85 -31.65 2.4 -32Q1.9 -32.1 1.9 -32.45Q1.9 -32.85 2.95 -32.85L17.75 -33.2Q23.9 -33.2 26.65 -30.85Q29.45 -28.5 29.45 -25.1Q29.45 -22.95 28.3 -21.15Q27.2 -19.4 25.65 -18.6Q24.15 -17.8 20.75 -16.75M11.35 -17.45Q16.15 -17.55 18.5 -18.1Q20.9 -18.65 22.6 -20.6Q24.3 -22.55 24.3 -25.2Q24.3 -28.05 22.4 -30.15Q20.55 -32.25 16.45 -32.25Q14.2 -32.25 11.45 -31.65Q11.2 -24.8 11.2 -20.7Q11.2 -19.3 11.35 -17.45" />
</g>
<g id="PathID_10" transform="matrix(0.291003, -0.00122997, 0, 0.287674, 121.75, 119)" opacity="1">
<path style="fill:#008695;fill-opacity:1" d="M11 -16.6Q13.4 -18.25 14.8 -19.7L19.2 -24.35Q22.2 -27.6 22.8 -28.65Q23.4 -29.75 23.4 -30.2Q23.4 -30.8 22.7 -31.25Q22.05 -31.75 21.15 -31.9Q20.2 -32.05 20.2 -32.45Q20.2 -32.9 21 -32.9L21.55 -32.95L27.1 -33Q30.3 -33 31.55 -32.9Q32.8 -32.85 32.8 -32.45Q32.8 -32.05 32.05 -31.95Q29.75 -31.6 28 -30.65Q26.3 -29.7 22.7 -26.25Q19.1 -22.8 16.5 -19.55Q19.4 -19.55 21.35 -18.7Q23.3 -17.9 24.6 -15.9Q25.95 -13.95 26.9 -9.2Q28.55 -1.2 32.8 -0.9Q33.8 -0.8 33.8 -0.35Q33.8 0 33.35 0L31.05 -0.05Q25.95 -0.05 25.2 0.05Q23.95 -1.55 23.55 -3.1Q23.2 -4.7 22.6 -8.65Q22 -12.1 20.75 -15Q19.5 -17.95 16.8 -17.95Q15.05 -17.95 13.15 -16.75Q11.25 -15.6 10.95 -15.05Q10.65 -14.5 10.65 -8.45Q10.65 -4.2 10.9 -3.2Q11.15 -2.2 12.05 -1.6Q12.95 -1.05 14.45 -0.95Q15.4 -0.8 15.4 -0.35Q15.4 0.05 14.75 0.05L14.45 0.05L9.35 0Q4.05 0 3.35 0.1L2.8 0.15Q2.25 0.15 2.25 -0.3Q2.25 -0.7 2.95 -0.8Q4.25 -0.95 4.9 -1.5Q5.6 -2.05 5.75 -2.8Q5.95 -3.55 6.25 -7.75Q6.6 -11.95 6.6 -14.75Q6.6 -18.45 6.5 -21Q6.4 -23.6 6.15 -26.6Q5.95 -29.65 5.65 -30.25Q5.4 -30.9 4.9 -31.2Q4.4 -31.55 2.55 -31.8Q1.95 -31.85 1.95 -32.25Q1.95 -32.8 3.1 -32.8L5.1 -32.85L14 -32.95Q14.7 -32.95 14.7 -32.5Q14.7 -32.25 14.45 -32.15Q14.25 -32.05 13.1 -31.9Q11.9 -31.75 11.6 -31.6Q11.3 -31.45 11 -30.95Q10.7 -30.45 10.7 -29.25Q10.7 -26.45 11 -16.6" />
</g>
</g>
</svg>
