<?xml version="1.0" standalone="no"?>
<!DOCTYPE svg PUBLIC "-//W3C//DTD SVG 20010904//EN"
 "http://www.w3.org/TR/2001/REC-SVG-20010904/DTD/svg10.dtd">
<svg version="1.0" xmlns="http://www.w3.org/2000/svg"
 width="2000.000000pt" height="2000.000000pt" viewBox="0 0 2000.000000 2000.000000"
 preserveAspectRatio="xMidYMid meet">
<metadata>
Created by potrace 1.15, written by Peter Selinger 2001-2017
</metadata>
<g transform="translate(0.000000,2000.000000) scale(0.100000,-0.100000)"
fill="#000000" stroke="none">
<path d="M6525 14974 c-16 -2 -70 -9 -120 -15 -420 -50 -876 -218 -1243 -459
-524 -343 -909 -866 -1098 -1488 -111 -366 -149 -646 -148 -1092 0 -475 52
-853 183 -1330 337 -1228 982 -2153 2191 -3141 547 -448 1633 -1168 2271
-1507 541 -288 1076 -393 1389 -273 72 28 144 81 183 137 l32 45 14 -23 c29
-46 109 -115 162 -141 105 -51 168 -62 359 -61 151 0 193 4 304 27 359 76 669
218 1271 580 1947 1173 3076 2252 3635 3476 467 1020 624 2140 425 3036 -124
561 -361 1015 -725 1389 -213 219 -427 376 -707 519 -324 165 -608 254 -978
309 -128 19 -468 15 -625 -6 -489 -67 -1083 -330 -1632 -722 -613 -437 -1116
-869 -1303 -1117 -130 -173 -187 -376 -154 -553 20 -107 70 -198 157 -283 128
-127 277 -184 477 -184 228 0 439 83 900 354 385 226 605 315 890 361 112 17
367 14 490 -7 341 -58 667 -241 941 -527 276 -288 418 -577 464 -943 20 -151
8 -439 -24 -606 -47 -246 -124 -474 -246 -724 -92 -188 -170 -321 -299 -504
-232 -332 -434 -546 -887 -943 -20 -18 -20 -17 -54 65 -110 273 -262 505 -487
746 -77 81 -122 140 -152 196 -60 110 -215 341 -306 455 -42 52 -133 158 -203
234 l-127 139 -8 -109 c-9 -122 -32 -303 -40 -310 -3 -3 -31 8 -64 24 -65 33
-266 119 -368 157 l-65 25 16 -38 c80 -186 108 -289 102 -381 l-3 -54 -64 -13
c-288 -59 -504 -210 -620 -433 -87 -169 -122 -284 -145 -485 -17 -139 -18
-144 -99 -241 -71 -85 -97 -145 -97 -226 0 -36 5 -81 12 -100 43 -128 215
-292 403 -387 184 -92 404 -108 640 -47 54 14 100 23 103 21 8 -8 -17 -209
-39 -321 -25 -128 -51 -210 -96 -308 l-37 -78 -140 -104 c-78 -56 -213 -149
-301 -206 -374 -241 -558 -395 -637 -536 l-30 -53 -40 62 c-95 147 -233 262
-623 521 -137 91 -272 183 -299 204 l-49 39 -3 235 c-4 351 15 488 104 719 22
58 60 158 85 222 53 138 77 235 77 313 0 30 -12 124 -26 208 -23 134 -26 170
-21 307 4 117 10 174 27 230 44 154 166 371 283 504 l43 49 45 -26 c79 -46
284 -134 396 -171 233 -75 369 -69 558 23 212 104 348 245 363 377 11 97 -77
205 -383 471 -202 176 -199 170 -205 398 -5 178 -6 181 -38 247 -40 82 -133
201 -198 254 -91 74 -94 78 -94 135 0 153 129 410 251 498 22 17 44 31 49 33
4 2 1 38 -7 81 l-16 77 -34 0 c-18 0 -85 -11 -149 -25 -814 -176 -1594 -649
-2185 -1325 -128 -146 -218 -264 -469 -615 -419 -586 -650 -887 -820 -1068
l-82 -88 -34 38 c-450 503 -757 1096 -859 1658 -23 123 -31 436 -15 562 45
358 183 644 449 925 294 310 620 492 987 548 105 17 360 17 459 1 283 -45 485
-126 886 -357 504 -290 675 -357 904 -357 297 1 532 154 617 401 32 95 32 247
-1 352 -47 150 -117 260 -275 427 -288 305 -1027 888 -1480 1168 -128 79 -388
215 -536 281 -266 118 -532 196 -776 229 -115 15 -448 28 -509 19z m3604
-4213 c17 -21 35 -50 40 -64 10 -25 10 -25 -27 -15 -20 6 -43 15 -49 20 -15
12 -18 98 -4 98 5 0 23 -17 40 -39z m931 -1771 c0 -19 -36 -47 -47 -36 -6 6
29 55 40 56 4 0 7 -9 7 -20z"/>
</g>
</svg>
