<?xml version="1.0" standalone="no"?>
<!DOCTYPE svg PUBLIC "-//W3C//DTD SVG 20010904//EN"
 "http://www.w3.org/TR/2001/REC-SVG-20010904/DTD/svg10.dtd">
<svg version="1.0" xmlns="http://www.w3.org/2000/svg"
 width="325.000000pt" height="260.000000pt" viewBox="0 0 325.000000 260.000000"
 preserveAspectRatio="xMidYMid meet">

<g transform="translate(0.000000,260.000000) scale(0.100000,-0.100000)"
fill="#000000" stroke="none">
<path d="M1825 2221 c-76 -19 -129 -85 -129 -161 0 -37 11 -66 53 -144 127
-236 149 -421 76 -641 -6 -16 -5 -17 4 -5 19 26 50 133 60 204 11 78 1 191
-25 271 -9 28 -40 98 -69 156 -30 59 -57 122 -60 142 -14 71 51 147 126 147
43 0 95 -31 117 -70 l17 -30 215 7 c118 3 217 7 219 9 2 2 -84 4 -193 4 l-197
0 -37 41 c-56 62 -114 85 -177 70z"/>
<path d="M2238 2073 c6 -2 18 -2 25 0 6 3 1 5 -13 5 -14 0 -19 -2 -12 -5z"/>
<path d="M2135 2059 c-90 -20 -114 -31 -148 -68 -51 -56 -55 -92 -26 -236 57
-285 7 -486 -161 -656 -137 -138 -336 -205 -505 -170 -39 8 -38 9 20 10 133 2
245 51 340 146 129 129 168 276 130 490 -40 225 -194 382 -420 430 -63 13 -71
13 -87 -2 -10 -9 -17 -18 -15 -19 2 -2 36 -10 77 -19 268 -56 411 -248 414
-555 1 -100 -1 -109 -31 -171 -63 -127 -172 -220 -298 -254 -50 -14 -88 -17
-169 -13 -130 7 -155 18 -94 41 96 36 242 57 273 39 18 -10 7 -16 -70 -36 -11
-3 2 -3 28 -1 57 6 152 44 139 57 -16 16 -165 21 -242 8 -77 -13 -211 -62
-229 -84 -8 -10 0 -19 37 -38 88 -48 178 -70 287 -71 182 0 318 55 445 183
178 179 231 404 165 694 -30 133 -28 169 11 216 35 41 55 51 144 71 41 10 64
17 50 17 -14 0 -43 -4 -65 -9z"/>
<path d="M1116 1841 l-28 -29 28 -53 c41 -82 154 -189 244 -231 117 -56 133
-55 41 3 -101 62 -195 153 -239 231 -18 30 -32 59 -32 63 0 10 126 -4 190 -22
155 -42 283 -177 337 -352 7 -24 13 -55 13 -68 0 -24 -1 -24 -72 -18 -277 26
-452 116 -568 295 -29 46 -40 57 -48 47 -16 -19 37 -107 108 -175 133 -130
330 -202 556 -202 62 0 64 1 64 26 0 45 -30 146 -66 222 -68 142 -199 243
-359 277 -107 22 -137 20 -169 -14z"/>
<path d="M1303 1003 c9 -2 23 -2 30 0 6 3 -1 5 -18 5 -16 0 -22 -2 -12 -5z"/>
<path d="M1840 566 c0 -114 2 -136 15 -136 11 0 15 11 15 41 0 36 2 40 22 37
13 -2 33 -19 47 -40 21 -32 51 -51 51 -33 0 16 -33 66 -52 79 -20 14 -20 17
-6 28 8 7 23 25 33 41 26 41 -4 36 -42 -8 -17 -19 -36 -35 -42 -35 -6 0 -11
32 -13 77 -2 50 -7 78 -15 81 -10 3 -13 -28 -13 -132z"/>
<path d="M1280 556 c0 -119 1 -126 20 -126 17 0 20 7 20 39 0 38 0 39 46 46
59 8 84 34 84 83 0 56 -26 75 -106 80 l-64 4 0 -126z m124 78 c36 -35 5 -94
-50 -94 l-34 0 0 55 0 55 34 0 c19 0 42 -7 50 -16z"/>
<path d="M1518 599 c-10 -5 -18 -17 -18 -26 0 -13 3 -14 12 -5 7 7 29 12 50
12 31 0 38 -4 38 -19 0 -15 -12 -23 -46 -33 -57 -16 -73 -36 -56 -72 11 -24
16 -26 77 -26 l65 0 0 70 c0 57 -4 74 -20 90 -22 22 -73 26 -102 9z m90 -111
c-3 -29 -7 -33 -34 -36 -32 -3 -61 19 -49 37 5 9 53 27 78 30 5 1 7 -14 5 -31z"/>
<path d="M1713 603 c-22 -4 -23 -9 -23 -89 0 -68 3 -84 15 -84 12 0 15 15 15
75 l0 75 28 0 c15 0 34 -6 41 -12 10 -11 12 -8 9 12 -2 20 -9 25 -33 26 -16 1
-40 0 -52 -3z"/>
</g>
</svg>
