<svg id="Layer_1" data-name="Layer 1" xmlns="http://www.w3.org/2000/svg" viewBox="0 0 827.54 837.52"><defs><style>.cls-1{fill:#333;}.cls-2{fill:#fff;}.cls-3{fill:#fefefe;}</style></defs><title>logo</title><path class="cls-1" d="M838,453.1v36c.28,2.9-.68,5.75-.36,8.65-.2,4.87-.54,9.73-1,14.59a413.67,413.67,0,0,1-6.73,46.22,406.83,406.83,0,0,1-34.88,101.19A414.91,414.91,0,0,1,550.93,869.33a402.76,402.76,0,0,1-57.94,14c-11.6,1.91-23.24,3.4-35,4.26q-7,.52-14.1,1c-2.74-.28-5.44.35-8.17.35H413.67c-2.72,0-5.42-.65-8.16-.35-8.13-.61-16.26-1.09-24.37-1.94q-19.81-2.07-39.32-6a401.26,401.26,0,0,1-105-36.83Q114.56,780.37,53.21,657C27.49,605.08,13.93,549.94,11.57,492.07A414,414,0,0,1,294.41,82.85a401.41,401.41,0,0,1,61.8-15.3,396.54,396.54,0,0,1,41.67-4.77c5.58-.33,11.17-.62,16.75-.92h20.16a7.74,7.74,0,0,0,.95.13c9.43.36,18.85.86,28.25,1.74a402.65,402.65,0,0,1,41.5,6A414.37,414.37,0,0,1,817.81,346.48,398.43,398.43,0,0,1,833.29,411a354.69,354.69,0,0,1,4.24,41C837.55,452.36,837.29,452.94,838,453.1ZM623.2,256c1.71.68,3.42,1.36,5.14,2a23.54,23.54,0,0,0,4.09,1.33c2,.35,2.7-.31,2.5-2.3a10.09,10.09,0,0,0-.32-1.4,20.82,20.82,0,0,0-5.73-9.81c-.42-.41-1.14-.63-1.06-1.48a12.07,12.07,0,0,1,5.25-1.45c1.19-.14,2.39-.25,3.58-.38.75-.08,1.44-.3,1.65-1.14a2.06,2.06,0,0,0-.54-2.2,10,10,0,0,0-1.56-1.1,29.83,29.83,0,0,0-5-2.36,19.88,19.88,0,0,0-11.76-1,27.82,27.82,0,0,0-5.14,2c-4.81,2.22-9,.82-12.93-2.23-.95-.74-.79-1.71.32-2.27a6.2,6.2,0,0,1,1.6-.43c3.15-.57,6.3-1.12,9.45-1.67.72-.13,1.45-.23,1.62-1.13a2,2,0,0,0-.73-2.15,12.77,12.77,0,0,0-3.1-1.79,36,36,0,0,0-8.78-2.32,4.22,4.22,0,0,1-3.46-1.81c-1.58-2.56-1.83-2.59-4.53-1.18a85.87,85.87,0,0,1-10.21,4.74,32.37,32.37,0,0,1-3.43,1.07,1.61,1.61,0,0,1-2-.89c-.44-.85.11-1.39.68-1.83,3.05-2.34,6.09-4.64,10.19-4.92a6.26,6.26,0,0,0,5.19-3c1-1.68.68-3.28-1-4-2.71-1.2-5.48-2.28-8.56-1.81a19.21,19.21,0,0,1-4.54.25c-2.79-.24-3.66-1.63-2.67-4.2.2-.52.44-1,.65-1.54a5.7,5.7,0,0,0,0-4.22c-.59-1.65-1.26-1.9-2.63-.83a21.9,21.9,0,0,1-6.13,3.21c-3.09,1.13-6.06,2.45-8.32,5a3.11,3.11,0,0,1-3.68,1,4.19,4.19,0,0,1,1-2.92c1-1.56,2-3.07,3.08-4.57.47-.67,1-1.3.52-2.17a2,2,0,0,0-2-.94c-1.76.08-3.51.24-5.27.32-2.17.11-2.61-.43-2.1-2.49.09-.36.43-.7.1-1.19-.93-.52-1.8.13-2.67.37s-1.72.54-2.36-.39a2.1,2.1,0,0,1,.17-2.67c.94-1.19,2-2.32,2.94-3.48.61-.72,1.35-1.39,1.25-2.46a1.56,1.56,0,0,0-1.11-.37,21.93,21.93,0,0,0-12.34,2.22,48.42,48.42,0,0,0-8.84,5.72c-1.2.93-2.39,1.88-3.66,2.72s-2,.6-2.49-.26.13-1.46.74-2q4.68-3.94,9.38-7.86c.68-.56,1.44-1,2.11-1.58a1.82,1.82,0,0,0,.72-2.12,2.19,2.19,0,0,0-1.89-1.61c-.56,0-1.12,0-1.68,0a24.6,24.6,0,0,0-9.35,1.83,44.18,44.18,0,0,1-7.28,2.36c-1.63.34-2.36.07-2.83-1-.56-1.27.29-1.92,1.12-2.58a20.79,20.79,0,0,1,5.8-2.82c1.38-.52,2.83-1,3.76-2.22A15,15,0,0,0,504,172.23c-1.29.82-2.53,1.7-3.86,2.42-1.95,1.06-2.82.81-4-1-.52-.8-.94-1.67-1.38-2.52-1.2-2.31-1.56-2.34-3.26-.25-1,1.25-2,2.51-3,3.74a14.78,14.78,0,0,1-3.79,3.3,4.57,4.57,0,0,1-2.39.93,13,13,0,0,1,1-4.78c.87-2.61,1.08-5-.36-7.6-1.2-2.13-.58-3.54,1.56-4.79,1.17-.67,2.47-1.14,3.65-1.81a1.54,1.54,0,0,0,0-2.85,3.28,3.28,0,0,0-1.11-.43,21.27,21.27,0,0,0-6-.4,22.93,22.93,0,0,0-11.53,5c-1.39,1.07-2.78,2.17-4.26,3.11s-2.28.69-3.39-.52a18.57,18.57,0,0,1-1.73-2.29c-1-1.46-1.86-3-2.86-4.43-.8-1.17-1.82-2-3.41-1.66a3.28,3.28,0,0,0-2.44,3,26.73,26.73,0,0,0-.38,3.33c-.13,3.28-.06,6.56.11,9.84a8.57,8.57,0,0,1-.19,2.62c-.2.79-.69.82-1.23.39a6,6,0,0,1-1.82-2.77c-.75-2-1.51-4-2.3-6.05a14.06,14.06,0,0,0-3.47-5.4c-1.16-1.06-1.93-.92-2.67.44-.34.63-.51,1.34-.84,2a1.34,1.34,0,0,1-2.17.59,10.7,10.7,0,0,1-1.16-.84c-2.44-2.09-5.26-3.63-7.88-5.47a6,6,0,0,0-1.7-.86c-2.35-.75-4,.42-4,2.88,0,1.11.24,2.22.29,3.34.09,1.76-.22,2-1.86,1.57-.54-.13-1.08-.28-1.63-.38-2-.33-2.63.21-2.66,2.24a19.48,19.48,0,0,0,.84,5.19,7.71,7.71,0,0,1,.18,4.26c-.23.77-.67.85-1.22.41a19.24,19.24,0,0,1-2-1.75c-2.34-2.41-4.68-4.81-6.81-7.41-.91-1.12-1.74-1.31-2.69-.71a2.07,2.07,0,0,0-.95,2.68c.23.6.44,1.21.72,1.78,1,1.93,1.95,3.85,2.92,5.77.65,1.29,1.34,2.55,1.9,3.87s.19,2-.76,2.41a1.94,1.94,0,0,1-2.58-.53,9.45,9.45,0,0,1-1-2.15c-1.66-4.58-3.27-9.18-4.93-13.76a6,6,0,0,0-1.47-2.71c-1.32-1.16-2.52-.84-3.07.83-.15.45-.2.94-.38,1.38-.75,1.78-1.73,2.14-3.38,1.15-1.16-.7-2.24-1.53-3.34-2.33a28.38,28.38,0,0,0-9.22-4.47c-2.93-.81-4.56.63-3.9,3.59a11.91,11.91,0,0,0,2.15,4.26c2,2.79,4.06,5.55,6.06,8.35.45.62,1.15,1.12,1.16,2-2.27-.05-2.81-.28-4.74-1.86l-12.08-9.86a9.57,9.57,0,0,0-2-1.35c-1.77-.8-3.05.1-2.89,2a34.22,34.22,0,0,0,.61,5.23,2.67,2.67,0,0,1-1.12,3.16,3.34,3.34,0,0,1-3.63.09,11.77,11.77,0,0,1-1.92-1.42c-2.67-2.43-5.37-4.8-7.92-7.34a18.09,18.09,0,0,0-9.55-4.67c-2.66-.55-3.63.67-2.71,3.25a50.16,50.16,0,0,0,3.61,7,6.18,6.18,0,0,1,1.21,2.74c-1.69,0-3.28,0-4.86,0a53.44,53.44,0,0,0-10.26.85,10,10,0,0,0-6.62,4.63,3.93,3.93,0,0,0,1.9.65c3.36.71,6.72,1.42,10.07,2.17.8.18,1.59.54,1.58,1.53s-.9,1.15-1.71,1.22c-.24,0-.48.09-.71.11-6.08.49-11.69,2.53-17.12,5.13a8.58,8.58,0,0,0-1.24.73,1.81,1.81,0,0,0-.72,1.91A1.57,1.57,0,0,0,313,195c1,.12,1.92.14,2.85.32s2.2.31,2.74,1.5a4.7,4.7,0,0,1-.52.34c-.37.15-.75.26-1.13.4-4.55,1.71-8.59,1.26-12-2.61a9.91,9.91,0,0,0-5.17-2.88c-7-1.85-16.11,1.31-20.44,7.07-.31.4-.9.77-.5,1.46,3,.18,6.06.26,9.08.58s6,.87,9,1.3c2,.28,2,.26,1.42,2.12s-.26,2.16,1.61,2.16a27.93,27.93,0,0,1,5.24.58,4.49,4.49,0,0,1,3.42,2,54.52,54.52,0,0,1-6.95.36,24.52,24.52,0,0,1-10.52-1.91,15.08,15.08,0,0,0-10.8-.48,12.38,12.38,0,0,1-8.17-.15,16,16,0,0,0-18.29,7,9.29,9.29,0,0,0-1.48,6.56,5.68,5.68,0,0,0,2.33-.83c1.55-.66,3.07-1.36,4.62-2a23.52,23.52,0,0,1,6.53-1.46c1.71-.2,2.53.23,2.7,1.29.22,1.38-.83,1.74-1.83,2.12l-3.59,1.34c-.52.19-1.06.36-1.57.58-.74.32-1.6.68-1.48,1.65s1,1.18,1.78,1.36,1.43.21,2.12.41c1.5.43,3.15.14,4.65.94a7.54,7.54,0,0,1-2.34,1.4,21.24,21.24,0,0,0-4.69,3.3c-2.22,2.13-3.24,2.28-6,.81a12.77,12.77,0,0,0-4.94-1.71,16.81,16.81,0,0,0-15.07,6.28,6.22,6.22,0,0,0-1.7,3.19c2,.5,3.86-.19,5.7-.58a11.55,11.55,0,0,1,4.49-.48,1.8,1.8,0,0,1,1.69,1.73c0,1-.7,1.37-1.54,1.54-1.32.28-2.66.53-4,.8a71.12,71.12,0,0,0-11.6,2.92c-5.32,2-8.59,6-11,11.26,4.39-.46,7.94-3.72,12.3-2.57a1.11,1.11,0,0,1-.18,1.06,16.94,16.94,0,0,1-10.35,8c-2.68.8-5.39.52-8.1.45-8.79-.24-13,2.88-15.25,11.37a9.84,9.84,0,0,0-.34,1.4,8.13,8.13,0,0,0,0,1.91,2.43,2.43,0,0,0,1.8,2c1.06.3,1.61-.45,2.11-1.2.23-.33.41-.69.65-1a22.19,22.19,0,0,1,4.93-4.84,2.19,2.19,0,0,1,2.7-.12c.77.59.53,1.42.35,2.21a7.45,7.45,0,0,0-.14,2.62c.12.83.56,1.11,1.34.69a14.8,14.8,0,0,0,1.46-.82c1.3-.93,2.54-2,3.86-2.85s3-1.76,5.07-1.2a63.14,63.14,0,0,1-3.36,6.68,4.13,4.13,0,0,1-4.3,2.4,9.08,9.08,0,0,0-5.11,1c-4.61,2.36-8,9.43-6.95,14.48.24,1.12.23,2.63,1.67,2.92s1.81-1.09,2.46-1.95c2.17-2.87,4.05-5.95,6.45-8.65,2.86-3.23,4-3.05,5.59.88a11.2,11.2,0,0,0,.54,1.33,2.73,2.73,0,0,0,.76.89c.6.42,1.25.55,1.42-.42.51-2.93,2.22-5.27,3.77-7.69,1.89-3,1.9-3,4.53-.8,1.3,1.07,1.94,1,2.89-.47a12,12,0,0,0,.91-1.69c.67-1.54,1.28-3.1,2-4.63.83-1.82,1.73-3.6,3.6-4.72a9.13,9.13,0,0,1,1.31,2.56,25.44,25.44,0,0,0,1.18,2.61,3.07,3.07,0,0,0,3,1.66c1.31-.06,1.91-1,2.31-2.14a64,64,0,0,0,2.08-6.37,7.67,7.67,0,0,1,2.11-4.26l1.28,1.52c2.22,2.6,3.32,2.66,6,.37,1.88-1.63,3.49-3.52,5.19-5.32,1.31-1.38,2.57-2.83,4.43-3.53a2.9,2.9,0,0,1,.3.46c.26.92.49,1.85.77,2.77a18.08,18.08,0,0,0,.94,2.71c.84,1.71,1.78,1.82,2.73.22,3-5,5.9-10.06,8.81-15.12.54-1,.26-1.5-.76-1.75a7.53,7.53,0,0,0-1.43-.1c-.67,0-1.3-.19-1.51-.93a1.76,1.76,0,0,1,.49-2c2-1.45,4.14-2.77,6.71-2.87,1.5-.06,2.12.83,1.89,2.37-.05.39-.22.76-.3,1.16-.85,4.24-1.73,8.48-.69,12.81.3,1.27.25,3,1.86,3.34,1.46.34,2.51-.85,3.44-1.82s1.81-2.24,2.77-3.31c1.36-1.54,3-2.14,4.93-1.12,1.16.61,1.82.3,2.67-.55a25.79,25.79,0,0,0,6.31-11.42,17.53,17.53,0,0,1,1.28-3.6,4.45,4.45,0,0,1,4.53-2.47,8.58,8.58,0,0,1-.83,2.89,8.12,8.12,0,0,0-.68,3.73c.25,1.62,1.28,2.15,2.72,1.4,1.2-.62,2.37-1.33,3.62-1.84s1.74-.13,2.15,1.12c.52,1.61.07,2.51-1.79,3a16.53,16.53,0,0,0-7.7,4.18c-3.27,3.15-5.1,6.93-4.67,11.58a6.44,6.44,0,0,0,1.55,4.18c1-1.14,1.89-2.17,2.8-3.17a26.08,26.08,0,0,1,2-2.06,1.88,1.88,0,0,1,2.2-.45c.8.4.73,1.13.66,1.88-.16,1.75-.31,3.51-.4,5.26a17.24,17.24,0,0,0,.19,5.73,2.28,2.28,0,0,0,1.9,1.9c1.17.18,1.73-.54,2.17-1.48a24.08,24.08,0,0,0,1.87-4.64c.69-2.93,2.45-5.34,4.18-7.76,2.14-3,4.35-5.95,5-9.7a1.91,1.91,0,0,1,.73-1.21,1.45,1.45,0,0,1,1.58-.23c.58.29.25.82.14,1.26-.47,2-1,4-1.41,6.07-.81,4.14-.52,8.13,2,11.71,1.1,1.57,2.1,1.56,3.14-.06.77-1.21,1.32-2.55,2-3.8a8.83,8.83,0,0,1,4-4.14c.1.46.18.75.23,1,.58,3.31,1,6.64,1.86,9.9a35.74,35.74,0,0,0,3,8.06c.51,1,1.19,1.8,2.44,1.49,1.07-.27,1.14-1.25,1.16-2.14a10.29,10.29,0,0,1,1.73-4.92,34.89,34.89,0,0,1,3.68-4.73c1-1.22,2.06-2.46,3.19-3.81a18.17,18.17,0,0,1,.7,5.75,23.62,23.62,0,0,0,.68,5.69c.6,2,1.81,2.49,3.67,1.51a20.67,20.67,0,0,0,2.36-1.63,21.75,21.75,0,0,1,1.94-1.41c2.68-1.48,5.06-.1,5.11,2.92a24.71,24.71,0,0,0,.07,3.11A2.27,2.27,0,0,0,376,287a7.42,7.42,0,0,0,1.64-1.38c.83-.86,1.57-1.81,2.4-2.67,1.26-1.31,2.14-1.26,3,.29a28.91,28.91,0,0,1,1.74,3.94c1.7,4.61,1.52,9-1.23,13.29a22.11,22.11,0,0,0-2.92,9.07c-.46,3.38.69,5.14,3.9,6.2a36.51,36.51,0,0,0,4.19,1c5.67,1.18,11.19,2.75,15.94,6.25,3.22,2.37,6.38,4.82,9.4,7.44a55.54,55.54,0,0,1,8.42,8.85,29.82,29.82,0,0,1,6.29,17.54c.07,3.76.29,7.49.7,11.23.55,5.06-.9,7.08-5.78,8.76-.91.32-1.83.6-2.75.83-1.55.4-3.12.7-4.66,1.13-3.29.9-4.06,2-3.61,5.36.71,5.38,1.13,10.81,2.18,16.15.15.77.18,1.48-.57,1.88a1.65,1.65,0,0,1-2.17-.42,10.71,10.71,0,0,1-1.19-1.79,34.72,34.72,0,0,1-3.46-9.67c-.4-1.95-.67-3.94-1-5.91-.44-2.74-1.5-3.54-4.28-3.17a17.38,17.38,0,0,0-2.59.48,2.28,2.28,0,0,0-1.93,2.62,7.71,7.71,0,0,0,.22,1.66c2.05,8.53,2.58,17.22,2.86,25.94a9.44,9.44,0,0,1-.13,2.38c-.35,1.47-1.05,1.63-2.13.57-2.09-2.06-2.93-4.72-3.48-7.49-1.26-6.35-2.63-12.68-3.68-19.06-.82-5-3.24-4.69-6.39-4.18a7.82,7.82,0,0,0-1.81.59,3.21,3.21,0,0,0-2.13,3.4,11.47,11.47,0,0,0,.61,2.8,67.19,67.19,0,0,1,1.88,8.41c1.35,8.21,1.38,16.57,2.85,24.77.15.85.3,1.81-.83,2.23a2.14,2.14,0,0,1-2.53-.88,7.81,7.81,0,0,1-1.58-3.44c-1.21-5.54-2.49-11.07-3.72-16.61-1.15-5.14-2.24-10.3-3.41-15.44-.72-3.16-2.26-4.2-5.11-3.57-1.36.29-2.07.93-2,2.27.22,3.7-.4,7.34-.49,11-.29,12.88.61,25.74.82,38.61,0,1,.18,2-1.07,2.33a1.94,1.94,0,0,1-2.44-1.4,15.83,15.83,0,0,1-1-3.44c-2.46-14.25-3.47-28.56-1.53-43,.19-1.42.44-2.84.59-4.27a2.61,2.61,0,0,0-1.14-2.71c-2.82-1.83-5-1.1-6.16,2A116.44,116.44,0,0,0,348,425.68c-.08,3.28,0,6.56,0,9.84a7.71,7.71,0,0,1-1.17,4.34c-1.11,1.71-2.47,1.65-3.48-.15a5.41,5.41,0,0,1-.65-2.53,165.12,165.12,0,0,1,2.11-33.46A113.25,113.25,0,0,1,350,384.3c.85-2.3-.52-4.17-2.95-4.24a8,8,0,0,0-3,.72,57.48,57.48,0,0,0-14.27,7.78,118.29,118.29,0,0,0-23.81,23.54c-.44.57-.86,1.15-1.3,1.72s-1.19,1.21-2.05.79a1.74,1.74,0,0,1-.92-2.23,10.23,10.23,0,0,1,.5-1.34,43.1,43.1,0,0,1,4-7.1,71.14,71.14,0,0,1,35.72-26.65,14.13,14.13,0,0,0,1.58-.57c1.57-.74,1.85-1.55,1-3.05-.46-.85-1.07-1.6-1.49-2.46-1-2-.55-3.53,1.4-4.66.83-.48,1.75-.78,2.62-1.18,2.66-1.21,3.3-3,1.58-5.34a16.49,16.49,0,0,1-3.16-10.1,73.17,73.17,0,0,0-1-13.14C339.16,309,315,289,287.94,289.91c-6.16.2-10.76-2.42-14-7.58a26.71,26.71,0,0,1-2.09-4.55c-.61-1.54-2-1.79-3.24-.67a3.14,3.14,0,0,0-.83,1.16c-1,2.63-1.95,5.23-.6,8.09.5,1.07.83,2.23,1.34,3.32.43.9.94,1.85.4,2.87a1.85,1.85,0,0,1-.56,0,4.27,4.27,0,0,1-.67-.27c-3.35-1.54-5.16-4.41-6.55-7.63-.38-.88-.64-1.81-1.05-2.68a1.84,1.84,0,0,0-1.88-1.22,2.12,2.12,0,0,0-1.83,1.35,7.68,7.68,0,0,0-.56,2.56,23.58,23.58,0,0,0,1,7.56c1.16,4.85.72,5.83-3.64,8.33-1.81,1-3.68,1.94-5.42,3.08s-1.62,2.24-.17,3.47a14.8,14.8,0,0,0,1.37,1,4.79,4.79,0,0,1,2.21,5.14,54.52,54.52,0,0,1-3.29,13c-3.17,8.16-8.09,15.22-13.67,21.87-2.21,2.63-4.43,5.28-6.85,7.71a4.43,4.43,0,0,0-1.23,5.15,51.54,51.54,0,0,1,1.32,5.1,7.78,7.78,0,0,0,3.16,4.65A16.14,16.14,0,0,0,241.12,374a6.93,6.93,0,0,0,2.34-.48c1.55-.63,2.66-1.42,2.8-3.41.19-2.72,1.7-4.14,4.39-4.64a13.07,13.07,0,0,1,2.87-.18,11.57,11.57,0,0,0,6.79-2c1.08-.69,2.13-1.43,3.2-2.12a5.75,5.75,0,0,1,3.83-1.12c5.12.59,9.18-1.47,12.62-5.08,1.16-1.23,2.19-2.54,3.25-3.85,1.34-1.66,2.86-1.61,4.16.09a4.24,4.24,0,0,1,.75,3.85,76.25,76.25,0,0,1-3,9.59c-8.42,20.11-8.74,40.7-3.62,61.61.9,3.64,1.92,4.19,5.46,3.24.31-.08.6-.22.91-.27,3.15-.54,6.15-.37,8.89,1.78a2.42,2.42,0,0,1-1.44,1c-1.84.56-3.65,1.17-5.5,1.66-5.18,1.39-10.4,2.64-14.61,6.3-.84.74-1.59.49-2.17-.48a11.25,11.25,0,0,1-.51-1.34c-.61-1.4-1.17-1.6-2.64-1a4.36,4.36,0,0,0-2.67,3.44,44,44,0,0,0-.75,9.3,124.23,124.23,0,0,0,1.48,16c.19,1.22.26,2.31-.9,3.22a12.34,12.34,0,0,1-3.1-6,65.26,65.26,0,0,1-1.8-20.46c.14-2.1-.92-3-2.88-2.33s-3.6,1.93-4,4.33a64.17,64.17,0,0,0-1,9.29c0,5.54.77,11,1.23,16.5a36.73,36.73,0,0,1,.32,5.49,2.89,2.89,0,0,1-2.8-2.3c-.38-1.05-.7-2.12-1-3.19-2.45-7.94-3.24-16-1.11-24.11.47-1.81-.15-2.52-2-2.51a2.87,2.87,0,0,0-2.89,2.09c-.4,1.12-.76,2.27-1.13,3.4A47.5,47.5,0,0,0,242.63,469a51.33,51.33,0,0,0,2.32,12c.29.81.19,1.44-.61,1.8a1.49,1.49,0,0,1-2.08-.59,8.15,8.15,0,0,1-.5-1.08,48.3,48.3,0,0,1-3-23.31c.3-2.78.61-5.56,1.18-8.3.17-.83.4-1.79-.57-2.39-1.94-1.19-4.94-.16-5.5,2a108,108,0,0,0-3.57,20.27,66,66,0,0,0-.1,9.11c0,.73-.08,1.5-1,1.67s-1.47-.44-1.71-1.28a14.85,14.85,0,0,1-.44-3.57c-.05-1.52-.08-3-.2-4.55a1.46,1.46,0,0,0-2.82-.62,23,23,0,0,0-2.31,4.73,19.36,19.36,0,0,1-1.85,4.41c-.31.5-.49,1.23-1.34,1.15a7.46,7.46,0,0,1-.34-4.46c1.21-6.88,4.09-13.08,7.58-19q2.79-4.75,5.6-9.5a1.73,1.73,0,0,0-.19-2.38,1.92,1.92,0,0,0-2.61-.3,9.49,9.49,0,0,0-1.46,1.24,51.64,51.64,0,0,0-13.6,21.7,4.37,4.37,0,0,1-.59,1.3,1.66,1.66,0,0,1-2.79-.23,2.82,2.82,0,0,1-.3-1.86c.53-3.24,1.14-6.44,2.85-9.34,3.19-5.42,6.79-10.47,11.82-14.36a4.84,4.84,0,0,0,1-1,1.52,1.52,0,0,0,.25-1.79c-1.19-1.81-.41-3,1-4.31,2.59-2.44,2.41-4.4-.44-6.5a10.7,10.7,0,0,1-2.74-2.63,64.92,64.92,0,0,0-9.17-10.75A57.35,57.35,0,0,0,193.91,403a32,32,0,0,0-15.79-1.79,81.77,81.77,0,0,0-8.35,2.15,8.43,8.43,0,0,1-8.2-2.12A20.38,20.38,0,0,1,158,397c-.55-.87-1.23-1.5-2.38-1.09a2.32,2.32,0,0,0-1.47,2.27,8,8,0,0,0,.52,3c.67,2.14,1.44,4.24,2.09,6.37.17.54.68,1.09.24,1.83a9.15,9.15,0,0,1-7.17-5.36,10.92,10.92,0,0,0-.8-1.73,1.45,1.45,0,0,0-2.65.32,9.18,9.18,0,0,0,2,10.07c1.89,1.69,2.11,2.64.82,4.79-1.15,1.93-2.18,3.91-3.19,5.91-1.71,3.38-1.23,4.55,2.41,5.38a4.76,4.76,0,0,1,4,4c.34,1.65.69,3.29,1,4.93,1.46,7.24,2,14.42-1.35,21.37a5.92,5.92,0,0,0,0,4.91,15.29,15.29,0,0,0,3.65,5,2.25,2.25,0,0,0,2.18.71c1.7-.45,3.41-.87,5.07-1.42a3.35,3.35,0,0,0,2.51-2.37c.93-4.53,3.91-7.59,7.24-10.43a38.8,38.8,0,0,0,4-3.84c2.41-2.75,5.23-5.23,5.25-9.37a1.8,1.8,0,0,1,2-1.72,2.14,2.14,0,0,1,2.19,1.54,14,14,0,0,1,.54,2.32c1,6.08,1.83,12.17,2.92,18.23,1.72,9.52,5.41,18,13.07,24.42a19,19,0,0,1,5.79,9.5,5.65,5.65,0,0,1-.93,5.43,29.66,29.66,0,0,0-4.64,9.14c-1.22,3.64-2.24,7.34-3.17,11.06a10.13,10.13,0,0,1-2.39,4.89,24.35,24.35,0,0,0-7.11,17.3,36.18,36.18,0,0,1-3.24,13.67c-1.69,3.89-3.81,7.56-5.87,11.27a65.78,65.78,0,0,0-5.82,12.85,4.47,4.47,0,0,1-1.21,2c-2.58,2.42-3.7,5.52-4.22,8.92-.22,1.42-.55,2.82-.89,4.22a4.39,4.39,0,0,1-4.09,3.48A34.94,34.94,0,0,1,161,601H132.2l-69.12,0a9.82,9.82,0,0,0-2.86.21A2.65,2.65,0,0,0,58,603.9a10.47,10.47,0,0,0,0,1.68,94.84,94.84,0,0,1,0,13.9,10.48,10.48,0,0,0,0,1.68c.19,2.31,1.21,3.46,3.55,3.8a29.06,29.06,0,0,0,4.07.22q101.16,0,202.31-.09,55.56,0,111.12-.06H788.62c1,0,1.92.08,2.88,0,1.62-.06,2.18-.56,2.4-2.09a11.75,11.75,0,0,0,.06-1.68c-.1-5.44-.16-10.87,0-16.31a9.41,9.41,0,0,0-.06-1.68,2.42,2.42,0,0,0-2.49-2.41,25,25,0,0,0-3.12-.09q-20.16,0-40.31,0c-.5,0-1.13.29-1.54-.41a6.2,6.2,0,0,1,3.64-3.54c.73-.31,1.51-.51,2.27-.77,4-1.42,4.94-5.61,1.76-8.47a9,9,0,0,0-8-2.3,38.28,38.28,0,0,0-4.35,1.32,6.38,6.38,0,0,1-4.67,0,17,17,0,0,0-9.66-.83,27.45,27.45,0,0,1-5.73.4c-5.93-.28-10.71-2.92-14.73-7.13-4.49-4.71-9.93-5.64-15.84-3.62a99.44,99.44,0,0,1-12.32,3,21.1,21.1,0,0,1-5.49.37,13.09,13.09,0,0,1-7.71-2.94,2.83,2.83,0,0,1-1.06-3.2c.42-1.37,1.48-1.51,2.66-1.52a11.91,11.91,0,0,0,4.83-1.27,7,7,0,0,0,4.26-5.41,30.1,30.1,0,0,0,.2-6.22c0-4.18,0-8.37,2.46-12a17.26,17.26,0,0,0,2.14-15.77,8.11,8.11,0,0,1,1.2-8.14c1.53-2,1.28-3.55-.48-5.35-1.06-1.09-2.25-2-3.37-3.07a10.69,10.69,0,0,1-3.58-6.34,52.24,52.24,0,0,0-4.73-14.28c-1.29-2.66-2.78-5.22-4.13-7.85-.83-1.63-.53-2.47,1.08-3.3a6.27,6.27,0,0,1,8.66,3.49,16.73,16.73,0,0,1,.52,3.06c.3,1.74,1,2.31,2.77,2.28a14.72,14.72,0,0,0,2.38-.28c2-.39,4-.92,6.1-1.21a3.7,3.7,0,0,0,3.21-2.5c.64-1.63,1.29-3.26,1.9-4.91a4.79,4.79,0,0,1,2.82-3.06c4.35-1.71,6.18-5.13,6.16-9.61a17.27,17.27,0,0,1,2.55-10c1.21-1.85.87-3.63-.69-5.25-1-1-2.13-1.94-3.21-2.89a117.37,117.37,0,0,1-14.65-14.84,67.82,67.82,0,0,1-6.93-10.63c-1.37-2.59-1.37-5,.53-7.37a6.38,6.38,0,0,0,.79-1.2c.91-1.77.66-2.64-1.23-3.3a6.32,6.32,0,0,1-3.87-4c-.2-.51-.36-1.05-.56-1.57-.91-2.36-1.58-2.86-4.09-2.81a13.2,13.2,0,0,1-5.82-1.22c-1.45-.65-2.88-1.38-4.3-2.11a40.5,40.5,0,0,0-16.78-4.43c-11.53-.53-22.48,2.69-33.54,5.13a4.29,4.29,0,0,0-3.55,3.81c-.18,2.39-1.65,3.26-3.47,4.08-3.79,1.71-7.55,3.49-11.33,5.21-1.8.82-3,2-3,4.16a8.83,8.83,0,0,1-2.6,5.79c-1.12,1.25-2.34,2.41-3.56,3.56a45.75,45.75,0,0,0-6.58,7.6,20.45,20.45,0,0,0-3.68,12.67c.1,1.84.1,3.68.06,5.52a10.49,10.49,0,0,1-3.4,7.92,4,4,0,0,0-1.42,3.17,12.38,12.38,0,0,1-5.12,10.32c-3,2.44-3.11,4.66-.44,7.49a15.31,15.31,0,0,1,2.45,2.94,4.08,4.08,0,0,1-.72,5.44,12.64,12.64,0,0,1-3.35,2.3,149.34,149.34,0,0,1-30.73,12c-1.55.4-3.09.83-4.66,1.1s-2.17-.24-2.17-1.93a8.08,8.08,0,0,1,.09-1.2,225.19,225.19,0,0,1,5.12-26.09c1.39-5.08,3.93-9.12,8.71-11.76a17.72,17.72,0,0,0,8.92-11.12,13.39,13.39,0,0,1,4.66-7.05,51.1,51.1,0,0,0,6.79-6.77C562,435.93,565,429,565,420.84c0-2.71-.32-5.43-.39-8.14-.37-14.31-1.34-28.6-2-42.9,0-.79-.12-1.6-.09-2.39.06-1.9.55-2.38,2.41-2.55,1.12-.09,2.24-.13,3.35-.3,3.77-.55,7.45-.74,11,1.24a4.37,4.37,0,0,0,4.59-.08,6.15,6.15,0,0,0,.62-10.31c-.94-.75-2-1.4-2.87-2.17a7.26,7.26,0,0,1-2.6-8.15,4.25,4.25,0,0,0-1-4.61,5.12,5.12,0,0,1-.72-1c-.6-1-.42-1.62.72-2,.74-.27,1.56-.34,2.33-.56,3.31-.94,5.62-5.55,4.26-8.48-.55-1.21-1.28-1.52-2.19-.68a14.07,14.07,0,0,1-6.9,3.12,21.58,21.58,0,0,0-4.57,1.41,3.16,3.16,0,0,1-3.75-.62,33.42,33.42,0,0,1-11.38-20.53,38.35,38.35,0,0,1-.16-10c.2-1.8.1-3.62-1.53-5a40,40,0,0,0-2.38,19.42,35.65,35.65,0,0,0,3.59,10.87c.48.92,1,1.85,1.35,2.8a1.56,1.56,0,0,1-2.41,2l-.75-.6c-5.43-4.25-8.07-9.93-8.81-16.68-.57-5.27-.35-10.55-.42-15.82,0-.58.29-1.26-.4-1.82a8.39,8.39,0,0,0-2.44,4.32c-.47,1.86-.92,3.72-1.24,5.61-1.71,10.1-.22,19.58,5.58,28.2.21.31.55.61.11,1l-8.39-2.57a54.74,54.74,0,0,0-11.06-2.06c-.92-.08-1.82,0-2.21,1s.25,1.68,1.05,2.14a28.22,28.22,0,0,1,7.93,7.23,5.6,5.6,0,0,0,5.93,2.21,8.89,8.89,0,0,1,2.62-.18c2.23.21,3.28,1.56,2.89,3.78a15,15,0,0,1-.77,2.52,39.59,39.59,0,0,0-2.52,12.64l-1,30.93c-.06,1.59-.16,3.19-.27,4.79a4.76,4.76,0,0,1-3.66,4.51c-2.58.82-4.48.2-6.39-2.44a14.88,14.88,0,0,0-8.13-5.6,55.09,55.09,0,0,0-9.16-1.77,148.08,148.08,0,0,0-20.84-.83,9.9,9.9,0,0,1-8.25-3.45,44.73,44.73,0,0,0-16.67-11.45,56.38,56.38,0,0,0-18.67-4c-3.64-.18-4.28-.79-4.31-4.47a93.2,93.2,0,0,0-.47-10.3c-.26-2.23-.73-4.43-.91-6.65a42.51,42.51,0,0,1,1.7-15.17c1.81-6.38,3.64-12.75,5.58-19.09A26.41,26.41,0,0,1,458,304.79a37.76,37.76,0,0,1,13.44-7.18c5.13-1.64,10.45-2.26,15.77-2.9a50.53,50.53,0,0,0,13.3-2.95c5.37-2.2,6.14-5.33,2.48-9.78a13.4,13.4,0,0,1-2.11-2.89,2.59,2.59,0,0,1,.33-2.91c2-2.52,8-4.28,11-3.3a2,2,0,0,1,1.54,2.35c-.08.79-.33,1.57-.36,2.37-.07,1.74-.45,3.48,0,5.23a3.41,3.41,0,0,0,2.84,2.61c1.42.28,1.83-.93,2.42-1.89,2-3.34,4.11-6.66,6.24-9.95a8.87,8.87,0,0,1,2.62-2.93c.52.5.39,1,.5,1.46a30.22,30.22,0,0,0,1.17,4.39c.42,1,1,1.86,2.23,1.88s1.45-.84,1.82-1.65a11.33,11.33,0,0,1,1.75-2.57c1.46-1.74,2-1.81,3.8-.55,2.82,1.95,3.46,1.63,4.05-1.84a35.63,35.63,0,0,0,.11-6.69c0-1.49,1.22-2.27,2.36-1.55a2.12,2.12,0,0,1,.88,1.37c.45,1.7.87,3.41,1.39,5.09.67,2.13,1.39,4.25,2.18,6.33a2.86,2.86,0,0,0,2.74,2,2.55,2.55,0,0,0,2.49-1.9,22.24,22.24,0,0,1,1.88-3.33c2.5-3.88,3.86-3.83,6.09.28s4.93,8.23,7.58,12.23c1.69,2.55,4,2.35,5.35-.36a14.91,14.91,0,0,0,1.23-4.36c.18-1.09.32-2.59,1.49-2.75s1.59,1.33,2.13,2.29c1.76,3.13,3.53,6.27,5.3,9.39a4.89,4.89,0,0,0,1.74,1.95,1.9,1.9,0,0,0,2.86-.74c1.53-3.8,2.33-7.66.57-11.63a21.06,21.06,0,0,0-2-3.29,5.84,5.84,0,0,1-1.35-4.37c.55-.17.82.17,1.12.41,3.14,2.49,6.22,5,9.89,6.74,1.28.6,1.13,1.57.68,2.62a10.69,10.69,0,0,0-.61,6.36c.65,3.32,2.33,6.23,3.93,9.39l7.33-8.19c.61-.68,1.26-1.3,2.27-.94s1,1.32.93,2.21c0,2.16-.26,4.31-.5,6.45a2.75,2.75,0,0,0,1.45,3,3.27,3.27,0,0,0,3.71-.89,12.19,12.19,0,0,0,1.88-2.77c.58-1,1.13-2.11,1.74-3.14a2.17,2.17,0,0,1,2.13-1.28,2.26,2.26,0,0,1,2,1.82c.22.68.35,1.39.51,2.09a35.27,35.27,0,0,0,3.13,9.28,5.74,5.74,0,0,0,1.58,2.09,1.78,1.78,0,0,0,2.94-.77c1.36-3,2.55-6,2.42-9.42-.08-2.24-.07-4.48,0-6.72,0-.48-.34-1.14.46-1.43,1.35,1.25,1.86,2.95,2.47,4.59.54,1.42,1.06,2.87,2.41,3.77a18.49,18.49,0,0,1,7.19,9.91c1.16,3.4,2.25,6.82,3.37,10.24a9.37,9.37,0,0,0,1.44,3.26,1.73,1.73,0,0,0,3.18-.47c.45-1.11.79-2.26,1.14-3.4,1.73-5.64,1.36-11-1.74-16.16-.19-.32-.53-.63,0-1.21a14.85,14.85,0,0,1,5.61,3.32c2.25,2,4.4,4.19,6.61,6.27.68.65,1.33,1.56,2.45,1.11s1.27-1.55,1.31-2.61a6.22,6.22,0,0,0-.09-1.43c-1.38-7.84-5.77-13.16-13.31-15.82-.53-.19-1.09-.27-1.6-.5a3.33,3.33,0,0,1-1.44-5,1.18,1.18,0,0,1,1.82-.45c2.63,1.71,5.71,2.47,8.45,3.94a20.74,20.74,0,0,0,2.37,1.16,2.17,2.17,0,0,0,3.13-2.32,8.16,8.16,0,0,0-.47-1.84,17.45,17.45,0,0,1-.58-1.82c-.31-1.69.27-2.42,2-2.47.79,0,1.59.11,2.39.15a1.66,1.66,0,0,0,1.69-.65c.44-.72-.1-1.21-.49-1.69a16.45,16.45,0,0,0-6.91-5,37.21,37.21,0,0,0-6.51-1.57c-3.16-.62-6-.62-8.23,2.25a3.62,3.62,0,0,1-4.56,1.07,11.08,11.08,0,0,1-4-3c1.81-.8,3.42-1.49,5-2.23,1.16-.53,2.32-1.06,3.43-1.69a2,2,0,0,0,1.12-2c-.12-.91-.81-1.31-1.65-1.52-1.63-.41-3.24-.89-4.87-1.25a20.11,20.11,0,0,0-10.66.3c-2.73.88-5.54,1.53-8.32,2.25a15.29,15.29,0,0,1-2.83.51c-1.1.08-1.42-.32-1-1.42a5.55,5.55,0,0,0-1-5.39c-.78-1.1-1.82-2-2.24-3.37Z" transform="translate(-10.5 -61.42)"/><path class="cls-2" d="M414.63,61.86c-5.58.3-11.17.59-16.75.92a396.54,396.54,0,0,0-41.67,4.77,401.41,401.41,0,0,0-61.8,15.3A414.78,414.78,0,0,0,32.77,343.38a414.16,414.16,0,0,0-21.2,148.69c2.36,57.87,15.92,113,41.64,164.94q61.14,123.4,183.57,186.79a401.26,401.26,0,0,0,105,36.83q19.5,4,39.32,6c8.11.85,16.24,1.33,24.37,1.94v.35H10.5V61.42H414.63Z" transform="translate(-10.5 -61.42)"/><path class="cls-2" d="M838,453.1c-.7-.16-.44-.74-.46-1.15a354.69,354.69,0,0,0-4.24-41,398.43,398.43,0,0,0-15.48-64.47A413.62,413.62,0,0,0,505.49,69.73a402.65,402.65,0,0,0-41.5-6c-9.4-.88-18.82-1.38-28.25-1.74a7.74,7.74,0,0,1-.95-.13c0-.14,0-.28,0-.43H838Z" transform="translate(-10.5 -61.42)"/><path class="cls-2" d="M443.92,888.59q7.05-.5,14.1-1c11.73-.86,23.37-2.35,35-4.26a402.76,402.76,0,0,0,57.94-14A414.91,414.91,0,0,0,795.05,659.75a406.83,406.83,0,0,0,34.88-101.19,413.67,413.67,0,0,0,6.73-46.22c.43-4.86.77-9.72,1-14.59H838v391.2H443.91C443.92,888.83,443.92,888.71,443.92,888.59Z" transform="translate(-10.5 -61.42)"/><path class="cls-3" d="M434.79,61.42c0,.15,0,.29,0,.43H414.63v-.44Z" transform="translate(-10.5 -61.42)"/><path class="cls-3" d="M838,497.74h-.36c-.32-2.9.64-5.75.36-8.65Z" transform="translate(-10.5 -61.42)"/><path class="cls-3" d="M392.51,898.94v-.35c2.74-.3,5.44.34,8.16.35Z" transform="translate(-10.5 -61.42)"/><path class="cls-3" d="M430.92,898.59c0,.12,0,.24,0,.35h-8.16C425.48,898.94,428.18,898.31,430.92,898.59Z" transform="translate(-10.5 -61.42)"/><path class="cls-3" d="M622.8,256.46c.42,1.34,1.46,2.27,2.24,3.37a5.55,5.55,0,0,1,1,5.39c-.37,1.1-.05,1.5,1,1.42a15.29,15.29,0,0,0,2.83-.51c2.78-.72,5.59-1.37,8.32-2.25a20.11,20.11,0,0,1,10.66-.3c1.63.36,3.24.84,4.87,1.25.84.21,1.53.61,1.65,1.52a2,2,0,0,1-1.12,2c-1.11.63-2.27,1.16-3.43,1.69-1.6.74-3.21,1.43-5,2.23a11.08,11.08,0,0,0,4,3,3.62,3.62,0,0,0,4.56-1.07c2.25-2.87,5.07-2.87,8.23-2.25a37.21,37.21,0,0,1,6.51,1.57,16.45,16.45,0,0,1,6.91,5c.39.48.93,1,.49,1.69a1.66,1.66,0,0,1-1.69.65c-.8,0-1.6-.18-2.39-.15-1.71,0-2.29.78-2,2.47a17.45,17.45,0,0,0,.58,1.82,8.16,8.16,0,0,1,.47,1.84,2.17,2.17,0,0,1-3.13,2.32,20.74,20.74,0,0,1-2.37-1.16c-2.74-1.47-5.82-2.23-8.45-3.94a1.18,1.18,0,0,0-1.82.45,3.33,3.33,0,0,0,1.44,5c.51.23,1.07.31,1.6.5,7.54,2.66,11.93,8,13.31,15.82a6.22,6.22,0,0,1,.09,1.43c0,1.06-.18,2.16-1.31,2.61s-1.77-.46-2.45-1.11c-2.21-2.08-4.36-4.23-6.61-6.27a14.85,14.85,0,0,0-5.61-3.32c-.49.58-.15.89,0,1.21,3.1,5.11,3.47,10.52,1.74,16.16-.35,1.14-.69,2.29-1.14,3.4a1.73,1.73,0,0,1-3.18.47,9.37,9.37,0,0,1-1.44-3.26c-1.12-3.42-2.21-6.84-3.37-10.24a18.49,18.49,0,0,0-7.19-9.91c-1.35-.9-1.87-2.35-2.41-3.77-.61-1.64-1.12-3.34-2.47-4.59-.8.29-.46.95-.46,1.43,0,2.24,0,4.48,0,6.72.13,3.39-1.06,6.43-2.42,9.42a1.78,1.78,0,0,1-2.94.77,5.74,5.74,0,0,1-1.58-2.09,35.27,35.27,0,0,1-3.13-9.28c-.16-.7-.29-1.41-.51-2.09a2.26,2.26,0,0,0-2-1.82,2.17,2.17,0,0,0-2.13,1.28c-.61,1-1.16,2.1-1.74,3.14a12.19,12.19,0,0,1-1.88,2.77,3.27,3.27,0,0,1-3.71.89,2.75,2.75,0,0,1-1.45-3c.24-2.14.46-4.29.5-6.45,0-.89.14-1.82-.93-2.21s-1.66.26-2.27.94l-7.33,8.19c-1.6-3.16-3.28-6.07-3.93-9.39a10.69,10.69,0,0,1,.61-6.36c.45-1.05.6-2-.68-2.62-3.67-1.7-6.75-4.25-9.89-6.74-.3-.24-.57-.58-1.12-.41a5.84,5.84,0,0,0,1.35,4.37,21.06,21.06,0,0,1,2,3.29c1.76,4,1,7.83-.57,11.63a1.9,1.9,0,0,1-2.86.74,4.89,4.89,0,0,1-1.74-1.95c-1.77-3.12-3.54-6.26-5.3-9.39-.54-1-.92-2.46-2.13-2.29s-1.31,1.66-1.49,2.75a14.91,14.91,0,0,1-1.23,4.36c-1.38,2.71-3.66,2.91-5.35.36-2.65-4-5.29-8-7.58-12.23s-3.59-4.16-6.09-.28a22.24,22.24,0,0,0-1.88,3.33,2.55,2.55,0,0,1-2.49,1.9,2.86,2.86,0,0,1-2.74-2c-.79-2.08-1.51-4.2-2.18-6.33-.52-1.68-.94-3.39-1.39-5.09a2.12,2.12,0,0,0-.88-1.37c-1.14-.72-2.39.06-2.36,1.55a35.63,35.63,0,0,1-.11,6.69c-.59,3.47-1.23,3.79-4.05,1.84-1.82-1.26-2.34-1.19-3.8.55a11.33,11.33,0,0,0-1.75,2.57c-.37.81-.73,1.67-1.82,1.65s-1.81-.87-2.23-1.88a30.22,30.22,0,0,1-1.17-4.39c-.11-.45,0-1-.5-1.46a8.87,8.87,0,0,0-2.62,2.93c-2.13,3.29-4.2,6.61-6.24,9.95-.59,1-1,2.17-2.42,1.89a3.41,3.41,0,0,1-2.84-2.61c-.44-1.75-.06-3.49,0-5.23,0-.8.28-1.58.36-2.37a2,2,0,0,0-1.54-2.35c-3-1-9,.78-11,3.3a2.59,2.59,0,0,0-.33,2.91A13.4,13.4,0,0,0,503,282c3.66,4.45,2.89,7.58-2.48,9.78a50.53,50.53,0,0,1-13.3,2.95c-5.32.64-10.64,1.26-15.77,2.9A37.76,37.76,0,0,0,458,304.79a26.41,26.41,0,0,0-8.21,12.45c-1.94,6.34-3.77,12.71-5.58,19.09a42.51,42.51,0,0,0-1.7,15.17c.18,2.22.65,4.42.91,6.65a93.2,93.2,0,0,1,.47,10.3c0,3.68.67,4.29,4.31,4.47a56.38,56.38,0,0,1,18.67,4,44.73,44.73,0,0,1,16.67,11.45,9.9,9.9,0,0,0,8.25,3.45,148.08,148.08,0,0,1,20.84.83,55.09,55.09,0,0,1,9.16,1.77,14.88,14.88,0,0,1,8.13,5.6c1.91,2.64,3.81,3.26,6.39,2.44a4.76,4.76,0,0,0,3.66-4.51c.11-1.6.21-3.2.27-4.79l1-30.93a39.59,39.59,0,0,1,2.52-12.64,15,15,0,0,0,.77-2.52c.39-2.22-.66-3.57-2.89-3.78a8.89,8.89,0,0,0-2.62.18,5.6,5.6,0,0,1-5.93-2.21,28.22,28.22,0,0,0-7.93-7.23c-.8-.46-1.48-1.09-1.05-2.14s1.29-1.1,2.21-1a54.74,54.74,0,0,1,11.06,2.06l8.39,2.57c.44-.44.1-.74-.11-1-5.8-8.62-7.29-18.1-5.58-28.2.32-1.89.77-3.75,1.24-5.61a8.39,8.39,0,0,1,2.44-4.32c.69.56.4,1.24.4,1.82.07,5.27-.15,10.55.42,15.82.74,6.75,3.38,12.43,8.81,16.68l.75.6a1.56,1.56,0,0,0,2.41-2c-.39-.95-.87-1.88-1.35-2.8a35.65,35.65,0,0,1-3.59-10.87,40,40,0,0,1,2.38-19.42c1.63,1.36,1.73,3.18,1.53,5a38.35,38.35,0,0,0,.16,10,33.42,33.42,0,0,0,11.38,20.53,3.16,3.16,0,0,0,3.75.62,21.58,21.58,0,0,1,4.57-1.41,14.07,14.07,0,0,0,6.9-3.12c.91-.84,1.64-.53,2.19.68,1.36,2.93-.95,7.54-4.26,8.48-.77.22-1.59.29-2.33.56-1.14.39-1.32,1-.72,2a5.12,5.12,0,0,0,.72,1,4.25,4.25,0,0,1,1,4.61,7.26,7.26,0,0,0,2.6,8.15c.92.77,1.93,1.42,2.87,2.17a6.15,6.15,0,0,1-.62,10.31,4.37,4.37,0,0,1-4.59.08c-3.51-2-7.19-1.79-11-1.24-1.11.17-2.23.21-3.35.3-1.86.17-2.35.65-2.41,2.55,0,.79.05,1.6.09,2.39.7,14.3,1.67,28.59,2,42.9.07,2.71.39,5.43.39,8.14,0,8.12-3.06,15.09-8.17,21.26a51.1,51.1,0,0,1-6.79,6.77,13.39,13.39,0,0,0-4.66,7.05A17.72,17.72,0,0,1,536.5,467c-4.78,2.64-7.32,6.68-8.71,11.76a225.19,225.19,0,0,0-5.12,26.09,8.08,8.08,0,0,0-.09,1.2c0,1.69.52,2.21,2.17,1.93s3.11-.7,4.66-1.1a149.34,149.34,0,0,0,30.73-12,12.64,12.64,0,0,0,3.35-2.3,4.08,4.08,0,0,0,.72-5.44,15.31,15.31,0,0,0-2.45-2.94c-2.67-2.83-2.6-5,.44-7.49a12.38,12.38,0,0,0,5.12-10.32,4,4,0,0,1,1.42-3.17,10.49,10.49,0,0,0,3.4-7.92c0-1.84,0-3.68-.06-5.52a20.45,20.45,0,0,1,3.68-12.67,45.75,45.75,0,0,1,6.58-7.6c1.22-1.15,2.44-2.31,3.56-3.56a8.83,8.83,0,0,0,2.6-5.79c0-2.17,1.2-3.34,3-4.16,3.78-1.72,7.54-3.5,11.33-5.21,1.82-.82,3.29-1.69,3.47-4.08a4.29,4.29,0,0,1,3.55-3.81c11.06-2.44,22-5.66,33.54-5.13a40.5,40.5,0,0,1,16.78,4.43c1.42.73,2.85,1.46,4.3,2.11a13.2,13.2,0,0,0,5.82,1.22c2.51-.05,3.18.45,4.09,2.81.2.52.36,1.06.56,1.57a6.32,6.32,0,0,0,3.87,4c1.89.66,2.14,1.53,1.23,3.3a6.38,6.38,0,0,1-.79,1.2c-1.9,2.34-1.9,4.78-.53,7.37a67.82,67.82,0,0,0,6.93,10.63,117.37,117.37,0,0,0,14.65,14.84c1.08.95,2.21,1.86,3.21,2.89,1.56,1.62,1.9,3.4.69,5.25a17.27,17.27,0,0,0-2.55,10c0,4.48-1.81,7.9-6.16,9.61a4.79,4.79,0,0,0-2.82,3.06c-.61,1.65-1.26,3.28-1.9,4.91a3.7,3.7,0,0,1-3.21,2.5c-2,.29-4.07.82-6.1,1.21a14.72,14.72,0,0,1-2.38.28c-1.78,0-2.47-.54-2.77-2.28a16.73,16.73,0,0,0-.52-3.06,6.27,6.27,0,0,0-8.66-3.49c-1.61.83-1.91,1.67-1.08,3.3,1.35,2.63,2.84,5.19,4.13,7.85a52.24,52.24,0,0,1,4.73,14.28,10.69,10.69,0,0,0,3.58,6.34c1.12,1,2.31,2,3.37,3.07,1.76,1.8,2,3.4.48,5.35a8.11,8.11,0,0,0-1.2,8.14A17.26,17.26,0,0,1,679,546.26c-2.43,3.65-2.51,7.84-2.46,12a30.1,30.1,0,0,1-.2,6.22,7,7,0,0,1-4.26,5.41,11.91,11.91,0,0,1-4.83,1.27c-1.18,0-2.24.15-2.66,1.52a2.83,2.83,0,0,0,1.06,3.2,13.09,13.09,0,0,0,7.71,2.94,21.1,21.1,0,0,0,5.49-.37,99.44,99.44,0,0,0,12.32-3c5.91-2,11.35-1.09,15.84,3.62,4,4.21,8.8,6.85,14.73,7.13a27.45,27.45,0,0,0,5.73-.4,17,17,0,0,1,9.66.83,6.38,6.38,0,0,0,4.67,0,38.28,38.28,0,0,1,4.35-1.32,9,9,0,0,1,8,2.3c3.18,2.86,2.27,7.05-1.76,8.47-.76.26-1.54.46-2.27.77a6.2,6.2,0,0,0-3.64,3.54c.41.7,1,.41,1.54.41q20.15,0,40.31,0a25,25,0,0,1,3.12.09,2.42,2.42,0,0,1,2.49,2.41A9.41,9.41,0,0,1,794,605c-.19,5.44-.13,10.87,0,16.31a11.75,11.75,0,0,1-.06,1.68c-.22,1.53-.78,2-2.4,2.09-1,0-1.92,0-2.88,0H378.94q-55.56,0-111.12.06-101.15,0-202.31.09a29.06,29.06,0,0,1-4.07-.22c-2.34-.34-3.36-1.49-3.55-3.8a10.48,10.48,0,0,1,0-1.68,94.84,94.84,0,0,0,0-13.9,10.47,10.47,0,0,1,0-1.68,2.65,2.65,0,0,1,2.27-2.7,9.82,9.82,0,0,1,2.86-.21l69.12,0H161a34.94,34.94,0,0,0,3.83-.17,4.39,4.39,0,0,0,4.09-3.48c.34-1.4.67-2.8.89-4.22.52-3.4,1.64-6.5,4.22-8.92a4.47,4.47,0,0,0,1.21-2,65.78,65.78,0,0,1,5.82-12.85c2.06-3.71,4.18-7.38,5.87-11.27a36.18,36.18,0,0,0,3.24-13.67,24.35,24.35,0,0,1,7.11-17.3,10.13,10.13,0,0,0,2.39-4.89c.93-3.72,2-7.42,3.17-11.06a29.66,29.66,0,0,1,4.64-9.14,5.65,5.65,0,0,0,.93-5.43,19,19,0,0,0-5.79-9.5c-7.66-6.42-11.35-14.9-13.07-24.42-1.09-6.06-2-12.15-2.92-18.23a14,14,0,0,0-.54-2.32,2.14,2.14,0,0,0-2.19-1.54,1.8,1.8,0,0,0-2,1.72c0,4.14-2.84,6.62-5.25,9.37a38.8,38.8,0,0,1-4,3.84c-3.33,2.84-6.31,5.9-7.24,10.43a3.35,3.35,0,0,1-2.51,2.37c-1.66.55-3.37,1-5.07,1.42a2.25,2.25,0,0,1-2.18-.71,15.29,15.29,0,0,1-3.65-5,5.92,5.92,0,0,1,0-4.91c3.34-6.95,2.81-14.13,1.35-21.37-.33-1.64-.68-3.28-1-4.93a4.76,4.76,0,0,0-4-4c-3.64-.83-4.12-2-2.41-5.38,1-2,2-4,3.19-5.91,1.29-2.15,1.07-3.1-.82-4.79a9.18,9.18,0,0,1-2-10.07,1.45,1.45,0,0,1,2.65-.32,10.92,10.92,0,0,1,.8,1.73,9.15,9.15,0,0,0,7.17,5.36c.44-.74-.07-1.29-.24-1.83-.65-2.13-1.42-4.23-2.09-6.37a8,8,0,0,1-.52-3,2.32,2.32,0,0,1,1.47-2.27c1.15-.41,1.83.22,2.38,1.09a20.38,20.38,0,0,0,3.56,4.19,8.43,8.43,0,0,0,8.2,2.12,81.77,81.77,0,0,1,8.35-2.15A32,32,0,0,1,193.91,403a57.35,57.35,0,0,1,20.43,13.13,64.92,64.92,0,0,1,9.17,10.75,10.7,10.7,0,0,0,2.74,2.63c2.85,2.1,3,4.06.44,6.5-1.4,1.3-2.18,2.5-1,4.31a1.52,1.52,0,0,1-.25,1.79,4.84,4.84,0,0,1-1,1c-5,3.89-8.63,8.94-11.82,14.36-1.71,2.9-2.32,6.1-2.85,9.34a2.82,2.82,0,0,0,.3,1.86,1.66,1.66,0,0,0,2.79.23,4.37,4.37,0,0,0,.59-1.3,51.64,51.64,0,0,1,13.6-21.7,9.49,9.49,0,0,1,1.46-1.24,1.92,1.92,0,0,1,2.61.3,1.73,1.73,0,0,1,.19,2.38q-2.82,4.74-5.6,9.5c-3.49,6-6.37,12.17-7.58,19a7.46,7.46,0,0,0,.34,4.46c.85.08,1-.65,1.34-1.15a19.36,19.36,0,0,0,1.85-4.41,23,23,0,0,1,2.31-4.73,1.46,1.46,0,0,1,2.82.62c.12,1.51.15,3,.2,4.55a14.85,14.85,0,0,0,.44,3.57c.24.84.72,1.47,1.71,1.28s1-.94,1-1.67a66,66,0,0,1,.1-9.11A108,108,0,0,1,233.82,449c.56-2.13,3.56-3.16,5.5-2,1,.6.74,1.56.57,2.39-.57,2.74-.88,5.52-1.18,8.3a48.3,48.3,0,0,0,3,23.31,8.15,8.15,0,0,0,.5,1.08,1.49,1.49,0,0,0,2.08.59c.8-.36.9-1,.61-1.8a51.33,51.33,0,0,1-2.32-12,47.5,47.5,0,0,1,2.25-19.63c.37-1.13.73-2.28,1.13-3.4a2.87,2.87,0,0,1,2.89-2.09c1.86,0,2.48.7,2,2.51-2.13,8.16-1.34,16.17,1.11,24.11.32,1.07.64,2.14,1,3.19a2.89,2.89,0,0,0,2.8,2.3,36.73,36.73,0,0,0-.32-5.49c-.46-5.5-1.28-11-1.23-16.5a64.17,64.17,0,0,1,1-9.29c.38-2.4,1.93-3.61,4-4.33s3,.23,2.88,2.33a65.26,65.26,0,0,0,1.8,20.46,12.34,12.34,0,0,0,3.1,6c1.16-.91,1.09-2,.9-3.22a124.23,124.23,0,0,1-1.48-16,44,44,0,0,1,.75-9.3,4.36,4.36,0,0,1,2.67-3.44c1.47-.61,2-.41,2.64,1a11.25,11.25,0,0,0,.51,1.34c.58,1,1.33,1.22,2.17.48,4.21-3.66,9.43-4.91,14.61-6.3,1.85-.49,3.66-1.1,5.5-1.66a2.42,2.42,0,0,0,1.44-1c-2.74-2.15-5.74-2.32-8.89-1.78-.31,0-.6.19-.91.27-3.54.95-4.56.4-5.46-3.24-5.12-20.91-4.8-41.5,3.62-61.61a76.25,76.25,0,0,0,3-9.59,4.24,4.24,0,0,0-.75-3.85c-1.3-1.7-2.82-1.75-4.16-.09-1.06,1.31-2.09,2.62-3.25,3.85-3.44,3.61-7.5,5.67-12.62,5.08a5.75,5.75,0,0,0-3.83,1.12c-1.07.69-2.12,1.43-3.2,2.12a11.57,11.57,0,0,1-6.79,2,13.07,13.07,0,0,0-2.87.18c-2.69.5-4.2,1.92-4.39,4.64-.14,2-1.25,2.78-2.8,3.41a6.93,6.93,0,0,1-2.34.48,16.14,16.14,0,0,1-10.55-3.26,7.78,7.78,0,0,1-3.16-4.65,51.54,51.54,0,0,0-1.32-5.1,4.43,4.43,0,0,1,1.23-5.15c2.42-2.43,4.64-5.08,6.85-7.71,5.58-6.65,10.5-13.71,13.67-21.87a54.52,54.52,0,0,0,3.29-13,4.79,4.79,0,0,0-2.21-5.14,14.8,14.8,0,0,1-1.37-1c-1.45-1.23-1.45-2.42.17-3.47s3.61-2,5.42-3.08c4.36-2.5,4.8-3.48,3.64-8.33a23.58,23.58,0,0,1-1-7.56,7.68,7.68,0,0,1,.56-2.56,2.12,2.12,0,0,1,1.83-1.35,1.84,1.84,0,0,1,1.88,1.22c.41.87.67,1.8,1.05,2.68,1.39,3.22,3.2,6.09,6.55,7.63a4.27,4.27,0,0,0,.67.27,1.85,1.85,0,0,0,.56,0c.54-1,0-2-.4-2.87-.51-1.09-.84-2.25-1.34-3.32-1.35-2.86-.37-5.46.6-8.09a3.14,3.14,0,0,1,.83-1.16c1.21-1.12,2.63-.87,3.24.67a26.71,26.71,0,0,0,2.09,4.55c3.28,5.16,7.88,7.78,14,7.58C315,289,339.16,309,344.4,336.79a73.17,73.17,0,0,1,1,13.14,16.49,16.49,0,0,0,3.16,10.1c1.72,2.3,1.08,4.13-1.58,5.34-.87.4-1.79.7-2.62,1.18-1.95,1.13-2.39,2.61-1.4,4.66.42.86,1,1.61,1.49,2.46.81,1.5.53,2.31-1,3.05a14.13,14.13,0,0,1-1.58.57,71.14,71.14,0,0,0-35.72,26.65,43.1,43.1,0,0,0-4,7.1,10.23,10.23,0,0,0-.5,1.34,1.74,1.74,0,0,0,.92,2.23c.86.42,1.53-.11,2.05-.79s.86-1.15,1.3-1.72a118.29,118.29,0,0,1,23.81-23.54A57.48,57.48,0,0,1,344,380.78a8,8,0,0,1,3-.72c2.43.07,3.8,1.94,2.95,4.24a113.25,113.25,0,0,0-5.17,19.42,165.12,165.12,0,0,0-2.11,33.46,5.41,5.41,0,0,0,.65,2.53c1,1.8,2.37,1.86,3.48.15a7.71,7.71,0,0,0,1.17-4.34c0-3.28-.05-6.56,0-9.84a116.44,116.44,0,0,1,6.71-37.83c1.15-3.11,3.34-3.84,6.16-2a2.61,2.61,0,0,1,1.14,2.71c-.15,1.43-.4,2.85-.59,4.27-1.94,14.42-.93,28.73,1.53,43a15.83,15.83,0,0,0,1,3.44,1.94,1.94,0,0,0,2.44,1.4c1.25-.36,1.09-1.34,1.07-2.33-.21-12.87-1.11-25.73-.82-38.61.09-3.68.71-7.32.49-11-.08-1.34.63-2,2-2.27,2.85-.63,4.39.41,5.11,3.57,1.17,5.14,2.26,10.3,3.41,15.44,1.23,5.54,2.51,11.07,3.72,16.61a7.81,7.81,0,0,0,1.58,3.44,2.14,2.14,0,0,0,2.53.88c1.13-.42,1-1.38.83-2.23-1.47-8.2-1.5-16.56-2.85-24.77a67.19,67.19,0,0,0-1.88-8.41,11.47,11.47,0,0,1-.61-2.8,3.21,3.21,0,0,1,2.13-3.4,7.82,7.82,0,0,1,1.81-.59c3.15-.51,5.57-.82,6.39,4.18,1.05,6.38,2.42,12.71,3.68,19.06.55,2.77,1.39,5.43,3.48,7.49,1.08,1.06,1.78.9,2.13-.57a9.44,9.44,0,0,0,.13-2.38c-.28-8.72-.81-17.41-2.86-25.94a7.71,7.71,0,0,1-.22-1.66,2.28,2.28,0,0,1,1.93-2.62,17.38,17.38,0,0,1,2.59-.48c2.78-.37,3.84.43,4.28,3.17.31,2,.58,4,1,5.91a34.72,34.72,0,0,0,3.46,9.67,10.71,10.71,0,0,0,1.19,1.79,1.65,1.65,0,0,0,2.17.42c.75-.4.72-1.11.57-1.88-1.05-5.34-1.47-10.77-2.18-16.15-.45-3.38.32-4.46,3.61-5.36,1.54-.43,3.11-.73,4.66-1.13.92-.23,1.84-.51,2.75-.83,4.88-1.68,6.33-3.7,5.78-8.76-.41-3.74-.63-7.47-.7-11.23a29.82,29.82,0,0,0-6.29-17.54,55.54,55.54,0,0,0-8.42-8.85c-3-2.62-6.18-5.07-9.4-7.44-4.75-3.5-10.27-5.07-15.94-6.25a36.51,36.51,0,0,1-4.19-1c-3.21-1.06-4.36-2.82-3.9-6.2a22.11,22.11,0,0,1,2.92-9.07c2.75-4.27,2.93-8.68,1.23-13.29a28.91,28.91,0,0,0-1.74-3.94c-.87-1.55-1.75-1.6-3-.29-.83.86-1.57,1.81-2.4,2.67A7.42,7.42,0,0,1,376,287a2.27,2.27,0,0,1-3.58-1.71,24.71,24.71,0,0,1-.07-3.11c-.05-3-2.43-4.4-5.11-2.92a21.75,21.75,0,0,0-1.94,1.41,20.67,20.67,0,0,1-2.36,1.63c-1.86,1-3.07.5-3.67-1.51a23.62,23.62,0,0,1-.68-5.69,18.17,18.17,0,0,0-.7-5.75c-1.13,1.35-2.15,2.59-3.19,3.81a34.89,34.89,0,0,0-3.68,4.73,10.29,10.29,0,0,0-1.73,4.92c0,.89-.09,1.87-1.16,2.14-1.25.31-1.93-.53-2.44-1.49a35.74,35.74,0,0,1-3-8.06c-.83-3.26-1.28-6.59-1.86-9.9,0-.29-.13-.58-.23-1a8.83,8.83,0,0,0-4,4.14c-.71,1.25-1.26,2.59-2,3.8-1,1.62-2,1.63-3.14.06-2.5-3.58-2.79-7.57-2-11.71.41-2,.94-4,1.41-6.07.11-.44.44-1-.14-1.26a1.45,1.45,0,0,0-1.58.23,1.91,1.91,0,0,0-.73,1.21c-.68,3.75-2.89,6.71-5,9.7-1.73,2.42-3.49,4.83-4.18,7.76a24.08,24.08,0,0,1-1.87,4.64c-.44.94-1,1.66-2.17,1.48a2.28,2.28,0,0,1-1.9-1.9,17.24,17.24,0,0,1-.19-5.73c.09-1.75.24-3.51.4-5.26.07-.75.14-1.48-.66-1.88a1.88,1.88,0,0,0-2.2.45,26.08,26.08,0,0,0-2,2.06c-.91,1-1.79,2-2.8,3.17a6.44,6.44,0,0,1-1.55-4.18c-.43-4.65,1.4-8.43,4.67-11.58a16.53,16.53,0,0,1,7.7-4.18c1.86-.45,2.31-1.35,1.79-3-.41-1.25-.95-1.6-2.15-1.12s-2.42,1.22-3.62,1.84c-1.44.75-2.47.22-2.72-1.4a8.12,8.12,0,0,1,.68-3.73,8.58,8.58,0,0,0,.83-2.89,4.45,4.45,0,0,0-4.53,2.47,17.53,17.53,0,0,0-1.28,3.6,25.79,25.79,0,0,1-6.31,11.42c-.85.85-1.51,1.16-2.67.55-1.89-1-3.57-.42-4.93,1.12-1,1.07-1.77,2.27-2.77,3.31s-2,2.16-3.44,1.82c-1.61-.37-1.56-2.07-1.86-3.34-1-4.33-.16-8.57.69-12.81.08-.4.25-.77.3-1.16.23-1.54-.39-2.43-1.89-2.37-2.57.1-4.69,1.42-6.71,2.87a1.76,1.76,0,0,0-.49,2c.21.74.84.89,1.51.93a7.53,7.53,0,0,1,1.43.1c1,.25,1.3.8.76,1.75-2.91,5.06-5.82,10.11-8.81,15.12-1,1.6-1.89,1.49-2.73-.22a18.08,18.08,0,0,1-.94-2.71c-.28-.92-.51-1.85-.77-2.77a2.9,2.9,0,0,0-.3-.46c-1.86.7-3.12,2.15-4.43,3.53-1.7,1.8-3.31,3.69-5.19,5.32-2.64,2.29-3.74,2.23-6-.37l-1.28-1.52a7.67,7.67,0,0,0-2.11,4.26,64,64,0,0,1-2.08,6.37c-.4,1.1-1,2.08-2.31,2.14a3.07,3.07,0,0,1-3-1.66,25.44,25.44,0,0,1-1.18-2.61,9.13,9.13,0,0,0-1.31-2.56c-1.87,1.12-2.77,2.9-3.6,4.72-.69,1.53-1.3,3.09-2,4.63a12,12,0,0,1-.91,1.69c-1,1.45-1.59,1.54-2.89.47-2.63-2.16-2.64-2.16-4.53.8-1.55,2.42-3.26,4.76-3.77,7.69-.17,1-.82.84-1.42.42a2.73,2.73,0,0,1-.76-.89,11.2,11.2,0,0,1-.54-1.33c-1.59-3.93-2.73-4.11-5.59-.88-2.4,2.7-4.28,5.78-6.45,8.65-.65.86-1.12,2.22-2.46,1.95s-1.43-1.8-1.67-2.92c-1.08-5.05,2.34-12.12,6.95-14.48a9.08,9.08,0,0,1,5.11-1,4.13,4.13,0,0,0,4.3-2.4,63.14,63.14,0,0,0,3.36-6.68c-2.05-.56-3.61.22-5.07,1.2s-2.56,1.92-3.86,2.85a14.8,14.8,0,0,1-1.46.82c-.78.42-1.22.14-1.34-.69a7.45,7.45,0,0,1,.14-2.62c.18-.79.42-1.62-.35-2.21a2.19,2.19,0,0,0-2.7.12,22.19,22.19,0,0,0-4.93,4.84c-.24.32-.42.68-.65,1-.5.75-1.05,1.5-2.11,1.2a2.43,2.43,0,0,1-1.8-2,8.13,8.13,0,0,1,0-1.91,9.84,9.84,0,0,1,.34-1.4c2.28-8.49,6.46-11.61,15.25-11.37,2.71.07,5.42.35,8.1-.45a16.94,16.94,0,0,0,10.35-8,1.11,1.11,0,0,0,.18-1.06c-4.36-1.15-7.91,2.11-12.3,2.57,2.4-5.24,5.67-9.23,11-11.26a71.12,71.12,0,0,1,11.6-2.92c1.33-.27,2.67-.52,4-.8.84-.17,1.57-.55,1.54-1.54a1.8,1.8,0,0,0-1.69-1.73,11.55,11.55,0,0,0-4.49.48c-1.84.39-3.65,1.08-5.7.58a6.22,6.22,0,0,1,1.7-3.19,16.81,16.81,0,0,1,15.07-6.28,12.77,12.77,0,0,1,4.94,1.71c2.73,1.47,3.75,1.32,6-.81a21.24,21.24,0,0,1,4.69-3.3,7.54,7.54,0,0,0,2.34-1.4c-1.5-.8-3.15-.51-4.65-.94-.69-.2-1.42-.24-2.12-.41s-1.66-.45-1.78-1.36.74-1.33,1.48-1.65c.51-.22,1-.39,1.57-.58l3.59-1.34c1-.38,2.05-.74,1.83-2.12-.17-1.06-1-1.49-2.7-1.29a23.52,23.52,0,0,0-6.53,1.46c-1.55.65-3.07,1.35-4.62,2a5.68,5.68,0,0,1-2.33.83,9.29,9.29,0,0,1,1.48-6.56,16,16,0,0,1,18.29-7,12.38,12.38,0,0,0,8.17.15,15.08,15.08,0,0,1,10.8.48,24.52,24.52,0,0,0,10.52,1.91,54.52,54.52,0,0,0,6.95-.36,4.49,4.49,0,0,0-3.42-2,27.93,27.93,0,0,0-5.24-.58c-1.87,0-2.12-.42-1.61-2.16s.56-1.84-1.42-2.12c-3-.43-6-1-9-1.3s-6.05-.4-9.08-.58c-.4-.69.19-1.06.5-1.46,4.33-5.76,13.44-8.92,20.44-7.07A9.91,9.91,0,0,1,305,195c3.37,3.87,7.41,4.32,12,2.61.38-.14.76-.25,1.13-.4a4.7,4.7,0,0,0,.52-.34c-.54-1.19-1.69-1.31-2.74-1.5s-1.9-.2-2.85-.32a1.57,1.57,0,0,1-1.55-1.26,1.81,1.81,0,0,1,.72-1.91,8.58,8.58,0,0,1,1.24-.73c5.43-2.6,11-4.64,17.12-5.13.23,0,.47-.08.71-.11.81-.07,1.7-.1,1.71-1.22s-.78-1.35-1.58-1.53c-3.35-.75-6.71-1.46-10.07-2.17a3.93,3.93,0,0,1-1.9-.65,10,10,0,0,1,6.62-4.63,53.44,53.44,0,0,1,10.26-.85c1.58,0,3.17,0,4.86,0a6.18,6.18,0,0,0-1.21-2.74,50.16,50.16,0,0,1-3.61-7c-.92-2.58,0-3.8,2.71-3.25a18.09,18.09,0,0,1,9.55,4.67c2.55,2.54,5.25,4.91,7.92,7.34a11.77,11.77,0,0,0,1.92,1.42,3.34,3.34,0,0,0,3.63-.09A2.67,2.67,0,0,0,363.2,172a34.22,34.22,0,0,1-.61-5.23c-.16-1.91,1.12-2.81,2.89-2a9.57,9.57,0,0,1,2,1.35L379.53,176c1.93,1.58,2.47,1.81,4.74,1.86,0-.89-.71-1.39-1.16-2-2-2.8-4-5.56-6.06-8.35a11.91,11.91,0,0,1-2.15-4.26c-.66-3,1-4.4,3.9-3.59A28.38,28.38,0,0,1,388,164.1c1.1.8,2.18,1.63,3.34,2.33,1.65,1,2.63.63,3.38-1.15.18-.44.23-.93.38-1.38.55-1.67,1.75-2,3.07-.83a6,6,0,0,1,1.47,2.71c1.66,4.58,3.27,9.18,4.93,13.76a9.45,9.45,0,0,0,1,2.15,1.94,1.94,0,0,0,2.58.53c.95-.42,1.25-1.23.76-2.41s-1.25-2.58-1.9-3.87c-1-1.92-2-3.84-2.92-5.77-.28-.57-.49-1.18-.72-1.78a2.07,2.07,0,0,1,.95-2.68c.95-.6,1.78-.41,2.69.71,2.13,2.6,4.47,5,6.81,7.41a19.24,19.24,0,0,0,2,1.75c.55.44,1,.36,1.22-.41a7.71,7.71,0,0,0-.18-4.26,19.48,19.48,0,0,1-.84-5.19c0-2,.67-2.57,2.66-2.24.55.1,1.09.25,1.63.38,1.64.41,1.95.19,1.86-1.57-.05-1.12-.29-2.23-.29-3.34,0-2.46,1.64-3.63,4-2.88a6,6,0,0,1,1.7.86c2.62,1.84,5.44,3.38,7.88,5.47a10.7,10.7,0,0,0,1.16.84,1.34,1.34,0,0,0,2.17-.59c.33-.64.5-1.35.84-2,.74-1.36,1.51-1.5,2.67-.44a14.06,14.06,0,0,1,3.47,5.4c.79,2,1.55,4,2.3,6.05a6,6,0,0,0,1.82,2.77c.54.43,1,.4,1.23-.39a8.57,8.57,0,0,0,.19-2.62c-.17-3.28-.24-6.56-.11-9.84a26.73,26.73,0,0,1,.38-3.33,3.28,3.28,0,0,1,2.44-3c1.59-.39,2.61.49,3.41,1.66,1,1.44,1.88,3,2.86,4.43A18.57,18.57,0,0,0,462,163.7c1.11,1.21,2,1.4,3.39.52s2.87-2,4.26-3.11a22.93,22.93,0,0,1,11.53-5,21.27,21.27,0,0,1,6,.4,3.28,3.28,0,0,1,1.11.43,1.54,1.54,0,0,1,0,2.85c-1.18.67-2.48,1.14-3.65,1.81-2.14,1.25-2.76,2.66-1.56,4.79,1.44,2.57,1.23,5,.36,7.6a13,13,0,0,0-1,4.78,4.57,4.57,0,0,0,2.39-.93,14.78,14.78,0,0,0,3.79-3.3c1-1.23,2-2.49,3-3.74,1.7-2.09,2.06-2.06,3.26.25.44.85.86,1.72,1.38,2.52,1.18,1.84,2.05,2.09,4,1,1.33-.72,2.57-1.6,3.86-2.42A15,15,0,0,1,524,175.47c-.93,1.26-2.38,1.7-3.76,2.22a20.79,20.79,0,0,0-5.8,2.82c-.83.66-1.68,1.31-1.12,2.58.47,1.08,1.2,1.35,2.83,1a44.18,44.18,0,0,0,7.28-2.36,24.6,24.6,0,0,1,9.35-1.83c.56,0,1.12,0,1.68,0a2.19,2.19,0,0,1,1.89,1.61,1.82,1.82,0,0,1-.72,2.12c-.67.57-1.43,1-2.11,1.58q-4.71,3.92-9.38,7.86c-.61.51-1.34,1-.74,2s1.34,1,2.49.26,2.46-1.79,3.66-2.72a48.42,48.42,0,0,1,8.84-5.72,21.93,21.93,0,0,1,12.34-2.22,1.56,1.56,0,0,1,1.11.37c.1,1.07-.64,1.74-1.25,2.46-1,1.16-2,2.29-2.94,3.48a2.1,2.1,0,0,0-.17,2.67c.64.93,1.47.63,2.36.39s1.74-.89,2.67-.37c.33.49,0,.83-.1,1.19-.51,2.06-.07,2.6,2.1,2.49,1.76-.08,3.51-.24,5.27-.32a2,2,0,0,1,2,.94c.46.87,0,1.5-.52,2.17-1,1.5-2.11,3-3.08,4.57a4.19,4.19,0,0,0-1,2.92,3.11,3.11,0,0,0,3.68-1c2.26-2.57,5.23-3.89,8.32-5a21.9,21.9,0,0,0,6.13-3.21c1.37-1.07,2-.82,2.63.83a5.7,5.7,0,0,1,0,4.22c-.21.52-.45,1-.65,1.54-1,2.57-.12,4,2.67,4.2a19.21,19.21,0,0,0,4.54-.25c3.08-.47,5.85.61,8.56,1.81,1.69.75,2,2.35,1,4a6.26,6.26,0,0,1-5.19,3c-4.1.28-7.14,2.58-10.19,4.92-.57.44-1.12,1-.68,1.83a1.61,1.61,0,0,0,2,.89,32.37,32.37,0,0,0,3.43-1.07,85.87,85.87,0,0,0,10.21-4.74c2.7-1.41,3-1.38,4.53,1.18a4.22,4.22,0,0,0,3.46,1.81,36,36,0,0,1,8.78,2.32,12.77,12.77,0,0,1,3.1,1.79,2,2,0,0,1,.73,2.15c-.17.9-.9,1-1.62,1.13-3.15.55-6.3,1.1-9.45,1.67a6.2,6.2,0,0,0-1.6.43c-1.11.56-1.27,1.53-.32,2.27,3.9,3.05,8.12,4.45,12.93,2.23a27.82,27.82,0,0,1,5.14-2,19.88,19.88,0,0,1,11.76,1,29.83,29.83,0,0,1,5,2.36,10,10,0,0,1,1.56,1.1,2.06,2.06,0,0,1,.54,2.2c-.21.84-.9,1.06-1.65,1.14-1.19.13-2.39.24-3.58.38a12.07,12.07,0,0,0-5.25,1.45c-.08.85.64,1.07,1.06,1.48a20.82,20.82,0,0,1,5.73,9.81,10.09,10.09,0,0,1,.32,1.4c.2,2-.54,2.65-2.5,2.3a23.54,23.54,0,0,1-4.09-1.33c-1.72-.66-3.43-1.34-5.14-2-.19-.11-.41-.25-.58,0S622.6,256.33,622.8,256.46ZM416.13,504.84a9,9,0,0,1,.64,4.17,62.61,62.61,0,0,1-4.32,15.91c-2,4.88-4.14,9.7-6.24,14.53a15.66,15.66,0,0,0-.47,11.91c4.23,11.81,7.75,23.85,11.55,35.8a5.94,5.94,0,0,1,.31,1.15,1.65,1.65,0,0,1-2.21,2,5.32,5.32,0,0,1-1.53-.67c-2.93-1.77-6.07-3.2-8.72-5.45-1.19-1-2.52-.43-2.83,1.1a3.84,3.84,0,0,0,.22,1.65A19,19,0,0,0,419.69,601c4.15.15,8.31-.18,12.47.16a1.75,1.75,0,0,0,2-1,2,2,0,0,0-.42-2.22,17.22,17.22,0,0,0-1.45-1.24c-1.55-1.27-3.14-2.49-4.62-3.82a13.66,13.66,0,0,1-4.19-6.32c-3.25-11-6.43-22.09-8.9-33.33a26.51,26.51,0,0,1,3.77-20.86c1.78-2.76,3.38-5.62,4.88-8.54a169.47,169.47,0,0,0,10.57-26.7,9.88,9.88,0,0,1,6.44-6.83c8.7-3.2,17.14-7,25.57-10.87a89.57,89.57,0,0,0,17.26-9.84,47.32,47.32,0,0,0,8.66-8.25c5.15-6.51,7.42-20.79-.86-29.29a10.76,10.76,0,0,1-2-3c-1.79-3.86.62-9.74,5.18-10.27a16.39,16.39,0,0,1,6.17.56c10.56,2.81,21.22,5.28,31.7,8.42.84.25,1.62.42,2.1-.46a1.91,1.91,0,0,0-.33-2.42,6.41,6.41,0,0,0-2.47-1.43c-2.32-.86-4.65-1.72-7-2.53-2.87-1-5.78-1.88-8.62-2.94s-5.32-3.06-6.16-6.25a8.07,8.07,0,0,0-5.18-5.54,23.18,23.18,0,0,0-15-1.05c-8.17,2.08-14.52,6.56-18.14,14.38-2.73,5.91-1.89,11.35,2.51,16.19a35,35,0,0,1,3,3.47,10.56,10.56,0,0,1,1.83,7.74,7.31,7.31,0,0,1-8.54,6.15,3.23,3.23,0,0,1-2.42-1.79,10,10,0,0,1-.83-2.23c-.75-3.52-3-5.51-6.34-6.5a33.43,33.43,0,0,0-9.47-1.28,63.75,63.75,0,0,0-20.94,3.52c-16.45,5.59-29.79,15.6-40.66,29-9.88,12.15-16.33,25.9-18.55,41.5a17.37,17.37,0,0,0,.22,7.14c.19.68.34,1.23,1.26.9,2.33-.8,4.44-1.89,5.56-4.23a21.76,21.76,0,0,1,8.48-8.92c3.65-2.31,7.62-4.05,11.18-6.52a2,2,0,0,1,2.83.11c.82.86.52,1.76.06,2.65a96.13,96.13,0,0,1-8.79,14.56,85.64,85.64,0,0,1-15.35,15.44,8.54,8.54,0,0,0-3.72,7.58,83.65,83.65,0,0,1-1.09,16.73,247.66,247.66,0,0,1-9,37.7c-.46,1.44-.2,2,1.27,2.52,2.55.84,5.58.56,6.47-3.5,2.76-12.56,5.68-25.08,8.62-37.6,1.2-5.12,2.22-10.31,4.22-15.22a20.77,20.77,0,0,1,7.6-9.64,54.77,54.77,0,0,0,10.58-9.71,135.61,135.61,0,0,0,13-18.4C414.52,506,414.85,505.1,416.13,504.84Zm-169,60.48a60.9,60.9,0,0,0-.68-8c-1-7.94-2.64-15.75-4.22-23.57-.48-2.34-.44-4.88-1.63-7A46.39,46.39,0,0,1,236,514a16.66,16.66,0,0,0-7.44-10.22c-2.64-1.75-4.69-1-5.49,2a28.69,28.69,0,0,1-7.38,12.43c-1.87,2-3.81,3.88-5.61,5.91a17.69,17.69,0,0,0-4.35,7.9,63,63,0,0,1-7.78,18.71c-1.74,3-3.5,5.92-5.16,8.92a51.88,51.88,0,0,0-6.3,17.73c-.79,5.56-3.25,10.15-8.49,12.87-1.95,1-2.42,2.87-2.24,4.91.12,1.27.31,2.54.5,3.8.32,2.12,1,2.69,3,2.34a19.58,19.58,0,0,1,3.33-.25q20.63,0,41.26,0c3.43,0,6.87.17,10.3.28a8.1,8.1,0,0,0,8.23-5c.2-.44.42-.86.61-1.3.54-1.25,1.27-2.6.07-3.78-1-1-2.24-.25-3.36.12-5.29,1.77-10.49,3.88-16.1,4.53a5.42,5.42,0,0,1-2.83-.19,2,2,0,0,1-.84-3.46c.57-.66,1.3-1.19,1.86-1.86a43.55,43.55,0,0,1,14.87-11.1c.63-.3,1.41-.41,1.78-1.14-4.52-2.56-7.47-2.27-11.35,1-1.58,1.35-3.18,2.67-4.87,3.89-8.54,6.18-18.21,9.47-28.55,11a2.12,2.12,0,0,1-2.17-.63c-.67-.83-.33-1.67.11-2.46,4.86-8.72,11.39-15.37,21.63-17.45a4.37,4.37,0,0,0,3.35-2,2.39,2.39,0,0,0-1.06-1,25.9,25.9,0,0,0-4.83-2.11,25.81,25.81,0,0,1-4.33-2,1.68,1.68,0,0,1,.64-3.22,21.27,21.27,0,0,1,2.88-.07,22.8,22.8,0,0,0,8.2-1.41c7.67-2.81,15.29-3.12,22.74.8,1.27.67,2.55,1.32,3.85,1.94A4.68,4.68,0,0,0,247.08,565.32ZM640.17,412.64a33.27,33.27,0,0,0-8.31.94c-11.62,3-20.71,9.76-28.06,19a40.42,40.42,0,0,0-8,16.21,14.46,14.46,0,0,0-.42,3.07,1.74,1.74,0,0,0,1.35,1.77,1.78,1.78,0,0,0,2.1-.72,7.29,7.29,0,0,0,.72-1.24c.93-1.86,1.84-3.72,2.76-5.59a10.22,10.22,0,0,1,3.67-4.33,2.64,2.64,0,0,1,3.14,0,2.37,2.37,0,0,1,.93,2.94c-.34,1.07-.71,2.12-1,3.2A59.23,59.23,0,0,0,607.41,460a69.74,69.74,0,0,0,2,22.34,9,9,0,0,0,1,2.66,2.68,2.68,0,0,0,3.13,1.18c1.16-.39,1.22-1.38,1.18-2.36a34.18,34.18,0,0,1,.52-5.72c.36-3,2.9-4.5,5.79-3.67a6,6,0,0,1,3.34,2.59,36,36,0,0,1,3.53,6.52,68.26,68.26,0,0,0,7.43,13.67c3.47,5,7.05,9.89,10.59,14.83a8.86,8.86,0,0,0,.59.75,2.3,2.3,0,0,0,2.78.8c1.13-.48,1.08-1.46,1-2.43a22.61,22.61,0,0,0-2.69-9.37,17.25,17.25,0,0,1-1.17-2.36,2.62,2.62,0,0,1,2.27-3.68,3.6,3.6,0,0,1,3.43,1.29,28.27,28.27,0,0,1,3.81,5.22c1.76,3.14,3.51,6.28,5.29,9.41a48.07,48.07,0,0,0,3.38,5.23,12,12,0,0,0,7.62,4.59,1.79,1.79,0,0,0,1.86-2.94,16.83,16.83,0,0,0-1.67-1.71,20.63,20.63,0,0,1-6-9.64,72,72,0,0,0-5-12.68,126.29,126.29,0,0,0-10.77-17.28c-7.24-10-11.1-21-9.07-33.54.38-2.38-.06-3.17-1.47-3.51s-2.18.29-3,2.39a31.92,31.92,0,0,0-2,15.54,33.42,33.42,0,0,0,1.15,6.11c.29.95.3,1.93-.85,2.44a2.51,2.51,0,0,1-2.91-.3,3.84,3.84,0,0,1-1.06-1.57c-.34-.9-.71-1.79-1-2.71a50.12,50.12,0,0,1-1.54-13.53,10.35,10.35,0,0,0,0-1.67,2.11,2.11,0,0,0-1.7-2.05A1.86,1.86,0,0,0,625.2,446a9.55,9.55,0,0,1-2,2.68,1.92,1.92,0,0,1-3.3-.6,2.8,2.8,0,0,1-.07-2.32,23.34,23.34,0,0,1,1.84-4.41c3.82-6.37,8.76-11.59,15.54-14.88a12,12,0,0,0,1.06-.56,1.65,1.65,0,0,0,.88-2.21,2,2,0,0,0-2.1-1.26,6.65,6.65,0,0,0-2.49.82c-3.07,1.53-6.14,3.08-9.21,4.62a6.54,6.54,0,0,1-2.22.86,1.8,1.8,0,0,1-2-1,1.72,1.72,0,0,1,.28-2c.32-.36.68-.68,1-1,4.54-4.59,10.23-6.67,16.45-7.63a32.36,32.36,0,0,1,6.45-.37c.87,0,1.82,0,2.08-1.16a2.08,2.08,0,0,0-1.52-2.39,6.48,6.48,0,0,0-1.63-.34C642.89,412.75,641.53,412.71,640.17,412.64ZM271.51,490.91c0-.73,0-1.21,0-1.69a1.81,1.81,0,0,0-1.13-1.92,2.17,2.17,0,0,0-2.45.43,16.51,16.51,0,0,0-1.11,1.25c-1.94,2.33-3.85,4.7-5.83,7a22.67,22.67,0,0,1-7.67,6c-2.4,1.09-2.61,1.6-1.83,4.07.24.76.54,1.51.79,2.26a21.19,21.19,0,0,1,1,9.21c-.26,2.06-.5,4.13-.68,6.19a33.62,33.62,0,0,0,2.07,15.77,11.68,11.68,0,0,1,.45,6.35c-.06.39-.24.76-.31,1.15-.31,1.68-1.34,3.54.35,4.93,1.53,1.27,3-.11,4.46-.62a13.37,13.37,0,0,1,4.86-1.12c6.3.17,10.9-2.72,13.94-8.09a74.55,74.55,0,0,0,6.82-16.31,12.22,12.22,0,0,0-2.64-11.86,59.51,59.51,0,0,0-5.13-5,28.54,28.54,0,0,1-4.89-5.57,11.28,11.28,0,0,1-1.49-9.62A5.61,5.61,0,0,0,271.51,490.91ZM435.67,280.72c-1.8,1.3-2.18,3-2.78,4.54a2.31,2.31,0,0,1-2.26,1.79,2.93,2.93,0,0,1-2.77-1.58,8.39,8.39,0,0,1-.62-2.05,7.64,7.64,0,0,1-.08-1.44c-.29-8.88-.59-17.76,3.12-26.16a1.37,1.37,0,0,0-.85-1.94,2.51,2.51,0,0,0-3.22.75,6.06,6.06,0,0,0-1.1,2.37c-.77,2.94-1.56,5.86-2.35,8.79a9.25,9.25,0,0,1-.56,1.83c-.65,1.26-1.7,1.39-2.69.38-.23-.22-.36-.53-.58-.76a19.85,19.85,0,0,1-2.9-4.92c-.94-1.85-2.41-2-3.86-.53-1,1-1.05,1.87-.07,3.47,1.25,2,2.58,4,3.93,6a45.76,45.76,0,0,1,3.54,5.69,12,12,0,0,1,1.12,8.38,8,8,0,0,0,1.21,6.79c4.12,6.42,5.49,13.53,4.94,21.08-.18,2.55-.62,5.07-.91,7.61a9.52,9.52,0,0,0,3.24,8.83,4.68,4.68,0,0,0,5.17.74c1.76-.78,2-2.42,1.83-4.07a20.07,20.07,0,0,1,2.11-10.45,57.14,57.14,0,0,1,4.84-8.81c1.3-1.91,2.72-3.75,4.08-5.62,1.52-2.09,1.51-3.63-.08-5.66-.69-.87-1.47-1.68-2.25-2.49-1.12-1.16-1.41-1.17-2.46.06s-1.72,2.31-2.66,3.39-1.76.92-2.52-.22a6.6,6.6,0,0,1-.49-1.08,15.65,15.65,0,0,1-1.09-6.8A54.92,54.92,0,0,0,435.67,280.72ZM418.08,307a15.84,15.84,0,0,0-1.21-7.59c-4.18-9.77-11.18-17-20.32-22.24a3.57,3.57,0,0,0-4.24.28c-1.09.81-2.15,1.66-3.24,2.47a2.52,2.52,0,0,0-1,3.5,6.23,6.23,0,0,0,1.42,1.91,9.84,9.84,0,0,1,2.29,9.58c-.38,1.54-.9,3.06-1.42,4.57a21.75,21.75,0,0,0-1.26,5.34c-.21,2.78.47,3.92,3.11,4.55a101.2,101.2,0,0,1,14.67,5.14,38.91,38.91,0,0,0,5.62,2c2.53.6,3.77-.08,4.57-2.55A23.06,23.06,0,0,0,418.08,307ZM669.76,432.83a9,9,0,0,0,1.28,0c1.16-.16,2.66.15,3.23-1.08.67-1.42-.65-2.36-1.53-3.21-3-2.91-6.84-3.2-10.73-3a3.33,3.33,0,0,0-2.93,2.5,32.76,32.76,0,0,1-4.44,8.18c-1.63,2.23-1.34,4.06.75,5.91a21.87,21.87,0,0,0,2.51,1.84,77.66,77.66,0,0,0,8.81,4.84c2.09,1,4.21,1.94,6.29,3,2.8,1.38,4.6,3.42,4.25,6.8a6.23,6.23,0,0,0,.08,1.67,4,4,0,0,0,3.76,3.75,18.67,18.67,0,0,0,5.73-.09c2.48-.48,3.54-1.68,3.83-4.21.07-.55,0-1.13.12-1.67.29-1.35,1-1.71,2.25-1.1a11.87,11.87,0,0,1,1.61,1,5,5,0,0,0,3.65.86,3,3,0,0,0,2.78-1.95c.44-1.4-.66-2.06-1.61-2.61a31.3,31.3,0,0,1-6.73-5.73,109.8,109.8,0,0,0-9.45-8.85,10.51,10.51,0,0,0-2.37-1.6c-2.19-1-3.56-.51-4.73,1.58-1.27,2.29-2,2.56-4.12,1.11a6.39,6.39,0,0,0-4.79-1c-.71.11-1.42.24-2.13.31a2.08,2.08,0,0,1-2.32-.83,2.28,2.28,0,0,1,.12-2.69C664.61,434.17,666.53,432.18,669.76,432.83ZM313.83,522.15c0-.36-.09-1-.2-1.63A18.63,18.63,0,0,0,306.86,509c-1.66-1.38-3.42-2.63-5.12-4a12.48,12.48,0,0,1-5-7.64,4.46,4.46,0,0,0-.32-1.15c-.64-1.34-1.78-1.48-2.54-.25-2.49,4-3.19,8.15.47,12.62a20.81,20.81,0,0,0,4.57,3.85c3.7,2.5,4.09,4.17,1.9,8l-.12.21c-5,8.18-9.42,16.7-14,25.11-.35.63-.68,1.26-1,1.91-1.25,2.69-.9,3.58,1.91,4.77.66.28,1.33.53,2,.78a8.78,8.78,0,0,0,10.06-3.46,1.53,1.53,0,0,0-.51-2.44c-.87-.55-1.87-.89-2.77-1.41-2.65-1.54-2.72-2.76-.28-4.63a21.91,21.91,0,0,1,12.15-4.58c2.66-.17,3.23-.76,3.71-3.43s1.06-5.65,1.63-8.46A9.58,9.58,0,0,0,313.83,522.15Zm133.46,34.94a22.48,22.48,0,0,0,.16,2.27A133.76,133.76,0,0,0,453,582.12,124.35,124.35,0,0,0,459.74,598a5,5,0,0,0,5.22,3c.64,0,1.28,0,1.92-.1,1.74-.17,2.3-.66,2.37-2.37.05-1.52.34-3,.46-4.52.19-2.45.72-4.87.35-7.39a43.37,43.37,0,0,0-8.12-19.22A141,141,0,0,0,450.36,554a4.81,4.81,0,0,0-.51-.5c-1.18-.94-1.79-.75-2.24.65A12.3,12.3,0,0,0,447.29,557.09Zm48.31,9.71a105.74,105.74,0,0,0,.71,11.49,39,39,0,0,0,7.18,19c2.47,3.36,5.51,4.63,9.58,3.61,2.59-.65,3.36-1.56,3-4.22a89.21,89.21,0,0,0-1.88-10.12c-2.64-10.66-7.4-20.37-13.3-29.57-.56-.87-1.11-1.76-1.7-2.61a1.48,1.48,0,0,0-1.6-.81,1.72,1.72,0,0,0-1.37,1.48c-.06.39-.07.8-.12,1.19C495.72,559.54,495.78,562.82,495.6,566.8Zm-64.16,2.65a42.52,42.52,0,0,0,.5,9.19,49.74,49.74,0,0,0,5.33,17c3,5.51,7.73,6.38,13.1,5.09,1.5-.36,2.05-1.19,2.13-2.79a12.88,12.88,0,0,0-.07-2.15,48.89,48.89,0,0,0-2.62-10.91c-2.79-7.52-7.4-13.92-12.24-20.19a7.21,7.21,0,0,0-1.4-1.3,3.19,3.19,0,0,0-3.57-.51c-1.32.64-1.4,1.87-1.39,3.07S431.38,568.69,431.44,569.45Zm134.2-5.29v-1c0-1.15-.13-2.29-1.31-2.86s-1.8.34-2.57.85a71.7,71.7,0,0,0-24.21,27,10.78,10.78,0,0,0-1.15,2.88,2.78,2.78,0,0,0,.71,2.66c3.24,3,6.16,3.93,9.32.67a66.34,66.34,0,0,1,10.06-8.48,17.1,17.1,0,0,0,6.29-8C564.59,573.34,565,568.48,565.64,564.16ZM556.38,601c4.67.44,8.62-1.3,12.15-4.14,3.36-2.7,6.65-5.49,9.92-8.3a50.89,50.89,0,0,0,6.65-6.88,34.82,34.82,0,0,0,3.62-5.34,2.23,2.23,0,0,0-.25-2.87c-.84-.84-1.71-.5-2.62,0a24.89,24.89,0,0,1-6.31,2.15,34.87,34.87,0,0,0-10,3.76c-7.14,4-12.6,9.71-17.43,16.16a5.89,5.89,0,0,0-.87,1.69c-.7,2.17.51,3.79,2.79,3.81Zm-210.82-90c0,2.72,0,5.44,0,8.15,0,.95-.08,2,1,2.51s1.82-.28,2.59-.84c.13-.1.27-.18.39-.29,3-2.62,6.08-5.09,10.16-6.07,2.12-.51,2.79-2.06,2.71-4.25a10.84,10.84,0,0,0-.85-3.47c-1.07-2.76-2.18-5.49-3.26-8.24a27.5,27.5,0,0,1-2.36-11.16,4.71,4.71,0,0,0-2.09-3.84A7.81,7.81,0,0,0,348,481.9c-1.8.13-2.45.84-2.15,2.65a29,29,0,0,1,.18,5.5c-.13,5,.13,10-.42,15A54.2,54.2,0,0,0,345.56,511.05ZM264,331.29a10.11,10.11,0,0,1-6.31-1.75c-1.43-1.09-1.47-2.08,0-3,2.59-1.68,5-4.17,8.58-2.6a.93.93,0,0,0,.24,0c.65.05,1.33.13,1.67-.59a1.68,1.68,0,0,0-.42-2.17,14.5,14.5,0,0,0-2.35-1.63,8.58,8.58,0,0,1-4.69-5.45c-.27-1.06-.84-2-2.08-2a2.71,2.71,0,0,0-2.35,1.79,14,14,0,0,0-.64,1.55c-.62,1.89-1.23,3.79-1.81,5.7a49.15,49.15,0,0,1-3.46,9.41c-3.52,6.47-7.35,12.73-12.65,17.95-.17.17-.33.34-.49.53a1.72,1.72,0,0,0,2.44,2.4c2.15-2.06,4.87-3,7.61-3.88a18.3,18.3,0,0,0,8.55-5.45,26.76,26.76,0,0,1,13.53-8.63,6.13,6.13,0,0,0,1.93-.92,2.3,2.3,0,0,0,.6-3.17c-.83-1.07-1.69-.47-2.53,0-.27.16-.53.35-.82.49C267,330.65,265.55,331.6,264,331.29ZM492.44,576.81c0-.77,0-2.2,0-3.64a2.13,2.13,0,0,0-1.19-2.16,2.33,2.33,0,0,0-2.68.37,14.2,14.2,0,0,0-1.6,1.77c-3,3.8-5.9,7.77-9.16,11.38-3.73,4.13-4.48,8.83-3.61,14,.19,1.18.8,2.25,2.11,2.25,2.16,0,4.28.38,6.43.52a4.13,4.13,0,0,0,4.25-2.5C490.29,592.09,492.62,585.11,492.44,576.81ZM315.91,427.67a23.06,23.06,0,0,0,3.76-5.89,43.33,43.33,0,0,1,4.48-7.9,12,12,0,0,1,1.07-1.29,1.67,1.67,0,0,1,1.94-.52,1.7,1.7,0,0,1,1.1,1.69c0,.32,0,.64,0,1q-.37,8.73-.76,17.46a11.36,11.36,0,0,0,.3,3.81,2.41,2.41,0,0,0,3,1.78c1.37-.26,1.43-1.28,1.43-2.37,0-2.24-.08-4.48.08-6.71A135.25,135.25,0,0,1,338,398.2a7.36,7.36,0,0,0,.22-3.89A5,5,0,0,0,336,395a20.42,20.42,0,0,0-2.69,1.55,47.51,47.51,0,0,0-17.28,24.94A10.45,10.45,0,0,0,315.91,427.67ZM469.73,572.25a15.14,15.14,0,0,0,2.7,8.3c.83,1.3,1.45,1.41,2.82.7a9.79,9.79,0,0,0,2.89-2.47A44.15,44.15,0,0,0,486.22,565a10.57,10.57,0,0,0,.93-4.42,96.76,96.76,0,0,0-1.58-11.11c-.38-2-1.72-2.3-3.07-.82-3.32,3.66-6.75,7.25-9.3,11.53A22.76,22.76,0,0,0,469.73,572.25Zm44.93-310.51a6.67,6.67,0,0,0-2.07-4.7,3,3,0,0,0-2.88-.77c-1.14.29-1.3,1.29-1.45,2.25-.06.32-.06.64-.13,1a33.11,33.11,0,0,1-1.2,5.12c-.93,2.2-2.54,2.53-4.29.92a16.63,16.63,0,0,0-1.61-1.43c-2-1.43-3.69-1.17-5.12.89a15,15,0,0,0-1.55,3,13.81,13.81,0,0,1-5,6.27c-1.17.83-2.39,1.6-3.61,2.35-2.46,1.51-5,2.91-6.9,5.13a1.78,1.78,0,0,1-1.93.55c-3.36-.62-3.37-.6-3.94,2.8,0,.24-.11.47-.14.7-.34,2.68.38,3.49,3,3.1,5-.73,9.94-1.55,14.9-2.37a10.1,10.1,0,0,0,2.51-.76c2.17-1,2.66-2.67,1.42-4.69-.33-.55-.77-1-1.14-1.55-1.76-2.54-1.49-4.33,1-6.15a24.29,24.29,0,0,1,6.19-3.11,77.88,77.88,0,0,1,9-2.3A6,6,0,0,0,514.66,261.74ZM527.32,569.9a7.53,7.53,0,0,0,.38,1.91c1.19,3.3,2.34,6.62,3.52,9.93a5.83,5.83,0,0,0,.72,1.51,2,2,0,0,0,3.43.28,34.54,34.54,0,0,0,2.44-3,30.5,30.5,0,0,0,5.1-8.36,6.84,6.84,0,0,0,.62-3.25c-.26-2-.44-4-.78-5.94a32.74,32.74,0,0,0-3-9.58c-1.23-2.37-3.06-2.41-4.21,0a110.71,110.71,0,0,1-7.2,12.16A6.89,6.89,0,0,0,527.32,569.9ZM516,568.07c.33,5.35.58,10.54,1,15.72a48.81,48.81,0,0,0,2.33,12,10.69,10.69,0,0,0,1.68,3.42,6,6,0,0,0,6.75,1.7c2-.64,3-2.16,3-4.93a39.1,39.1,0,0,0-1.09-8.54c-1.84-7.72-5.8-14.31-10.86-20.3-.57-.68-1-2-2.13-1.58C515.17,566,516.25,567.33,516,568.07Zm-22.19-88.19c0-.1,0-.58,0-1.06a2.85,2.85,0,0,0-2.52-3c-1.33-.23-2.3.31-3,1.78a18.39,18.39,0,0,0-.72,1.78,174.77,174.77,0,0,0-8.14,29.27c-.49,2.46.25,3.4,2.77,3.42a11.61,11.61,0,0,0,5.49-1.52,6.4,6.4,0,0,0,3.45-4.58C493,497.49,493.17,488.86,493.79,479.88ZM294.22,400.63a1.87,1.87,0,0,0,.9,2.27c.75.44,1.22,0,1.67-.46a25,25,0,0,0,1.77-1.94,114.18,114.18,0,0,1,9.31-10,105.15,105.15,0,0,1,18-13.8,20.62,20.62,0,0,0,9.26-12.9c.38-1.4,0-2.41-1-2.85s-1.81.05-2.47.86c-4.26,5.25-9.44,9.51-14.76,13.62-4,3.13-8.11,6.22-12,9.58a39.89,39.89,0,0,0-10.29,14.54C294.45,400,294.29,400.45,294.22,400.63ZM586.07,601.56c3.28,0,5.27-.46,7.56-2.07a45,45,0,0,0,10.51-11,8.6,8.6,0,0,0,1.43-4.27,1.84,1.84,0,0,0-.75-1.9c-.62-.35-1.23,0-1.75.42-3.45,2.79-7.54,4-11.79,4.93-2.41.52-4.83,1-7.19,1.75a18.22,18.22,0,0,0-10.3,7.75c-1.48,2.26-.75,3.71,1.9,3.83C579.35,601.14,583,600.74,586.07,601.56ZM330.14,342.92a6.37,6.37,0,0,0-.43-2.05c-.37-1.09-.86-1.25-1.68-.53a4.24,4.24,0,0,0-.76.92c-5.72,8.48-12.93,15.6-20.48,22.42-2.08,1.88-4.2,3.7-6.27,5.58a17,17,0,0,0-4.87,7.29c-.29.86-.39,1.75.54,2.36s1.49,0,2.11-.51l5.92-4.88c5-4.13,10-8.18,14.76-12.62a46,46,0,0,0,9.45-12A12.92,12.92,0,0,0,330.14,342.92ZM514.48,482.48c0-1.2,0-2.39,0-3.59a1.65,1.65,0,0,0-1.13-1.67,1.74,1.74,0,0,0-2,.47,11.32,11.32,0,0,0-1.31,1.7A39.46,39.46,0,0,0,506,488c-2.33,6.64-3.42,13.61-5.37,20.35a1.72,1.72,0,0,0,1.13,2.29c3.63,1.62,10-1,10.35-5.59.13-2,.53-3.95.74-5.93C513.42,493.59,514.26,488.06,514.48,482.48Zm70.33-40a2.9,2.9,0,0,0,2-.88,25,25,0,0,0,1.73-2c8.78-11,19-20.29,31.63-26.67,1.92-1,3.68-2.25,5.5-3.4a4.49,4.49,0,0,0,1-.72c.55-.61,1-1.3.47-2.14a1.61,1.61,0,0,0-2.13-.49c-2.32.86-4.66,1.68-7,2.61-10.91,4.42-19.78,11.59-27.27,20.55-2.51,3-4.89,6.11-7.34,9.17a2.44,2.44,0,0,0-.66,2.63A2.48,2.48,0,0,0,584.81,442.49ZM283.37,562c-1.39.7-2.69.56-3.93.78a2.9,2.9,0,0,0-2.74,2.54,37.25,37.25,0,0,1-3.62,10.11,16.06,16.06,0,0,0-.73,1.77,2.3,2.3,0,0,0,.73,2.8c1,.8,1.91.4,2.82-.28,6.69-4.95,13.78-9,22.29-9.8a5.22,5.22,0,0,0,4.63-4c.27-.84.5-1.69.72-2.54s.37-1.74-.54-2.37-1.66,0-2.36.5a25.42,25.42,0,0,1-7.56,3.51c-3,.9-6,1.55-8.93,2.72-.45.18-.92.7-1.55.25C282.05,566,283.62,564.36,283.37,562ZM453.65,281.23a5.34,5.34,0,0,0-.22.68c-.75,3.68-.59,7.48-1.67,11.12a2.27,2.27,0,0,0,1.22,2.64c1,.57,1.83,0,2.58-.66,1-.88,1.88-2,3.21-2.45a9.2,9.2,0,0,0,6-6.65c.9-3.06,1.77-6.13,2.56-9.22.64-2.49.65-5-1-7.1a26.86,26.86,0,0,1-4.12-8.32,6.3,6.3,0,0,0-1.29-2.81,14.51,14.51,0,0,0-1.26,11.43,25.41,25.41,0,0,1,1.07,12.05c-.23,1.22,0,3-1.24,3.37s-2.06-1.23-2.92-2.14S455.05,281.28,453.65,281.23ZM323.86,327.55a8,8,0,0,0-.37-2.84c-.25-.79-.55-1.57-1.5-1.66a2,2,0,0,0-2,1.38c-.54,1.16-1,2.34-1.63,3.47a91.29,91.29,0,0,1-15.41,21,28.84,28.84,0,0,0-4.66,6.07,8.44,8.44,0,0,0-.78,1.74,1.64,1.64,0,0,0,.55,1.94c.79.56,1.35.08,1.91-.39,6-5,11.92-10.18,16.83-16.35a58.57,58.57,0,0,0,4.89-7.11A15.28,15.28,0,0,0,323.86,327.55Zm9,206.21c-.51-3.86-1.23-9.47-2-15.08-.18-1.42-.42-2.83-.61-4.25-.08-.53-.23-.9-.85-.95s-.94,0-1.2.53-.6,1.13-.88,1.7c-3.26,6.61-5,13.77-7.5,20.66-.5,1.38-.14,2,1.18,2.71a14.89,14.89,0,0,0,5.45,1.71C329.75,541.07,333.27,539.11,332.85,533.76ZM165.77,430a27,27,0,0,1-6.15-4.92c-1.28-1.34-2.47-1.12-3.19.52a8.3,8.3,0,0,0-.64,6.27,28.07,28.07,0,0,1,1.19,6.34,121.3,121.3,0,0,1,.3,13.88c0,.89-.1,1.79,1,2.2a2.29,2.29,0,0,0,2.39-.67,7.14,7.14,0,0,0,2-3c.83-2.08,1.57-4.18,2.37-6.27a13.94,13.94,0,0,1,4-5.88c.37-.31,1-.42,1-1.12a7.08,7.08,0,0,0-2.83-.5c-1.36-.05-2.73,0-4.07-.18-2-.24-2.38-1-1.09-2.63C163.08,432.65,164.36,431.44,165.77,430ZM278.34,601c1.27,0,2.55,0,3.83,0,4.58-.15,9.55-4.18,10.67-8.62.42-1.66.29-2.12-1.17-2.93-2.44-1.35-4.9-2.66-7.4-3.91-2.13-1.07-2.73-.79-3.31,1.61a10.44,10.44,0,0,1-3.33,5.92,14.22,14.22,0,0,1-3.09,1.79,4.25,4.25,0,0,0-2.32,4.56c.22,1.37.73,1.92,2.06,1.73S277,601.17,278.34,601ZM297.6,341.31c2,.26,2.91-1.09,3.82-2.38a78.19,78.19,0,0,0,10.72-21.27,10.61,10.61,0,0,0,.7-3.26,3.55,3.55,0,0,0-3.25-3.77c-2-.32-3.31.54-3.88,2.66-.35,1.3-.49,2.66-.76,4-1.39,6.83-4,13.27-6.71,19.63C297.63,338.32,297.06,339.7,297.6,341.31ZM266.26,569.44h.07c0-1.52,0-3,0-4.56-.05-2.13-.93-3.31-3-3.74-2.42-.5-4.8-1.17-7.19-1.81-2-.55-2.65-.05-2.69,2a5.34,5.34,0,0,0,.06,1.2c.92,4.4,1.85,8.78,5.86,11.66.9.64,1.55,1.62,2.42,2.32,2,1.64,3.85,1,4.35-1.61a11.83,11.83,0,0,0,.13-2.15C266.28,571.67,266.26,570.55,266.26,569.44Zm28-250.48a24.87,24.87,0,0,0-1.43-9.77,6.72,6.72,0,0,0-1.57-2.65,3,3,0,0,0-3.34-.48c-1.23.59-1.07,1.64-1,2.68,0,.4.15.78.22,1.18a66.67,66.67,0,0,1,1.19,10,72.18,72.18,0,0,1-.41,13.86c-.14.88-.25,1.82.9,2.15a1.8,1.8,0,0,0,2.16-1.08,17,17,0,0,0,1.08-2.13C293.79,328.48,294.24,324.05,294.23,319ZM261.11,587.78c0-.48,0-1,0-1.43-.19-2.77-1.59-3.54-4-2.19a12.49,12.49,0,0,0-3.4,3,63.7,63.7,0,0,1-4.51,5.59,3.12,3.12,0,0,0-.69,3.14,6.44,6.44,0,0,0,4.23,4.83c2.8,1,4.27.3,5.38-2.42.39-1,.79-1.92,1.17-2.88A19.44,19.44,0,0,0,261.11,587.78Zm60.06-103.25c-1.8,3.39-3.94,6.6-4.84,10.31-1.7,7,3.64,11.12,9.45,11.43,1.4.07,1.86-.56,1.5-2a29.44,29.44,0,0,0-1.21-3.37C324,495.61,321.52,490.43,321.17,484.53ZM619.47,487c0,.38.07.86.16,1.32a41.77,41.77,0,0,0,9.29,19.39,7.17,7.17,0,0,0,.66.69,1.77,1.77,0,0,0,2.2.3c.84-.51.78-1.3.45-2.11-.09-.22-.14-.46-.22-.68a178.45,178.45,0,0,0-8-18.38,17.87,17.87,0,0,0-1.08-1.85,2,2,0,0,0-2.29-.9C619.54,485.06,619.47,486,619.47,487ZM318.34,444.75c.06-.28.11-.37.08-.42a2.83,2.83,0,0,0-.38-.59c-2.53-2.6-5.65-3.08-9.06-2.49a42.13,42.13,0,0,0-17.55,7.2c-.59.42-1.19.8-1.77,1.23s-1.1,1.2-.55,2.05a1.36,1.36,0,0,0,1.87.52c.58-.26,1.18-.49,1.76-.74a82.56,82.56,0,0,1,17.92-5.84A63.54,63.54,0,0,1,318.34,444.75ZM203,461.73c2.95-6.44,7.28-11.26,11.22-16.36.88-1.14,1.69-2.32,2.52-3.49a5.84,5.84,0,0,0,1.07-2.64c.14-1.07.15-2.11-1-2.65s-1.8.24-2.43,1c-2.5,2.9-5,5.8-7.46,8.74a33.37,33.37,0,0,0-3.37,4.94C201.71,454.41,201.49,457.68,203,461.73ZM669.6,542.61a12,12,0,0,0,0-1.66c-1.36-6.61-3.37-13-7.46-18.46a6,6,0,0,0-1-1,2.37,2.37,0,0,0-3.26,0,2,2,0,0,0-.37,2.79c.19.35.41.68.59,1,2.93,5.73,6.17,11.34,7.65,17.71a4.58,4.58,0,0,0,.58,1.3c.38.64,1,.66,1.69.59a1.49,1.49,0,0,0,1.42-1.08A5.09,5.09,0,0,0,669.6,542.61ZM195.84,444a2.15,2.15,0,0,0,1.45,2.16c1.08.39,1.59-.42,2.11-1.13q4.36-6,8.71-12a14.32,14.32,0,0,0,1.78-3.11,4.94,4.94,0,0,0,.37-2.79,2.68,2.68,0,0,0-2-2.17c-1.11-.39-1.84.27-2.38,1.12a182.33,182.33,0,0,0-9.44,15.79A4.64,4.64,0,0,0,195.84,444Zm443-40.09c-1.56.19-3.15.36-4.73.58-.73.1-1.41.38-1.54,1.26a2.06,2.06,0,0,0,1,2.26,3.6,3.6,0,0,0,1.32.5,14.8,14.8,0,0,0,3.1.25,60.32,60.32,0,0,1,10.75.37c2.43.24,4.94.42,7.15,1.73.68.4,1.43.84,2.13-.06a1.84,1.84,0,0,0-.23-2.58,4.09,4.09,0,0,0-1.37-.94A51.8,51.8,0,0,0,638.83,403.86ZM297.78,457.78c1.49.6,2.83.06,4.16-.43,6.38-2.34,12.79-4.52,19.73-4.33.81,0,1.45-.19,1.63-1a1.62,1.62,0,0,0-.89-1.8,6.71,6.71,0,0,0-.85-.42,10.72,10.72,0,0,0-4.42-.92,27.74,27.74,0,0,0-17.53,6.69A6.15,6.15,0,0,0,297.78,457.78ZM483.19,265.9h0c0,1.51-.07,3,0,4.54.07,1.29.76,1.67,1.93,1.14a9.6,9.6,0,0,0,1.61-1c4.1-3,6.89-7,9.14-11.5a2.41,2.41,0,0,0,.36-1.37,2.08,2.08,0,0,0-1.64-1.85c-.89-.25-1.29.33-1.63,1-.45.94-.92,1.86-1.39,2.78-1.64,3.26-1.64,3.26-4.3.91l-.17-.16a2.21,2.21,0,0,0-3.92,1.7C483.21,263.35,483.19,264.62,483.19,265.9ZM198.64,421.53a24.83,24.83,0,0,0,0-3,3.08,3.08,0,0,0-3.09-2.76c-1.33-.05-2,.59-2.38,2.43-.48,2.66-.87,5.34-1.28,8-.33,2.12-.66,4.24-.94,6.37a1.78,1.78,0,0,0,1.52,2.09c1,.25,1.5-.37,1.82-1.16a57.33,57.33,0,0,1,3-5.72A9.85,9.85,0,0,0,198.64,421.53ZM311,437.76c-5.82-5.53-26.37,1.08-28.36,9.2C291.73,442.64,300.6,438.24,311,437.76Zm103.7-157c-1.55-4.42-3.17-8.36-5.88-11.75-1.61-2-3.06-2.22-5.17-.79a10.32,10.32,0,0,0-1.83,1.53c-.95,1-1,1.71.06,2.67a51.92,51.92,0,0,0,6.52,5.6A17.84,17.84,0,0,0,414.72,280.76ZM182.89,431.13c.29-.33.43-.42.46-.54,1.43-5.63-.45-10.69-2.84-15.6-.58-1.2-1.64-1.3-2.9-.77a2.92,2.92,0,0,0-1.9,3.44,8.58,8.58,0,0,0,.92,2.44C178.67,423.76,180.77,427.39,182.89,431.13ZM311.56,571.77a13.65,13.65,0,0,0,8.16-1.12c1.51-.87,2.3-2.18,2.08-3.44a4.1,4.1,0,0,0-3.46-3.17,5.49,5.49,0,0,0-5.89,3.82C312.07,569.14,311.85,570.47,311.56,571.77Zm13.16-21.12a19.44,19.44,0,0,0-6.13.36,2.73,2.73,0,0,0-2.27,2.46c-.12.71-.07,1.44-.17,2.15-.18,1.22.39,1.58,1.5,1.46.71-.07,1.43-.06,2.14-.15C323.5,556.45,324.91,554.68,324.72,550.65Z" transform="translate(-10.5 -61.42)"/><path class="cls-1" d="M416.13,504.84c-1.28.26-1.61,1.19-2.1,2a135.61,135.61,0,0,1-13,18.4A54.77,54.77,0,0,1,390.47,535a20.77,20.77,0,0,0-7.6,9.64c-2,4.91-3,10.1-4.22,15.22-2.94,12.52-5.86,25-8.62,37.6-.89,4.06-3.92,4.34-6.47,3.5-1.47-.49-1.73-1.08-1.27-2.52a247.66,247.66,0,0,0,9-37.7A83.65,83.65,0,0,0,372.39,544a8.54,8.54,0,0,1,3.72-7.58,85.64,85.64,0,0,0,15.35-15.44,96.13,96.13,0,0,0,8.79-14.56c.46-.89.76-1.79-.06-2.65a2,2,0,0,0-2.83-.11c-3.56,2.47-7.53,4.21-11.18,6.52a21.76,21.76,0,0,0-8.48,8.92c-1.12,2.34-3.23,3.43-5.56,4.23-.92.33-1.07-.22-1.26-.9a17.37,17.37,0,0,1-.22-7.14c2.22-15.6,8.67-29.35,18.55-41.5,10.87-13.39,24.21-23.4,40.66-29a63.75,63.75,0,0,1,20.94-3.52,33.43,33.43,0,0,1,9.47,1.28c3.31,1,5.59,3,6.34,6.5a10,10,0,0,0,.83,2.23,3.23,3.23,0,0,0,2.42,1.79,7.31,7.31,0,0,0,8.54-6.15,10.56,10.56,0,0,0-1.83-7.74,35,35,0,0,0-3-3.47c-4.4-4.84-5.24-10.28-2.51-16.19,3.62-7.82,10-12.3,18.14-14.38a23.18,23.18,0,0,1,15,1.05,8.07,8.07,0,0,1,5.18,5.54c.84,3.19,3.18,5.12,6.16,6.25s5.75,1.94,8.62,2.94c2.33.81,4.66,1.67,7,2.53a6.41,6.41,0,0,1,2.47,1.43,1.91,1.91,0,0,1,.33,2.42c-.48.88-1.26.71-2.1.46-10.48-3.14-21.14-5.61-31.7-8.42a16.39,16.39,0,0,0-6.17-.56c-4.56.53-7,6.41-5.18,10.27a10.76,10.76,0,0,0,2,3c8.28,8.5,6,22.78.86,29.29a47.32,47.32,0,0,1-8.66,8.25,89.57,89.57,0,0,1-17.26,9.84c-8.43,3.84-16.87,7.67-25.57,10.87a9.88,9.88,0,0,0-6.44,6.83,169.47,169.47,0,0,1-10.57,26.7c-1.5,2.92-3.1,5.78-4.88,8.54a26.51,26.51,0,0,0-3.77,20.86c2.47,11.24,5.65,22.29,8.9,33.33a13.66,13.66,0,0,0,4.19,6.32c1.48,1.33,3.07,2.55,4.62,3.82a17.22,17.22,0,0,1,1.45,1.24,2,2,0,0,1,.42,2.22,1.75,1.75,0,0,1-2,1c-4.16-.34-8.32,0-12.47-.16a19,19,0,0,1-17.16-14.06,3.84,3.84,0,0,1-.22-1.65c.31-1.53,1.64-2.11,2.83-1.1,2.65,2.25,5.79,3.68,8.72,5.45a5.32,5.32,0,0,0,1.53.67,1.65,1.65,0,0,0,2.21-2,5.94,5.94,0,0,0-.31-1.15c-3.8-11.95-7.32-24-11.55-35.8a15.66,15.66,0,0,1,.47-11.91c2.1-4.83,4.25-9.65,6.24-14.53A62.61,62.61,0,0,0,416.77,509,9,9,0,0,0,416.13,504.84Z" transform="translate(-10.5 -61.42)"/><path class="cls-1" d="M247.08,565.32a4.68,4.68,0,0,1-2.39-.89c-1.3-.62-2.58-1.27-3.85-1.94-7.45-3.92-15.07-3.61-22.74-.8a22.8,22.8,0,0,1-8.2,1.41,21.27,21.27,0,0,0-2.88.07,1.68,1.68,0,0,0-.64,3.22,25.81,25.81,0,0,0,4.33,2,25.9,25.9,0,0,1,4.83,2.11,2.39,2.39,0,0,1,1.06,1,4.37,4.37,0,0,1-3.35,2c-10.24,2.08-16.77,8.73-21.63,17.45-.44.79-.78,1.63-.11,2.46a2.12,2.12,0,0,0,2.17.63c10.34-1.53,20-4.82,28.55-11,1.69-1.22,3.29-2.54,4.87-3.89,3.88-3.32,6.83-3.61,11.35-1-.37.73-1.15.84-1.78,1.14a43.55,43.55,0,0,0-14.87,11.1c-.56.67-1.29,1.2-1.86,1.86a2,2,0,0,0,.84,3.46,5.42,5.42,0,0,0,2.83.19c5.61-.65,10.81-2.76,16.1-4.53,1.12-.37,2.31-1.15,3.36-.12,1.2,1.18.47,2.53-.07,3.78-.19.44-.41.86-.61,1.3a8.1,8.1,0,0,1-8.23,5c-3.43-.11-6.87-.27-10.3-.28q-20.62-.06-41.26,0a19.58,19.58,0,0,0-3.33.25c-2.06.35-2.71-.22-3-2.34-.19-1.26-.38-2.53-.5-3.8-.18-2,.29-3.89,2.24-4.91,5.24-2.72,7.7-7.31,8.49-12.87a51.88,51.88,0,0,1,6.3-17.73c1.66-3,3.42-6,5.16-8.92A63,63,0,0,0,205.71,532a17.69,17.69,0,0,1,4.35-7.9c1.8-2,3.74-3.94,5.61-5.91a28.69,28.69,0,0,0,7.38-12.43c.8-3,2.85-3.72,5.49-2A16.66,16.66,0,0,1,236,514a46.39,46.39,0,0,0,4.57,12.8c1.19,2.08,1.15,4.62,1.63,7,1.58,7.82,3.26,15.63,4.22,23.57A60.9,60.9,0,0,1,247.08,565.32Z" transform="translate(-10.5 -61.42)"/><path class="cls-1" d="M640.17,412.64c1.36.07,2.72.11,4.08.21a6.48,6.48,0,0,1,1.63.34,2.08,2.08,0,0,1,1.52,2.39c-.26,1.14-1.21,1.2-2.08,1.16a32.36,32.36,0,0,0-6.45.37c-6.22,1-11.91,3-16.45,7.63-.33.34-.69.66-1,1a1.72,1.72,0,0,0-.28,2,1.8,1.8,0,0,0,2,1,6.54,6.54,0,0,0,2.22-.86c3.07-1.54,6.14-3.09,9.21-4.62a6.65,6.65,0,0,1,2.49-.82,2,2,0,0,1,2.1,1.26,1.65,1.65,0,0,1-.88,2.21,12,12,0,0,1-1.06.56c-6.78,3.29-11.72,8.51-15.54,14.88a23.34,23.34,0,0,0-1.84,4.41,2.8,2.8,0,0,0,.07,2.32,1.92,1.92,0,0,0,3.3.6,9.55,9.55,0,0,0,2-2.68,1.86,1.86,0,0,1,2.16-1.11,2.11,2.11,0,0,1,1.7,2.05,10.35,10.35,0,0,1,0,1.67,50.12,50.12,0,0,0,1.54,13.53c.26.92.63,1.81,1,2.71a3.84,3.84,0,0,0,1.06,1.57,2.51,2.51,0,0,0,2.91.3c1.15-.51,1.14-1.49.85-2.44a33.42,33.42,0,0,1-1.15-6.11,31.92,31.92,0,0,1,2-15.54c.82-2.1,1.63-2.73,3-2.39s1.85,1.13,1.47,3.51c-2,12.56,1.83,23.51,9.07,33.54a126.29,126.29,0,0,1,10.77,17.28,72,72,0,0,1,5,12.68,20.63,20.63,0,0,0,6,9.64,16.83,16.83,0,0,1,1.67,1.71,1.79,1.79,0,0,1-1.86,2.94,12,12,0,0,1-7.62-4.59,48.07,48.07,0,0,1-3.38-5.23c-1.78-3.13-3.53-6.27-5.29-9.41a28.27,28.27,0,0,0-3.81-5.22,3.6,3.6,0,0,0-3.43-1.29,2.62,2.62,0,0,0-2.27,3.68,17.25,17.25,0,0,0,1.17,2.36,22.61,22.61,0,0,1,2.69,9.37c.05,1,.1,1.95-1,2.43a2.3,2.3,0,0,1-2.78-.8,8.86,8.86,0,0,1-.59-.75c-3.54-4.94-7.12-9.85-10.59-14.83A68.26,68.26,0,0,1,628,483.57a36,36,0,0,0-3.53-6.52,6,6,0,0,0-3.34-2.59c-2.89-.83-5.43.7-5.79,3.67a34.18,34.18,0,0,0-.52,5.72c0,1,0,2-1.18,2.36a2.68,2.68,0,0,1-3.13-1.18,9,9,0,0,1-1-2.66,69.74,69.74,0,0,1-2-22.34A59.23,59.23,0,0,1,609.05,448c.3-1.08.67-2.13,1-3.2a2.37,2.37,0,0,0-.93-2.94,2.64,2.64,0,0,0-3.14,0,10.22,10.22,0,0,0-3.67,4.33c-.92,1.87-1.83,3.73-2.76,5.59a7.29,7.29,0,0,1-.72,1.24,1.78,1.78,0,0,1-2.1.72,1.74,1.74,0,0,1-1.35-1.77,14.46,14.46,0,0,1,.42-3.07,40.42,40.42,0,0,1,8-16.21c7.35-9.27,16.44-16,28.06-19A33.27,33.27,0,0,1,640.17,412.64Z" transform="translate(-10.5 -61.42)"/><path class="cls-1" d="M271.51,490.91a5.61,5.61,0,0,1-.38,2.8,11.28,11.28,0,0,0,1.49,9.62,28.54,28.54,0,0,0,4.89,5.57,59.51,59.51,0,0,1,5.13,5,12.22,12.22,0,0,1,2.64,11.86,74.55,74.55,0,0,1-6.82,16.31c-3,5.37-7.64,8.26-13.94,8.09a13.37,13.37,0,0,0-4.86,1.12c-1.43.51-2.93,1.89-4.46.62-1.69-1.39-.66-3.25-.35-4.93.07-.39.25-.76.31-1.15a11.68,11.68,0,0,0-.45-6.35,33.62,33.62,0,0,1-2.07-15.77c.18-2.06.42-4.13.68-6.19a21.19,21.19,0,0,0-1-9.21c-.25-.75-.55-1.5-.79-2.26-.78-2.47-.57-3,1.83-4.07a22.67,22.67,0,0,0,7.67-6c2-2.3,3.89-4.67,5.83-7a16.51,16.51,0,0,1,1.11-1.25,2.17,2.17,0,0,1,2.45-.43,1.81,1.81,0,0,1,1.13,1.92C271.5,489.7,271.51,490.18,271.51,490.91Z" transform="translate(-10.5 -61.42)"/><path class="cls-1" d="M435.67,280.72a54.92,54.92,0,0,1,0,7.92,15.65,15.65,0,0,0,1.09,6.8,6.6,6.6,0,0,0,.49,1.08c.76,1.14,1.63,1.25,2.52.22s1.74-2.29,2.66-3.39,1.34-1.22,2.46-.06c.78.81,1.56,1.62,2.25,2.49,1.59,2,1.6,3.57.08,5.66-1.36,1.87-2.78,3.71-4.08,5.62a57.14,57.14,0,0,0-4.84,8.81,20.07,20.07,0,0,0-2.11,10.45c.16,1.65-.07,3.29-1.83,4.07a4.68,4.68,0,0,1-5.17-.74,9.52,9.52,0,0,1-3.24-8.83c.29-2.54.73-5.06.91-7.61.55-7.55-.82-14.66-4.94-21.08a8,8,0,0,1-1.21-6.79,12,12,0,0,0-1.12-8.38,45.76,45.76,0,0,0-3.54-5.69c-1.35-2-2.68-4-3.93-6-1-1.6-.9-2.5.07-3.47,1.45-1.47,2.92-1.32,3.86.53a19.85,19.85,0,0,0,2.9,4.92c.22.23.35.54.58.76,1,1,2,.88,2.69-.38a9.25,9.25,0,0,0,.56-1.83c.79-2.93,1.58-5.85,2.35-8.79a6.06,6.06,0,0,1,1.1-2.37,2.51,2.51,0,0,1,3.22-.75,1.37,1.37,0,0,1,.85,1.94c-3.71,8.4-3.41,17.28-3.12,26.16a7.64,7.64,0,0,0,.08,1.44,8.39,8.39,0,0,0,.62,2.05,2.93,2.93,0,0,0,2.77,1.58,2.31,2.31,0,0,0,2.26-1.79C433.49,283.7,433.87,282,435.67,280.72Z" transform="translate(-10.5 -61.42)"/><path class="cls-1" d="M418.08,307a23.06,23.06,0,0,1-1,7c-.8,2.47-2,3.15-4.57,2.55a38.91,38.91,0,0,1-5.62-2,101.2,101.2,0,0,0-14.67-5.14c-2.64-.63-3.32-1.77-3.11-4.55a21.75,21.75,0,0,1,1.26-5.34c.52-1.51,1-3,1.42-4.57a9.84,9.84,0,0,0-2.29-9.58,6.23,6.23,0,0,1-1.42-1.91,2.52,2.52,0,0,1,1-3.5c1.09-.81,2.15-1.66,3.24-2.47a3.57,3.57,0,0,1,4.24-.28c9.14,5.26,16.14,12.47,20.32,22.24A15.84,15.84,0,0,1,418.08,307Z" transform="translate(-10.5 -61.42)"/><path class="cls-1" d="M669.76,432.83c-3.23-.65-5.15,1.34-6.83,3.72a2.28,2.28,0,0,0-.12,2.69,2.08,2.08,0,0,0,2.32.83c.71-.07,1.42-.2,2.13-.31a6.39,6.39,0,0,1,4.79,1c2.15,1.45,2.85,1.18,4.12-1.11,1.17-2.09,2.54-2.56,4.73-1.58a10.51,10.51,0,0,1,2.37,1.6,109.8,109.8,0,0,1,9.45,8.85,31.3,31.3,0,0,0,6.73,5.73c.95.55,2,1.21,1.61,2.61a3,3,0,0,1-2.78,1.95,5,5,0,0,1-3.65-.86,11.87,11.87,0,0,0-1.61-1c-1.22-.61-2-.25-2.25,1.1-.11.54,0,1.12-.12,1.67-.29,2.53-1.35,3.73-3.83,4.21a18.67,18.67,0,0,1-5.73.09,4,4,0,0,1-3.76-3.75,6.23,6.23,0,0,1-.08-1.67c.35-3.38-1.45-5.42-4.25-6.8-2.08-1-4.2-2-6.29-3a77.66,77.66,0,0,1-8.81-4.84,21.87,21.87,0,0,1-2.51-1.84c-2.09-1.85-2.38-3.68-.75-5.91a32.76,32.76,0,0,0,4.44-8.18,3.33,3.33,0,0,1,2.93-2.5c3.89-.18,7.72.11,10.73,3,.88.85,2.2,1.79,1.53,3.21-.57,1.23-2.07.92-3.23,1.08A9,9,0,0,1,669.76,432.83Z" transform="translate(-10.5 -61.42)"/><path class="cls-1" d="M313.83,522.15a9.58,9.58,0,0,1-.25,2.65c-.57,2.81-1.11,5.64-1.63,8.46s-1.05,3.26-3.71,3.43a21.91,21.91,0,0,0-12.15,4.58c-2.44,1.87-2.37,3.09.28,4.63.9.52,1.9.86,2.77,1.41a1.53,1.53,0,0,1,.51,2.44,8.78,8.78,0,0,1-10.06,3.46c-.68-.25-1.35-.5-2-.78-2.81-1.19-3.16-2.08-1.91-4.77.31-.65.64-1.28,1-1.91,4.62-8.41,9-16.93,14-25.11l.12-.21c2.19-3.81,1.8-5.48-1.9-8a20.81,20.81,0,0,1-4.57-3.85c-3.66-4.47-3-8.59-.47-12.62.76-1.23,1.9-1.09,2.54.25a4.46,4.46,0,0,1,.32,1.15,12.48,12.48,0,0,0,5,7.64c1.7,1.34,3.46,2.59,5.12,4a18.63,18.63,0,0,1,6.77,11.53C313.74,521.15,313.79,521.79,313.83,522.15Z" transform="translate(-10.5 -61.42)"/><path class="cls-1" d="M447.29,557.09a12.3,12.3,0,0,1,.32-3c.45-1.4,1.06-1.59,2.24-.65a4.81,4.81,0,0,1,.51.5,141,141,0,0,1,11.58,13.43,43.37,43.37,0,0,1,8.12,19.22c.37,2.52-.16,4.94-.35,7.39-.12,1.51-.41,3-.46,4.52-.07,1.71-.63,2.2-2.37,2.37-.64.06-1.28.05-1.92.1a5,5,0,0,1-5.22-3A124.35,124.35,0,0,1,453,582.12a133.76,133.76,0,0,1-5.55-22.76A22.48,22.48,0,0,1,447.29,557.09Z" transform="translate(-10.5 -61.42)"/><path class="cls-1" d="M495.6,566.8c.18-4,.12-7.26.52-10.52.05-.39.06-.8.12-1.19a1.72,1.72,0,0,1,1.37-1.48,1.48,1.48,0,0,1,1.6.81c.59.85,1.14,1.74,1.7,2.61,5.9,9.2,10.66,18.91,13.3,29.57a89.21,89.21,0,0,1,1.88,10.12c.34,2.66-.43,3.57-3,4.22-4.07,1-7.11-.25-9.58-3.61a39,39,0,0,1-7.18-19A105.74,105.74,0,0,1,495.6,566.8Z" transform="translate(-10.5 -61.42)"/><path class="cls-1" d="M431.44,569.45c-.06-.76-.22-2.11-.23-3.46s.07-2.43,1.39-3.07a3.19,3.19,0,0,1,3.57.51,7.21,7.21,0,0,1,1.4,1.3c4.84,6.27,9.45,12.67,12.24,20.19a48.89,48.89,0,0,1,2.62,10.91,12.88,12.88,0,0,1,.07,2.15c-.08,1.6-.63,2.43-2.13,2.79-5.37,1.29-10.08.42-13.1-5.09a49.74,49.74,0,0,1-5.33-17A42.52,42.52,0,0,1,431.44,569.45Z" transform="translate(-10.5 -61.42)"/><path class="cls-1" d="M565.64,564.16c-.61,4.32-1,9.18-2.86,13.76a17.1,17.1,0,0,1-6.29,8,66.34,66.34,0,0,0-10.06,8.48c-3.16,3.26-6.08,2.37-9.32-.67a2.78,2.78,0,0,1-.71-2.66,10.78,10.78,0,0,1,1.15-2.88,71.7,71.7,0,0,1,24.21-27c.77-.51,1.48-1.37,2.57-.85s1.31,1.71,1.31,2.86Z" transform="translate(-10.5 -61.42)"/><path class="cls-1" d="M556.38,601H554c-2.28,0-3.49-1.64-2.79-3.81a5.89,5.89,0,0,1,.87-1.69c4.83-6.45,10.29-12.21,17.43-16.16a34.87,34.87,0,0,1,10-3.76,24.89,24.89,0,0,0,6.31-2.15c.91-.46,1.78-.8,2.62,0a2.23,2.23,0,0,1,.25,2.87,34.82,34.82,0,0,1-3.62,5.34,50.89,50.89,0,0,1-6.65,6.88c-3.27,2.81-6.56,5.6-9.92,8.3C565,599.74,561.05,601.48,556.38,601Z" transform="translate(-10.5 -61.42)"/><path class="cls-1" d="M345.56,511.05a54.2,54.2,0,0,1,0-6c.55-5,.29-10,.42-15a29,29,0,0,0-.18-5.5c-.3-1.81.35-2.52,2.15-2.65a7.81,7.81,0,0,1,5.84,1.65,4.71,4.71,0,0,1,2.09,3.84,27.5,27.5,0,0,0,2.36,11.16c1.08,2.75,2.19,5.48,3.26,8.24a10.84,10.84,0,0,1,.85,3.47c.08,2.19-.59,3.74-2.71,4.25-4.08,1-7.13,3.45-10.16,6.07-.12.11-.26.19-.39.29-.77.56-1.58,1.29-2.59.84s-1-1.56-1-2.51C345.55,516.49,345.56,513.77,345.56,511.05Z" transform="translate(-10.5 -61.42)"/><path class="cls-1" d="M264,331.29c1.6.31,3-.64,4.53-1.38.29-.14.55-.33.82-.49.84-.5,1.7-1.1,2.53,0a2.3,2.3,0,0,1-.6,3.17,6.13,6.13,0,0,1-1.93.92,26.76,26.76,0,0,0-13.53,8.63,18.3,18.3,0,0,1-8.55,5.45c-2.74.86-5.46,1.82-7.61,3.88a1.72,1.72,0,0,1-2.44-2.4c.16-.19.32-.36.49-.53,5.3-5.22,9.13-11.48,12.65-17.95a49.15,49.15,0,0,0,3.46-9.41c.58-1.91,1.19-3.81,1.81-5.7a14,14,0,0,1,.64-1.55,2.71,2.71,0,0,1,2.35-1.79c1.24,0,1.81.92,2.08,2a8.58,8.58,0,0,0,4.69,5.45,14.5,14.5,0,0,1,2.35,1.63,1.68,1.68,0,0,1,.42,2.17c-.34.72-1,.64-1.67.59a.93.93,0,0,1-.24,0c-3.59-1.57-6,.92-8.58,2.6-1.45.95-1.41,1.94,0,3A10.11,10.11,0,0,0,264,331.29Z" transform="translate(-10.5 -61.42)"/><path class="cls-1" d="M492.44,576.81c.18,8.3-2.15,15.28-5.46,22a4.13,4.13,0,0,1-4.25,2.5c-2.15-.14-4.27-.52-6.43-.52-1.31,0-1.92-1.07-2.11-2.25-.87-5.2-.12-9.9,3.61-14,3.26-3.61,6.12-7.58,9.16-11.38a14.2,14.2,0,0,1,1.6-1.77,2.33,2.33,0,0,1,2.68-.37,2.13,2.13,0,0,1,1.19,2.16C492.45,574.61,492.44,576,492.44,576.81Z" transform="translate(-10.5 -61.42)"/><path class="cls-1" d="M315.91,427.67a10.45,10.45,0,0,1,.14-6.19,47.51,47.51,0,0,1,17.28-24.94A20.42,20.42,0,0,1,336,395a5,5,0,0,1,2.21-.68,7.36,7.36,0,0,1-.22,3.89,135.25,135.25,0,0,0-5.77,30.49c-.16,2.23-.08,4.47-.08,6.71,0,1.09-.06,2.11-1.43,2.37a2.41,2.41,0,0,1-3-1.78,11.36,11.36,0,0,1-.3-3.81q.38-8.73.76-17.46c0-.32,0-.64,0-1a1.7,1.7,0,0,0-1.1-1.69,1.67,1.67,0,0,0-1.94.52,12,12,0,0,0-1.07,1.29,43.33,43.33,0,0,0-4.48,7.9A23.06,23.06,0,0,1,315.91,427.67Z" transform="translate(-10.5 -61.42)"/><path class="cls-1" d="M469.73,572.25a22.76,22.76,0,0,1,3.47-12c2.55-4.28,6-7.87,9.3-11.53,1.35-1.48,2.69-1.13,3.07.82a96.76,96.76,0,0,1,1.58,11.11,10.57,10.57,0,0,1-.93,4.42,44.15,44.15,0,0,1-8.08,13.75,9.79,9.79,0,0,1-2.89,2.47c-1.37.71-2,.6-2.82-.7A15.14,15.14,0,0,1,469.73,572.25Z" transform="translate(-10.5 -61.42)"/><path class="cls-1" d="M514.66,261.74a6,6,0,0,1-4.95,6.17,77.88,77.88,0,0,0-9,2.3,24.29,24.29,0,0,0-6.19,3.11c-2.46,1.82-2.73,3.61-1,6.15.37.53.81,1,1.14,1.55,1.24,2,.75,3.69-1.42,4.69a10.1,10.1,0,0,1-2.51.76c-5,.82-9.93,1.64-14.9,2.37-2.61.39-3.33-.42-3-3.1,0-.23.1-.46.14-.7.57-3.4.58-3.42,3.94-2.8a1.78,1.78,0,0,0,1.93-.55c1.91-2.22,4.44-3.62,6.9-5.13,1.22-.75,2.44-1.52,3.61-2.35a13.81,13.81,0,0,0,5-6.27,15,15,0,0,1,1.55-3c1.43-2.06,3.09-2.32,5.12-.89a16.63,16.63,0,0,1,1.61,1.43c1.75,1.61,3.36,1.28,4.29-.92a33.11,33.11,0,0,0,1.2-5.12c.07-.31.07-.63.13-1,.15-1,.31-2,1.45-2.25a3,3,0,0,1,2.88.77A6.67,6.67,0,0,1,514.66,261.74Z" transform="translate(-10.5 -61.42)"/><path class="cls-1" d="M527.32,569.9a6.89,6.89,0,0,1,1-4.31,110.71,110.71,0,0,0,7.2-12.16c1.15-2.4,3-2.36,4.21,0a32.74,32.74,0,0,1,3,9.58c.34,2,.52,4,.78,5.94a6.84,6.84,0,0,1-.62,3.25,30.5,30.5,0,0,1-5.1,8.36,34.54,34.54,0,0,1-2.44,3,2,2,0,0,1-3.43-.28,5.83,5.83,0,0,1-.72-1.51c-1.18-3.31-2.33-6.63-3.52-9.93A7.53,7.53,0,0,1,527.32,569.9Z" transform="translate(-10.5 -61.42)"/><path class="cls-1" d="M516,568.07c.27-.74-.81-2.08.61-2.55,1.13-.38,1.56.9,2.13,1.58,5.06,6,9,12.58,10.86,20.3a39.1,39.1,0,0,1,1.09,8.54c0,2.77-.95,4.29-3,4.93a6,6,0,0,1-6.75-1.7,10.69,10.69,0,0,1-1.68-3.42,48.81,48.81,0,0,1-2.33-12C516.56,578.61,516.31,573.42,516,568.07Z" transform="translate(-10.5 -61.42)"/><path class="cls-1" d="M493.79,479.88c-.62,9-.78,17.61-2.72,26.08a6.4,6.4,0,0,1-3.45,4.58,11.61,11.61,0,0,1-5.49,1.52c-2.52,0-3.26-1-2.77-3.42a174.77,174.77,0,0,1,8.14-29.27,18.39,18.39,0,0,1,.72-1.78c.74-1.47,1.71-2,3-1.78a2.85,2.85,0,0,1,2.52,3C493.81,479.3,493.79,479.78,493.79,479.88Z" transform="translate(-10.5 -61.42)"/><path class="cls-1" d="M294.22,400.63c.07-.18.23-.63.42-1.07A39.89,39.89,0,0,1,304.93,385c3.86-3.36,7.93-6.45,12-9.58,5.32-4.11,10.5-8.37,14.76-13.62.66-.81,1.39-1.34,2.47-.86s1.42,1.45,1,2.85a20.62,20.62,0,0,1-9.26,12.9,105.15,105.15,0,0,0-18,13.8,114.18,114.18,0,0,0-9.31,10,25,25,0,0,1-1.77,1.94c-.45.44-.92.9-1.67.46A1.87,1.87,0,0,1,294.22,400.63Z" transform="translate(-10.5 -61.42)"/><path class="cls-1" d="M586.07,601.56c-3-.82-6.72-.42-10.38-.59-2.65-.12-3.38-1.57-1.9-3.83a18.22,18.22,0,0,1,10.3-7.75c2.36-.71,4.78-1.23,7.19-1.75,4.25-.9,8.34-2.14,11.79-4.93.52-.43,1.13-.77,1.75-.42a1.84,1.84,0,0,1,.75,1.9,8.6,8.6,0,0,1-1.43,4.27,45,45,0,0,1-10.51,11C591.34,601.1,589.35,601.6,586.07,601.56Z" transform="translate(-10.5 -61.42)"/><path class="cls-1" d="M330.14,342.92a12.92,12.92,0,0,1-1.71,6,46,46,0,0,1-9.45,12c-4.71,4.44-9.77,8.49-14.76,12.62l-5.92,4.88c-.62.51-1.23,1.09-2.11.51s-.83-1.5-.54-2.36a17,17,0,0,1,4.87-7.29c2.07-1.88,4.19-3.7,6.27-5.58,7.55-6.82,14.76-13.94,20.48-22.42a4.24,4.24,0,0,1,.76-.92c.82-.72,1.31-.56,1.68.53A6.37,6.37,0,0,1,330.14,342.92Z" transform="translate(-10.5 -61.42)"/><path class="cls-1" d="M514.48,482.48c-.22,5.58-1.06,11.11-1.66,16.66-.21,2-.61,3.95-.74,5.93-.31,4.62-6.72,7.21-10.35,5.59a1.72,1.72,0,0,1-1.13-2.29c1.95-6.74,3-13.71,5.37-20.35a39.46,39.46,0,0,1,4.1-8.63,11.32,11.32,0,0,1,1.31-1.7,1.74,1.74,0,0,1,2-.47,1.65,1.65,0,0,1,1.13,1.67C514.49,480.09,514.48,481.28,514.48,482.48Z" transform="translate(-10.5 -61.42)"/><path class="cls-1" d="M584.81,442.49a2.48,2.48,0,0,1-2.09-1.32,2.44,2.44,0,0,1,.66-2.63c2.45-3.06,4.83-6.17,7.34-9.17,7.49-9,16.36-16.13,27.27-20.55,2.29-.93,4.63-1.75,7-2.61a1.61,1.61,0,0,1,2.13.49c.55.84.08,1.53-.47,2.14a4.49,4.49,0,0,1-1,.72c-1.82,1.15-3.58,2.43-5.5,3.4-12.67,6.38-22.85,15.69-31.63,26.67a25,25,0,0,1-1.73,2A2.9,2.9,0,0,1,584.81,442.49Z" transform="translate(-10.5 -61.42)"/><path class="cls-1" d="M283.37,562c.25,2.4-1.32,4.08-.77,6,.63.45,1.1-.07,1.55-.25,2.9-1.17,6-1.82,8.93-2.72a25.42,25.42,0,0,0,7.56-3.51c.7-.51,1.4-1.16,2.36-.5s.77,1.5.54,2.37-.45,1.7-.72,2.54a5.22,5.22,0,0,1-4.63,4c-8.51.83-15.6,4.85-22.29,9.8-.91.68-1.83,1.08-2.82.28a2.3,2.3,0,0,1-.73-2.8,16.06,16.06,0,0,1,.73-1.77,37.25,37.25,0,0,0,3.62-10.11,2.9,2.9,0,0,1,2.74-2.54C280.68,562.52,282,562.66,283.37,562Z" transform="translate(-10.5 -61.42)"/><path class="cls-1" d="M453.65,281.23c1.4,0,2.09,1.08,2.91,1.94s1.69,2.5,2.92,2.14,1-2.15,1.24-3.37a25.41,25.41,0,0,0-1.07-12.05,14.51,14.51,0,0,1,1.26-11.43,6.3,6.3,0,0,1,1.29,2.81,26.86,26.86,0,0,0,4.12,8.32c1.67,2.08,1.66,4.61,1,7.1-.79,3.09-1.66,6.16-2.56,9.22a9.2,9.2,0,0,1-6,6.65c-1.33.46-2.19,1.57-3.21,2.45-.75.65-1.55,1.23-2.58.66a2.27,2.27,0,0,1-1.22-2.64c1.08-3.64.92-7.44,1.67-11.12A5.34,5.34,0,0,1,453.65,281.23Z" transform="translate(-10.5 -61.42)"/><path class="cls-1" d="M323.86,327.55a15.28,15.28,0,0,1-2.2,7.25,58.57,58.57,0,0,1-4.89,7.11c-4.91,6.17-10.81,11.32-16.83,16.35-.56.47-1.12.95-1.91.39a1.64,1.64,0,0,1-.55-1.94,8.44,8.44,0,0,1,.78-1.74,28.84,28.84,0,0,1,4.66-6.07,91.29,91.29,0,0,0,15.41-21c.6-1.13,1.09-2.31,1.63-3.47a2,2,0,0,1,2-1.38c.95.09,1.25.87,1.5,1.66A8,8,0,0,1,323.86,327.55Z" transform="translate(-10.5 -61.42)"/><path class="cls-1" d="M332.85,533.76c.42,5.35-3.1,7.31-6.38,7a14.89,14.89,0,0,1-5.45-1.71c-1.32-.68-1.68-1.33-1.18-2.71,2.5-6.89,4.24-14,7.5-20.66.28-.57.59-1.13.88-1.7s.69-.56,1.2-.53.77.42.85.95c.19,1.42.43,2.83.61,4.25C331.62,524.29,332.34,529.9,332.85,533.76Z" transform="translate(-10.5 -61.42)"/><path class="cls-1" d="M165.77,430c-1.41,1.49-2.69,2.7-3.77,4.06-1.29,1.61-.95,2.39,1.09,2.63,1.34.16,2.71.13,4.07.18a7.08,7.08,0,0,1,2.83.5c0,.7-.63.81-1,1.12a13.94,13.94,0,0,0-4,5.88c-.8,2.09-1.54,4.19-2.37,6.27a7.14,7.14,0,0,1-2,3,2.29,2.29,0,0,1-2.39.67c-1.09-.41-1-1.31-1-2.2a121.3,121.3,0,0,0-.3-13.88,28.07,28.07,0,0,0-1.19-6.34,8.3,8.3,0,0,1,.64-6.27c.72-1.64,1.91-1.86,3.19-.52A27,27,0,0,0,165.77,430Z" transform="translate(-10.5 -61.42)"/><path class="cls-1" d="M278.34,601c-1.35.15-2.69-.06-4.06.14s-1.84-.36-2.06-1.73a4.25,4.25,0,0,1,2.32-4.56,14.22,14.22,0,0,0,3.09-1.79,10.44,10.44,0,0,0,3.33-5.92c.58-2.4,1.18-2.68,3.31-1.61,2.5,1.25,5,2.56,7.4,3.91,1.46.81,1.59,1.27,1.17,2.93-1.12,4.44-6.09,8.47-10.67,8.62C280.89,601.06,279.61,601,278.34,601Z" transform="translate(-10.5 -61.42)"/><path class="cls-1" d="M297.6,341.31c-.54-1.61,0-3,.64-4.4,2.75-6.36,5.32-12.8,6.71-19.63.27-1.33.41-2.69.76-4,.57-2.12,1.91-3,3.88-2.66a3.55,3.55,0,0,1,3.25,3.77,10.61,10.61,0,0,1-.7,3.26,78.19,78.19,0,0,1-10.72,21.27C300.51,340.22,299.57,341.57,297.6,341.31Z" transform="translate(-10.5 -61.42)"/><path class="cls-1" d="M266.26,569.44c0,1.11,0,2.23,0,3.35a11.83,11.83,0,0,1-.13,2.15c-.5,2.56-2.34,3.25-4.35,1.61-.87-.7-1.52-1.68-2.42-2.32-4-2.88-4.94-7.26-5.86-11.66a5.34,5.34,0,0,1-.06-1.2c0-2.09.65-2.59,2.69-2,2.39.64,4.77,1.31,7.19,1.81,2.07.43,2.95,1.61,3,3.74,0,1.52,0,3,0,4.56Z" transform="translate(-10.5 -61.42)"/><path class="cls-1" d="M294.23,319c0,5.09-.44,9.52-2.16,13.73a17,17,0,0,1-1.08,2.13,1.8,1.8,0,0,1-2.16,1.08c-1.15-.33-1-1.27-.9-2.15a72.18,72.18,0,0,0,.41-13.86,66.67,66.67,0,0,0-1.19-10c-.07-.4-.18-.78-.22-1.18-.11-1-.27-2.09,1-2.68a3,3,0,0,1,3.34.48,6.72,6.72,0,0,1,1.57,2.65A24.87,24.87,0,0,1,294.23,319Z" transform="translate(-10.5 -61.42)"/><path class="cls-1" d="M261.11,587.78a19.44,19.44,0,0,1-1.8,7.64c-.38,1-.78,1.92-1.17,2.88-1.11,2.72-2.58,3.44-5.38,2.42a6.44,6.44,0,0,1-4.23-4.83,3.12,3.12,0,0,1,.69-3.14,63.7,63.7,0,0,0,4.51-5.59,12.49,12.49,0,0,1,3.4-3c2.39-1.35,3.79-.58,4,2.19C261.14,586.82,261.11,587.3,261.11,587.78Z" transform="translate(-10.5 -61.42)"/><path class="cls-1" d="M321.17,484.53c.35,5.9,2.8,11.08,4.9,16.37a29.44,29.44,0,0,1,1.21,3.37c.36,1.44-.1,2.07-1.5,2-5.81-.31-11.15-4.44-9.45-11.43C317.23,491.13,319.37,487.92,321.17,484.53Z" transform="translate(-10.5 -61.42)"/><path class="cls-1" d="M619.47,487c0-1,.07-1.92,1.13-2.22a2,2,0,0,1,2.29.9,17.87,17.87,0,0,1,1.08,1.85,178.45,178.45,0,0,1,8,18.38c.08.22.13.46.22.68.33.81.39,1.6-.45,2.11a1.77,1.77,0,0,1-2.2-.3,7.17,7.17,0,0,1-.66-.69,41.77,41.77,0,0,1-9.29-19.39C619.54,487.84,619.52,487.36,619.47,487Z" transform="translate(-10.5 -61.42)"/><path class="cls-1" d="M318.34,444.75a63.54,63.54,0,0,0-7.68.92,82.56,82.56,0,0,0-17.92,5.84c-.58.25-1.18.48-1.76.74a1.36,1.36,0,0,1-1.87-.52c-.55-.85-.17-1.52.55-2.05s1.18-.81,1.77-1.23a42.13,42.13,0,0,1,17.55-7.2c3.41-.59,6.53-.11,9.06,2.49a2.83,2.83,0,0,1,.38.59C318.45,444.38,318.4,444.47,318.34,444.75Z" transform="translate(-10.5 -61.42)"/><path class="cls-1" d="M203,461.73c-1.5-4.05-1.28-7.32.52-10.49a33.37,33.37,0,0,1,3.37-4.94c2.46-2.94,5-5.84,7.46-8.74.63-.73,1.29-1.5,2.43-1s1.17,1.58,1,2.65a5.84,5.84,0,0,1-1.07,2.64c-.83,1.17-1.64,2.35-2.52,3.49C210.27,450.47,205.94,455.29,203,461.73Z" transform="translate(-10.5 -61.42)"/><path class="cls-1" d="M669.6,542.61a5.09,5.09,0,0,1-.14,1.19,1.49,1.49,0,0,1-1.42,1.08c-.66.07-1.31,0-1.69-.59a4.58,4.58,0,0,1-.58-1.3c-1.48-6.37-4.72-12-7.65-17.71-.18-.36-.4-.69-.59-1a2,2,0,0,1,.37-2.79,2.37,2.37,0,0,1,3.26,0,6,6,0,0,1,1,1c4.09,5.5,6.1,11.85,7.46,18.46A12,12,0,0,1,669.6,542.61Z" transform="translate(-10.5 -61.42)"/><path class="cls-1" d="M195.84,444a4.64,4.64,0,0,1,.61-2.13A182.33,182.33,0,0,1,205.89,426c.54-.85,1.27-1.51,2.38-1.12a2.68,2.68,0,0,1,2,2.17,4.94,4.94,0,0,1-.37,2.79,14.32,14.32,0,0,1-1.78,3.11q-4.34,6-8.71,12c-.52.71-1,1.52-2.11,1.13A2.15,2.15,0,0,1,195.84,444Z" transform="translate(-10.5 -61.42)"/><path class="cls-1" d="M638.83,403.86a51.8,51.8,0,0,1,17.56,3.37,4.09,4.09,0,0,1,1.37.94,1.84,1.84,0,0,1,.23,2.58c-.7.9-1.45.46-2.13.06-2.21-1.31-4.72-1.49-7.15-1.73a60.32,60.32,0,0,0-10.75-.37,14.8,14.8,0,0,1-3.1-.25,3.6,3.6,0,0,1-1.32-.5,2.06,2.06,0,0,1-1-2.26c.13-.88.81-1.16,1.54-1.26C635.68,404.22,637.27,404.05,638.83,403.86Z" transform="translate(-10.5 -61.42)"/><path class="cls-1" d="M297.78,457.78a6.15,6.15,0,0,1,1.83-2.26,27.74,27.74,0,0,1,17.53-6.69,10.72,10.72,0,0,1,4.42.92,6.71,6.71,0,0,1,.85.42,1.62,1.62,0,0,1,.89,1.8c-.18.86-.82,1.07-1.63,1-6.94-.19-13.35,2-19.73,4.33C300.61,457.84,299.27,458.38,297.78,457.78Z" transform="translate(-10.5 -61.42)"/><path class="cls-1" d="M483.19,265.9c0-1.28,0-2.55,0-3.83a2.21,2.21,0,0,1,3.92-1.7l.17.16c2.66,2.35,2.66,2.35,4.3-.91.47-.92.94-1.84,1.39-2.78.34-.69.74-1.27,1.63-1a2.08,2.08,0,0,1,1.64,1.85,2.41,2.41,0,0,1-.36,1.37c-2.25,4.46-5,8.51-9.14,11.5a9.6,9.6,0,0,1-1.61,1c-1.17.53-1.86.15-1.93-1.14-.09-1.51,0-3,0-4.54Z" transform="translate(-10.5 -61.42)"/><path class="cls-1" d="M198.64,421.53a9.85,9.85,0,0,1-1.41,6.28,57.33,57.33,0,0,0-3,5.72c-.32.79-.87,1.41-1.82,1.16a1.78,1.78,0,0,1-1.52-2.09c.28-2.13.61-4.25.94-6.37.41-2.67.8-5.35,1.28-8,.34-1.84,1-2.48,2.38-2.43a3.08,3.08,0,0,1,3.09,2.76A24.83,24.83,0,0,1,198.64,421.53Z" transform="translate(-10.5 -61.42)"/><path class="cls-1" d="M311,437.76c-10.42.48-19.29,4.88-28.36,9.2C284.65,438.84,305.2,432.23,311,437.76Z" transform="translate(-10.5 -61.42)"/><path class="cls-1" d="M414.72,280.76a17.84,17.84,0,0,1-6.3-2.74,51.92,51.92,0,0,1-6.52-5.6c-1-1-1-1.65-.06-2.67a10.32,10.32,0,0,1,1.83-1.53c2.11-1.43,3.56-1.23,5.17.79C411.55,272.4,413.17,276.34,414.72,280.76Z" transform="translate(-10.5 -61.42)"/><path class="cls-1" d="M182.89,431.13c-2.12-3.74-4.22-7.37-6.26-11a8.58,8.58,0,0,1-.92-2.44,2.92,2.92,0,0,1,1.9-3.44c1.26-.53,2.32-.43,2.9.77,2.39,4.91,4.27,10,2.84,15.6C183.32,430.71,183.18,430.8,182.89,431.13Z" transform="translate(-10.5 -61.42)"/><path class="cls-1" d="M311.56,571.77c.29-1.3.51-2.63.89-3.91a5.49,5.49,0,0,1,5.89-3.82,4.1,4.1,0,0,1,3.46,3.17c.22,1.26-.57,2.57-2.08,3.44A13.65,13.65,0,0,1,311.56,571.77Z" transform="translate(-10.5 -61.42)"/><path class="cls-1" d="M324.72,550.65c.19,4-1.22,5.8-4.93,6.28-.71.09-1.43.08-2.14.15-1.11.12-1.68-.24-1.5-1.46.1-.71.05-1.44.17-2.15a2.73,2.73,0,0,1,2.27-2.46A19.44,19.44,0,0,1,324.72,550.65Z" transform="translate(-10.5 -61.42)"/><path class="cls-1" d="M622.8,256.46c-.2-.13-.35-.32-.18-.53s.39-.06.58,0Z" transform="translate(-10.5 -61.42)"/></svg>