<svg id="Layer_1" data-name="Layer 1" xmlns="http://www.w3.org/2000/svg" viewBox="0 0 796 796"><defs><style>.cls-1{fill:#333;}.cls-2{fill:#42677e;}.cls-3{fill:#c9d2d0;}.cls-4{fill:#91a6ae;}.cls-5{fill:#688696;}.cls-6{fill:#7ac943;}.cls-7{fill:#fff;}.cls-8{fill:#7b2b2e;}.cls-9{fill:#963639;}</style></defs><title>logo3</title><circle class="cls-1" cx="398" cy="398" r="398"/><path class="cls-2" d="M209.1,722.38c.78-1,1.32,0,1.79.32,26.57,16.87,55.15,20.9,85.55,13.49,14.48-3.54,29.23-5.32,44-6.88q32.69-3.46,65.54-4.16c10.66-.22,21.36.54,32,1.14,9.72.54,19.43,1.37,29.13,2.24a544.65,544.65,0,0,1,59.21,9c27.86,5.62,54.37.8,78.52-14.74a66.35,66.35,0,0,0,15.72-14.75c.92,3.07,2.75,4.16,7.16,4.24-3.56,6.19-8.79,10.82-14.38,15-15.24,11.51-32.86,16.35-51.54,18.29-14.53,1.51-28.5-1.32-42.53-4.57-14.7-3.4-29.75-4.73-44.75-6.18-18.47-1.78-37-2.75-55.52-3.47-11.86-.46-23.68.59-35.5,1.23Q360,734,336.61,736.73a372.45,372.45,0,0,0-39.82,7.08c-18.31,4.21-36.4,2.45-54.25-2.8A88,88,0,0,1,212,725.22,9.45,9.45,0,0,1,209.1,722.38Z" transform="translate(-26.11 -69.1)"/><path class="cls-2" d="M581,537.38c.94-.76,1.46.19,2,.58,22.16,15,45.8,16.2,70.34,7.14,17.78-6.57,32.25-17.91,44.52-32.21.61-.71,1.26-1.39,1.89-2.08,2.45,1.46,3.71,4.83,7.27,4.49-17.77,22.45-39.91,37.91-68.92,41.28-21.09,2.46-39.87-3.79-56-17.8A12.3,12.3,0,0,1,581,537.38Z" transform="translate(-26.11 -69.1)"/><path class="cls-2" d="M464.57,351.12c.88-.57,1.34.27,1.88.62,24.71,16.43,50.32,16.57,76.54,4.07,13.46-6.42,24.32-16.17,34.13-27.21,1,3,2.41,5.66,6,6.1-14.23,16.76-31.24,29.33-53,34.25-24.59,5.54-46.28-.7-65.28-17C464.63,351.82,464.65,351.41,464.57,351.12Z" transform="translate(-26.11 -69.1)"/><path class="cls-2" d="M251.06,341.66c1.49-.12,2.13,1.18,3.06,1.93,17.22,13.85,36.44,22.13,59,20.8,20.65-1.22,37.39-10.4,50.88-25.84l2.06-2.37a8.8,8.8,0,0,1,3.64,2.76,3.89,3.89,0,0,0,3.82,1.45c-13.44,18-31.06,28.65-53.68,30.27-20.77,1.48-38.93-5.65-55.48-17.6A87.8,87.8,0,0,1,251.06,341.66Z" transform="translate(-26.11 -69.1)"/><path class="cls-2" d="M136.11,531.09c1.3-.92,1.84.47,2.52,1,13.3,9.58,27.8,16.38,44.22,18.12,24.56,2.59,45.63-4.64,62.36-23.28a28.73,28.73,0,0,1,2.29-2.12c1.71-.23,2.66,1,3.59,2a4.13,4.13,0,0,0,4.36,1.64c-17.16,21.73-39.52,31.13-67,27.9-19.74-2.32-36.37-11.53-51.39-24.06A7,7,0,0,1,136.11,531.09Z" transform="translate(-26.11 -69.1)"/><path class="cls-3" d="M554,548.08c-2.9-1.19-4.1-4-5.83-6.27-15.9-20.45-25.51-43.73-30.81-68.94-1.7-8.07-3.22-16.21-5.89-24-4.51-13.17-9.91-26-18.22-37.31a3.83,3.83,0,0,1-1-2.55,69.27,69.27,0,0,1,11.56,15.11c10.46,17.32,16,36.38,20,56.06,4.61,22.56,13.14,43.59,26.46,62.52C551.58,544.47,553.38,545.88,554,548.08Z" transform="translate(-26.11 -69.1)"/><path class="cls-4" d="M596.71,297.28c.45-3.78,2.42-7,3.63-10.57A143.67,143.67,0,0,0,608,234.06c1.89.6,3.52,1.91,5.59,2,2.1,20.54-1,40.38-8,59.71-.39,1.07-.93,2.09-1.39,3.13C601.6,299,598.57,300.9,596.71,297.28Z" transform="translate(-26.11 -69.1)"/><path class="cls-5" d="M707.05,515.3c-3.56.34-4.82-3-7.27-4.49,6.33-8.55,12.38-17.29,16.84-27,1.69-3.69,3.23-7.45,4.84-11.18,2.21,1.77,5.19.5,7.5,1.89a114.36,114.36,0,0,1-13.82,29.37C712.6,507.79,710.41,512,707.05,515.3Z" transform="translate(-26.11 -69.1)"/><path class="cls-4" d="M381,308.37c5.18-15.53,6.9-31.51,6.21-47.8-.07-1.66-.34-3.31-.52-5l5.38.6a99.13,99.13,0,0,1,1.34,22.42c-.59,11.18-1.22,22.39-5.48,33C385.78,310.26,383.1,310,381,308.37Z" transform="translate(-26.11 -69.1)"/><path class="cls-4" d="M729,474.51c-2.31-1.39-5.29-.12-7.5-1.89a151.75,151.75,0,0,0,7.77-31.69,119.52,119.52,0,0,0,.94-17.43c2.15.26,3.79,2.09,6.06,2a132.75,132.75,0,0,1-6.35,47.07A15.43,15.43,0,0,1,729,474.51Z" transform="translate(-26.11 -69.1)"/><path class="cls-5" d="M596.71,297.28c1.86,3.62,4.89,1.75,7.55,1.62a121.27,121.27,0,0,1-21.11,35.8c-3.62-.44-5-3.1-6-6.1a146.82,146.82,0,0,0,18.63-30.14A5.85,5.85,0,0,1,596.71,297.28Z" transform="translate(-26.11 -69.1)"/><path class="cls-3" d="M268.84,456.06c-1.12-10.13-2.16-20.26-5-30.11a146.82,146.82,0,0,0-18.32-40.26c-1.72-2.64-4.46-4.73-5-8.13,3.1,2.07,4.93,5.31,7,8.19a141.24,141.24,0,0,1,25.49,59.67c.79,4.39,1.75,8.82,1.37,13.35C272.26,458.6,271.19,456,268.84,456.06Z" transform="translate(-26.11 -69.1)"/><path class="cls-5" d="M255.45,528.45a4.13,4.13,0,0,1-4.36-1.64c-.93-1.08-1.88-2.27-3.59-2a102.06,102.06,0,0,0,16.22-30.31,19.25,19.25,0,0,0,7,2.67A85.23,85.23,0,0,1,255.45,528.45Z" transform="translate(-26.11 -69.1)"/><path class="cls-5" d="M381,308.37c2.06,1.62,4.74,1.89,6.93,3.23a83.68,83.68,0,0,1-14.49,28.79,3.89,3.89,0,0,1-3.82-1.45,8.8,8.8,0,0,0-3.64-2.76A106.46,106.46,0,0,0,381,308.37Z" transform="translate(-26.11 -69.1)"/><path class="cls-4" d="M270.68,497.13a19.25,19.25,0,0,1-7-2.67,183.65,183.65,0,0,0,4.14-20.68c.72-5.9.27-11.84,1-17.72,2.35-.06,3.42,2.54,5.66,2.71,0,5.76.48,11.56-.09,17.25C273.7,483.12,273.26,490.33,270.68,497.13Z" transform="translate(-26.11 -69.1)"/><path class="cls-3" d="M736.23,425.51c-2.27.08-3.91-1.75-6.06-2-.31-11.4-1.81-22.62-5.65-33.4-3-8.45-6.66-16.62-12.13-23.85a12.24,12.24,0,0,1-1.12-2.55c4.61,3.56,7.67,8.43,10.61,13.28a97.48,97.48,0,0,1,14,44.21C736,422.63,736.8,424,736.23,425.51Z" transform="translate(-26.11 -69.1)"/><path class="cls-3" d="M613.61,236.06c-2.07-.09-3.7-1.4-5.59-2-.61-4.28-1.18-8.57-1.83-12.84a100.33,100.33,0,0,0-6.6-23.67,101.84,101.84,0,0,0-10.7-19.4,3.87,3.87,0,0,1-.95-2.56c6,5.52,10.14,12.32,13.88,19.42a105.15,105.15,0,0,1,11,34C613.14,231.32,613.34,233.7,613.61,236.06Z" transform="translate(-26.11 -69.1)"/><path class="cls-3" d="M392.11,256.2l-5.38-.6a142.09,142.09,0,0,0-14.22-48.39c-.74-1.47-1.48-2.8.23-4.07,3.9,5.08,6.46,10.92,9.12,16.66,5.07,11,7.93,22.71,10.28,34.54A9.66,9.66,0,0,1,392.11,256.2Z" transform="translate(-26.11 -69.1)"/><path class="cls-3" d="M632,666.37c-1.38-14.88-4.9-29.17-11.74-42.55-.54-1.07-1.52-2.54.42-3.47,4.15,5.18,6.55,11.3,9.22,17.27,4,8.9,5.91,18.38,7.69,27.89a15.42,15.42,0,0,1,0,2.8C635.49,668.32,633.88,666.94,632,666.37Z" transform="translate(-26.11 -69.1)"/><path class="cls-5" d="M627.77,712.32c-4.41-.08-6.24-1.17-7.16-4.24,3.58-5.64,6.82-11.44,8.76-17.88,2.36.73,4.32,2.49,6.91,2.63A49.58,49.58,0,0,1,627.77,712.32Z" transform="translate(-26.11 -69.1)"/><path class="cls-4" d="M636.28,692.83c-2.59-.14-4.55-1.9-6.91-2.63A77.85,77.85,0,0,0,632,666.37c1.88.57,3.49,2,5.57,1.94.15,7.4,1.43,14.83-.54,22.17C636.81,691.27,636.53,692.05,636.28,692.83Z" transform="translate(-26.11 -69.1)"/><path class="cls-4" d="M573.44,529.8l7,6.26-1,.07C577,534.46,574.61,532.68,573.44,529.8Z" transform="translate(-26.11 -69.1)"/><path class="cls-2" d="M462.74,349.9c1-.12,2-.24,1.87,1.25A1.71,1.71,0,0,1,462.74,349.9Z" transform="translate(-26.11 -69.1)"/><path class="cls-3" d="M492.3,409c-.71-.15-1.56-.21-.66-1.22A1.36,1.36,0,0,1,492.3,409Z" transform="translate(-26.11 -69.1)"/><path class="cls-3" d="M240.59,377.54a1.19,1.19,0,0,1-1.25-1.25A1.19,1.19,0,0,1,240.59,377.54Z" transform="translate(-26.11 -69.1)"/><path class="cls-3" d="M711.27,363.7c-.7-.15-1.54-.22-.65-1.22A1.34,1.34,0,0,1,711.27,363.7Z" transform="translate(-26.11 -69.1)"/><path class="cls-6" d="M207.84,721.1c.87,0,1.73,0,1.29,1.3A1.31,1.31,0,0,1,207.84,721.1Z" transform="translate(-26.11 -69.1)"/><path class="cls-2" d="M134.85,529.81c.91,0,1.72,0,1.29,1.3A1.25,1.25,0,0,1,134.85,529.81Z" transform="translate(-26.11 -69.1)"/><path class="cls-2" d="M133.56,528.54c.76.12,1.48.28,1.34,1.32C134,529.92,133.52,529.47,133.56,528.54Z" transform="translate(-26.11 -69.1)"/><path class="cls-2" d="M579.4,536.13l1-.07c.31.4,1.26.51.58,1.34A2.63,2.63,0,0,1,579.4,536.13Z" transform="translate(-26.11 -69.1)"/><path class="cls-6" d="M206.62,719.85c.68.18,1.4.32,1.27,1.3C207,721.14,206.58,720.73,206.62,719.85Z" transform="translate(-26.11 -69.1)"/><path class="cls-3" d="M559.57,555l-.57-1.22A1.22,1.22,0,0,1,559.57,555Z" transform="translate(-26.11 -69.1)"/><path class="cls-4" d="M572.61,529.16l.88.69Z" transform="translate(-26.11 -69.1)"/><path class="cls-7" d="M481.62,403.47c9.24,9.11,15.5,20.17,20.79,31.87,6.29,13.93,9.16,28.82,12.51,43.6a167.29,167.29,0,0,0,30,65c8,10.46,17.31,19.66,26.75,28.74s19.16,17.91,27.92,27.67c17.78,19.84,28,42.94,28.58,69.78.5,24.33-10.81,42.25-31.94,53.58-24.48,13.14-50.46,15.42-77.32,8.55-14.14-3.61-28.61-5.16-43.08-6.69-20.43-2.16-40.93-3.37-61.46-4.11-12.39-.44-24.73.49-37.07,1.15q-26.53,1.42-52.89,4.78a322.08,322.08,0,0,0-33.89,6.38c-13.68,3.22-27.46,2.78-41.18.29-12.66-2.29-24.59-6.58-35.35-13.79a40.8,40.8,0,0,1-7.22-6,29.08,29.08,0,0,0-.8-3.64A66,66,0,0,1,202,683.37c.87-13.47,4.88-26.11,10.19-38.42,2.93-6.12,6.74-11.74,10.1-17.61,3.23-4.06,6.77-7.86,9.64-12.2,3.92-3,6.83-7,10.39-10.37,11.09-10.44,22.3-20.76,32.78-31.84.78-.82,1.43-1.76,2.15-2.65a103.5,103.5,0,0,0,14.48-18.41c3.69-4.41,6.16-9.57,9-14.53.86-1.53,1.8-3.06,1.73-4.93,1.42-.27,1.56-1.61,2-2.59a154.25,154.25,0,0,0,10.95-32.65c3.5-16.59,7.4-33,14.46-48.54a95.93,95.93,0,0,1,9.95-17.26c1.62-2.13,3.57-4.08,4.59-6.65q6.7-6.89,13.43-13.76c4.8-3.88,10-7.24,15.12-10.65a183.38,183.38,0,0,1,18.75-8.19c.71-.15,1.43-.28,2.13-.47a113.88,113.88,0,0,1,49.43-2.78,111.18,111.18,0,0,1,25.16,7.54Z" transform="translate(-26.11 -69.1)"/><path class="cls-6" d="M329.82,448.63c-7.06,15.51-11,31.95-14.46,48.54a154.25,154.25,0,0,1-10.95,32.65c-.45,1-.59,2.32-2,2.59-.57-2.93-2.39-5-4.62-6.82a4.76,4.76,0,0,1-.67-1c-3.1-4.56-5.37-4.68-8.91-.38a25,25,0,0,0-1.94,2.78c-3.16,5.12-5.77,10.83-10.33,14.73-3.84,3.28-6.51,7.46-10.14,10.81a203.86,203.86,0,0,1-15,15.87,2.7,2.7,0,0,1-2.78,1c9-9.17,18.08-18.22,25.54-28.74l5.78-8.11.72-1-.12.07c.8-.06.86-.61.81-1.23l0,0c2.31-.65,2.57-2.47,2.52-4.47l0,0c2.28-.63,2.89-2.25,2.59-4.4l0,0a3.2,3.2,0,0,0,3.14-1.67c2.77-5.69,5.82-11.27,8.15-17.14,5.31-13.35,8.48-27.35,11.41-41.37a146.65,146.65,0,0,1,6-20.32c.78-2.16.92-5,3.55-6.25-.34,2.44-1.28,4.73-1.54,7.23-.36,3.39,3.24,8.09,6.64,8.57C325.77,451,327.37,448.52,329.82,448.63Z" transform="translate(-26.11 -69.1)"/><path class="cls-6" d="M248.05,569.34a2.7,2.7,0,0,0,2.78-1,203.86,203.86,0,0,0,15-15.87,2.89,2.89,0,0,0,2.3-.77c2.32-2.4,4.79-4.67,7-7.21,2.8-3.29,3.94-3.4,7-.66,1.95,1.72,3.63,3.68,5.44,5.52,1.19,1.21,2.4,2.35,4.2,2.5a103.5,103.5,0,0,1-14.48,18.41,82.82,82.82,0,0,1-5.72-7.75c-2.73-4.38-5.09-4.59-9.35-1.76a15.88,15.88,0,0,0-1.8,1.23c-7.53,6.87-15.12,13.68-22.53,20.67-4.56,4.29-8.85,8.85-13,13.52-4,4.47-4.06,8.17,0,12.59,2.18,2.4,5.15,3.81,7.15,6.36-2.87,4.34-6.41,8.14-9.64,12.2-3.83-.09-6.16-2.65-8.54-5.14-4.36-4.57-4.63-7.32-1.17-12.5a14,14,0,0,0,1.19-1.83c1.49-3.24,4.78-5.6,4.72-9.6l0,.07.68-.73-.07.08a.74.74,0,0,0,.68-.72l-.07.07a.72.72,0,0,0,.7-.71l-.07.08a.73.73,0,0,0,.7-.71l-.07.08a.72.72,0,0,0,.69-.71l-.07.07a.68.68,0,0,0,.68-.72l-.07.07a.65.65,0,0,0,.68-.71l-.06.07a.62.62,0,0,0,.67-.71h-.06a10.79,10.79,0,0,0,7-6.9l0,.07a.7.7,0,0,0,.72-.69l-.07.08a.73.73,0,0,0,.71-.69l-.07.07.71-.69-.07.08.72-.69-.07.07.71-.68-.07.07.71-.69-.07.07.7-.69-.06.07.86-.79a3.76,3.76,0,0,1,1.74-1.74c2.06.14,6-3.61,6.78-6.44l0,.09a.74.74,0,0,0,.72-.72l-.09.1a.77.77,0,0,0,.73-.71l-.08.09.72-.71-.08.09.72-.7-.08.09.72-.72-.08.09.72-.7Z" transform="translate(-26.11 -69.1)"/><path class="cls-6" d="M329.82,448.63c-2.45-.11-4.05,2.36-6.73,2-3.4-.48-7-5.18-6.64-8.57.26-2.5,1.2-4.79,1.54-7.23-.13-1.83.64-3.41,1.26-5.06,1.26-3.31,2.82-6.55,3.05-10.17l-.05,0c2.07-.2,2-1.68,1.93-3.2h-.06c1.93.14,2.16-1,1.92-2.53l0,0c1.52.16,1.43-.86,1.35-1.86l0,0c1,0,1.47-.43,1-1.46l.07,0c.5.07.71-.1.51-.61l.06-.12c.93.25.9-.38.9-1l0,0c1.12,0,1.37-.62,1.28-1.57l.08-.23.58-.75,0,0c.95.07,1.36-.39,1.26-1.32l0,.08.69-.85a48.93,48.93,0,0,1,10.64-9.93l.15.15a2.69,2.69,0,0,1-1.19,2.09c-3.86,3.28-6.46,7.55-9.12,11.75-.94,1.48-2,3-1.58,4.92.84,4.24,7.47,10.64,11.81,11.41-1,2.57-3,4.52-4.59,6.65A95.93,95.93,0,0,0,329.82,448.63Z" transform="translate(-26.11 -69.1)"/><path class="cls-6" d="M212.17,645c-5.31,12.31-9.32,24.95-10.19,38.42-1.85-.17-3.72.23-5.57-.37-2.21-.71-3.07.41-3.69,2.5-1.72,5.77,1.36,10.24,3.69,14.93.54,1.09,1.59,2,1,3.39-3.29-4.65-6.26-9.41-6.73-15.32-.09-1.12-.95-2.18-1.45-3.27,1.59-.57.91-1.93,1-3,.31-5.83-.5-11.69.62-17.52,1.2-6.22,1.93-12.53,3.29-18.71a73.25,73.25,0,0,1,4.92-13.65c.18.25.57.58.51.73-1.84,4.32,1.26,7.3,3,10.51,1.59,2.87,4.5,3.42,7.49,1.91A4.43,4.43,0,0,1,212.17,645Z" transform="translate(-26.11 -69.1)"/><path class="cls-6" d="M212.17,645a4.43,4.43,0,0,0-2,.58c-3,1.51-5.9,1-7.49-1.91-1.79-3.21-4.89-6.19-3-10.51.06-.15-.33-.48-.51-.73,2-4,3.8-8,5.73-11.94,1.55-3.21,3.21-6.51,3.65-10.18l0,.07.64-.78-.08.05c1.14-.09,2.62.07,1.34-1.82a56.54,56.54,0,0,1,8.17-9.51c.06,4-3.23,6.36-4.72,9.6a14,14,0,0,1-1.19,1.83c-3.46,5.18-3.19,7.93,1.17,12.5,2.38,2.49,4.71,5,8.54,5.14C218.91,633.21,215.1,638.83,212.17,645Z" transform="translate(-26.11 -69.1)"/><path class="cls-6" d="M322.3,419.57c-.23,3.62-1.79,6.86-3.05,10.17-.62,1.65-1.39,3.23-1.26,5.06-2.63,1.24-2.77,4.09-3.55,6.25a146.65,146.65,0,0,0-6,20.32c-2.93,14-6.1,28-11.41,41.37-2.33,5.87-5.38,11.45-8.15,17.14a3.2,3.2,0,0,1-3.14,1.67,245.14,245.14,0,0,0,11.47-28.29c4.4-13.1,6.07-26.87,10.05-40.07C310.86,441.35,315.24,429.86,322.3,419.57Z" transform="translate(-26.11 -69.1)"/><path class="cls-6" d="M208.45,610.26c-.44,3.67-2.1,7-3.65,10.18-1.93,4-3.78,8-5.73,11.94A73.25,73.25,0,0,0,194.15,646c-1.36,6.18-2.09,12.49-3.29,18.71-1.12,5.83-.31,11.69-.62,17.52-.06,1,.62,2.4-1,3-3.67-16.87-.71-33.08,5-48.94A91.68,91.68,0,0,1,208.45,610.26Z" transform="translate(-26.11 -69.1)"/><path class="cls-6" d="M197.45,703.82c.55-1.41-.5-2.3-1-3.39-2.33-4.69-5.41-9.16-3.69-14.93.62-2.09,1.48-3.21,3.69-2.5,1.85.6,3.72.2,5.57.37a66,66,0,0,0,3.94,27.24,29.08,29.08,0,0,1,.8,3.64,21.75,21.75,0,0,1-6.46-6.77l-.65-.81,0,0c0-.59-.06-1.17-.92-1l0-.06c.46-1.19.2-1.89-1.22-1.82Z" transform="translate(-26.11 -69.1)"/><path class="cls-6" d="M436,376.22l.15-.13c.49.91,1.28.85,2.11.68l0-.09c.42,1.14,1.38.77,2.2.79l.15-.11c.46.9,1.27.8,2.07.73l-.06,0c.4.93,1.21.71,1.94.69l-.05,0c.25.67.77.72,1.37.57l-.06-.05c.3,1.05,1.14.79,1.88.79l-.05,0c.25.66.78.7,1.36.6l-.07-.05c.33,1,1.16.75,1.88.77l0,0c.26.6.77.66,1.33.63l-.06,0c.24.64.76.7,1.33.65l-.06-.05c.22.67.75.73,1.33.67l-.06-.05c.2.67.73.73,1.31.69l-.06-.05c.21.66.73.72,1.3.7l-.05,0,.8.55.05-.07-.24.89c-1.75.84-3.28-.22-4.62-.89-10.47-5.2-21.63-7.85-33.15-9.16-1.3-.15-1.95-.53-1.93-1.84,1.65-.05,3.29.19,4.92.3C427.37,374.47,431.57,376.23,436,376.22Z" transform="translate(-26.11 -69.1)"/><path class="cls-6" d="M436,376.22c-4.47,0-8.67-1.75-13.12-2.07-1.63-.11-3.27-.35-4.92-.3H408a96.75,96.75,0,0,0-20.74,1.24c-4.49.78-8.64,2.93-13.25,3.11l-.15-.18a78.84,78.84,0,0,1,26-5.33c11.09-.59,22.18-.33,33.06,2.41C434,375.36,435.18,375.32,436,376.22Z" transform="translate(-26.11 -69.1)"/><path class="cls-6" d="M481.62,403.47l-13.24-7.06c.6-1.59-1.76-2.74-.64-4.4H469l.7.6-.06-.05.83.64A54.77,54.77,0,0,1,481.62,403.47Z" transform="translate(-26.11 -69.1)"/><path class="cls-6" d="M230.36,586.25a10.79,10.79,0,0,1-7,6.9A24.83,24.83,0,0,1,230.36,586.25Z" transform="translate(-26.11 -69.1)"/><path class="cls-6" d="M244.21,573c-.77,2.83-4.72,6.58-6.78,6.44C239.55,577.19,241.45,574.66,244.21,573Z" transform="translate(-26.11 -69.1)"/><path class="cls-6" d="M285.81,521.52c.3,2.15-.31,3.77-2.59,4.4A16.24,16.24,0,0,1,285.81,521.52Z" transform="translate(-26.11 -69.1)"/><path class="cls-6" d="M283.26,525.89c.05,2-.21,3.82-2.52,4.47A11.29,11.29,0,0,1,283.26,525.89Z" transform="translate(-26.11 -69.1)"/><path class="cls-6" d="M344.29,394.4c1-.94,1.61-2.3,3.15-2.52l.14.14a2.73,2.73,0,0,1-3.14,2.53Z" transform="translate(-26.11 -69.1)"/><path class="cls-6" d="M324.18,416.41c.1,1.52.14,3-1.93,3.2A5.28,5.28,0,0,1,324.18,416.41Z" transform="translate(-26.11 -69.1)"/><path class="cls-6" d="M326,413.89c.24,1.51,0,2.67-1.92,2.53A5.93,5.93,0,0,1,326,413.89Z" transform="translate(-26.11 -69.1)"/><path class="cls-6" d="M367.49,380.4l3.14-1.25a2.11,2.11,0,0,0,.2.29,3.46,3.46,0,0,1-3.13,1.24A2.92,2.92,0,0,1,367.49,380.4Z" transform="translate(-26.11 -69.1)"/><path class="cls-6" d="M210.3,607.78c1.28,1.89-.2,1.73-1.34,1.82C209.4,609,209.85,608.39,210.3,607.78Z" transform="translate(-26.11 -69.1)"/><path class="cls-6" d="M353.81,387.55a4.72,4.72,0,0,1,2.29-1.5,2.68,2.68,0,0,0,.28.3c-.45,1.18-1.42,1.33-2.5,1.28Z" transform="translate(-26.11 -69.1)"/><path class="cls-6" d="M351.9,388.79a3.3,3.3,0,0,1,1.91-1.24l.07.08c-.05,1.29-1,1.26-1.89,1.25Z" transform="translate(-26.11 -69.1)"/><path class="cls-6" d="M350,390.05a2.91,2.91,0,0,1,1.88-1.26l.09.09c0,.42,0,.83,0,1.25l-1.86,0Z" transform="translate(-26.11 -69.1)"/><path class="cls-6" d="M348.16,391.34a3.32,3.32,0,0,1,1.86-1.29l.09.1c-.08,1.25-1,1.26-1.89,1.26Z" transform="translate(-26.11 -69.1)"/><path class="cls-6" d="M197.47,703.81c1.42-.07,1.68.63,1.22,1.82C198.28,705,197.88,704.42,197.47,703.81Z" transform="translate(-26.11 -69.1)"/><path class="cls-6" d="M327.36,412.05c.08,1,.17,2-1.35,1.86Z" transform="translate(-26.11 -69.1)"/><path class="cls-6" d="M328.33,410.63c.47,1,0,1.44-1,1.46Z" transform="translate(-26.11 -69.1)"/><path class="cls-6" d="M331.12,407.36c.09.95-.16,1.61-1.28,1.57Z" transform="translate(-26.11 -69.1)"/><path class="cls-6" d="M365.76,381.25l1.73-.85a2.92,2.92,0,0,0,.21.28c-.42.8-1.19.6-1.87.65Z" transform="translate(-26.11 -69.1)"/><path class="cls-6" d="M450.82,381.28c-.72,0-1.55.21-1.88-.77A2.66,2.66,0,0,1,450.82,381.28Z" transform="translate(-26.11 -69.1)"/><path class="cls-6" d="M333,405.1c.1.93-.31,1.39-1.26,1.32Z" transform="translate(-26.11 -69.1)"/><path class="cls-6" d="M438.3,376.77c-.83.17-1.62.23-2.11-.68C436.92,376.23,437.75,376.07,438.3,376.77Z" transform="translate(-26.11 -69.1)"/><path class="cls-6" d="M440.46,377.47c-.82,0-1.78.35-2.2-.79C439,376.8,439.9,376.7,440.46,377.47Z" transform="translate(-26.11 -69.1)"/><path class="cls-6" d="M442.68,378.09c-.8.07-1.61.17-2.07-.73C441.34,377.48,442.14,377.44,442.68,378.09Z" transform="translate(-26.11 -69.1)"/><path class="cls-6" d="M447.7,380c-.74,0-1.58.26-1.88-.79A2.6,2.6,0,0,1,447.7,380Z" transform="translate(-26.11 -69.1)"/><path class="cls-6" d="M444.56,378.73c-.73,0-1.54.24-1.94-.69A2.48,2.48,0,0,1,444.56,378.73Z" transform="translate(-26.11 -69.1)"/><path class="cls-6" d="M372,378.68a2.55,2.55,0,0,1,1.86-.67l.15.18c-.45.74-1.2.59-1.88.63Z" transform="translate(-26.11 -69.1)"/><path class="cls-6" d="M462.3,387.41l1.17.71-.13.13a1.2,1.2,0,0,1-1.25-.64Z" transform="translate(-26.11 -69.1)"/><path class="cls-6" d="M464.27,388.57l1.08.82-.12.12a1.22,1.22,0,0,1-1.25-.64Z" transform="translate(-26.11 -69.1)"/><path class="cls-6" d="M198.73,705.69c.86-.15.9.43.92,1Z" transform="translate(-26.11 -69.1)"/><path class="cls-6" d="M466.11,389.89l1.11.77-.1.11a1.22,1.22,0,0,1-1.25-.65Z" transform="translate(-26.11 -69.1)"/><path class="cls-6" d="M469,392h-1.27a4.42,4.42,0,0,1,0-.63l.19-.18Z" transform="translate(-26.11 -69.1)"/><path class="cls-6" d="M280.78,530.32c.05.62,0,1.17-.81,1.23Z" transform="translate(-26.11 -69.1)"/><path class="cls-6" d="M329.87,408.89c0,.6,0,1.23-.9,1Z" transform="translate(-26.11 -69.1)"/><path class="cls-6" d="M362,383.12a1.38,1.38,0,0,1,1.26-.63l.09.1c-.25.55-.75.6-1.26.63Z" transform="translate(-26.11 -69.1)"/><path class="cls-6" d="M453.38,382.5c-.57.05-1.09,0-1.33-.65A1.58,1.58,0,0,1,453.38,382.5Z" transform="translate(-26.11 -69.1)"/><path class="cls-6" d="M363.22,382.49a1.39,1.39,0,0,1,1.26-.63l.09.1c-.26.54-.75.59-1.26.63Z" transform="translate(-26.11 -69.1)"/><path class="cls-6" d="M452.11,381.89c-.56,0-1.07,0-1.33-.63Z" transform="translate(-26.11 -69.1)"/><path class="cls-6" d="M364.48,381.86a1.38,1.38,0,0,1,1.28-.61l.07.08c-.26.54-.75.6-1.26.63Z" transform="translate(-26.11 -69.1)"/><path class="cls-6" d="M449,380.56c-.58.1-1.11.06-1.36-.6C448.17,380,448.7,380,449,380.56Z" transform="translate(-26.11 -69.1)"/><path class="cls-6" d="M445.88,379.26c-.6.15-1.12.1-1.37-.57C445,378.73,445.56,378.74,445.88,379.26Z" transform="translate(-26.11 -69.1)"/><path class="cls-6" d="M370.63,379.15l1.37-.47.13.14a1.33,1.33,0,0,1-1.3.62A2.11,2.11,0,0,1,370.63,379.15Z" transform="translate(-26.11 -69.1)"/><path class="cls-6" d="M457.7,385.74l.24-.89,1.13.73-.13.15Z" transform="translate(-26.11 -69.1)"/><path class="cls-6" d="M459.07,385.58l1.21.7-.09.09c-.51,0-1-.1-1.25-.64Z" transform="translate(-26.11 -69.1)"/><path class="cls-6" d="M357,385.67a1.4,1.4,0,0,1,1.25-.65l.08.09c-.25.56-.75.6-1.26.63Z" transform="translate(-26.11 -69.1)"/><path class="cls-6" d="M460.28,386.28l1.22.67-.05.05c-.51,0-1-.09-1.26-.63Z" transform="translate(-26.11 -69.1)"/><path class="cls-6" d="M358.2,385a1.41,1.41,0,0,1,1.24-.65l.09.1c-.25.55-.74.61-1.25.64Z" transform="translate(-26.11 -69.1)"/><path class="cls-6" d="M457.14,384.41c-.57,0-1.09,0-1.3-.7Z" transform="translate(-26.11 -69.1)"/><path class="cls-6" d="M359.44,384.37a1.4,1.4,0,0,1,1.26-.63l.09.1c-.25.55-.74.61-1.26.63Z" transform="translate(-26.11 -69.1)"/><path class="cls-6" d="M455.9,383.76c-.58,0-1.11,0-1.31-.69Z" transform="translate(-26.11 -69.1)"/><path class="cls-8" d="M360.7,383.74a1.4,1.4,0,0,1,1.26-.62l.09.1c-.25.54-.75.59-1.26.62Z" transform="translate(-26.11 -69.1)"/><path class="cls-6" d="M454.65,383.12c-.58.06-1.11,0-1.33-.67A1.6,1.6,0,0,1,454.65,383.12Z" transform="translate(-26.11 -69.1)"/><path class="cls-6" d="M233,583.79l-.72.69Z" transform="translate(-26.11 -69.1)"/><path class="cls-6" d="M233.62,583.18l-.71.68Z" transform="translate(-26.11 -69.1)"/><path class="cls-6" d="M234.26,582.56l-.71.69Z" transform="translate(-26.11 -69.1)"/><path class="cls-6" d="M234.89,581.94l-.7.69Z" transform="translate(-26.11 -69.1)"/><path class="cls-6" d="M235.69,581.22l-.86.79Z" transform="translate(-26.11 -69.1)"/><path class="cls-6" d="M248.1,569.33l-.72.7Z" transform="translate(-26.11 -69.1)"/><path class="cls-6" d="M244.9,572.41a.74.74,0,0,1-.72.72Z" transform="translate(-26.11 -69.1)"/><path class="cls-6" d="M245.54,571.8a.77.77,0,0,1-.73.71Z" transform="translate(-26.11 -69.1)"/><path class="cls-6" d="M246.18,571.18l-.72.71Z" transform="translate(-26.11 -69.1)"/><path class="cls-6" d="M246.82,570.57l-.72.7Z" transform="translate(-26.11 -69.1)"/><path class="cls-6" d="M247.46,569.94l-.72.72Z" transform="translate(-26.11 -69.1)"/><path class="cls-6" d="M209,609.55l-.64.78Z" transform="translate(-26.11 -69.1)"/><path class="cls-6" d="M199.61,706.67l.65.81Z" transform="translate(-26.11 -69.1)"/><path class="cls-6" d="M219.11,597.61l-.68.73Z" transform="translate(-26.11 -69.1)"/><path class="cls-6" d="M219.72,597a.74.74,0,0,1-.68.72Z" transform="translate(-26.11 -69.1)"/><path class="cls-6" d="M220.35,596.33a.72.72,0,0,1-.7.71Z" transform="translate(-26.11 -69.1)"/><path class="cls-6" d="M221,595.7a.73.73,0,0,1-.7.71Z" transform="translate(-26.11 -69.1)"/><path class="cls-6" d="M221.6,595.07a.72.72,0,0,1-.69.71Z" transform="translate(-26.11 -69.1)"/><path class="cls-6" d="M222.21,594.42a.68.68,0,0,1-.68.72Z" transform="translate(-26.11 -69.1)"/><path class="cls-6" d="M222.82,593.78a.65.65,0,0,1-.68.71C222.37,594.26,222.6,594,222.82,593.78Z" transform="translate(-26.11 -69.1)"/><path class="cls-6" d="M223.43,593.14a.62.62,0,0,1-.67.71Z" transform="translate(-26.11 -69.1)"/><path class="cls-6" d="M231.05,585.63a.7.7,0,0,1-.72.69Z" transform="translate(-26.11 -69.1)"/><path class="cls-6" d="M231.69,585a.73.73,0,0,1-.71.69Z" transform="translate(-26.11 -69.1)"/><path class="cls-6" d="M232.33,584.4l-.71.69Z" transform="translate(-26.11 -69.1)"/><path class="cls-6" d="M328.91,410c.2.51,0,.68-.51.61Z" transform="translate(-26.11 -69.1)"/><path class="cls-6" d="M331.78,406.38l-.58.75Z" transform="translate(-26.11 -69.1)"/><path class="cls-6" d="M333.65,404.33l-.69.85Z" transform="translate(-26.11 -69.1)"/><path class="cls-6" d="M470.49,393.21l-.83-.64Z" transform="translate(-26.11 -69.1)"/><path class="cls-6" d="M469.72,392.62l-.7-.6Z" transform="translate(-26.11 -69.1)"/><path class="cls-6" d="M347.44,391.88l.72-.53.06.06-.64.61Z" transform="translate(-26.11 -69.1)"/><path class="cls-6" d="M467.22,390.66l.73.54-.19.18-.64-.61Z" transform="translate(-26.11 -69.1)"/><path class="cls-6" d="M457.89,384.92l-.8-.55Z" transform="translate(-26.11 -69.1)"/><path class="cls-6" d="M465.35,389.39l.76.5-.24.23-.64-.61Z" transform="translate(-26.11 -69.1)"/><path class="cls-6" d="M356.1,386.05l.85-.38.07.07-.64.61A2.68,2.68,0,0,1,356.1,386.05Z" transform="translate(-26.11 -69.1)"/><path class="cls-6" d="M463.47,388.12l.8.45-.29.3-.64-.62Z" transform="translate(-26.11 -69.1)"/><path class="cls-6" d="M461.5,387l.8.46-.21.2-.64-.61Z" transform="translate(-26.11 -69.1)"/><path class="cls-6" d="M280.09,531.48l-.72,1Z" transform="translate(-26.11 -69.1)"/><path class="cls-7" d="M347.62,178.86c7.46,6.75,13.12,14.92,18.1,23.55a129,129,0,0,1,16.75,49.84c3.28,28.1-.4,54.84-17.32,78.39-15.63,21.76-37,32.42-63.91,29.73-21.77-2.17-39.38-13-54.19-28.71-.71-.76-1.37-1.57-2.06-2.36.28-2.1-1.25-3.48-2.1-5.1A151.34,151.34,0,0,1,228.22,285a169.65,169.65,0,0,1-2.31-31.35,120.26,120.26,0,0,1,3.44-23.17c1.51-6.32,4.2-12.22,6.31-18.33l7.43-13.27,7-9.43,8.71-8.22,9.53-6.87a129.48,129.48,0,0,1,13.34-6,88.66,88.66,0,0,1,14.73-2.91,77.42,77.42,0,0,1,37.35,6.23Z" transform="translate(-26.11 -69.1)"/><path class="cls-6" d="M268.29,174.31l-9.53,6.87c-4.77-.57-7.77-3.72-10.16-7.41-2-3.13-1.46-5.79.88-8.76,1.68-2.14,3.76-4,4.85-6.6v0c1.06,0,2.55.75,2.49-1.34l0,.06a5.54,5.54,0,0,0,5.73-2.53l0,.06c2.12,0,4.32.21,5.7-2l0,.07a11.22,11.22,0,0,0,3.41-.23,80.17,80.17,0,0,1,13.93-1.65c5.78-.17,11.41.87,17.11,1.29l.16-.13c.67,1.12,1.74.75,2.72.73l-.06-.06c.42,1,1.21.75,2,.63l-.07-.07c.44,1.11,1.4.75,2.21.77l.2-.05a1.09,1.09,0,0,0,1.45.57l0-.06c.3,1.1,1.15.82,1.91.75l-.07-.06c.37,1,1.23.74,2,.76a62.64,62.64,0,0,1,17,9.33l-.16.17a4.3,4.3,0,0,1-2.39-.59,157.84,157.84,0,0,0-16-7c-12.82-5-26-6.47-39.5-3.7-3.47-.06-6.4,1.66-9.3,3.15-6.87,3.51-7.43,7.39-1.7,12.56.38.34,1,.48,1.28.87C265.33,172.23,267.69,172.27,268.29,174.31Z" transform="translate(-26.11 -69.1)"/><path class="cls-6" d="M243.09,198.83l-7.43,13.27c-7.6,1.07-9-1.5-10.86-5.21s-1.24-7.48.06-11.21a17.41,17.41,0,0,1,1.28-5c2.48-1.16,2.24-3.52,2.5-5.66s3-3.32,2.4-5.82l0,0c.87,0,1.86,0,.71-1.19a47.89,47.89,0,0,1,7.59-8.25l.07.19v1.82h0c-4.56,3.49-5.9,8.9-8.1,13.77-.51,1.13.07,2.46.73,3.57C234.59,193.61,237.63,197.6,243.09,198.83Z" transform="translate(-26.11 -69.1)"/><path class="cls-6" d="M254.33,158.41c-1.09,2.59-3.17,4.46-4.85,6.6-2.34,3-2.92,5.63-.88,8.76,2.39,3.69,5.39,6.84,10.16,7.41l-8.71,8.22a4.53,4.53,0,0,1-3.47-1.07c-5.31-4.26-9.93-8.79-7.24-16.54h0c.82-.12,1.78-.26,1.56-1.36-.14-.72-1-.49-1.55-.46l-.07-.19,1.2-1.16c1.85,0,3.24-.45,3-2.73l0,.09a.69.69,0,0,0,.75-.65l-.07.09.75-.65-.06,0c.28-.15,1.19.5.73-.58A32.8,32.8,0,0,1,254.33,158.41Z" transform="translate(-26.11 -69.1)"/><path class="cls-6" d="M226.14,190.66a17.41,17.41,0,0,0-1.28,5c-2.42.52-1.76,2.85-2.41,4.33a76.28,76.28,0,0,0-5.09,17.62,221.14,221.14,0,0,0-3,22.47c-.35,5.08-1.28,10.4,1.07,15.37.21,2.31.42,4.61.62,6.92-2.54,3.53,0,6.74.65,10.07l0,1.24a1.22,1.22,0,0,0,.59,1.27,54.37,54.37,0,0,0,5,15.11c-.07,1.18.71,2.12.92,3.18.34,1.75,2.13,3.13,1.29,5.15a120.77,120.77,0,0,1-11.44-36.92c-2.69-18.33-2-36.53,3.64-54.32C219,200,221.67,193,226,186.75l.17.15C226.59,188.16,224.7,189.4,226.14,190.66Z" transform="translate(-26.11 -69.1)"/><path class="cls-6" d="M224.54,298.41c.84-2-.95-3.4-1.29-5.15-.21-1.06-1-2-.92-3.18.19-.24.54-.49.53-.72-.16-5.63.2-5.93,5.36-4.41a151.34,151.34,0,0,0,14.67,39.25c.85,1.62,2.38,3,2.1,5.1a72.8,72.8,0,0,1-13.86-18.73l-.69-1,.05.08c0-.59-.06-1.14-.78-1.29l.08.1c.08-.64,0-1.19-.77-1.3l.08.06c.16-.66.11-1.2-.72-1.31l.15.06-.57-.79,0,0c-.08-.71.3-1.64-.88-1.81l.13.05a.7.7,0,0,0-.57-.79l.05.06c0-.56,0-1.12-.69-1.33l.05.07c0-.55,0-1.12-.67-1.33l.05.06c-.06-.72.31-1.63-.86-1.83Z" transform="translate(-26.11 -69.1)"/><path class="cls-6" d="M347.62,178.86l-13.91-7.2c.44-2.38-1.61-4-1.89-6.16l.16-.17C337.75,169.2,343.21,173.42,347.62,178.86Z" transform="translate(-26.11 -69.1)"/><path class="cls-6" d="M302.63,152.22c-5.7-.42-11.33-1.46-17.11-1.29a80.17,80.17,0,0,0-13.93,1.65,11.22,11.22,0,0,1-3.41.23A59.63,59.63,0,0,1,302.63,152.22Z" transform="translate(-26.11 -69.1)"/><path class="cls-6" d="M231,179.18c.57,2.5-2.21,3.63-2.4,5.82-1.11.27-1.15,1.94-2.49,1.9l-.17-.15A32.1,32.1,0,0,1,231,179.18Z" transform="translate(-26.11 -69.1)"/><path class="cls-6" d="M262.56,154.64a5.54,5.54,0,0,1-5.73,2.53A13.06,13.06,0,0,1,262.56,154.64Z" transform="translate(-26.11 -69.1)"/><path class="cls-6" d="M268.22,152.74c-1.38,2.17-3.58,1.93-5.7,2A16.43,16.43,0,0,1,268.22,152.74Z" transform="translate(-26.11 -69.1)"/><path class="cls-6" d="M243.52,165.88c.21,2.28-1.18,2.76-3,2.73A9.77,9.77,0,0,1,243.52,165.88Z" transform="translate(-26.11 -69.1)"/><path class="cls-6" d="M256.81,157.11c.06,2.09-1.43,1.32-2.49,1.34A4.37,4.37,0,0,1,256.81,157.11Z" transform="translate(-26.11 -69.1)"/><path class="cls-6" d="M231.7,178c1.15,1.22.16,1.17-.71,1.19C231.1,178.74,231.09,178.2,231.7,178Z" transform="translate(-26.11 -69.1)"/><path class="cls-6" d="M305.51,152.82c-1,0-2.05.39-2.72-.73C303.71,152.27,304.74,152.05,305.51,152.82Z" transform="translate(-26.11 -69.1)"/><path class="cls-6" d="M227.11,303.43c1.18.17.8,1.1.88,1.81C227.7,304.64,227.41,304,227.11,303.43Z" transform="translate(-26.11 -69.1)"/><path class="cls-6" d="M309.57,154.09c-.81,0-1.77.34-2.21-.77C308.15,153.44,309,153.36,309.57,154.09Z" transform="translate(-26.11 -69.1)"/><path class="cls-6" d="M224.6,298.39c1.17.2.8,1.11.86,1.83A2.6,2.6,0,0,1,224.6,298.39Z" transform="translate(-26.11 -69.1)"/><path class="cls-6" d="M307.43,153.39c-.77.12-1.56.34-2-.63C306.15,152.84,306.92,152.72,307.43,153.39Z" transform="translate(-26.11 -69.1)"/><path class="cls-6" d="M315,156c-.75,0-1.61.26-2-.76A3,3,0,0,1,315,156Z" transform="translate(-26.11 -69.1)"/><path class="cls-6" d="M313.09,155.3c-.76.07-1.61.35-1.91-.75C311.86,154.67,312.61,154.65,313.09,155.3Z" transform="translate(-26.11 -69.1)"/><path class="cls-6" d="M311.22,154.61a1.09,1.09,0,0,1-1.45-.57C310.31,154.1,310.88,154.07,311.22,154.61Z" transform="translate(-26.11 -69.1)"/><path class="cls-6" d="M228.38,305.93c.83.11.88.65.72,1.31C228.57,307,228.48,306.44,228.38,305.93Z" transform="translate(-26.11 -69.1)"/><path class="cls-6" d="M229,307.18c.81.11.85.66.77,1.3A1.65,1.65,0,0,1,229,307.18Z" transform="translate(-26.11 -69.1)"/><path class="cls-6" d="M229.71,308.38c.72.15.78.7.78,1.29Z" transform="translate(-26.11 -69.1)"/><path class="cls-6" d="M245.64,164.22c.46,1.08-.45.43-.73.58Z" transform="translate(-26.11 -69.1)"/><path class="cls-6" d="M225.41,300.16c.68.21.66.78.67,1.33C225.86,301.05,225.64,300.6,225.41,300.16Z" transform="translate(-26.11 -69.1)"/><path class="cls-6" d="M226,301.42c.69.21.67.77.69,1.33Z" transform="translate(-26.11 -69.1)"/><path class="cls-6" d="M226.67,302.69a.7.7,0,0,1,.57.79C226.77,303.42,226.74,303,226.67,302.69Z" transform="translate(-26.11 -69.1)"/><path class="cls-6" d="M228,305.2l.57.79Z" transform="translate(-26.11 -69.1)"/><path class="cls-6" d="M230.44,309.59l.69,1Z" transform="translate(-26.11 -69.1)"/><path class="cls-6" d="M244.29,165.32a.69.69,0,0,1-.75.65Z" transform="translate(-26.11 -69.1)"/><path class="cls-6" d="M245,164.76l-.75.65Z" transform="translate(-26.11 -69.1)"/><path class="cls-7" d="M580.28,173.87c7,6.43,11.43,14.56,15.06,23.11,10.24,24.13,11.14,49,5.46,74.37a125.69,125.69,0,0,1-25.28,52.81c-14.48,17.74-32,31.15-55.06,35.37-23.24,4.25-43.75-1.73-60.75-18.55a13.06,13.06,0,0,0-1.72-4.34,118.45,118.45,0,0,1-9.94-30.17q-.85-8.21-1.73-16.39a136.07,136.07,0,0,1,4.49-36.86c2.46-9.44,6.22-18.38,10.09-27.3,1.08-1.88,2.28-3.7,3.23-5.65,2.31-4.76,6-8.68,8.15-13.53l9.51-11.27,11.84-10.92a140.35,140.35,0,0,1,20.26-12.64c1-.35,2-.67,2.93-1.06,19.36-7.7,38.66-8.06,57.88.5A23.36,23.36,0,0,0,580.28,173.87Z" transform="translate(-26.11 -69.1)"/><path class="cls-6" d="M574.7,171.35c-19.22-8.56-38.52-8.2-57.88-.5-1,.39-2,.71-2.93,1.06a19.81,19.81,0,0,0-3.55-1.93,9.78,9.78,0,0,1-4.3-3c-3.13-3.46-2.71-7.06,1.14-9.53a26.14,26.14,0,0,1,9.89-3.51,68.52,68.52,0,0,1,33.59,2.24c5.82,1.91,11.41,4.53,17.1,6.83a1.14,1.14,0,0,0,1.49.42h-.1c.12.75.66.79,1.25.76l-.06,0,.73.67-.07-.08a.74.74,0,0,0,.73.66l-.06-.07a.67.67,0,0,0,.71.67l-.06-.07c.07.75.62.79,1.18.82s.62.64.65,1.12l.68.73,0-.07C574.77,169.46,574.73,170.41,574.7,171.35Z" transform="translate(-26.11 -69.1)"/><path class="cls-6" d="M567.76,163c-5.69-2.3-11.28-4.92-17.1-6.83a68.52,68.52,0,0,0-33.59-2.24,26.14,26.14,0,0,0-9.89,3.51c-3.85,2.47-4.27,6.07-1.14,9.53a9.78,9.78,0,0,0,4.3,3,19.81,19.81,0,0,1,3.55,1.93,140.35,140.35,0,0,0-20.26,12.64c-3.09-1.72-6.62-2.51-9.06-5.58-3.32-4.16-3-7.75,1.06-11.24,2-1.71,5-2.76,5.42-6,.6-.34,1.2-.69,1.06-1.54l0,.15.75-.63,0,.05c.56,0,1.11,0,1.32-.68l-.06.06c.56,0,1.11,0,1.32-.69l-.06.06c.73,0,1.6.29,1.86-.81l-.05.12.76-.61-.05,0c.73,0,1.59.26,1.9-.78l-.07.07c.61.11,1.15.07,1.34-.67L501,156c.57.05,1.11,0,1.35-.63l-.06,0c.72,0,1.57.25,1.94-.73l-.06.08c.73,0,1.57.24,1.94-.73l-.06.09c.81,0,1.64.14,2.12-.75l.13.14c.87,0,1.85.22,2.21-1l.69-.17c.87.82,1.48.66,1.82-.49a18.23,18.23,0,0,0,5.28-.6c3.44-.59,6.86-1.47,10.35-1.36,14.56.43,28.25,3.7,40,13Z" transform="translate(-26.11 -69.1)"/><path class="cls-6" d="M472.28,206.74c-2.16,4.85-5.84,8.77-8.15,13.53-.95,1.95-2.15,3.77-3.23,5.65-1.62-.21-3.07.62-4.87.26-4.55-.91-8.46-7.37-8.42-12.25.93-3.05,2.57-5.8,3.75-8.71,1.35-3.36,3.58-6.49,3.66-10.33l0,0c2.13-.06,2.74-1.12,2-3.06A110,110,0,0,1,476.37,171l.2.19c0,.21,0,.42,0,.63A106,106,0,0,0,464.1,187c-3.57,5.26-3.55,9.13.76,13.73A36.15,36.15,0,0,0,472.28,206.74Z" transform="translate(-26.11 -69.1)"/><path class="cls-6" d="M455,194.89c-.08,3.84-2.31,7-3.66,10.33-1.18,2.91-2.82,5.66-3.75,8.71-1,.41-1.15,1.38-1.46,2.27-1.06,3-2.13,6.06-3.27,9.06a100.25,100.25,0,0,0-6.36,29.67c-.57,10-1,20-.88,30a12.46,12.46,0,0,1-.34,4.66c-.52,1.41.17,2.19,1.61,2.35v1.88a1.54,1.54,0,0,0,0,2.52l0,1.25a5.86,5.86,0,0,0,1.23,3.15c.13,3.15,1.48,6,2.57,8.83.36.95.81,1.88,1.08,2.87,1,3.86,4.11,6.91,4.38,11.07a97.61,97.61,0,0,1-12.44-34.85,127.29,127.29,0,0,1,.09-40.95,128.8,128.8,0,0,1,15.64-44.17C451.2,200.6,452.64,197.44,455,194.89Z" transform="translate(-26.11 -69.1)"/><path class="cls-6" d="M446.21,323.54c-.27-4.16-3.34-7.21-4.38-11.07-.27-1-.72-1.92-1.08-2.87a1.28,1.28,0,0,0,1.2-1.16c.43-2.31,1.73-3.07,4-2.26a9.67,9.67,0,0,0,2.11.29A118.45,118.45,0,0,0,458,336.64a13.06,13.06,0,0,1,1.72,4.34,56.21,56.21,0,0,1-12.14-15.33c0-.63.05-1.32-.84-1.46l.11.07a.7.7,0,0,0-.64-.77Z" transform="translate(-26.11 -69.1)"/><path class="cls-6" d="M574.7,171.35c0-.94.07-1.89.11-2.83,2.5,1.09,4,3.17,5.47,5.35A23.36,23.36,0,0,1,574.7,171.35Z" transform="translate(-26.11 -69.1)"/><path class="cls-6" d="M457,191.85c.76,1.94.15,3-2,3.06C455.27,193.66,456.26,192.85,457,191.85Z" transform="translate(-26.11 -69.1)"/><path class="cls-6" d="M492.11,160.21c.14.85-.46,1.2-1.06,1.54l-2.51.62-.07-.07A8,8,0,0,1,492.11,160.21Z" transform="translate(-26.11 -69.1)"/><path class="cls-6" d="M480.26,167.93a3,3,0,0,1,1.81-1.34l.16.16c-.05,1.27-1,1.28-1.87,1.28Z" transform="translate(-26.11 -69.1)"/><path class="cls-6" d="M477.77,169.84a3.47,3.47,0,0,1,1.8-1.35l.15.15c-.05,1.28-1,1.28-1.88,1.28Z" transform="translate(-26.11 -69.1)"/><path class="cls-6" d="M499.79,156.49c-.31,1-1.17.75-1.9.78A2.46,2.46,0,0,1,499.79,156.49Z" transform="translate(-26.11 -69.1)"/><path class="cls-6" d="M506.11,154c-.37,1-1.21.72-1.94.73C504.66,154.07,505.4,154.1,506.11,154Z" transform="translate(-26.11 -69.1)"/><path class="cls-6" d="M508.17,153.35c-.48.89-1.31.79-2.12.75C506.58,153.37,507.43,153.53,508.17,153.35Z" transform="translate(-26.11 -69.1)"/><path class="cls-6" d="M497.23,157.72c-.26,1.1-1.13.79-1.86.81A2.17,2.17,0,0,1,497.23,157.72Z" transform="translate(-26.11 -69.1)"/><path class="cls-6" d="M510.51,152.53c-.36,1.18-1.34.95-2.21,1C508.81,152.65,509.77,152.85,510.51,152.53Z" transform="translate(-26.11 -69.1)"/><path class="cls-6" d="M504.23,154.66c-.37,1-1.22.68-1.94.73A2.65,2.65,0,0,1,504.23,154.66Z" transform="translate(-26.11 -69.1)"/><path class="cls-6" d="M513,151.87c-.34,1.15-.95,1.31-1.82.49Z" transform="translate(-26.11 -69.1)"/><path class="cls-6" d="M502.35,155.34c-.24.67-.78.68-1.35.63C501.28,155.4,501.83,155.4,502.35,155.34Z" transform="translate(-26.11 -69.1)"/><path class="cls-6" d="M501.06,155.89c-.19.74-.73.78-1.34.67C500,156,500.55,156,501.06,155.89Z" transform="translate(-26.11 -69.1)"/><path class="cls-6" d="M486.56,163.53l1.16-.73.17.18a1.26,1.26,0,0,1-1.24.64Z" transform="translate(-26.11 -69.1)"/><path class="cls-6" d="M567.76,163l.86-.1.63.52A1.14,1.14,0,0,1,567.76,163Z" transform="translate(-26.11 -69.1)"/><path class="cls-6" d="M570.4,164.18c-.59,0-1.13,0-1.25-.76A1.43,1.43,0,0,1,570.4,164.18Z" transform="translate(-26.11 -69.1)"/><path class="cls-6" d="M484.67,164.78l1.1-.77a2.39,2.39,0,0,1,.23.22,1.27,1.27,0,0,1-1.24.65Z" transform="translate(-26.11 -69.1)"/><path class="cls-6" d="M446.73,324.19c.89.14.81.83.84,1.46A1.93,1.93,0,0,1,446.73,324.19Z" transform="translate(-26.11 -69.1)"/><path class="cls-6" d="M495.43,158.47c-.21.68-.76.69-1.32.69Z" transform="translate(-26.11 -69.1)"/><path class="cls-6" d="M573.5,166.74c-.56,0-1.11-.07-1.18-.82A1.41,1.41,0,0,1,573.5,166.74Z" transform="translate(-26.11 -69.1)"/><path class="cls-6" d="M494.17,159.1c-.21.68-.76.69-1.32.68Z" transform="translate(-26.11 -69.1)"/><path class="cls-6" d="M482.8,166.07l1.12-.78.2.2a1.26,1.26,0,0,1-1.25.65Z" transform="translate(-26.11 -69.1)"/><path class="cls-6" d="M477.07,170.4l.7-.56.07.08-.64.61Z" transform="translate(-26.11 -69.1)"/><path class="cls-6" d="M479.57,168.49l.69-.56.1.1-.64.61Z" transform="translate(-26.11 -69.1)"/><path class="cls-9" d="M574.83,168.59l-.68-.73Z" transform="translate(-26.11 -69.1)"/><path class="cls-6" d="M446.2,323.49a.7.7,0,0,1,.64.77C446.37,324.22,446.29,323.85,446.2,323.49Z" transform="translate(-26.11 -69.1)"/><path class="cls-6" d="M572.38,166a.67.67,0,0,1-.71-.67C572.07,165.37,572.35,165.55,572.38,166Z" transform="translate(-26.11 -69.1)"/><path class="cls-6" d="M482.07,166.59l.73-.52.07.07-.64.61Z" transform="translate(-26.11 -69.1)"/><path class="cls-6" d="M476.37,171l.7-.56.13.13-.63.62Z" transform="translate(-26.11 -69.1)"/><path class="cls-6" d="M485.77,164l.79-.48.09.09-.65.61A2.39,2.39,0,0,0,485.77,164Z" transform="translate(-26.11 -69.1)"/><path class="cls-6" d="M487.72,162.8l.75-.5.07.07-.65.61Z" transform="translate(-26.11 -69.1)"/><path class="cls-6" d="M492.9,159.73l-.75.63C492.14,159.83,492.54,159.81,492.9,159.73Z" transform="translate(-26.11 -69.1)"/><path class="cls-6" d="M497.94,157.23l-.76.61C497.17,157.31,497.58,157.3,497.94,157.23Z" transform="translate(-26.11 -69.1)"/><path class="cls-6" d="M571.73,165.39a.74.74,0,0,1-.73-.66Z" transform="translate(-26.11 -69.1)"/><path class="cls-6" d="M483.92,165.29l.75-.51.09.1-.64.61Z" transform="translate(-26.11 -69.1)"/><path class="cls-6" d="M571.07,164.81l-.73-.67Z" transform="translate(-26.11 -69.1)"/><path class="cls-7" d="M226.87,369.3c7.61,6.29,13.12,14.3,18.25,22.58A128.34,128.34,0,0,1,263.56,443c3,22.21,1.18,43.94-9.27,64.17s-26.51,34.33-49.54,38.67c-17.23,3.25-33.7,0-49.24-7.85a102.2,102.2,0,0,1-32-24.92c.24-1.37-.52-2.4-1.14-3.49-9.3-16.44-15.69-33.88-17.93-52.72-.86-7.75-.4-15.53-.51-23.29a136.47,136.47,0,0,1,2.53-15.44c1.6-7.07,4.42-13.7,6.91-20.45l8.34-14.42L131,373.08l10.86-8.64a115.69,115.69,0,0,1,15.07-7.11,77.47,77.47,0,0,1,33.5-2.46c6.44.88,12.48,3.21,18.64,5.1C215.11,362.85,221.06,365.94,226.87,369.3Z" transform="translate(-26.11 -69.1)"/><path class="cls-6" d="M141.84,364.44,131,373.08c-4.93-.77-10.95-6.33-12-11-.37-1.61.49-2.73,1-4.06.41-1,2.34-1.56,1.08-3.12l-.16-1.43,0,.12.71-.68,0,.08.7-.66-.05,0c.59,0,1.14,0,1.24-.78l-.06.1.74-.66-.06.05c1,.1,2,.15,1.91-1.33l0,.06c.61,0,1.16,0,1.26-.76l0,.16.88-.77a50.64,50.64,0,0,1,14.94-6.66c1.65,1.15,2.8.27,3.89-.93l.15.17c8.33-.46,16.62-2.15,25-.64.32.06.73-.3,1.09-.47,9,.94,17.43,4,25.48,8.05a102.54,102.54,0,0,1,26.13,18.67c.8.78,1.82,1.45,2,2.69-5.81-3.36-11.76-6.45-17.82-9.33.47-.14,1.41-.32,1.06-.79-1.77-2.44-2.45-6-6-6.69a34.82,34.82,0,0,1-7.26-2.86c-15-6.79-30.47-9.77-46.84-6.69-3.82.35-7.12,2.16-10.58,3.59-3.09,1.27-5.59,3-6.32,6.32-.79,3.61,1.91,5.72,4.22,7.81a9.33,9.33,0,0,0,2.93,1.74A2.14,2.14,0,0,1,141.84,364.44Z" transform="translate(-26.11 -69.1)"/><path class="cls-6" d="M121.75,383.25q-4.17,7.2-8.33,14.42c-5.06.54-8-2.19-10.72-6.13-1.59-2.33-.33-5-1.79-7.07.23-.68.43-1.37.7-2,1.86-4.53,4.4-8.82,4.83-13.85l0,0c1.92.15,2.15-1,2-2.52l-.05.08.65-.79-.1,0c.38-.06.9,0,1.11-.21s0-.71-.36-.94a42.21,42.21,0,0,1,7.36-7.69,1.41,1.41,0,0,1-.34,1.73c-2.94,2.46-3.88,6.15-5.74,9.27a5.16,5.16,0,0,0,.46,6.35C114.27,377.64,117.27,381.28,121.75,383.25Z" transform="translate(-26.11 -69.1)"/><path class="cls-6" d="M104.48,456.85c2.24,18.84,8.63,36.28,17.93,52.72.62,1.09,1.38,2.12,1.14,3.49a99.13,99.13,0,0,1-15.13-20.63c0-.64,0-1.33-.81-1.56l.06.11c.14-.65.09-1.2-.75-1.3l.15.06-.58-.8,0,.06c0-.55,0-1.11-.69-1.32l0,.07c0-.56,0-1.13-.69-1.32l.06.07c0-.56,0-1.13-.68-1.34l.06.07c0-.56,0-1.13-.71-1.32l.06.08c.38-1.69-.49-3-1.16-4.46a51,51,0,0,1-4.44-12,2.49,2.49,0,0,0,0-2.63,13.84,13.84,0,0,1-1.25-5.75c.08-4,1.53-4.92,5.05-3.25C102.93,456.24,103.71,456.53,104.48,456.85Z" transform="translate(-26.11 -69.1)"/><path class="cls-6" d="M98.39,467.52a51,51,0,0,0,4.44,12c.67,1.42,1.54,2.77,1.16,4.46A117.56,117.56,0,0,1,91,444.7c-2.93-19.16-2-38.11,4.94-56.44,2.63-7,5.64-13.84,10.48-19.68-.43,5-3,9.32-4.83,13.85-.27.67-.47,1.36-.7,2a8.53,8.53,0,0,0-1,1.52,102.32,102.32,0,0,0-5.18,18.88c-.92,4.55-.91,9.29-1.84,13.83a35.3,35.3,0,0,0-.12,14.22,66.94,66.94,0,0,1,.63,11.32,34.36,34.36,0,0,0,0,3.66c.13,1.16-.78,2.79,1.22,3.27C94.25,457,96.07,462.32,98.39,467.52Z" transform="translate(-26.11 -69.1)"/><path class="cls-6" d="M121.75,383.25c-4.48-2-7.48-5.61-10.39-9.32a5.16,5.16,0,0,1-.46-6.35c1.86-3.12,2.8-6.81,5.74-9.27a1.41,1.41,0,0,0,.34-1.73l.06,0a.65.65,0,0,0,.72-.67l-.06.09.77-.7.59-.47,2,0c1.26,1.56-.67,2.13-1.08,3.12-.55,1.33-1.41,2.45-1,4.06,1.1,4.69,7.12,10.25,12,11Z" transform="translate(-26.11 -69.1)"/><path class="cls-6" d="M173.22,339.89c-.36.17-.77.53-1.09.47-8.39-1.51-16.68.18-25,.64,7.66-2.2,15.46-2.26,23.32-1.55C171.37,339.54,172.29,339.74,173.22,339.89Z" transform="translate(-26.11 -69.1)"/><path class="cls-6" d="M147,340.83c-1.09,1.2-2.24,2.08-3.89.93Z" transform="translate(-26.11 -69.1)"/><path class="cls-6" d="M108.37,366.09c.17,1.49-.06,2.67-2,2.52C106.55,367.37,107.53,366.79,108.37,366.09Z" transform="translate(-26.11 -69.1)"/><path class="cls-6" d="M126,349.73c.08,1.48-.9,1.43-1.91,1.33C124.56,350.36,125.05,349.7,126,349.73Z" transform="translate(-26.11 -69.1)"/><path class="cls-6" d="M121.05,354.88l-2,0,1.83-1.41C120.94,353.93,121,354.41,121.05,354.88Z" transform="translate(-26.11 -69.1)"/><path class="cls-6" d="M109.62,364.27c.37.23.69.6.36.94s-.73.15-1.11.21C109,365,109,364.44,109.62,364.27Z" transform="translate(-26.11 -69.1)"/><path class="cls-6" d="M103.93,483.91c.71.19.7.76.71,1.32Z" transform="translate(-26.11 -69.1)"/><path class="cls-6" d="M104.58,485.16c.7.21.68.78.68,1.34Z" transform="translate(-26.11 -69.1)"/><path class="cls-6" d="M105.2,486.43c.7.19.69.76.69,1.32Z" transform="translate(-26.11 -69.1)"/><path class="cls-6" d="M105.84,487.68c.67.21.67.77.69,1.32Z" transform="translate(-26.11 -69.1)"/><path class="cls-6" d="M106.92,489.68c.84.1.89.65.75,1.3Z" transform="translate(-26.11 -69.1)"/><path class="cls-6" d="M107.61,490.87c.83.23.78.92.81,1.56A2.12,2.12,0,0,1,107.61,490.87Z" transform="translate(-26.11 -69.1)"/><path class="cls-6" d="M123.48,351.57c-.1.74-.65.79-1.24.78A1.43,1.43,0,0,1,123.48,351.57Z" transform="translate(-26.11 -69.1)"/><path class="cls-6" d="M127.24,349c-.1.78-.65.81-1.26.76A1.35,1.35,0,0,1,127.24,349Z" transform="translate(-26.11 -69.1)"/><path class="cls-6" d="M109,365.38l-.65.79Z" transform="translate(-26.11 -69.1)"/><path class="cls-6" d="M128.14,348.42l-.88.77C127.25,348.58,127.73,348.54,128.14,348.42Z" transform="translate(-26.11 -69.1)"/><path class="cls-6" d="M124.16,351l-.74.66C123.46,351.22,123.79,351.09,124.16,351Z" transform="translate(-26.11 -69.1)"/><path class="cls-6" d="M122.29,352.31l-.7.66Z" transform="translate(-26.11 -69.1)"/><path class="cls-6" d="M121.63,352.89l-.71.68C121,353.13,121.25,353,121.63,352.89Z" transform="translate(-26.11 -69.1)"/><path class="cls-6" d="M106.49,488.94l.58.8Z" transform="translate(-26.11 -69.1)"/><path class="cls-6" d="M118.47,355.33l-.77.7Z" transform="translate(-26.11 -69.1)"/><path class="cls-6" d="M117.76,355.94a.65.65,0,0,1-.72.67Z" transform="translate(-26.11 -69.1)"/><path class="cls-7" d="M704.55,362.46c9.18,9.61,14.62,21.3,18,33.91,6.31,23.53,4.7,46.84-2.93,69.83A128.8,128.8,0,0,1,686.88,519c-14.09,13.65-30.44,23.58-50.06,26.83-22.46,3.71-42.58-1.4-59.36-17.45a9.28,9.28,0,0,1-.79-1,9,9,0,0,0-.47-2.11,127.62,127.62,0,0,1-9.61-28.84c-.34-5.88-1.39-11.7-1.36-17.6a133.26,133.26,0,0,1,4.22-32.52A164.63,164.63,0,0,1,582.19,414c2.61-4.17,5.25-8.31,7.81-12.51,1-1.68,2.75-2.93,3.07-5,3.83-3.47,6.83-7.66,10.19-11.54L618.19,372a183.78,183.78,0,0,1,18.22-10.72l4.4-1.63a84.48,84.48,0,0,1,29.07-5.59c10.59-.11,20.44,2.51,30.06,6.5A8.06,8.06,0,0,0,704.55,362.46Z" transform="translate(-26.11 -69.1)"/><path class="cls-6" d="M699.94,360.56c-9.62-4-19.47-6.61-30.06-6.5a84.48,84.48,0,0,0-29.07,5.59l-4.4,1.63c0-2.09-1.86-2-3.12-2.5-3.84-1.51-5.6-3.82-5.64-8.09,0-3.28,2.67-4.33,5.09-5.26a57.64,57.64,0,0,1,33.35-2.68c8.6,1.88,17.3,3.76,24.67,9.09a3.19,3.19,0,0,0,2.41.48.78.78,0,0,1,.48.12l.73.51,0-.06.73.65-.06-.05.65.72-.07,0,.74.69a.8.8,0,0,1,.48.09l.76.5-.07-.05.67.72,0-.05C697.47,358.07,700,358.8,699.94,360.56Z" transform="translate(-26.11 -69.1)"/><path class="cls-6" d="M693.17,352.32a3.19,3.19,0,0,1-2.41-.48c-7.37-5.33-16.07-7.21-24.67-9.09a57.64,57.64,0,0,0-33.35,2.68c-2.42.93-5.11,2-5.09,5.26,0,4.27,1.8,6.58,5.64,8.09,1.26.5,3.1.41,3.12,2.5A183.78,183.78,0,0,0,618.19,372c-.89-1-2.21-1-3.37-1.41a11.35,11.35,0,0,1-7.62-8.85c-.68-3.31,1.64-5.42,4.1-7.44,1.7-1.39,4.35-1.83,4.94-4.45,1.1-1.15,2.62-1.56,4-2.24,1.68-.85,3.83-.91,4.8-2.92l0,.07c4.12-.17,7.77-2.16,11.71-3,8.28-1.82,16.68-2.12,25.1-2A55,55,0,0,1,693.17,352.32Z" transform="translate(-26.11 -69.1)"/><path class="cls-6" d="M593.07,396.48c-.32,2.11-2.05,3.36-3.07,5-2.56,4.2-5.2,8.34-7.81,12.51a6.18,6.18,0,0,0-2.68.73c-3,1.12-6.56-.5-8.52-2.91s-1.73-5.43-3.2-7.88a4.29,4.29,0,0,0,.65-2.52c1.28-.06,1.26-1,1.24-1.89.22-.63.43-1.26.65-1.88,1.23-1.92,4.18-3.31,1.93-6.3.94-1.65,2.89-2.85,2.34-5.18l0,0c1.93.12,2.17-1,1.92-2.56l-.05,0c1.54.19,1.44-.85,1.39-1.85l0,.06.63-.79-.12.11c.74-.15.85-.69.8-1.32l1.11-1.17c1.46,0,1.5-.92,1.4-2l.49-.52c.25-.27.51-.54.76-.82l.71-1,.57-.74c3.8-3.94,7.47-8,11.85-11.36l.16.17c-.13,1.67-1.54,2.44-2.56,3.42a52,52,0,0,0-10.45,14.33c-1.4,2.79-1.42,5.66.48,8C586.26,391.45,588.68,395.14,593.07,396.48Z" transform="translate(-26.11 -69.1)"/><path class="cls-6" d="M574.6,386.2c.55,2.33-1.4,3.53-2.34,5.18-1.06,2-2.31,3.88-1.93,6.3-.22.62-.43,1.25-.65,1.88-1.27.07-1.26,1-1.24,1.89a4.29,4.29,0,0,1-.65,2.52,3.84,3.84,0,0,0-1.85,2,177.34,177.34,0,0,0-10.72,39.17c-1.56,9.74-1.23,19.55-1.27,29.35,0,1.39.09,2.72,1.27,3.7.2,1.68.41,3.36.62,5-.81,1.61-1.47,3.2.63,4.4a30.19,30.19,0,0,0,3.8,13.21c.33,1.08.67,2.15,1,3.23.59,1.92,2.47,3.4,1.9,5.71-7.07-12.41-10.64-25.86-11.7-40-2.11-28.3,5.16-54.3,19.49-78.53C572,389.48,573.38,387.88,574.6,386.2Z" transform="translate(-26.11 -69.1)"/><path class="cls-6" d="M563.18,509.81c.57-2.31-1.31-3.79-1.9-5.71-.34-1.08-.68-2.15-1-3.23.57-.42.57-1,.62-1.66.28-3.57.57-3.76,4.17-2.9a11,11,0,0,0,1.53.15,127.62,127.62,0,0,0,9.61,28.84,9,9,0,0,1,.47,2.11,47.71,47.71,0,0,1-10.13-12.06c-.08-.51-.14-1-.74-1.24l.05.08c0-1.14.18-2.33-1.49-2.42h.16a.74.74,0,0,0-.64-.78l.07.08c0-.61,0-1.17-.75-1.32Z" transform="translate(-26.11 -69.1)"/><path class="cls-6" d="M661.78,339.72c-8.42-.11-16.82.19-25.1,2-3.94.87-7.59,2.86-11.71,3a65.28,65.28,0,0,1,26.61-5.65C655,339.07,658.44,338.64,661.78,339.72Z" transform="translate(-26.11 -69.1)"/><path class="cls-6" d="M625,344.69c-1,2-3.12,2.07-4.8,2.92-1.36.68-2.88,1.09-4,2.24-2.22.51-3.77,2.68-6.25,2.55l-.12-.13A53.15,53.15,0,0,1,625,344.69Z" transform="translate(-26.11 -69.1)"/><path class="cls-6" d="M699.94,360.56c0-1.76-2.47-2.49-1.82-4.5l6.43,6.4A8.06,8.06,0,0,1,699.94,360.56Z" transform="translate(-26.11 -69.1)"/><path class="cls-6" d="M596.92,361.43l4.68-3.57.19.18c0,2.15-2.45,2.22-3.17,3.76l-1.23,0A2.22,2.22,0,0,0,596.92,361.43Z" transform="translate(-26.11 -69.1)"/><path class="cls-6" d="M604.84,355.48a13.83,13.83,0,0,1,5-3.21l.12.13c-.84,1.92-2.54,2.63-4.4,3.12Z" transform="translate(-26.11 -69.1)"/><path class="cls-6" d="M576.48,383.67c.25,1.52,0,2.68-1.92,2.56A6,6,0,0,1,576.48,383.67Z" transform="translate(-26.11 -69.1)"/><path class="cls-6" d="M601.6,357.86c.79-.72,1.33-1.78,2.58-1.83l.13.13c-.46,1.13-1,2.11-2.52,1.88Z" transform="translate(-26.11 -69.1)"/><path class="cls-6" d="M564.36,511.77c1.67.09,1.53,1.28,1.49,2.42A5,5,0,0,1,564.36,511.77Z" transform="translate(-26.11 -69.1)"/><path class="cls-6" d="M577.82,381.86c0,1,.15,2-1.39,1.85Z" transform="translate(-26.11 -69.1)"/><path class="cls-6" d="M581.6,376.76c.1,1.07.06,2-1.4,2A2.67,2.67,0,0,1,581.6,376.76Z" transform="translate(-26.11 -69.1)"/><path class="cls-6" d="M565.8,514.11c.6.2.66.73.74,1.24Z" transform="translate(-26.11 -69.1)"/><path class="cls-6" d="M563.2,509.75c.76.15.8.71.75,1.32Z" transform="translate(-26.11 -69.1)"/><path class="cls-6" d="M579.09,379.92c0,.63-.06,1.17-.8,1.32C578.4,380.71,578.47,380.15,579.09,379.92Z" transform="translate(-26.11 -69.1)"/><path class="cls-6" d="M596,362.29l.94-.86a2.22,2.22,0,0,1,.47.4,1.34,1.34,0,0,1-1.25.63Z" transform="translate(-26.11 -69.1)"/><path class="cls-6" d="M604.84,355.48l.75,0a1.31,1.31,0,0,1-1.28.64l-.13-.13Z" transform="translate(-26.11 -69.1)"/><path class="cls-6" d="M584.13,373.65l-.57.74Z" transform="translate(-26.11 -69.1)"/><path class="cls-6" d="M582.85,375.42c-.25.28-.51.55-.76.82Z" transform="translate(-26.11 -69.1)"/><path class="cls-6" d="M578.41,381.13l-.63.79Z" transform="translate(-26.11 -69.1)"/><path class="cls-6" d="M694.38,353l-.73-.51Z" transform="translate(-26.11 -69.1)"/><path class="cls-6" d="M563.88,511a.74.74,0,0,1,.64.78C564,511.73,564,511.36,563.88,511Z" transform="translate(-26.11 -69.1)"/><path class="cls-6" d="M695.06,353.54l-.73-.65Z" transform="translate(-26.11 -69.1)"/><path class="cls-6" d="M695.65,354.21l-.65-.72Z" transform="translate(-26.11 -69.1)"/><path class="cls-6" d="M696.32,354.85l-.74-.69Z" transform="translate(-26.11 -69.1)"/><path class="cls-6" d="M697.56,355.44l-.76-.5A.63.63,0,0,1,697.56,355.44Z" transform="translate(-26.11 -69.1)"/><path class="cls-6" d="M698.16,356.11l-.67-.72Z" transform="translate(-26.11 -69.1)"/><path class="cls-6" d="M231.91,615.14c-2-2.55-5-4-7.15-6.36-4-4.42-4-8.12,0-12.59,4.18-4.67,8.47-9.23,13-13.52,7.41-7,15-13.8,22.53-20.67a15.88,15.88,0,0,1,1.8-1.23c4.26-2.83,6.62-2.62,9.35,1.76a82.82,82.82,0,0,0,5.72,7.75c-.72.89-1.37,1.83-2.15,2.65-10.48,11.08-21.69,21.4-32.78,31.84C238.74,608.13,235.83,612.14,231.91,615.14Z" transform="translate(-26.11 -69.1)"/><path class="cls-6" d="M461.45,387l.64.61a1.2,1.2,0,0,0,1.25.64l.64.62a1.22,1.22,0,0,0,1.25.64l.64.61a1.22,1.22,0,0,0,1.25.65l.64.61a4.42,4.42,0,0,0,0,.63c-1.12,1.66,1.24,2.81.64,4.4a111.18,111.18,0,0,0-25.16-7.54,113.88,113.88,0,0,0-49.43,2.78c-.7.19-1.42.32-2.13.47-.53-1.31-1.65-1.5-2.83-1.35-2.42.31-4.46-.66-6.44-1.81a5.31,5.31,0,0,1-.89-8.83c.66-.56,1.3-1,1.31-1.95,2-.9,4.22-.74,6.29-1.27,1,1,1.13.18,1.26-.62,5.48-.21,10.88-1.45,16.39-1.31.75,0,1.11-.47,1.25-1.14h10c0,1.31.63,1.69,1.93,1.84,11.52,1.31,22.68,4,33.15,9.16,1.34.67,2.87,1.73,4.62.89h1.24c.25.54.74.61,1.25.64C460.44,386.91,460.94,387,461.45,387Z" transform="translate(-26.11 -69.1)"/><path class="cls-6" d="M389.1,376.91c-2.07.53-4.29.37-6.29,1.27-6.07,1.5-11.9,3.5-16.91,7.46-3.65,2.89-4,6.41-.84,9.75,2.21,2.35,5.28,3.2,7.85,4.92-5.14,3.41-10.32,6.77-15.12,10.65-5.7.86-8.83-2.68-11.57-6.81-2.39-3.59-2.13-5,.79-8.17,1.73-1.88,4.23-3.13,5-5.85,0-.42,0-.83,0-1.25.91,0,1.84,0,1.89-1.25,1.08.05,2.05-.1,2.5-1.28l.64-.61c.51,0,1-.07,1.26-.63.51,0,1-.09,1.25-.64.52,0,1-.08,1.26-.63.51,0,1-.08,1.26-.62.51,0,1-.08,1.26-.63.51,0,1-.09,1.26-.63.51,0,1-.09,1.26-.63.68-.05,1.45.15,1.87-.65a3.46,3.46,0,0,0,3.13-1.24,1.33,1.33,0,0,0,1.3-.62c.68,0,1.43.11,1.88-.63,4.61-.18,8.76-2.33,13.25-3.11A96.75,96.75,0,0,1,408,373.84c-.14.67-.5,1.16-1.25,1.14-5.51-.14-10.91,1.1-16.39,1.31A1.26,1.26,0,0,0,389.1,376.91Z" transform="translate(-26.11 -69.1)"/><path class="cls-6" d="M291.71,551.87c-1.8-.15-3-1.29-4.2-2.5-1.81-1.84-3.49-3.8-5.44-5.52-3.09-2.74-4.23-2.63-7,.66-2.16,2.54-4.63,4.81-7,7.21a2.89,2.89,0,0,1-2.3.77c3.63-3.35,6.3-7.53,10.14-10.81,4.56-3.9,7.17-9.61,10.33-14.73a25,25,0,0,1,1.94-2.78c3.54-4.3,5.81-4.18,8.91.38a4.76,4.76,0,0,0,.67,1c2.23,1.81,4.05,3.89,4.62,6.82.07,1.87-.87,3.4-1.73,4.93C297.87,542.3,295.4,547.46,291.71,551.87Z" transform="translate(-26.11 -69.1)"/><path class="cls-6" d="M352,390.13c-.73,2.72-3.23,4-5,5.85-2.92,3.17-3.18,4.58-.79,8.17,2.74,4.13,5.87,7.67,11.57,6.81q-6.72,6.89-13.43,13.76c-4.34-.77-11-7.17-11.81-11.41-.39-1.93.64-3.44,1.58-4.92,2.66-4.2,5.26-8.47,9.12-11.75a2.69,2.69,0,0,0,1.19-2.09,2.73,2.73,0,0,0,3.14-2.53l.64-.61c.9,0,1.81,0,1.89-1.26Z" transform="translate(-26.11 -69.1)"/><path class="cls-6" d="M372.91,400.31c-2.57-1.72-5.64-2.57-7.85-4.92-3.15-3.34-2.81-6.86.84-9.75,5-4,10.84-6,16.91-7.46,0,.93-.65,1.39-1.31,1.95a5.31,5.31,0,0,0,.89,8.83c2,1.15,4,2.12,6.44,1.81,1.18-.15,2.3,0,2.83,1.35A183.38,183.38,0,0,0,372.91,400.31Z" transform="translate(-26.11 -69.1)"/><path class="cls-6" d="M215.43,255.47c-2.35-5-1.42-10.29-1.07-15.37a221.14,221.14,0,0,1,3-22.47A76.28,76.28,0,0,1,222.45,200c.65-1.48,0-3.81,2.41-4.33-1.3,3.73-2,7.44-.06,11.21s3.26,6.28,10.86,5.21c-2.11,6.11-4.8,12-6.31,18.33a120.26,120.26,0,0,0-3.44,23.17c-2.16.61-4.07.77-5.95-1.11-1.28-1.29-2.86-1.13-3.4,1.17A6.73,6.73,0,0,1,215.43,255.47Z" transform="translate(-26.11 -69.1)"/><path class="cls-6" d="M331.82,165.5c.28,2.16,2.33,3.78,1.89,6.16a77.42,77.42,0,0,0-37.35-6.23,88.66,88.66,0,0,0-14.73,2.91c-.5-1.16-1.7-1.3-2.63-1.44-3.26-.5-5.08-2.65-6.63-5.23-1.78-3-.81-5.4,1.58-7.51,13.54-2.77,26.68-1.25,39.5,3.7a157.84,157.84,0,0,1,16,7A4.3,4.3,0,0,0,331.82,165.5Z" transform="translate(-26.11 -69.1)"/><path class="cls-6" d="M215.43,255.47a6.73,6.73,0,0,0,1.13-1.81c.54-2.3,2.12-2.46,3.4-1.17,1.88,1.88,3.79,1.72,5.95,1.11A169.65,169.65,0,0,0,228.22,285c-5.16-1.52-5.52-1.22-5.36,4.41,0,.23-.34.48-.53.72a54.37,54.37,0,0,1-5-15.11c1-1,.19-1.12-.59-1.27l0-1.24c1-3.44,0-6.74-.65-10.07C215.85,260.08,215.64,257.78,215.43,255.47Z" transform="translate(-26.11 -69.1)"/><path class="cls-6" d="M239.34,171.79c-2.69,7.75,1.93,12.28,7.24,16.54a4.53,4.53,0,0,0,3.47,1.07l-7,9.43c-5.46-1.23-8.5-5.22-11.12-9.7-.66-1.11-1.24-2.44-.73-3.57C233.44,180.69,234.78,175.28,239.34,171.79Z" transform="translate(-26.11 -69.1)"/><path class="cls-6" d="M274,154.16c-2.39,2.11-3.36,4.52-1.58,7.51,1.55,2.58,3.37,4.73,6.63,5.23.93.14,2.13.28,2.63,1.44a129.48,129.48,0,0,0-13.34,6c-.6-2-3-2.08-4.06-3.57-.29-.39-.9-.53-1.28-.87-5.73-5.17-5.17-9.05,1.7-12.56C267.55,155.82,270.48,154.1,274,154.16Z" transform="translate(-26.11 -69.1)"/><path class="cls-6" d="M226.15,186.9c1.34,0,1.38-1.63,2.49-1.9-.26,2.14,0,4.5-2.5,5.66C224.7,189.4,226.59,188.16,226.15,186.9Z" transform="translate(-26.11 -69.1)"/><path class="cls-6" d="M239.36,170c.58,0,1.41-.26,1.55.46.22,1.1-.74,1.24-1.56,1.36C239.36,171.17,239.36,170.57,239.36,170Z" transform="translate(-26.11 -69.1)"/><path class="cls-6" d="M216.05,262.39c.6,3.33,1.67,6.63.65,10.07C216.07,269.13,213.51,265.92,216.05,262.39Z" transform="translate(-26.11 -69.1)"/><path class="cls-6" d="M216.73,273.7c.78.15,1.55.32.59,1.27A1.22,1.22,0,0,1,216.73,273.7Z" transform="translate(-26.11 -69.1)"/><path class="cls-6" d="M436.91,292c-1.44-.16-2.13-.94-1.61-2.35a12.46,12.46,0,0,0,.34-4.66c-.1-10,.31-20.06.88-30a100.25,100.25,0,0,1,6.36-29.67c1.14-3,2.21-6,3.27-9.06.31-.89.43-1.86,1.46-2.27,0,4.88,3.87,11.34,8.42,12.25,1.8.36,3.25-.47,4.87-.26-3.87,8.92-7.63,17.86-10.09,27.3a136.07,136.07,0,0,0-4.49,36.86c-.69,0-1-.53-1.45-1-1.69-1.9-4.13-3-6.33-2.36S437,290,436.91,292Z" transform="translate(-26.11 -69.1)"/><path class="cls-6" d="M484.12,165.49l.64-.61a1.27,1.27,0,0,0,1.24-.65l.65-.61a1.26,1.26,0,0,0,1.24-.64l.65-.61,2.51-.62c-.43,3.22-3.42,4.27-5.42,6-4.05,3.49-4.38,7.08-1.06,11.24,2.44,3.07,6,3.86,9.06,5.58l-11.84,10.92a2.36,2.36,0,0,0-1.41-1.56c-2.28-.69-3.83-2.44-5.45-4-4.39-4.2-4.59-8-.86-12.84.76-1,1.52-2,2.31-2.91.64-.77,1.23-1.49.23-2.39,0-.21,0-.42,0-.63l.63-.62.64-.61c.91,0,1.83,0,1.88-1.28l.64-.61c.91,0,1.82,0,1.87-1.28l.64-.61A1.26,1.26,0,0,0,484.12,165.49Z" transform="translate(-26.11 -69.1)"/><path class="cls-6" d="M476.61,171.78c1,.9.41,1.62-.23,2.39-.79,1-1.55,1.93-2.31,2.91-3.73,4.85-3.53,8.64.86,12.84,1.62,1.55,3.17,3.3,5.45,4a2.36,2.36,0,0,1,1.41,1.56l-9.51,11.27a36.15,36.15,0,0,1-7.42-6c-4.31-4.6-4.33-8.47-.76-13.73A106,106,0,0,1,476.61,171.78Z" transform="translate(-26.11 -69.1)"/><path class="cls-6" d="M436.91,292c.06-1.94-.51-4.61,1.63-5.26s4.64.46,6.33,2.36c.42.48.76,1,1.45,1q.87,8.19,1.73,16.39a9.67,9.67,0,0,1-2.11-.29c-2.26-.81-3.56-.05-4,2.26a1.28,1.28,0,0,1-1.2,1.16c-1.09-2.88-2.44-5.68-2.57-8.83.63-1.45.33-2.55-1.23-3.15l0-1.25a1.52,1.52,0,0,0,0-2.52Z" transform="translate(-26.11 -69.1)"/><path class="cls-6" d="M437,297.62c1.56.6,1.86,1.7,1.23,3.15A5.86,5.86,0,0,1,437,297.62Z" transform="translate(-26.11 -69.1)"/><path class="cls-6" d="M436.91,293.85a1.52,1.52,0,0,1,0,2.52A1.54,1.54,0,0,1,436.91,293.85Z" transform="translate(-26.11 -69.1)"/><path class="cls-6" d="M150,342.94c16.37-3.08,31.86-.1,46.84,6.69a34.82,34.82,0,0,0,7.26,2.86c3.57.73,4.25,4.25,6,6.69.35.47-.59.65-1.06.79-6.16-1.89-12.2-4.22-18.64-5.1a77.47,77.47,0,0,0-33.5,2.46c-.28-1.64-1.87-1.47-2.89-1.93C147.93,352.69,146.45,348.28,150,342.94Z" transform="translate(-26.11 -69.1)"/><path class="cls-6" d="M92.73,432.92a35.3,35.3,0,0,1,.12-14.22c.93-4.54.92-9.28,1.84-13.83A102.32,102.32,0,0,1,99.87,386a8.53,8.53,0,0,1,1-1.52c1.46,2.1.2,4.74,1.79,7.07,2.69,3.94,5.66,6.67,10.72,6.13-2.5,6.75-5.32,13.38-6.92,20.45A136.47,136.47,0,0,0,104,433.56a25.85,25.85,0,0,1-5-1.28C96.61,431.15,94.62,430.9,92.73,432.92Z" transform="translate(-26.11 -69.1)"/><path class="cls-6" d="M150,342.94c-3.54,5.34-2.06,9.75,4,12.46,1,.46,2.61.29,2.89,1.93a115.69,115.69,0,0,0-15.07,7.11,2.14,2.14,0,0,0-1.6-2,9.33,9.33,0,0,1-2.93-1.74c-2.31-2.09-5-4.2-4.22-7.81.73-3.29,3.23-5.05,6.32-6.32C142.87,345.1,146.17,343.29,150,342.94Z" transform="translate(-26.11 -69.1)"/><path class="cls-6" d="M92.73,432.92c1.89-2,3.88-1.77,6.2-.64a25.85,25.85,0,0,0,5,1.28c.11,7.76-.35,15.54.51,23.29-.77-.32-1.55-.61-2.3-1-3.52-1.67-5-.74-5.05,3.25a13.84,13.84,0,0,0,1.25,5.75,2.49,2.49,0,0,1,0,2.63c-2.32-5.2-4.14-10.52-3.79-16.35a31.91,31.91,0,0,0,0-3.66c-.14-1.16.8-2.8-1.23-3.27A66.94,66.94,0,0,0,92.73,432.92Z" transform="translate(-26.11 -69.1)"/><path class="cls-6" d="M93.36,444.24c2,.47,1.09,2.11,1.23,3.27a31.91,31.91,0,0,1,0,3.66c-2-.48-1.09-2.11-1.22-3.27A34.36,34.36,0,0,1,93.36,444.24Z" transform="translate(-26.11 -69.1)"/><path class="cls-6" d="M555.22,478.22c-1.18-1-1.27-2.31-1.27-3.7,0-9.8-.29-19.61,1.27-29.35A177.34,177.34,0,0,1,565.94,406a3.84,3.84,0,0,1,1.85-2c1.47,2.45,1.26,5.49,3.2,7.88s5.55,4,8.52,2.91a6.18,6.18,0,0,1,2.68-.73,164.63,164.63,0,0,0-12.74,32.31,133.26,133.26,0,0,0-4.22,32.52,67.51,67.51,0,0,1-6.14-3.54c-1.7-1.22-2.44-.41-3.11.95C555.68,476.89,556,477.76,555.22,478.22Z" transform="translate(-26.11 -69.1)"/><path class="cls-6" d="M604.31,356.16a1.31,1.31,0,0,0,1.28-.64c1.86-.49,3.56-1.2,4.4-3.12,2.48.13,4-2,6.25-2.55-.59,2.62-3.24,3.06-4.94,4.45-2.46,2-4.78,4.13-4.1,7.44a11.35,11.35,0,0,0,7.62,8.85c1.16.4,2.48.38,3.37,1.41l-14.93,12.93c-.39-1.1-1.28-1.36-2.3-1.8-6.93-3-11.56-10.65-4.45-17.61a5.92,5.92,0,0,0,2.11-3.72c.72-1.54,3.17-1.61,3.17-3.76C603.27,358.27,603.85,357.29,604.31,356.16Z" transform="translate(-26.11 -69.1)"/><path class="cls-6" d="M598.62,361.8a5.92,5.92,0,0,1-2.11,3.72c-7.11,7-2.48,14.59,4.45,17.61,1,.44,1.91.7,2.3,1.8-3.36,3.89-6.36,8.08-10.19,11.55-4.39-1.34-6.81-5-9.46-8.29-1.9-2.32-1.88-5.19-.48-8a52,52,0,0,1,10.45-14.33c1-1,2.43-1.75,2.56-3.42a1.34,1.34,0,0,0,1.25-.63Z" transform="translate(-26.11 -69.1)"/><path class="cls-6" d="M555.22,478.22c.75-.46.46-1.33.76-2,.67-1.36,1.41-2.17,3.11-.95a67.51,67.51,0,0,0,6.14,3.54c0,5.9,1,11.72,1.36,17.6a11,11,0,0,1-1.53-.15c-3.6-.86-3.89-.67-4.17,2.9,0,.63,0,1.24-.62,1.66a30.19,30.19,0,0,1-3.8-13.21c-.23-1.46.59-3.08-.63-4.4C555.63,481.58,555.42,479.9,555.22,478.22Z" transform="translate(-26.11 -69.1)"/><path class="cls-6" d="M570.33,397.68c-.38-2.42.87-4.33,1.93-6.3C574.51,394.37,571.56,395.76,570.33,397.68Z" transform="translate(-26.11 -69.1)"/><path class="cls-6" d="M568.44,401.45c0-.91,0-1.82,1.24-1.89C569.7,400.48,569.72,401.39,568.44,401.45Z" transform="translate(-26.11 -69.1)"/><path class="cls-6" d="M555.84,483.26c1.22,1.32.4,2.94.63,4.4C554.37,486.46,555,484.87,555.84,483.26Z" transform="translate(-26.11 -69.1)"/><path class="cls-6" d="M389.1,376.91a1.26,1.26,0,0,1,1.26-.62C390.23,377.09,390.1,377.87,389.1,376.91Z" transform="translate(-26.11 -69.1)"/></svg>