<svg id="Layer_1" data-name="Layer 1" xmlns="http://www.w3.org/2000/svg" viewBox="0 0 468 468"><defs><style>.cls-1{fill:#333;}.cls-2{fill:#fff;}</style></defs><title>logo2</title><circle class="cls-1" cx="234" cy="234" r="234"/><path class="cls-2" d="M566.91,81.85h17.17a8.21,8.21,0,0,1,3.35,6.81c-.91,4.76-3.61,7.06-8.31,7.13-1.11,0-2.23.13-3.35.2a21,21,0,0,0-7.3,1.46,24,24,0,0,0-8.85,3.67,13.48,13.48,0,0,0-4.77,3.07,4.82,4.82,0,0,0-2.22,1.82,20,20,0,0,0-5.74,5.89,7,7,0,0,0-1.94,2.61,14.3,14.3,0,0,0-2.69,4.7,24.28,24.28,0,0,0-3.33,9.48c-.7,1.22-.63,2.58-.92,4.23a27.56,27.56,0,0,1,7.08-2.37l7.76-.3h23.43c2.49,0,5,.19,7.08,1.73a13.68,13.68,0,0,1,2.43,3.54c.86,2.9-.26,5.33-1.8,7.67a12.46,12.46,0,0,1-7.72,2.14H552.85c-2.68,0-5.44-.72-8,.8a5.87,5.87,0,0,0-3.65,4.83c-1.12,4.26,1.58,7.1,3.76,10.13.21,1.29,1,1.59,2.23,1.54,1.88-.09,3.76-.09,5.63-.13l7.32-.05a17.6,17.6,0,0,1,8.3,1.65,1.82,1.82,0,0,0,1.37.74c4.78,2.46,9.29,5.44,14.23,7.61a25.23,25.23,0,0,0,5.65,2.92,3.12,3.12,0,0,0,2.15,1.27,48.47,48.47,0,0,0,7.83,4.15,3.4,3.4,0,0,0,2,1.07l1.34.8,0,0a35.7,35.7,0,0,0,6,3.26,22.42,22.42,0,0,1,4,5,15.93,15.93,0,0,1,.83,7.56,16.79,16.79,0,0,1-4.56,7.14,3.71,3.71,0,0,0-1.86,1.15,22.91,22.91,0,0,1-7.79,1.2l-7.77,0-7.85,0-7.76,0c-.86-.24-1.22.26-1.48,1q-.86,2.34-1.72,4.68a51.87,51.87,0,0,0-3.17,7.86,9.89,9.89,0,0,0-1.46,3.61,16.71,16.71,0,0,0-1.91,4.65,47.11,47.11,0,0,0-3,7.2q-3.2,7.86-6.4,15.71l-3.08,7.61c-1.83,4.37-3.71,8.72-5.45,13.13a2.22,2.22,0,0,1-2.37,1.75c-3.53.05-7.06.3-10.59.47a24.39,24.39,0,0,0-5.79.2l-8.25.37a38.52,38.52,0,0,0-7.81.37c-3.63,0-5,1.8-4.11,5.23a28,28,0,0,0,1,2.65,26.39,26.39,0,0,0,2,6.8l.72,3.06c.54,1.7,1.07,3.41,1.61,5.11a2.61,2.61,0,0,0,1.07,2.48c1.82,1.27,3.75,2.37,5.64,3.54a20.19,20.19,0,0,0,4.08,3c.5.68,0,1.05-.43,1.49-2.07,2.05-4,4.3-6.2,6.14a6.63,6.63,0,0,0-2.62,6.91v15.61c0,2.63,0,5.25,0,7.88l0,8.09,0,7.53v15.62l0,7.73,0,7.88v7.75a24.54,24.54,0,0,1-1.15,7.84c-.68,1.22-1.37,2.43-2.06,3.65l-4.53,3.87L506,417.6a27.57,27.57,0,0,1-7.8.57l-4.9-1.7a10.9,10.9,0,0,1-3.38-2.79c-1.23-1.64-2.2-3.45-3.52-5a40.44,40.44,0,0,1-.87-7.75V385.31c0-2.58,0-5.15,0-7.73v-7.9q0-3.85,0-7.72V346.35q0-3.94,0-7.89c0-2.58,0-5.15,0-7.73s0-5.26,0-7.89v-7.72c.68-2.74-.74-3.12-2.94-2.62H427.92c-2.37-.12-5-.92-6,2.44l-2.36,3.27c-.73,1.19-1.46,2.38-2.2,3.57-1.87,2.82-3.46,5.88-5.68,8.38-2.41,2.71-2.05,4.89.07,7.3a2.5,2.5,0,0,0,1,1.64l4.17,7.24,2.64,4.66a11.32,11.32,0,0,0,1.92,3.22c1.29,1.83.28,2.54-1.41,2.92a46.17,46.17,0,0,0-16.3,6.63,22.46,22.46,0,0,0-6.8,5.29l-.83.69c-1.29,1.37-1.8.06-2.46-.71-2.84-5.24-5.79-10.42-9.05-15.41a23.07,23.07,0,0,0-3-5.24l-.06-2.06,0-1.58,0-1c0-1.4,0-2.8,0-4.2a44.06,44.06,0,0,1-.36-8.74h0c1.13-2.87.25-5.79.51-8.82a1.79,1.79,0,0,0-1.19,1.26,51.55,51.55,0,0,0-5.2,6.86c-2,2.7-4,5.4-6.05,8.07-1.49,2-3.22,3.74-4.3,6a3,3,0,0,0-.62,3.28,35,35,0,0,0,0,6.63,35.16,35.16,0,0,0,0,7.81,42.56,42.56,0,0,0,0,8.37,27,27,0,0,0-.06,7.35,43,43,0,0,0,.05,8.26,26.23,26.23,0,0,0,0,7.35,38.19,38.19,0,0,0,0,8.21c-.36,1.91-.72,3.81-1.07,5.72-2.59,5.86-7,9.33-13.4,10-2.68.22-5.2-.57-7.72-1.3a.25.25,0,0,0-.31-.15,25.08,25.08,0,0,1-6.59-5.9l-1-2.12a28.69,28.69,0,0,1-1.18-6.75V385.33c0-2.59,0-5.18,0-7.76V362l0-7.86v-7.76l.15-5.22a99.34,99.34,0,0,0,6.45-10.27c1-1.32,2.15-2.54,2.39-4.28a7.72,7.72,0,0,0,2.62-3.66c1.7-2.32,3.69-4.54,2.87-7.78,0-2.63,0-5.25,0-7.88a52.84,52.84,0,0,0,0-8.25v-7.82l-5,8.26-.79,1.25a37.73,37.73,0,0,0-4.12,6.4c-1.15.9-1.32,3-3.37,2.8a3,3,0,0,1-1.2-2.65V251.56l0-4.69.14-2.07,1.53-5.74c3.48-6.15,8.26-10.78,15.12-13l7.83-.67h7.75l7.88,0,8.12,0,7.5,0h23.35l7.88,0h7.74l7.88,0h7.74l7.87,0,8.11,0,1.75,0,4.74,0,.62,0a61.62,61.62,0,0,0,8.91,0l7.11.06h7.74l7.88,0H506c2.76.48,2.71-2.08,3.73-3.48q5.59-7.84,10.52-16.14a3.47,3.47,0,0,0,1.36-2.13,28,28,0,0,0,3.9-6,27.74,27.74,0,0,0,4-6.14,2,2,0,0,0,1-1.4c2.13-1.86.59-2.85-.9-3.86a23.57,23.57,0,0,0-4.08-4.09,18.22,18.22,0,0,0-3.73-3.71,101.61,101.61,0,0,0-7.86-7.81l-.38-.4a1.86,1.86,0,0,0-1.19-1.13l-1.65-2.43c0-2.12,1-3.51,3.18-3.82l7.74,0h6.78c-.7-1.49-1.27-2.72-1.83-3.94l-2.4-7.88-1.38-7.85q-.07-4.15-.14-8.29c.32-2.45.65-4.89,1-7.34q1-4.14,2-8.27c1.07-2.45,2.15-4.89,3.22-7.34.4-.58.89-1.13.67-1.93,1.87-1.6,2.73-3.9,4.1-5.84L537.74,99a2.64,2.64,0,0,0,1.69-1.63l5.73-4.9a18.74,18.74,0,0,0,4.14-3l4.11-2.34,6.24-2.8C562.06,83.46,564.69,83.26,566.91,81.85Z" transform="translate(-240 -44)"/><path class="cls-2" d="M357.63,458.75h-7.28c-.71-1.81-2.67-2.13-3.92-3.28a12,12,0,0,1-3.46-7.15c.29-2.94.88-5.78,2.82-8.14l4.69-3.2c5.08-2.26,10.4-4.05,15-7.26a18.72,18.72,0,0,0,5.87-4.66l1.86-1.74c2-1.9,4.1-3.8,4.83-6.66a31.4,31.4,0,0,0,2.39-7.87,50.48,50.48,0,0,0,2.12-7.82l2.53-7.84a84.8,84.8,0,0,1,8.7-16l-.08.09.72-.8a8,8,0,0,0,2.28-2.53l4.44-4.16a3.19,3.19,0,0,0,1.8-1.4,63.15,63.15,0,0,1,17.67-8l7.29-1.49c2.66-.29,5.34-.45,7.81-1.63,1.3-.44,2.5-1,2.6-2.63a4.64,4.64,0,0,0,.83-3.67,34.76,34.76,0,0,0-3-10.36,3.73,3.73,0,0,0-.5-2.09c-.54-2.62-1.09-5.25-1.63-7.87.33-2.29-.75-4.95,1.71-6.71,2.82.2,5,2.1,7.61,2.86a13.74,13.74,0,0,0,8,2.18c3.59-.46,6.56-1.8,7.87-5.51a4.93,4.93,0,0,0,2.74-1.66,4.81,4.81,0,0,1,4.93-1.34l1.83,2.37c.43,2.63.86,5.25,1.28,7.88a36.49,36.49,0,0,0,1.23,7.76c.33,2.63,1.08,5.3-.75,7.71-3.31,3-4.88,6.55-4,11a13.35,13.35,0,0,0,1.11,4.73q.41,3.89.83,7.76c-.5,2.31-.55,4.63-1.68,6.91-1.56,3.15-4.27,5.3-6.07,8.18a4.23,4.23,0,0,0-1.66,1.89,14.24,14.24,0,0,0-4.13,6.41,21,21,0,0,0-2.4,7.84,25.78,25.78,0,0,0-.61,7.83c-.05,2.62-.36,5.26.49,7.82a14,14,0,0,0,3,8,13.83,13.83,0,0,0,3.15,4.06l3.18,3.57c.41,2.63.18,5-2.5,6.44-3.19.25-5.44-1.73-7.86-3.31L448,432l-4.07-5.9-.72-1.82-1.41-7.57c-.74-3.42-2.1-4.42-6.15-4.54-3-.31-4.26,1.83-5.61,3.87a7.12,7.12,0,0,0-2.18,3,15.83,15.83,0,0,0-3.11,5.3c-.3.5-.64,1-.91,1.51-1.77,3.57-1.77,3.58,2.18,3.92.68.06,1.36.06,2,.09,2,.52,4.08.73,5,3,.43,4.48.43,4.48-4.08,4.55-.34,0-.68.06-1,.09h-7.85l-7.76,0-7.86,0H396.7l-7.6.06a4.45,4.45,0,0,1-2.85-1.29,5,5,0,0,0-5.17-1.44c-2.49-.45-4.64.57-6.78,1.6a95.52,95.52,0,0,0-16.79,7,9.47,9.47,0,0,0-4.6,3.82c-1.67,1.81-1.08,3.63,0,5.41,1.28,2.05,3.15,3.6,4.75,5.38Z" transform="translate(-240 -44)"/><path class="cls-2" d="M516.33,291.63c-.77-2.46-.81-5.16-2.5-7.29.63-1.48-1.25-2.94-.05-4.42l7.86-.34a42,42,0,0,0,7.77-.34l7.85-.21a47.18,47.18,0,0,0,7.79-.37l7.3-.23c3.55.57,1.89-2.66,2.88-3.95.38-2.09.77-4.19,1.16-6.28l.87-4,2.87,5.57a22.67,22.67,0,0,0,2.48,6.32,45.23,45.23,0,0,0,3.24,7.74,25.79,25.79,0,0,0,2.09,5.21l1.41,3.31a48,48,0,0,0,3.28,7.62,34,34,0,0,0,2.81,6.87,53.48,53.48,0,0,0,3.46,8.23,56.5,56.5,0,0,0,3.19,7.78,7,7,0,0,0,1.2,2.67,26.89,26.89,0,0,0,2.18,5.26,17.1,17.1,0,0,0,2.2,5.12l.47,1.09a.81.81,0,0,0,.43,1,32.08,32.08,0,0,0,2.71,6.79,1.84,1.84,0,0,0,.65,1.51l3.33,8c.73,1.83,1.35,3.72,2.22,5.48.54,1.07.07,2.71,1.69,3.2-.52,2.57.91,4.63,1.79,6.82a36.9,36.9,0,0,0,2.41,7.71,33,33,0,0,0,2.38,7.19,22.28,22.28,0,0,0,1.84,5.8,5.28,5.28,0,0,0,.83,2.67,52.87,52.87,0,0,0,2.55,7.88,37.09,37.09,0,0,0,2.39,7.2,16.67,16.67,0,0,0,1.42,4.68c.47,1.45,1,2.9,1.43,4.35l2.27,7.08c.87,3.31.88,3.32,3.74,1.64a12.94,12.94,0,0,0,1.2-.9l.35-.56c3.93-1.7,6.75-4.75,9.48-7.9,2.07-1.42,2.71-4.2,5.09-5.31.13,1.74.26,3.49.4,5.24l-.39,7.31L638.2,426c-.66,2.09-1.31,4.18-2,6.27a22.64,22.64,0,0,1-13.12,11.89,43.84,43.84,0,0,0-7.77,0,47.85,47.85,0,0,0-7.85,0,42.91,42.91,0,0,0-7.77,0h-7.84a42.12,42.12,0,0,0-7.78,0h-7.84a43.83,43.83,0,0,0-7.77,0h-7.85a42.91,42.91,0,0,0-7.77,0,47.73,47.73,0,0,0-7.84,0,43,43,0,0,0-7.78,0h-7.84c-1.1,0-2.19-.13-3.28-.14-2.79,0-3-.32-1.86-2.8.18-.38.39-.74.58-1.11l4.64-3.59,7.76-2.78,4.66-1a6.8,6.8,0,0,0,3.15-.58c1.44-.14,2.88-.31,4.32-.42.6-.05.86-.25.92-.91.22-2.19.52-4.37.8-6.56q1.13-3.83,2.27-7.65l.17-.48,4.53-6.8,3.07-3.21a27.09,27.09,0,0,0,4.77-3.9l2.65-1.6,7.75-3.92c2.24-.79,4.47-1.63,6.73-2.36,1.15-.37,1-.73.14-1.24-1.11-4-1.31-4.07-5-2.88-.64.21-1.25.51-1.87.77a17.5,17.5,0,0,0-4.7,1.74,9.77,9.77,0,0,0-3.25,1.6c-6.15,2.88-11.57,6.69-15.56,12.31-.87.46-.95-.17-1.13-.77-.58-1.88-1.19-3.74-1.79-5.6a36.26,36.26,0,0,0-2.15-7.14,21.52,21.52,0,0,0-1.49-5.31c-1.51,4.7-2.87,8.95-4.24,13.2-.85,2.67-1.69,5.35-2.54,8A48,48,0,0,0,537,416.4l-.28,1.22a32.81,32.81,0,0,0-2.16,6.18c-.5,1.43-1.07,2.85-1.47,4.31a5,5,0,0,1-3.49,3.82c-4.15,1.56-8.2,3.6-10.26,8-.23.33-.65.66-.67,1-.17,2.66-1.54,3.63-4.09,3.1a2.22,2.22,0,0,0-.75.1c-4.31-.33-4.31-.33-3-3.55l3.17-3.49c2-1.07,4.3-1.93,4-4.91l1.58-7.77a44.77,44.77,0,0,0,1.6-7.83c1.16-5.35,2.6-10.63,3.31-16.07a32.33,32.33,0,0,0,1.54-7.28,55,55,0,0,0,1.71-7.84l1.65-7.89q.38-3.09.76-6.18c1.59-2.92,1.87-6.19,2.43-9.38q.79-3.92,1.6-7.84a72,72,0,0,0,1.93-9.34,27.21,27.21,0,0,0,1.27-6.25,5.78,5.78,0,0,0,.44-2.63,99.28,99.28,0,0,0,2.85-13.1c.3-1.84,1.9-3.75.24-5.54-3.35-3.62-6.63-7.32-10.82-10l-.87-.62c-2.06-1.92-4.11-3.84-6.93-4.62-.87-1.47-2.41-2.08-3.76-2.94a1,1,0,0,0-.24-.37c0-.27-.1-.53-.16-.79A27.44,27.44,0,0,0,516.33,291.63Z" transform="translate(-240 -44)"/><path class="cls-2" d="M355.07,96.42c-1.89-3.61,1.39-2,2.58-2.56l7.67,1.21a7.8,7.8,0,0,0,2.93.93A57.75,57.75,0,0,1,381,103.9a1.4,1.4,0,0,0,1,.94c.92.91,1.84,1.82,2.75,2.74,5.94,6,10.56,13,14.9,20.14.7,1.44,1.35,2.91,2.13,4.31.53,1,.85,1.83,0,2.75-1.61.83-3.45.61-5.14,1.1-2.7-3.1-5.37-6.23-9-8.28-2.47-2.18-5.23-3.46-8.63-2.72-2.27.34-4.65.39-6.36,2.28-.95-2.59-1.47-5.37-3.25-7.6a18.62,18.62,0,0,0-3.37-6l-.94-1.65a36.31,36.31,0,0,0-4.73-7.21,13,13,0,0,0-2.73-4.2l0,0L356.63,99A5.26,5.26,0,0,0,355.07,96.42Z" transform="translate(-240 -44)"/><path class="cls-2" d="M447.73,104.82a13,13,0,0,0,3.73-3.3c.44-.41.89-.82,1.28,0s.8,1.78,1.19,2.67l2.3,7.67,1,7.92c-.24,2.6-.47,5.2-.71,7.8a50.12,50.12,0,0,1-3.33,7.8,5.87,5.87,0,0,0-1.67,2.44l-5.4,4.81a4.46,4.46,0,0,0-2.07,1.49l-9.46,4.13c-1.78.49-4.2-.06-4.5,2.81l-2.1,2.77c-1.77.6-3.66,0-5.49.58,1.7.33,3.14,1.42,4.91,1.34,2.68,1.26,5.49,1,8.3.75l7.9-.44,7.72-.51,7.92-.59c.56.16,1.53-.12,1.09,1.09-.35,1-.61,2-.91,2.93-.29.31-.66.6-.3,1.09l-3.87,6.74q-2,2.08-3.92,4.19l-4.74,3.33-3.07,1.42-7.75,1.89-7.85,0-7.78-1.17c-3.95-1.45-8.09-2.38-11.91-4.38,1.49-1.59,4.42-.46,5.14-3.11l-8.88-.7c-5.74-.79-10.75-3.37-15.59-6.38l-3.13-2.56L380.57,153c0-.4-.08-.73-.53-.82-.72-2-1.4-4.08-2.17-6.09-.38-1,.05-2.34-1.3-2.88-.32-2-1.79-3-3.31-4a17.89,17.89,0,0,0-7.84-3.71.94.94,0,0,0-1-.4c-.54-.22-1.22-.14-1.61-.81l2.68-1.82c4.76-2.15,9.37-4.7,14.62-5.56,2,0,3.74,1.1,5.58,1.75a109,109,0,0,1,9.25,8.86,1.58,1.58,0,0,0,1.79.6,12.84,12.84,0,0,0,6.21-1.41c4.31-2,4.83-3.22,3.32-7.66-.13-.41-.21-.84-.31-1.25,0-2.11,1.22-3.31,3-4,1.11-.44,2.26-.74,3.39-1.1a17.15,17.15,0,0,0,7.91-2.61,34.81,34.81,0,0,0,8.18-3.81,23.72,23.72,0,0,0,6.35-3.31c.44-.1.88-.2,1-.73a23.38,23.38,0,0,0,7.41-4.24A15.46,15.46,0,0,0,447.73,104.82Z" transform="translate(-240 -44)"/></svg>