<svg xmlns="http://www.w3.org/2000/svg" xmlns:xlink="http://www.w3.org/1999/xlink" width="254" height="163" viewBox="0 0 254 163"><defs><clipPath id="b"><rect width="254" height="163"/></clipPath></defs><g id="a" clip-path="url(#b)"><rect width="254" height="163" fill="#fff"/><g transform="translate(23.169 56.499)"><path d="M12.045,39.021c6.587,0,11.945-6.128,11.945-13.538a14.719,14.719,0,0,0-3.5-9.53A16.842,16.842,0,0,0,21,12.045C21,5.458,16.985,0,12.045,0S2.986,5.458,2.986,12.045A16.861,16.861,0,0,0,3.5,15.953,14.394,14.394,0,0,0,0,25.483C0,32.893,5.458,39.021,12.045,39.021Zm0,0" transform="translate(0 0)" fill="#00d364"/><path d="M1.493,375.373h47.98a1.493,1.493,0,1,0,0-2.986H47.98s-9.128.068-12.045,0H29.962v-6.3a13.647,13.647,0,0,1-2.986.331,13.2,13.2,0,0,1-2.986-.355v6.327H15.031v-6.3a13.642,13.642,0,0,1-5.973,0v6.3H1.493a1.493,1.493,0,1,0,0,2.986Zm43.5-2.986h0Z" transform="translate(0 -324.407)" fill="#00d364"/><path d="M216.913,15.242a17.618,17.618,0,0,1,3.285,10.24,17.364,17.364,0,0,1-4.959,12.288,10.745,10.745,0,0,0,4.959,1.249c6.587,0,11.945-6.128,11.945-13.538a14.394,14.394,0,0,0-3.5-9.53,16.858,16.858,0,0,0,.516-3.908C229.157,5.458,225.138,0,220.2,0a7.682,7.682,0,0,0-5.616,2.714,17.713,17.713,0,0,1,2.331,12.528Zm0,0" transform="translate(-193.222 0)" fill="#00d364"/></g><path d="M42.371,44.035a.863.863,0,0,0-.766-.276,4.743,4.743,0,0,0-.607.049.763.763,0,0,1-.1.008.324.324,0,0,1-.076-.008,1.711,1.711,0,0,1,.265-.548,6.017,6.017,0,0,0,.364-.671.342.342,0,0,0,.029-.313.165.165,0,0,0-.142-.073c-.157,0-.428.191-.856.5-.19.139-.436.318-.578.4a7.767,7.767,0,0,1,.323-.723c.387-.8.6-1.26.373-1.408a.218.218,0,0,0-.123-.036c-.255,0-.613.408-1.17,1.077-.181.217-.354.428-.5.575.076-.3.287-.874.413-1.218.25-.682.258-.7.209-.771l-.037-.031h-.06a.15.15,0,0,0-.134.074c-.125.188-.858,1.065-1.707,2.1-1.061,1.3-2.382,2.916-3.144,3.915a28.858,28.858,0,0,1-3.077,3.079,52.99,52.99,0,0,0-4.583,4.58,18.977,18.977,0,0,0-2.181,2.968,2.261,2.261,0,0,0-.864-1.09c-.288-.16-.292-.238-.305-.567,0-.084-.007-.18-.017-.293a.676.676,0,0,0-.5-.605c-.141-.06-.229-.1-.268-.192a2.214,2.214,0,0,1-.082-.5c-.05-.483-.106-1.03-.48-1.095-.253-.044-.295-.328-.326-.725a1,1,0,0,0-.122-.521.234.234,0,0,0-.188-.092.77.77,0,0,0-.4.2c-.14.1-.3.222-.381.168s-.05-.29-.023-.519a1.874,1.874,0,0,0-.077-1.047.3.3,0,0,0-.266-.2c-.23,0-.438.309-.658.635a3.736,3.736,0,0,1-.224.31,4.423,4.423,0,0,1,.069-.646c.1-.68.154-1.138-.075-1.3a.256.256,0,0,0-.151-.05c-.223,0-.407.292-.6.6a2.124,2.124,0,0,1-.31.425,2.377,2.377,0,0,1,.1-.519c.127-.48.286-1.078-.125-1.19a.182.182,0,0,0-.048-.006c-.314,0-1.005,1.194-2.054,3.55a18.325,18.325,0,0,0-1.327,3.222V56.6l-.146,1.622a7.843,7.843,0,0,1-.141.951,1.618,1.618,0,0,0,0,.581c-.124.493,2.41-1.162,0,0A15.626,15.626,0,0,0,15.743,63.3a13.19,13.19,0,0,1,.925,1.676,2.055,2.055,0,0,1-.876.094c-.824,0-1.977-.1-2.741-.165l-.318-.027c-1.117-.093-4.21-.712-4.973-.911a6.7,6.7,0,0,1-1.248-.624,5.946,5.946,0,0,0-1.981-.876c-.118-.009-.217-.013-.3-.013-.519,0-.726.156-1.279.572-.123.092-.264.2-.431.32a23.27,23.27,0,0,1-2.4,1.548c-.093.054-.131.118-.111.19.036.135.187.136.689.14a8.1,8.1,0,0,1,.926.043,6.437,6.437,0,0,1,.828.192,5.715,5.715,0,0,0,1.89.287c.309-.019.588-.034.886-.034a11.561,11.561,0,0,1,3.242.537,29.67,29.67,0,0,1,6.917,2.9c.179.136.355.289.559.465a15.591,15.591,0,0,0,5.66,3.169,14.8,14.8,0,0,0,5.143.868,25.91,25.91,0,0,0,3.148-.225c.468-.055.873-.1,1.178-.112a19.176,19.176,0,0,0,5.28-.772,6.133,6.133,0,0,1,3.023-.482c.046,0,.088,0,.128,0a.634.634,0,0,0,.565-.216c.157-.23.03-.558-.064-.8-.013-.034-.026-.067-.041-.1a1.048,1.048,0,0,1,.38-.118c.331-.068.706-.145.771-.448a.18.18,0,0,0-.032-.143c-.16-.225-1-.35-2.863-.581a14.2,14.2,0,0,1-3.032-.543,4.7,4.7,0,0,0-.885-.361,2.512,2.512,0,0,1-1.612-1.089c-.4-.672,1.054-2.378,2.113-3.623a14.745,14.745,0,0,0,1.251-1.59,51.009,51.009,0,0,0,2.339-7c.071-.248.122-.428.148-.514a4.219,4.219,0,0,1,1.474-1.923c.6-.376.583-.814.567-1.369,0-.094-.005-.192-.005-.295a2.179,2.179,0,0,1,1.036-1.623c.627-.5.682-1.276.155-2.179-.342-.587.047-1.49.391-2.286.071-.165.141-.328.2-.484A.784.784,0,0,0,42.371,44.035Z" transform="translate(32.353 12.158)"/><text transform="translate(82 78)" fill="#00d364" font-size="27" font-family="Montserrat-Bold, Montserrat" font-weight="700"><tspan fill="#000"><tspan x="0" y="0">Sri Lankan</tspan></tspan><tspan font-family="Montserrat-ExtraBold, Montserrat" font-weight="800"><tspan x="0" y="27">Parks</tspan></tspan></text></g></svg>