<?xml version="1.0" standalone="no"?>
<!DOCTYPE svg PUBLIC "-//W3C//DTD SVG 20010904//EN"
 "http://www.w3.org/TR/2001/REC-SVG-20010904/DTD/svg10.dtd">
<svg version="1.0" xmlns="http://www.w3.org/2000/svg"
 width="150.000000pt" height="179.000000pt" viewBox="0 0 150.000000 179.000000"
 preserveAspectRatio="xMidYMid meet">

<g transform="translate(0.000000,179.000000) scale(0.100000,-0.100000)"
fill="#000000" stroke="none">
<path d="M688 1523 c-1 -5 -19 -16 -38 -26 -60 -31 -74 -40 -145 -103 -39 -33
-83 -71 -99 -85 -15 -13 -55 -49 -88 -80 -56 -51 -61 -59 -65 -106 -8 -75 3
-113 42 -156 19 -21 35 -42 35 -47 0 -5 24 -29 53 -54 28 -25 84 -84 122 -130
39 -47 74 -85 78 -86 4 0 18 -11 30 -23 35 -38 61 -47 131 -47 l66 0 77 71
c43 39 82 78 87 87 5 9 44 53 87 97 116 119 157 171 169 214 10 39 5 90 -13
126 -11 23 -98 104 -110 105 -5 0 -28 20 -50 44 -54 56 -211 174 -243 182 -13
3 -24 10 -24 15 0 11 -97 12 -102 2z m-8 -195 c0 -7 12 -21 26 -31 29 -22 58
-15 80 19 19 28 43 31 65 7 24 -27 63 -59 81 -66 9 -3 24 -18 34 -32 15 -23
15 -30 3 -68 -8 -23 -21 -49 -31 -59 -9 -9 -24 -30 -32 -47 -9 -16 -20 -32
-24 -35 -10 -6 -62 92 -62 116 0 9 16 26 35 38 51 32 45 49 -12 34 -15 -4 -27
-19 -34 -44 -11 -35 -8 -44 30 -127 22 -50 41 -96 41 -103 0 -19 -49 -80 -63
-80 -20 1 -67 48 -67 67 0 10 9 24 20 31 39 24 25 42 -35 42 -60 0 -65 -5 -35
-38 28 -30 25 -55 -12 -82 l-32 -23 -28 33 c-15 19 -28 42 -28 52 0 10 19 56
41 102 35 70 40 90 35 121 -8 38 -33 55 -84 55 -25 0 -23 -3 21 -31 53 -35 57
-50 26 -109 -35 -67 -51 -64 -91 13 -60 115 -58 134 24 192 29 21 57 44 61 51
10 17 47 18 47 2z m94 -469 c30 -24 33 -37 9 -55 -32 -24 -103 -9 -103 21 0
13 42 55 55 55 7 0 24 -9 39 -21z"/>
<path d="M400 441 c0 -5 4 -11 9 -13 13 -4 -16 -140 -32 -150 -7 -4 11 -7 38
-7 28 1 43 3 34 6 -11 3 -14 12 -11 33 3 24 9 30 28 30 55 0 97 43 81 84 -9
22 -147 39 -147 17z m95 -46 c0 -24 -5 -31 -24 -33 -21 -3 -23 -1 -18 20 4 12
7 29 7 36 0 8 8 12 18 10 12 -2 17 -13 17 -33z"/>
<path d="M637 428 c-8 -13 -31 -50 -52 -83 -21 -33 -43 -63 -49 -67 -6 -4 2
-8 17 -8 16 0 26 4 23 9 -13 21 7 41 40 41 37 0 58 -25 33 -41 -9 -6 0 -9 29
-9 30 0 41 4 36 11 -4 7 -14 46 -24 87 -17 82 -31 96 -53 60z m12 -85 c1 -7
-10 -13 -24 -13 -30 0 -30 3 -7 42 17 29 17 29 24 6 3 -13 6 -29 7 -35z"/>
<path d="M770 441 c0 -5 4 -11 9 -13 13 -4 -16 -140 -32 -150 -7 -4 11 -7 38
-7 28 1 43 3 34 6 -12 3 -15 11 -10 35 9 46 28 45 42 -1 10 -35 16 -41 40 -41
l27 0 -15 40 c-9 22 -21 40 -27 40 -6 0 0 6 14 13 18 9 25 21 25 42 0 23 -6
31 -25 36 -37 10 -120 10 -120 0z m105 -21 c10 -17 -5 -49 -26 -55 -27 -9 -30
-4 -23 33 6 32 35 45 49 22z"/>
<path d="M970 441 c0 -5 4 -11 9 -13 13 -4 -16 -140 -32 -150 -7 -4 11 -7 38
-7 28 1 43 3 34 6 -16 4 -17 18 -3 62 3 8 15 -2 34 -28 25 -34 36 -41 63 -41
17 0 27 4 21 8 -6 4 -25 27 -43 52 l-32 45 33 27 c18 15 38 28 45 28 6 0 15 5
18 10 4 6 -8 10 -30 10 -26 0 -35 -4 -33 -14 3 -12 -61 -71 -68 -63 -8 8 11
57 22 57 8 0 14 5 14 10 0 6 -20 10 -45 10 -25 0 -45 -4 -45 -9z"/>
</g>
</svg>
